<svg width="1920" height="2000" viewBox="0 0 1920 2000" fill="none" xmlns="http://www.w3.org/2000/svg">
<g clip-path="url(#clip0_1020_247)">
<path opacity="0.010101" d="M663.414 725.651L618.266 -567.216C617.966 -575.81 623.234 -583.62 631.315 -586.562L1846.95 -1029.02C1855.03 -1031.96 1864.09 -1029.36 1869.38 -1022.59L2665.84 -3.17135C2671.13 3.60519 2671.46 13.0202 2666.65 20.1495L1943.25 1092.64C1938.44 1099.77 1929.59 1102.99 1921.32 1100.62L677.78 744.04C669.514 741.669 663.714 734.246 663.414 725.651Z" stroke="url(#paint0_linear_1020_247)" stroke-opacity="0.2" stroke-width="0.3"/>
<path opacity="0.020202" d="M644.736 718.547L622.2 -572.498C622.05 -581.096 627.454 -588.813 635.585 -591.613L1856.48 -1012C1864.61 -1014.8 1873.62 -1012.05 1878.79 -1005.18L2655.88 26.0536C2661.06 32.9215 2661.22 42.3407 2656.29 49.385L1915.66 1107.11C1910.73 1114.15 1901.82 1117.22 1893.6 1114.71L658.779 737.183C650.555 734.669 644.886 727.145 644.736 718.547Z" stroke="url(#paint1_linear_1020_247)" stroke-opacity="0.2" stroke-width="0.3"/>
<path opacity="0.030303" d="M626.375 711.298L626.375 -577.53C626.375 -586.129 631.913 -593.751 640.091 -596.408L1865.84 -994.678C1874.02 -997.335 1882.98 -994.424 1888.03 -987.467L2645.59 55.2167C2650.64 62.1738 2650.64 71.5946 2645.59 78.5517L1888.03 1121.24C1882.98 1128.19 1874.02 1131.1 1865.84 1128.45L640.091 730.177C631.912 727.519 626.375 719.898 626.375 711.298Z" stroke="url(#paint2_linear_1020_247)" stroke-opacity="0.2" stroke-width="0.3"/>
<path opacity="0.040404" d="M608.334 703.915L630.785 -582.303C630.935 -590.902 636.605 -598.425 644.828 -600.94L1875.03 -977.051C1883.26 -979.565 1892.16 -976.498 1897.1 -969.454L2634.95 84.3152C2639.89 91.3595 2639.72 100.779 2634.55 107.647L1860.36 1135.02C1855.19 1141.89 1846.18 1144.65 1838.05 1141.85L621.718 723.03C613.587 720.23 608.184 712.513 608.334 703.915Z" stroke="url(#paint3_linear_1020_247)" stroke-opacity="0.2" stroke-width="0.3"/>
<path opacity="0.050505" d="M590.613 696.398L635.424 -586.82C635.724 -595.415 641.524 -602.838 649.791 -605.209L1884.05 -959.127C1892.32 -961.498 1901.17 -958.276 1905.98 -951.146L2623.98 113.338C2628.79 120.468 2628.46 129.883 2623.17 136.659L1832.66 1148.47C1827.36 1155.24 1818.31 1157.84 1810.23 1154.9L603.662 715.743C595.581 712.802 590.313 704.992 590.613 696.398Z" stroke="url(#paint4_linear_1020_247)" stroke-opacity="0.2" stroke-width="0.3"/>
<path opacity="0.0606061" d="M573.211 688.752L640.284 -591.079C640.734 -599.667 646.663 -606.988 654.97 -609.214L1892.89 -940.913C1901.19 -943.138 1909.99 -939.762 1914.67 -932.55L2612.67 142.279C2617.36 149.491 2616.87 158.899 2611.45 165.582L1804.92 1161.56C1799.51 1168.25 1790.41 1170.68 1782.38 1167.6L585.921 708.322C577.892 705.24 572.761 697.339 573.211 688.752Z" stroke="url(#paint5_linear_1020_247)" stroke-opacity="0.2" stroke-width="0.3"/>
<path opacity="0.0707071" d="M556.135 680.984L645.365 -595.072C645.965 -603.651 652.021 -610.868 660.365 -612.948L1901.54 -922.408C1909.88 -924.488 1918.62 -920.959 1923.18 -913.667L2601.03 171.134C2605.59 178.426 2604.93 187.824 2599.41 194.412L1777.17 1174.31C1771.64 1180.9 1762.5 1183.18 1754.53 1179.96L568.5 700.774C560.527 697.552 555.535 689.563 556.135 680.984Z" stroke="url(#paint6_linear_1020_247)" stroke-opacity="0.2" stroke-width="0.3"/>
<path opacity="0.0808081" d="M539.383 673.108L650.66 -598.793C651.409 -607.36 657.59 -614.47 665.969 -616.404L1910.01 -903.612C1918.38 -905.547 1927.06 -901.866 1931.49 -894.495L2589.06 199.902C2593.49 207.273 2592.67 216.658 2587.03 223.148L1749.4 1186.73C1743.76 1193.22 1734.58 1195.34 1726.66 1191.98L551.402 693.11C543.486 689.75 538.634 681.675 539.383 673.108Z" stroke="url(#paint7_linear_1020_247)" stroke-opacity="0.2" stroke-width="0.3"/>
<path opacity="0.0909091" d="M522.961 665.12L656.166 -602.245C657.065 -610.797 663.369 -617.798 671.781 -619.586L1918.28 -884.538C1926.69 -886.325 1935.3 -882.494 1939.6 -875.046L2576.77 228.569C2581.07 236.017 2580.08 245.386 2574.33 251.776L1721.63 1198.8C1715.87 1205.19 1706.66 1207.15 1698.8 1203.65L534.629 685.328C526.772 681.831 522.062 673.672 522.961 665.12Z" stroke="url(#paint8_linear_1020_247)" stroke-opacity="0.2" stroke-width="0.3"/>
<path opacity="0.10101" d="M506.862 657.027L661.871 -605.424C662.919 -613.96 669.344 -620.849 677.786 -622.49L1926.35 -865.186C1934.79 -866.827 1943.33 -862.846 1947.5 -855.325L2564.14 257.132C2568.31 264.653 2567.16 274.004 2561.3 280.293L1693.84 1210.53C1687.98 1216.81 1678.73 1218.61 1670.94 1214.98L518.175 677.436C510.381 673.802 505.814 665.562 506.862 657.027Z" stroke="url(#paint9_linear_1020_247)" stroke-opacity="0.2" stroke-width="0.3"/>
<path opacity="0.111111" d="M491.093 648.843L667.776 -608.32C668.973 -616.836 675.517 -623.612 683.986 -625.106L1934.22 -845.555C1942.69 -847.048 1951.15 -842.919 1955.19 -835.326L2551.19 285.592C2555.23 293.185 2553.92 302.514 2547.95 308.7L1666.06 1221.91C1660.09 1228.1 1650.81 1229.74 1643.08 1225.97L502.049 669.447C494.319 665.677 489.897 657.359 491.093 648.843Z" stroke="url(#paint10_linear_1020_247)" stroke-opacity="0.2" stroke-width="0.3"/>
<path opacity="0.121212" d="M475.658 640.563L673.877 -610.94C675.222 -619.434 681.884 -626.096 690.377 -627.441L1941.88 -825.66C1950.38 -827.005 1958.77 -822.728 1962.67 -815.066L2537.93 313.932C2541.83 321.594 2540.36 330.899 2534.28 336.98L1638.3 1232.96C1632.22 1239.04 1622.91 1240.51 1615.25 1236.61L486.252 661.355C478.59 657.451 474.313 649.057 475.658 640.563Z" stroke="url(#paint11_linear_1020_247)" stroke-opacity="0.2" stroke-width="0.3"/>
<path opacity="0.131313" d="M460.546 632.204L680.157 -613.273C681.651 -621.742 688.427 -628.286 696.943 -629.483L1949.33 -805.494C1957.84 -806.691 1966.16 -802.268 1969.93 -794.539L2524.33 342.158C2528.1 349.887 2526.47 359.165 2520.28 365.138L1610.54 1243.67C1604.35 1249.64 1595.02 1250.95 1587.43 1246.91L470.776 653.178C463.183 649.14 459.053 640.673 460.546 632.204Z" stroke="url(#paint12_linear_1020_247)" stroke-opacity="0.2" stroke-width="0.3"/>
<path opacity="0.141414" d="M445.776 623.766L686.629 -615.319C688.27 -623.761 695.16 -630.186 703.696 -631.234L1956.56 -785.067C1965.1 -786.115 1973.34 -781.548 1976.97 -773.754L2510.43 370.257C2514.07 378.051 2512.27 387.299 2505.98 393.164L1582.81 1254.03C1576.52 1259.9 1567.17 1261.05 1559.65 1256.88L455.638 644.914C448.116 640.745 444.135 632.207 445.776 623.766Z" stroke="url(#paint13_linear_1020_247)" stroke-opacity="0.2" stroke-width="0.3"/>
<path opacity="0.151515" d="M431.332 615.252L693.272 -617.08C695.06 -625.492 702.061 -631.795 710.613 -632.694L1963.58 -764.386C1972.13 -765.285 1980.29 -760.574 1983.78 -752.718L2496.22 398.224C2499.71 406.08 2497.76 415.295 2491.36 421.049L1555.1 1264.06C1548.71 1269.82 1539.34 1270.8 1531.9 1266.5L440.823 636.57C433.376 632.27 429.544 623.664 431.332 615.252Z" stroke="url(#paint14_linear_1020_247)" stroke-opacity="0.2" stroke-width="0.3"/>
<path opacity="0.161616" d="M417.225 606.675L700.089 -618.546C702.024 -626.925 709.134 -633.105 717.701 -633.855L1970.37 -743.449C1978.93 -744.198 1987.01 -739.346 1990.37 -731.43L2481.69 426.058C2485.05 433.974 2482.93 443.153 2476.44 448.795L1527.43 1273.76C1520.94 1279.4 1511.56 1280.22 1504.19 1275.79L426.343 628.155C418.971 623.726 415.29 615.055 417.225 606.675Z" stroke="url(#paint15_linear_1020_247)" stroke-opacity="0.2" stroke-width="0.3"/>
<path opacity="0.171717" d="M403.447 598.04L707.067 -619.716C709.148 -628.06 716.364 -634.116 724.943 -634.715L1976.92 -722.263C1985.5 -722.862 1993.49 -717.87 1996.71 -709.897L2466.86 453.752C2470.08 461.725 2467.8 470.866 2461.21 476.394L1499.8 1283.12C1493.21 1288.64 1483.81 1289.3 1476.52 1284.74L412.188 619.676C404.895 615.118 401.366 606.384 403.447 598.04Z" stroke="url(#paint16_linear_1020_247)" stroke-opacity="0.2" stroke-width="0.3"/>
<path opacity="0.181818" d="M390.009 589.348L714.211 -620.592C716.437 -628.899 723.758 -634.828 732.346 -635.278L1983.25 -700.835C1991.84 -701.285 1999.74 -696.154 2002.82 -688.126L2451.72 481.298C2454.8 489.326 2452.37 498.426 2445.68 503.838L1472.21 1292.14C1465.53 1297.55 1456.12 1298.04 1448.91 1293.36L398.372 611.133C391.159 606.449 387.783 597.654 390.009 589.348Z" stroke="url(#paint17_linear_1020_247)" stroke-opacity="0.2" stroke-width="0.3"/>
<path opacity="0.191919" d="M376.903 580.61L721.507 -621.167C723.878 -629.434 731.301 -635.234 739.896 -635.534L1989.34 -679.165C1997.94 -679.466 2005.75 -674.198 2008.69 -666.117L2436.28 508.695C2439.23 516.776 2436.63 525.832 2429.85 531.126L1444.67 1300.83C1437.9 1306.13 1428.48 1306.45 1421.35 1301.65L384.884 602.538C377.755 597.729 374.533 588.876 376.903 580.61Z" stroke="url(#paint18_linear_1020_247)" stroke-opacity="0.2" stroke-width="0.3"/>
<path opacity="0.20202" d="M364.127 571.824L728.947 -621.448C731.461 -629.672 738.985 -635.341 747.583 -635.491L1995.19 -657.268C2003.79 -657.418 2011.5 -652.015 2014.3 -643.884L2420.54 535.929C2423.34 544.06 2420.59 553.069 2413.72 558.245L1417.19 1309.19C1410.32 1314.36 1400.9 1314.53 1393.86 1309.59L371.724 593.888C364.679 588.955 361.612 580.048 364.127 571.824Z" stroke="url(#paint19_linear_1020_247)" stroke-opacity="0.2" stroke-width="0.3"/>
<path opacity="0.212121" d="M351.693 563.011L736.537 -621.417C739.194 -629.595 746.816 -635.133 755.416 -635.133L2000.8 -635.133C2009.4 -635.133 2017.02 -629.595 2019.67 -621.417L2404.52 563.011C2407.18 571.189 2404.27 580.149 2397.31 585.204L1389.77 1317.22C1382.82 1322.28 1373.4 1322.28 1366.44 1317.22L358.904 585.204C351.947 580.149 349.036 571.19 351.693 563.011Z" stroke="url(#paint20_linear_1020_247)" stroke-opacity="0.2" stroke-width="0.3"/>
<path opacity="0.222222" d="M339.589 554.162L744.26 -621.086C747.059 -629.218 754.777 -634.621 763.375 -634.471L2006.15 -612.778C2014.75 -612.628 2022.27 -606.959 2024.79 -598.735L2388.2 589.92C2390.71 598.144 2387.64 607.052 2380.6 611.984L1362.42 1324.92C1355.38 1329.85 1345.96 1329.69 1339.09 1324.51L346.412 576.477C339.544 571.302 336.789 562.293 339.589 554.162Z" stroke="url(#paint21_linear_1020_247)" stroke-opacity="0.2" stroke-width="0.3"/>
<path opacity="0.232323" d="M327.822 545.293L752.116 -620.446C755.058 -628.527 762.868 -633.795 771.462 -633.495L2011.26 -590.2C2019.85 -589.9 2027.28 -584.1 2029.65 -575.834L2371.59 616.663C2373.96 624.929 2370.74 633.782 2363.61 638.591L1335.14 1332.3C1328.02 1337.11 1318.6 1336.78 1311.82 1331.49L334.254 567.724C327.478 562.43 324.881 553.374 327.822 545.293Z" stroke="url(#paint22_linear_1020_247)" stroke-opacity="0.2" stroke-width="0.3"/>
<path opacity="0.242424" d="M316.393 536.407L760.102 -619.496C763.184 -627.525 771.085 -632.655 779.673 -632.205L2016.12 -567.406C2024.7 -566.956 2032.02 -561.028 2034.25 -552.721L2354.7 643.23C2356.93 651.537 2353.55 660.332 2346.34 665.015L1307.95 1339.35C1300.74 1344.04 1291.33 1343.55 1284.65 1338.13L322.432 558.947C315.749 553.535 313.311 544.435 316.393 536.407Z" stroke="url(#paint23_linear_1020_247)" stroke-opacity="0.2" stroke-width="0.3"/>
<path opacity="0.252525" d="M305.289 527.505L768.2 -618.24C771.421 -626.213 779.411 -631.206 787.989 -630.606L2020.7 -544.406C2029.28 -543.806 2036.5 -537.751 2038.58 -529.406L2337.53 669.613C2339.61 677.957 2336.08 686.692 2328.79 691.249L1280.83 1346.08C1273.54 1350.64 1264.14 1349.98 1257.56 1344.46L310.934 550.147C304.346 544.619 302.067 535.479 305.289 527.505Z" stroke="url(#paint24_linear_1020_247)" stroke-opacity="0.2" stroke-width="0.3"/>
<path opacity="0.262626" d="M294.523 518.599L776.416 -616.671C779.777 -624.587 787.852 -629.439 796.419 -628.69L2025.04 -521.199C2033.6 -520.45 2040.71 -514.269 2042.65 -505.89L2320.08 695.812C2322.02 704.192 2318.34 712.863 2310.97 717.292L1253.81 1352.5C1246.44 1356.92 1237.05 1356.1 1230.56 1350.46L299.772 541.336C293.282 535.694 291.163 526.515 294.523 518.599Z" stroke="url(#paint25_linear_1020_247)" stroke-opacity="0.2" stroke-width="0.3"/>
<path opacity="0.272727" d="M284.092 509.695L784.744 -614.787C788.242 -622.643 796.4 -627.353 804.953 -626.455L2029.11 -497.791C2037.66 -496.892 2044.66 -490.588 2046.45 -482.177L2302.37 721.824C2304.16 730.236 2300.32 738.842 2292.88 743.142L1226.89 1358.59C1219.44 1362.89 1210.07 1361.91 1203.68 1356.15L288.944 532.52C282.553 526.766 280.594 517.551 284.092 509.695Z" stroke="url(#paint26_linear_1020_247)" stroke-opacity="0.2" stroke-width="0.3"/>
<path opacity="0.282828" d="M273.994 500.796L793.174 -612.589C796.809 -620.383 805.048 -624.95 813.584 -623.902L2032.91 -474.188C2041.45 -473.14 2048.34 -466.715 2049.98 -458.273L2284.38 747.641C2286.02 756.082 2282.04 764.62 2274.52 768.79L1200.07 1364.37C1192.54 1368.54 1183.19 1367.39 1176.9 1361.53L278.447 523.702C272.158 517.838 270.36 508.59 273.994 500.796Z" stroke="url(#paint27_linear_1020_247)" stroke-opacity="0.2" stroke-width="0.3"/>
<path opacity="0.292929" d="M264.226 491.912L801.7 -610.074C805.47 -617.803 813.788 -622.226 822.304 -621.029L2036.44 -450.393C2044.96 -449.196 2051.74 -442.652 2053.23 -434.183L2266.13 773.261C2267.63 781.73 2263.5 790.198 2255.9 794.235L1173.35 1369.84C1165.76 1373.88 1156.43 1372.57 1150.24 1366.59L268.278 514.892C262.092 508.918 260.456 499.641 264.226 491.912Z" stroke="url(#paint28_linear_1020_247)" stroke-opacity="0.2" stroke-width="0.3"/>
<path opacity="0.30303" d="M254.787 483.041L810.316 -607.246C814.22 -614.908 822.614 -619.185 831.107 -617.84L2039.7 -426.418C2048.19 -425.072 2054.85 -418.411 2056.2 -409.917L2247.62 798.675C2248.97 807.169 2244.69 815.563 2237.03 819.467L1146.74 1375C1139.08 1378.9 1129.77 1377.43 1123.69 1371.35L258.437 506.089C252.356 500.008 250.883 490.703 254.787 483.041Z" stroke="url(#paint29_linear_1020_247)" stroke-opacity="0.2" stroke-width="0.3"/>
<path opacity="0.313131" d="M245.681 474.199L819.02 -604.095C823.057 -611.688 831.524 -615.818 839.993 -614.324L2042.68 -402.258C2051.15 -400.764 2057.7 -393.988 2058.89 -385.472L2228.86 823.886C2230.05 832.402 2225.63 840.72 2217.9 844.49L1120.26 1379.85C1112.53 1383.62 1103.25 1381.98 1097.28 1375.8L248.928 497.307C242.954 491.121 241.643 481.792 245.681 474.199Z" stroke="url(#paint30_linear_1020_247)" stroke-opacity="0.2" stroke-width="0.3"/>
<path opacity="0.323232" d="M236.899 465.381L827.799 -600.632C831.969 -608.153 840.507 -612.134 848.948 -610.493L2045.38 -377.93C2053.83 -376.289 2060.25 -369.399 2061.3 -360.864L2209.84 848.881C2210.89 857.417 2206.32 865.656 2198.52 869.291L1093.89 1384.39C1086.1 1388.02 1076.85 1386.23 1070.98 1379.94L239.743 488.542C233.878 482.253 232.73 472.902 236.899 465.381Z" stroke="url(#paint31_linear_1020_247)" stroke-opacity="0.2" stroke-width="0.3"/>
<path opacity="0.333333" d="M228.448 456.603L836.656 -596.844C840.956 -604.292 849.562 -608.123 857.974 -606.335L2047.81 -353.428C2056.22 -351.64 2062.52 -344.64 2063.42 -336.087L2190.57 873.665C2191.47 882.218 2186.76 890.377 2178.91 893.874L1067.65 1388.64C1059.8 1392.13 1050.58 1390.17 1044.83 1383.78L230.887 479.81C225.133 473.42 224.148 464.051 228.448 456.603Z" stroke="url(#paint32_linear_1020_247)" stroke-opacity="0.2" stroke-width="0.3"/>
<path opacity="0.343434" d="M220.324 447.864L845.581 -592.739C850.01 -600.11 858.682 -603.791 867.061 -601.857L2049.95 -328.766C2058.33 -326.831 2064.51 -319.721 2065.26 -311.155L2171.07 898.228C2171.82 906.795 2166.96 914.87 2159.05 918.23L1041.55 1392.58C1033.64 1395.94 1024.46 1393.82 1018.82 1387.33L222.358 471.11C216.716 464.62 215.895 455.235 220.324 447.864Z" stroke="url(#paint33_linear_1020_247)" stroke-opacity="0.2" stroke-width="0.3"/>
<path opacity="0.353535" d="M212.524 439.175L854.568 -588.31C859.125 -595.603 867.86 -599.132 876.204 -597.051L2051.8 -303.942C2060.15 -301.861 2066.2 -294.645 2066.8 -286.066L2151.32 922.571C2151.92 931.15 2146.93 939.139 2138.95 942.361L1015.59 1396.23C1007.61 1399.45 998.473 1397.17 992.946 1390.58L214.151 462.454C208.624 455.866 207.967 446.468 212.524 439.175Z" stroke="url(#paint34_linear_1020_247)" stroke-opacity="0.2" stroke-width="0.3"/>
<path opacity="0.363636" d="M205.045 430.537L863.609 -583.563C868.292 -590.775 877.087 -594.151 885.394 -591.925L2053.37 -278.968C2061.67 -276.742 2067.6 -269.421 2068.05 -260.833L2131.34 946.685C2131.79 955.273 2126.65 963.173 2118.63 966.255L989.765 1399.58C981.736 1402.67 972.636 1400.23 967.225 1393.55L206.266 453.84C200.854 447.157 200.361 437.749 205.045 430.537Z" stroke="url(#paint35_linear_1020_247)" stroke-opacity="0.2" stroke-width="0.3"/>
<path opacity="0.373737" d="M197.891 421.959L872.703 -578.491C877.512 -585.62 886.365 -588.842 894.631 -586.472L2054.64 -253.844C2062.91 -251.473 2068.71 -244.05 2069.01 -235.455L2111.13 970.571C2111.43 979.165 2106.16 986.975 2098.08 989.917L964.093 1402.65C956.012 1405.59 946.956 1403 941.662 1396.22L198.705 445.28C193.411 438.504 193.082 429.089 197.891 421.959Z" stroke="url(#paint36_linear_1020_247)" stroke-opacity="0.2" stroke-width="0.3"/>
<path opacity="0.383838" d="M191.055 413.442L881.841 -573.102C886.773 -580.146 895.681 -583.214 903.905 -580.699L2055.63 -228.582C2063.85 -226.068 2069.52 -218.544 2069.67 -209.946L2090.69 994.219C2090.84 1002.82 2085.44 1010.53 2077.31 1013.33L938.573 1405.43C930.442 1408.23 921.433 1405.48 916.257 1398.61L191.463 436.773C186.287 429.905 186.123 420.486 191.055 413.442Z" stroke="url(#paint37_linear_1020_247)" stroke-opacity="0.2" stroke-width="0.3"/>
<path opacity="0.393939" d="M184.537 404.997L891.016 -567.388C896.071 -574.345 905.031 -577.256 913.209 -574.599L2056.32 -203.181C2064.5 -200.523 2070.03 -192.902 2070.03 -184.302V1017.63C2070.03 1026.23 2064.5 1033.85 2056.32 1036.51L913.209 1407.93C905.031 1410.59 896.071 1407.67 891.016 1400.72L184.537 428.333C179.483 421.375 179.483 411.955 184.537 404.997Z" stroke="url(#paint38_linear_1020_247)" stroke-opacity="0.2" stroke-width="0.3"/>
<path opacity="0.40404" d="M178.335 396.623L900.224 -561.357C905.399 -568.225 914.408 -570.979 922.539 -568.179L2056.71 -177.654C2064.84 -174.854 2070.24 -167.137 2070.09 -158.539L2049.16 1040.8C2049.01 1049.4 2043.34 1056.92 2035.12 1059.44L888.008 1410.14C879.784 1412.66 870.877 1409.59 865.944 1402.54L177.927 419.954C172.995 412.91 173.159 403.491 178.335 396.623Z" stroke="url(#paint39_linear_1020_247)" stroke-opacity="0.2" stroke-width="0.3"/>
<path opacity="0.414141" d="M172.448 388.336L909.461 -554.997C914.755 -561.774 923.811 -564.37 931.892 -561.429L2056.8 -151.995C2064.88 -149.053 2070.15 -141.243 2069.85 -132.649L2028.07 1063.73C2027.77 1072.32 2021.97 1079.75 2013.71 1082.12L862.975 1412.08C854.709 1414.45 845.856 1411.23 841.047 1404.1L171.634 411.657C166.825 404.527 167.154 395.112 172.448 388.336Z" stroke="url(#paint40_linear_1020_247)" stroke-opacity="0.2" stroke-width="0.3"/>
<path opacity="0.424242" d="M166.875 380.133L918.72 -548.318C924.131 -555.001 933.231 -557.439 941.26 -554.358L2056.6 -126.218C2064.63 -123.136 2069.76 -115.235 2069.31 -106.648L2006.79 1086.41C2006.34 1095 2000.41 1102.32 1992.1 1104.54L838.115 1413.75C829.809 1415.98 821.014 1412.6 816.33 1405.39L165.654 403.436C160.97 396.224 161.463 386.816 166.875 380.133Z" stroke="url(#paint41_linear_1020_247)" stroke-opacity="0.2" stroke-width="0.3"/>
<path opacity="0.434343" d="M161.61 372.019L927.992 -541.32C933.52 -547.907 942.661 -550.186 950.634 -546.965L2056.1 -100.329C2064.07 -97.1078 2069.06 -89.1187 2068.46 -80.54L1985.29 1108.83C1984.69 1117.41 1978.64 1124.63 1970.29 1126.71L813.43 1415.15C805.086 1417.23 796.351 1413.7 791.794 1406.41L159.982 395.297C155.425 388.005 156.083 378.607 161.61 372.019Z" stroke="url(#paint42_linear_1020_247)" stroke-opacity="0.2" stroke-width="0.3"/>
<path opacity="0.444444" d="M156.654 364.005L937.276 -533.998C942.918 -540.488 952.097 -542.608 960.013 -539.247L2055.29 -74.33C2063.21 -70.9699 2068.06 -62.8948 2067.31 -54.3279L1963.6 1131.01C1962.86 1139.58 1956.67 1146.69 1948.3 1148.62L788.926 1416.28C780.547 1418.22 771.875 1414.54 767.446 1407.16L154.62 387.251C150.191 379.88 151.012 370.495 156.654 364.005Z" stroke="url(#paint43_linear_1020_247)" stroke-opacity="0.2" stroke-width="0.3"/>
<path opacity="0.454545" d="M152.004 356.094L946.565 -526.354C952.319 -532.745 961.534 -534.704 969.39 -531.206L2054.18 -48.226C2062.04 -44.7282 2066.75 -36.5697 2065.85 -28.0172L1941.73 1152.93C1940.83 1161.48 1934.52 1168.48 1926.11 1170.27L764.609 1417.16C756.197 1418.94 747.591 1415.11 743.291 1407.66L149.565 379.302C145.266 371.854 146.25 362.485 152.004 356.094Z" stroke="url(#paint44_linear_1020_247)" stroke-opacity="0.2" stroke-width="0.3"/>
<path opacity="0.464646" d="M147.657 348.289L955.851 -518.393C961.716 -524.682 970.963 -526.48 978.757 -522.846L2052.77 -22.027C2060.56 -18.3926 2065.13 -10.1531 2064.08 -1.61759L1919.66 1174.59C1918.61 1183.12 1912.19 1190.01 1903.75 1191.65L740.479 1417.77C732.038 1419.41 723.5 1415.43 719.331 1407.91L144.813 371.45C140.644 363.929 141.792 354.578 147.657 348.289Z" stroke="url(#paint45_linear_1020_247)" stroke-opacity="0.2" stroke-width="0.3"/>
<path opacity="0.474747" d="M143.608 340.594L965.127 -510.115C971.101 -516.301 980.379 -517.937 988.108 -514.167L2051.04 4.2615C2058.77 8.03137 2063.2 16.3493 2062 24.8652L1897.41 1195.98C1896.21 1204.5 1889.67 1211.27 1881.2 1212.77L716.542 1418.13C708.073 1419.62 699.606 1415.49 695.568 1407.9L140.36 363.702C136.323 356.109 137.634 346.78 143.608 340.594Z" stroke="url(#paint46_linear_1020_247)" stroke-opacity="0.2" stroke-width="0.3"/>
<path opacity="0.484848" d="M139.858 333.019L974.393 -501.516C980.473 -507.597 989.778 -509.07 997.44 -505.166L2049.02 30.6379C2056.68 34.542 2060.95 42.9359 2059.61 51.4296L1874.98 1217.11C1873.64 1225.6 1866.98 1232.27 1858.48 1233.61L692.804 1418.24C684.31 1419.58 675.916 1415.3 672.012 1407.64L136.207 356.067C132.303 348.405 133.777 339.1 139.858 333.019Z" stroke="url(#paint47_linear_1020_247)" stroke-opacity="0.2" stroke-width="0.3"/>
<path opacity="0.494949" d="M136.402 325.564L983.638 -492.602C989.824 -498.576 999.153 -499.887 1006.75 -495.85L2046.68 57.0924C2054.27 61.1298 2058.4 69.597 2056.91 78.0659L1852.39 1237.97C1850.89 1246.44 1844.12 1252.98 1835.6 1254.18L669.266 1418.1C660.75 1419.29 652.432 1414.87 648.662 1407.14L132.35 348.545C128.58 340.816 130.216 331.538 136.402 325.564Z" stroke="url(#paint48_linear_1020_247)" stroke-opacity="0.2" stroke-width="0.3"/>
<path opacity="0.50505" d="M133.242 318.243L992.862 -483.366C999.152 -489.231 1008.5 -490.379 1016.02 -486.21L2044.04 83.6268C2051.56 87.796 2055.54 96.334 2053.9 104.776L1829.62 1258.56C1827.98 1267 1821.09 1273.43 1812.56 1274.48L645.937 1417.72C637.401 1418.77 629.162 1414.2 625.527 1406.41L128.789 341.149C125.155 333.355 126.952 324.108 133.242 318.243Z" stroke="url(#paint49_linear_1020_247)" stroke-opacity="0.2" stroke-width="0.3"/>
<path opacity="0.515152" d="M130.368 311.052L1002.05 -473.817C1008.45 -479.571 1017.81 -480.556 1025.26 -476.256L2041.08 110.228C2048.53 114.528 2052.36 123.134 2050.57 131.546L1806.7 1278.88C1804.91 1287.29 1797.91 1293.6 1789.36 1294.5L622.815 1417.11C614.263 1418 606.104 1413.29 602.606 1405.44L125.517 333.878C122.019 326.021 123.978 316.807 130.368 311.052Z" stroke="url(#paint50_linear_1020_247)" stroke-opacity="0.2" stroke-width="0.3"/>
<path opacity="0.525253" d="M127.782 303.998L1011.21 -463.956C1017.7 -469.597 1027.09 -470.418 1034.46 -465.989L2037.82 136.892C2045.19 141.321 2048.87 149.992 2046.94 158.372L1783.62 1298.93C1781.69 1307.31 1774.58 1313.49 1766.01 1314.24L599.907 1416.26C591.34 1417.01 583.265 1412.15 579.905 1404.24L122.532 326.735C119.172 318.819 121.291 309.64 127.782 303.998Z" stroke="url(#paint51_linear_1020_247)" stroke-opacity="0.2" stroke-width="0.3"/>
<path opacity="0.535354" d="M125.479 297.088L1020.33 -453.779C1026.92 -459.307 1036.31 -459.964 1043.61 -455.407L2034.25 163.614C2041.54 168.171 2045.07 176.906 2042.99 185.25L1760.39 1318.69C1758.31 1327.04 1751.09 1333.09 1742.51 1333.69L577.217 1415.18C568.639 1415.78 560.649 1410.79 557.428 1402.81L119.834 319.73C116.613 311.757 118.892 302.616 125.479 297.088Z" stroke="url(#paint52_linear_1020_247)" stroke-opacity="0.2" stroke-width="0.3"/>
<path opacity="0.545455" d="M123.456 290.325L1029.4 -443.292C1036.08 -448.704 1045.49 -449.197 1052.7 -444.513L2030.36 190.388C2037.57 195.072 2040.95 203.867 2038.72 212.173L1737.01 1338.18C1734.79 1346.49 1727.47 1352.42 1718.88 1352.87L554.747 1413.88C546.159 1414.33 538.258 1409.19 535.176 1401.17L117.417 312.865C114.335 304.836 116.773 295.737 123.456 290.325Z" stroke="url(#paint53_linear_1020_247)" stroke-opacity="0.2" stroke-width="0.3"/>
<path opacity="0.555556" d="M121.709 283.712L1038.41 -432.496C1045.19 -437.79 1054.61 -438.119 1061.73 -433.31L2026.17 217.207C2033.3 222.016 2036.52 230.868 2034.15 239.135L1713.49 1357.38C1711.12 1365.65 1703.7 1371.45 1695.11 1371.75L532.5 1412.35C523.906 1412.65 516.096 1407.38 513.154 1399.3L115.277 306.143C112.336 298.062 114.933 289.007 121.709 283.712Z" stroke="url(#paint54_linear_1020_247)" stroke-opacity="0.2" stroke-width="0.3"/>
<path opacity="0.565657" d="M120.238 277.259L1047.37 -421.389C1054.24 -426.564 1063.66 -426.728 1070.71 -421.796L2021.66 244.069C2028.7 249.002 2031.77 257.909 2029.26 266.133L1689.84 1376.31C1687.33 1384.53 1679.81 1390.2 1671.21 1390.35L510.483 1410.61C501.885 1410.76 494.168 1405.36 491.368 1397.23L113.416 299.574C110.616 291.443 113.37 282.434 120.238 277.259Z" stroke="url(#paint55_linear_1020_247)" stroke-opacity="0.2" stroke-width="0.3"/>
<path opacity="0.575758" d="M119.036 270.964L1056.27 -409.978C1063.23 -415.032 1072.65 -415.032 1079.61 -409.978L2016.84 270.964C2023.8 276.019 2026.71 284.978 2024.05 293.157L1666.06 1394.94C1663.4 1403.12 1655.78 1408.66 1647.18 1408.66L488.696 1408.66C480.096 1408.66 472.475 1403.12 469.817 1394.94L111.825 293.157C109.168 284.978 112.079 276.019 119.036 270.964Z" stroke="url(#paint56_linear_1020_247)" stroke-opacity="0.2" stroke-width="0.3"/>
<path opacity="0.585859" d="M118.103 264.838L1065.1 -398.258C1072.15 -403.191 1081.57 -403.026 1088.43 -397.851L2011.72 297.891C2018.58 303.066 2021.34 312.075 2018.54 320.207L1642.16 1413.3C1639.36 1421.43 1631.64 1426.83 1623.04 1426.68L467.145 1406.5C458.546 1406.35 451.023 1400.68 448.508 1392.46L110.505 286.902C107.991 278.678 111.058 269.77 118.103 264.838Z" stroke="url(#paint57_linear_1020_247)" stroke-opacity="0.2" stroke-width="0.3"/>
<path opacity="0.59596" d="M117.429 258.88L1073.86 -386.238C1080.99 -391.047 1090.4 -390.718 1097.18 -385.424L2006.27 324.84C2013.05 330.134 2015.65 339.19 2012.71 347.271L1618.13 1431.36C1615.19 1439.44 1607.38 1444.71 1598.79 1444.41L445.828 1404.14C437.234 1403.84 429.81 1398.04 427.44 1389.78L109.448 280.808C107.078 272.542 110.3 263.689 117.429 258.88Z" stroke="url(#paint58_linear_1020_247)" stroke-opacity="0.2" stroke-width="0.3"/>
<path opacity="0.606061" d="M117.019 253.098L1082.53 -373.916C1089.75 -378.599 1099.15 -378.106 1105.84 -372.694L2000.52 351.808C2007.21 357.22 2009.65 366.32 2006.56 374.348L1593.99 1449.13C1590.91 1457.16 1583.01 1462.29 1574.42 1461.84L424.755 1401.59C416.168 1401.14 408.846 1395.21 406.621 1386.9L108.656 274.883C106.431 266.576 109.807 257.781 117.019 253.098Z" stroke="url(#paint59_linear_1020_247)" stroke-opacity="0.2" stroke-width="0.3"/>
<path opacity="0.616162" d="M116.863 247.493L1091.13 -361.295C1098.42 -365.852 1107.82 -365.195 1114.41 -359.667L1994.46 378.788C2001.05 384.315 2003.33 393.456 2000.11 401.43L1569.75 1466.61C1566.53 1474.58 1558.54 1479.57 1549.96 1478.97L403.924 1398.84C395.346 1398.24 388.129 1392.18 386.049 1383.84L108.121 269.129C106.041 260.785 109.57 252.05 116.863 247.493Z" stroke="url(#paint60_linear_1020_247)" stroke-opacity="0.2" stroke-width="0.3"/>
<path opacity="0.626263" d="M116.96 242.074L1099.63 -348.375C1107 -352.804 1116.39 -351.983 1122.88 -346.341L1988.09 405.777C1994.58 411.419 1996.7 420.598 1993.34 428.514L1545.4 1483.8C1542.04 1491.71 1533.96 1496.57 1525.4 1495.82L383.342 1395.9C374.775 1395.15 367.665 1388.97 365.731 1380.59L107.843 263.555C105.908 255.175 109.589 246.504 116.96 242.074Z" stroke="url(#paint61_linear_1020_247)" stroke-opacity="0.2" stroke-width="0.3"/>
<path opacity="0.636364" d="M117.307 236.843L1108.04 -335.159C1115.49 -339.459 1124.86 -338.474 1131.25 -332.72L1981.41 432.769C1987.8 438.523 1989.76 447.738 1986.26 455.594L1520.96 1500.69C1517.46 1508.55 1509.3 1513.26 1500.75 1512.36L363.009 1392.78C354.456 1391.88 347.455 1385.58 345.667 1377.17L107.815 258.161C106.028 249.749 109.859 241.143 117.307 236.843Z" stroke="url(#paint62_linear_1020_247)" stroke-opacity="0.2" stroke-width="0.3"/>
<path opacity="0.646465" d="M117.896 231.8L1116.35 -321.654C1123.88 -325.823 1133.23 -324.675 1139.51 -318.81L1974.42 459.753C1980.71 465.618 1982.51 474.866 1978.87 482.659L1496.42 1517.29C1492.78 1525.09 1484.54 1529.65 1476.01 1528.61L342.926 1389.48C334.391 1388.43 327.501 1382.01 325.86 1373.57L108.034 252.949C106.393 244.508 110.374 235.97 117.896 231.8Z" stroke="url(#paint63_linear_1020_247)" stroke-opacity="0.2" stroke-width="0.3"/>
<path opacity="0.656566" d="M118.728 226.955L1124.56 -307.857C1132.16 -311.894 1141.48 -310.583 1147.67 -304.609L1967.13 486.73C1973.31 492.704 1974.95 501.981 1971.18 509.71L1471.8 1533.6C1468.03 1541.33 1459.71 1545.75 1451.19 1544.55L323.101 1386.01C314.585 1384.81 307.808 1378.27 306.315 1369.8L108.499 247.928C107.005 239.459 111.135 230.992 118.728 226.955Z" stroke="url(#paint64_linear_1020_247)" stroke-opacity="0.2" stroke-width="0.3"/>
<path opacity="0.666667" d="M119.794 222.304L1132.66 -293.776C1140.32 -297.68 1149.62 -296.206 1155.71 -290.126L1959.52 513.688C1965.6 519.768 1967.07 529.073 1963.17 536.735L1447.09 1549.6C1443.19 1557.26 1434.79 1561.54 1426.3 1560.19L303.53 1382.36C295.036 1381.02 288.374 1374.36 287.029 1365.86L109.2 243.096C107.855 234.602 112.132 226.208 119.794 222.304Z" stroke="url(#paint65_linear_1020_247)" stroke-opacity="0.2" stroke-width="0.3"/>
<path opacity="0.676768" d="M121.093 217.861L1140.64 -279.406C1148.37 -283.176 1157.65 -281.54 1163.62 -275.354L1951.61 540.629C1957.58 546.815 1958.89 556.144 1954.85 563.737L1422.31 1565.31C1418.27 1572.9 1409.8 1577.03 1401.34 1575.54L284.219 1378.56C275.75 1377.07 269.206 1370.29 268.009 1361.77L110.138 238.464C108.941 229.948 113.364 221.63 121.093 217.861Z" stroke="url(#paint66_linear_1020_247)" stroke-opacity="0.2" stroke-width="0.3"/>
<path opacity="0.686869" d="M122.623 213.621L1148.51 -264.755C1156.3 -268.39 1165.55 -266.592 1171.41 -260.303L1943.39 567.543C1949.26 573.832 1950.4 583.183 1946.23 590.704L1397.46 1580.72C1393.29 1588.24 1384.75 1592.22 1376.31 1590.58L265.172 1374.6C256.731 1372.96 250.306 1366.07 249.258 1357.53L111.309 234.031C110.261 225.495 114.829 217.256 122.623 213.621Z" stroke="url(#paint67_linear_1020_247)" stroke-opacity="0.2" stroke-width="0.3"/>
<path opacity="0.69697" d="M124.375 209.592L1156.24 -249.826C1164.1 -253.324 1173.32 -251.365 1179.07 -244.974L1934.87 594.425C1940.62 600.815 1941.61 610.184 1937.31 617.632L1372.55 1595.83C1368.25 1603.27 1359.64 1607.11 1351.23 1605.32L246.388 1370.48C237.977 1368.69 231.673 1361.69 230.774 1353.14L112.707 229.801C111.808 221.249 116.518 213.09 124.375 209.592Z" stroke="url(#paint68_linear_1020_247)" stroke-opacity="0.2" stroke-width="0.3"/>
<path opacity="0.707071" d="M126.349 205.781L1163.86 -234.615C1171.77 -237.975 1180.95 -235.856 1186.59 -229.366L1926.04 621.274C1931.69 627.764 1932.51 637.149 1928.08 644.52L1347.57 1610.64C1343.15 1618.01 1334.47 1621.69 1326.09 1619.76L227.874 1366.21C219.495 1364.28 213.314 1357.17 212.564 1348.6L114.33 225.783C113.581 217.217 118.433 209.141 126.349 205.781Z" stroke="url(#paint69_linear_1020_247)" stroke-opacity="0.2" stroke-width="0.3"/>
<path opacity="0.717172" d="M128.537 202.182L1171.34 -219.136C1179.31 -222.357 1188.45 -220.078 1193.98 -213.491L1916.92 648.076C1922.45 654.663 1923.1 664.061 1918.55 671.354L1322.55 1625.15C1317.99 1632.44 1309.26 1635.97 1300.91 1633.89L209.626 1361.8C201.281 1359.72 195.226 1352.51 194.626 1343.93L116.171 221.972C115.571 213.393 120.564 205.404 128.537 202.182Z" stroke="url(#paint70_linear_1020_247)" stroke-opacity="0.2" stroke-width="0.3"/>
<path opacity="0.727273" d="M130.937 198.809L1178.68 -203.381C1186.71 -206.463 1195.81 -204.025 1201.22 -197.341L1907.49 674.835C1912.9 681.518 1913.4 690.926 1908.71 698.138L1297.47 1639.36C1292.79 1646.57 1284 1649.95 1275.69 1647.72L191.649 1357.26C183.342 1355.03 177.414 1347.71 176.964 1339.12L118.228 218.379C117.778 209.791 122.909 201.89 130.937 198.809Z" stroke="url(#paint71_linear_1020_247)" stroke-opacity="0.2" stroke-width="0.3"/>
<path opacity="0.737374" d="M133.546 195.656L1185.88 -187.361C1193.96 -190.303 1203.01 -187.706 1208.31 -180.929L1897.77 701.538C1903.06 708.315 1903.39 717.73 1898.58 724.859L1272.36 1653.27C1267.55 1660.4 1258.7 1663.62 1250.43 1661.25L173.946 1352.58C165.68 1350.21 159.88 1342.78 159.579 1334.19L120.497 215.002C120.197 206.407 125.465 198.597 133.546 195.656Z" stroke="url(#paint72_linear_1020_247)" stroke-opacity="0.2" stroke-width="0.3"/>
<path opacity="0.747475" d="M136.356 192.735L1192.93 -171.073C1201.06 -173.872 1210.07 -171.118 1215.24 -164.25L1887.75 728.188C1892.92 735.056 1893.09 744.475 1888.15 751.52L1247.21 1666.88C1242.28 1673.93 1233.37 1677 1225.14 1674.48L156.517 1347.77C148.294 1345.26 142.624 1337.73 142.474 1329.13L122.972 211.85C122.822 203.252 128.225 195.534 136.356 192.735Z" stroke="url(#paint73_linear_1020_247)" stroke-opacity="0.2" stroke-width="0.3"/>
<path opacity="0.757576" d="M139.362 190.038L1199.83 -154.528C1208.01 -157.185 1216.97 -154.274 1222.02 -147.317L1877.43 754.769C1882.48 761.726 1882.48 771.147 1877.43 778.104L1222.02 1680.19C1216.97 1687.15 1208.01 1690.06 1199.83 1687.4L139.362 1342.84C131.184 1340.18 125.646 1332.56 125.646 1323.96L125.646 208.917C125.646 200.317 131.184 192.696 139.362 190.038Z" stroke="url(#paint74_linear_1020_247)" stroke-opacity="0.2" stroke-width="0.3"/>
<path opacity="0.767677" d="M142.564 187.578L1206.57 -137.722C1214.8 -140.236 1223.7 -137.169 1228.64 -130.125L1866.81 781.285C1871.75 788.33 1871.58 797.749 1866.41 804.617L1196.81 1693.2C1191.64 1700.07 1182.63 1702.82 1174.5 1700.02L122.487 1337.79C114.356 1334.99 108.952 1327.27 109.102 1318.67L128.52 206.215C128.67 197.616 134.34 190.093 142.564 187.578Z" stroke="url(#paint75_linear_1020_247)" stroke-opacity="0.2" stroke-width="0.3"/>
<path opacity="0.777778" d="M145.955 185.357L1213.16 -120.659C1221.43 -123.029 1230.28 -119.807 1235.09 -112.678L1855.91 807.73C1860.72 814.86 1860.39 824.275 1855.1 831.051L1171.58 1705.91C1166.29 1712.69 1157.23 1715.28 1149.15 1712.34L105.891 1332.63C97.8104 1329.69 92.5424 1321.88 92.8425 1313.28L131.588 203.746C131.889 195.151 137.689 187.728 145.955 185.357Z" stroke="url(#paint76_linear_1020_247)" stroke-opacity="0.2" stroke-width="0.3"/>
<path opacity="0.787879" d="M149.532 183.375L1219.58 -103.344C1227.89 -105.57 1236.68 -102.194 1241.37 -94.9817L1844.72 834.097C1849.4 841.309 1848.91 850.717 1843.5 857.4L1146.34 1718.32C1140.93 1725 1131.83 1727.44 1123.8 1724.36L89.5781 1327.36C81.5497 1324.28 76.4187 1316.38 76.8688 1307.79L134.846 201.51C135.297 192.922 141.225 185.601 149.532 183.375Z" stroke="url(#paint77_linear_1020_247)" stroke-opacity="0.2" stroke-width="0.3"/>
<path opacity="0.79798" d="M153.284 181.631L1225.83 -85.786C1234.18 -87.8664 1242.91 -84.3373 1247.47 -77.0446L1833.24 860.375C1837.79 867.668 1837.14 877.066 1831.61 883.654L1121.08 1730.43C1115.55 1737.02 1106.41 1739.29 1098.44 1736.07L73.5425 1321.99C65.5691 1318.77 60.5768 1310.78 61.1767 1302.2L138.284 199.507C138.884 190.928 144.94 183.711 153.284 181.631Z" stroke="url(#paint78_linear_1020_247)" stroke-opacity="0.2" stroke-width="0.3"/>
<path opacity="0.808081" d="M157.214 180.136L1231.92 -67.9787C1240.3 -69.9132 1248.97 -66.2322 1253.4 -58.861L1821.47 886.57C1825.9 893.941 1825.08 903.326 1819.43 909.816L1095.82 1742.24C1090.18 1748.73 1081 1750.85 1073.08 1747.49L57.7928 1316.52C49.8768 1313.16 45.0248 1305.09 45.7743 1296.52L141.905 197.747C142.654 189.18 148.835 182.07 157.214 180.136Z" stroke="url(#paint79_linear_1020_247)" stroke-opacity="0.2" stroke-width="0.3"/>
<path opacity="0.818182" d="M161.312 178.885L1237.82 -49.9339C1246.23 -51.7218 1254.84 -47.89 1259.14 -40.4426L1809.42 912.668C1813.72 920.116 1812.73 929.485 1806.98 935.876L1070.56 1753.75C1064.81 1760.14 1055.59 1762.1 1047.74 1758.6L42.3255 1310.96C34.4695 1307.47 29.7591 1299.31 30.658 1290.76L145.698 196.226C146.596 187.674 152.9 180.673 161.312 178.885Z" stroke="url(#paint80_linear_1020_247)" stroke-opacity="0.2" stroke-width="0.3"/>
<path opacity="0.828283" d="M165.575 177.886L1243.54 -31.65C1251.98 -33.2908 1260.52 -29.3094 1264.69 -21.7881L1797.08 938.67C1801.25 946.192 1800.1 955.542 1794.24 961.831L1045.31 1764.96C1039.44 1771.25 1030.19 1773.05 1022.4 1769.42L27.1437 1305.32C19.3499 1301.69 14.7826 1293.45 15.8306 1284.91L149.661 194.952C150.709 186.417 157.134 179.527 165.575 177.886Z" stroke="url(#paint81_linear_1020_247)" stroke-opacity="0.2" stroke-width="0.3"/>
<path opacity="0.838384" d="M169.999 177.136L1249.08 -13.1353C1257.55 -14.6286 1266.02 -10.4988 1270.06 -2.90589L1784.47 964.567C1788.51 972.16 1787.2 981.489 1781.22 987.675L1020.07 1775.88C1014.09 1782.06 1004.81 1783.7 997.085 1779.93L12.2484 1299.59C4.51917 1295.82 0.0963881 1287.5 1.29321 1278.99L153.789 193.922C154.986 185.406 161.53 178.63 169.999 177.136Z" stroke="url(#paint82_linear_1020_247)" stroke-opacity="0.2" stroke-width="0.3"/>
<path opacity="0.848485" d="M174.58 176.646L1254.44 5.61329C1262.93 4.26804 1271.32 8.54499 1275.23 16.2072L1771.58 990.36C1775.49 998.022 1774.01 1007.33 1767.93 1013.41L994.842 1786.5C988.761 1792.58 979.456 1794.05 971.794 1790.15L-2.35847 1293.79C-10.0207 1289.89 -14.2977 1281.5 -12.9524 1273L158.08 193.146C159.425 184.653 166.087 177.991 174.58 176.646Z" stroke="url(#paint83_linear_1020_247)" stroke-opacity="0.2" stroke-width="0.3"/>
<path opacity="0.858586" d="M179.31 176.408L1259.6 24.5839C1268.11 23.3871 1276.43 27.8099 1280.2 35.539L1758.42 1016.04C1762.19 1023.77 1760.55 1033.04 1754.37 1039.02L969.638 1796.82C963.452 1802.8 954.123 1804.11 946.53 1800.07L-16.6797 1287.92C-24.2727 1283.88 -28.4025 1275.42 -26.9092 1266.95L162.524 192.618C164.017 184.149 170.794 177.605 179.31 176.408Z" stroke="url(#paint84_linear_1020_247)" stroke-opacity="0.2" stroke-width="0.3"/>
<path opacity="0.868687" d="M184.186 176.432L1264.56 43.7785C1273.1 42.7305 1281.34 47.2978 1284.97 55.0916L1744.99 1041.6C1748.62 1049.39 1746.82 1058.64 1740.53 1064.5L944.463 1806.85C938.174 1812.72 928.823 1813.87 921.302 1809.7L-30.712 1281.99C-38.2333 1277.82 -42.2148 1269.28 -40.5739 1260.84L167.12 192.347C168.761 183.905 175.65 177.48 184.186 176.432Z" stroke="url(#paint85_linear_1020_247)" stroke-opacity="0.2" stroke-width="0.3"/>
<path opacity="0.878788" d="M189.204 176.718L1269.33 63.1923C1277.88 62.2934 1286.04 67.0038 1289.54 74.8598L1731.29 1067.04C1734.78 1074.9 1732.82 1084.11 1726.43 1089.86L919.322 1816.59C912.932 1822.35 903.563 1823.33 896.115 1819.03L-44.4539 1275.99C-51.9013 1271.69 -55.7331 1263.09 -53.9452 1254.67L171.863 192.332C173.651 183.921 180.652 177.617 189.204 176.718Z" stroke="url(#paint86_linear_1020_247)" stroke-opacity="0.2" stroke-width="0.3"/>
<path opacity="0.888889" d="M194.356 177.266L1273.89 82.8181C1282.46 82.0686 1290.54 86.9207 1293.9 94.8366L1717.32 1092.35C1720.68 1100.27 1718.56 1109.45 1712.07 1115.09L894.217 1826.04C887.727 1831.68 878.342 1832.5 870.971 1828.07L-57.9086 1269.94C-65.2799 1265.51 -68.9608 1256.84 -67.0264 1248.46L176.745 192.575C178.679 184.196 185.789 178.015 194.356 177.266Z" stroke="url(#paint87_linear_1020_247)" stroke-opacity="0.2" stroke-width="0.3"/>
<path opacity="0.89899" d="M199.639 178.078L1278.25 102.654C1286.83 102.054 1294.82 107.046 1298.04 115.02L1703.09 1117.54C1706.31 1125.51 1704.03 1134.65 1697.44 1140.18L869.156 1835.19C862.569 1840.72 853.171 1841.38 845.878 1836.82L-71.0723 1263.84C-78.3651 1259.29 -81.8943 1250.55 -79.8139 1242.21L181.764 193.078C183.844 184.734 191.061 178.678 199.639 178.078Z" stroke="url(#paint88_linear_1020_247)" stroke-opacity="0.2" stroke-width="0.3"/>
<path opacity="0.909091" d="M205.051 179.161L1282.41 122.7C1290.99 122.25 1298.9 127.381 1301.98 135.409L1688.6 1142.59C1691.68 1150.62 1689.24 1159.72 1682.56 1165.13L844.145 1844.06C837.462 1849.47 828.054 1849.96 820.842 1845.28L-83.9445 1257.71C-91.1566 1253.02 -94.5328 1244.23 -92.3071 1235.92L186.916 193.847C189.142 185.54 196.463 179.611 205.051 179.161Z" stroke="url(#paint89_linear_1020_247)" stroke-opacity="0.2" stroke-width="0.3"/>
<path opacity="0.919192" d="M210.578 180.506L1286.34 142.939C1294.94 142.639 1302.75 147.907 1305.69 155.988L1673.85 1167.49C1676.79 1175.57 1674.19 1184.63 1667.41 1189.92L819.183 1852.63C812.407 1857.93 802.992 1858.26 795.862 1853.45L-96.531 1251.52C-103.66 1246.71 -106.882 1237.86 -104.512 1229.59L192.19 194.872C194.56 186.606 201.984 180.806 210.578 180.506Z" stroke="url(#paint90_linear_1020_247)" stroke-opacity="0.2" stroke-width="0.3"/>
<path opacity="0.929293" d="M216.223 182.124L1290.07 163.38C1298.67 163.23 1306.38 168.634 1309.18 176.765L1658.84 1192.26C1661.64 1200.39 1658.89 1209.4 1652.02 1214.57L794.282 1860.93C787.414 1866.1 777.995 1866.27 770.95 1861.33L-108.825 1245.31C-115.869 1240.38 -118.936 1231.47 -116.422 1223.25L197.587 196.168C200.102 187.944 207.625 182.274 216.223 182.124Z" stroke="url(#paint91_linear_1020_247)" stroke-opacity="0.2" stroke-width="0.3"/>
<path opacity="0.939394" d="M221.977 184.014L1293.57 184.014C1302.17 184.014 1309.79 189.551 1312.45 197.73L1643.59 1216.88C1646.25 1225.05 1643.34 1234.01 1636.38 1239.07L769.442 1868.94C762.485 1873.99 753.064 1873.99 746.107 1868.94L-120.831 1239.07C-127.788 1234.01 -130.699 1225.05 -128.042 1216.88L203.099 197.73C205.756 189.552 213.378 184.014 221.977 184.014Z" stroke="url(#paint92_linear_1020_247)" stroke-opacity="0.2" stroke-width="0.3"/>
<path opacity="0.949495" d="M227.84 186.181L1296.86 204.84C1305.46 204.991 1312.98 210.66 1315.49 218.884L1628.09 1241.35C1630.61 1249.57 1627.54 1258.48 1620.49 1263.41L744.674 1876.67C737.629 1881.6 728.21 1881.43 721.342 1876.26L-132.543 1232.81C-139.411 1227.63 -142.165 1218.63 -139.365 1210.49L208.725 199.565C211.525 191.434 219.242 186.031 227.84 186.181Z" stroke="url(#paint93_linear_1020_247)" stroke-opacity="0.2" stroke-width="0.3"/>
<path opacity="0.959596" d="M233.8 188.614L1299.92 225.844C1308.51 226.144 1315.93 231.944 1318.3 240.21L1612.35 1265.65C1614.72 1273.92 1611.49 1282.77 1604.36 1287.58L719.975 1884.11C712.846 1888.92 703.431 1888.59 696.654 1883.29L-143.969 1226.53C-150.745 1221.23 -153.342 1212.18 -150.401 1204.1L214.455 201.663C217.396 193.582 225.206 188.314 233.8 188.614Z" stroke="url(#paint94_linear_1020_247)" stroke-opacity="0.2" stroke-width="0.3"/>
<path opacity="0.969697" d="M239.857 191.328L1302.75 247.032C1311.34 247.482 1318.66 253.411 1320.88 261.717L1596.36 1289.8C1598.59 1298.11 1595.21 1306.9 1588 1311.59L695.356 1891.28C688.144 1895.96 678.736 1895.47 672.053 1890.05L-155.104 1220.24C-161.787 1214.82 -164.225 1205.72 -161.143 1197.7L220.286 204.037C223.368 196.009 231.269 190.878 239.857 191.328Z" stroke="url(#paint95_linear_1020_247)" stroke-opacity="0.2" stroke-width="0.3"/>
<path opacity="0.979798" d="M246 194.312L1305.35 268.389C1313.93 268.989 1321.15 275.045 1323.23 283.389L1580.13 1313.78C1582.21 1322.13 1578.68 1330.86 1571.39 1335.42L670.817 1898.16C663.524 1902.72 654.126 1902.06 647.539 1896.53L-165.953 1213.93C-172.541 1208.4 -174.82 1199.26 -171.599 1191.29L226.21 206.678C229.432 198.705 237.421 193.712 246 194.312Z" stroke="url(#paint96_linear_1020_247)" stroke-opacity="0.2" stroke-width="0.3"/>
<path opacity="0.989899" d="M252.23 197.579L1307.72 289.923C1316.29 290.673 1323.4 296.853 1325.33 305.232L1563.68 1337.6C1565.61 1345.98 1561.93 1354.65 1554.56 1359.08L646.368 1904.78C638.997 1909.21 629.612 1908.39 623.122 1902.74L-176.512 1207.63C-183.002 1201.99 -185.121 1192.81 -181.761 1184.9L232.228 209.598C235.588 201.682 243.663 196.83 252.23 197.579Z" stroke="url(#paint97_linear_1020_247)" stroke-opacity="0.2" stroke-width="0.3"/>
<path d="M258.54 201.123L1309.86 311.621C1318.41 312.52 1325.41 318.824 1327.2 327.236L1546.99 1361.25C1548.77 1369.66 1544.94 1378.26 1537.5 1382.56L622.011 1911.12C614.564 1915.42 605.194 1914.43 598.804 1908.68L-186.783 1201.34C-193.174 1195.58 -195.132 1186.37 -191.635 1178.51L238.331 212.791C241.829 204.935 249.988 200.224 258.54 201.123Z" stroke="url(#paint98_linear_1020_247)" stroke-opacity="0.2" stroke-width="0.3"/>
</g>
<defs>
<linearGradient id="paint0_linear_1020_247" x1="1956.45" y1="563.369" x2="1132.46" y2="-491.291" gradientUnits="userSpaceOnUse">
<stop stop-color="#FF00F7"/>
<stop offset="1" stop-color="#00F0FF"/>
</linearGradient>
<linearGradient id="paint1_linear_1020_247" x1="1938.04" y1="579.137" x2="1134.05" y2="-487.792" gradientUnits="userSpaceOnUse">
<stop stop-color="#FF00F7"/>
<stop offset="1" stop-color="#00F0FF"/>
</linearGradient>
<linearGradient id="paint2_linear_1020_247" x1="1919.55" y1="594.722" x2="1135.74" y2="-484.101" gradientUnits="userSpaceOnUse">
<stop stop-color="#FF00F7"/>
<stop offset="1" stop-color="#00F0FF"/>
</linearGradient>
<linearGradient id="paint3_linear_1020_247" x1="1900.97" y1="610.124" x2="1137.51" y2="-480.213" gradientUnits="userSpaceOnUse">
<stop stop-color="#FF00F7"/>
<stop offset="1" stop-color="#00F0FF"/>
</linearGradient>
<linearGradient id="paint4_linear_1020_247" x1="1882.32" y1="625.338" x2="1139.37" y2="-476.133" gradientUnits="userSpaceOnUse">
<stop stop-color="#FF00F7"/>
<stop offset="1" stop-color="#00F0FF"/>
</linearGradient>
<linearGradient id="paint5_linear_1020_247" x1="1863.58" y1="640.362" x2="1141.3" y2="-471.859" gradientUnits="userSpaceOnUse">
<stop stop-color="#FF00F7"/>
<stop offset="1" stop-color="#00F0FF"/>
</linearGradient>
<linearGradient id="paint6_linear_1020_247" x1="1844.77" y1="655.196" x2="1143.3" y2="-467.389" gradientUnits="userSpaceOnUse">
<stop stop-color="#FF00F7"/>
<stop offset="1" stop-color="#00F0FF"/>
</linearGradient>
<linearGradient id="paint7_linear_1020_247" x1="1825.89" y1="669.846" x2="1145.38" y2="-462.717" gradientUnits="userSpaceOnUse">
<stop stop-color="#FF00F7"/>
<stop offset="1" stop-color="#00F0FF"/>
</linearGradient>
<linearGradient id="paint8_linear_1020_247" x1="1806.95" y1="684.302" x2="1147.53" y2="-457.85" gradientUnits="userSpaceOnUse">
<stop stop-color="#FF00F7"/>
<stop offset="1" stop-color="#00F0FF"/>
</linearGradient>
<linearGradient id="paint9_linear_1020_247" x1="1787.94" y1="698.565" x2="1149.74" y2="-452.786" gradientUnits="userSpaceOnUse">
<stop stop-color="#FF00F7"/>
<stop offset="1" stop-color="#00F0FF"/>
</linearGradient>
<linearGradient id="paint10_linear_1020_247" x1="1768.87" y1="712.641" x2="1152.01" y2="-447.516" gradientUnits="userSpaceOnUse">
<stop stop-color="#FF00F7"/>
<stop offset="1" stop-color="#00F0FF"/>
</linearGradient>
<linearGradient id="paint11_linear_1020_247" x1="1749.75" y1="726.519" x2="1154.34" y2="-442.052" gradientUnits="userSpaceOnUse">
<stop stop-color="#FF00F7"/>
<stop offset="1" stop-color="#00F0FF"/>
</linearGradient>
<linearGradient id="paint12_linear_1020_247" x1="1730.57" y1="740.208" x2="1156.71" y2="-436.381" gradientUnits="userSpaceOnUse">
<stop stop-color="#FF00F7"/>
<stop offset="1" stop-color="#00F0FF"/>
</linearGradient>
<linearGradient id="paint13_linear_1020_247" x1="1711.35" y1="753.701" x2="1159.15" y2="-430.51" gradientUnits="userSpaceOnUse">
<stop stop-color="#FF00F7"/>
<stop offset="1" stop-color="#00F0FF"/>
</linearGradient>
<linearGradient id="paint14_linear_1020_247" x1="1692.08" y1="766.998" x2="1161.62" y2="-424.439" gradientUnits="userSpaceOnUse">
<stop stop-color="#FF00F7"/>
<stop offset="1" stop-color="#00F0FF"/>
</linearGradient>
<linearGradient id="paint15_linear_1020_247" x1="1672.77" y1="780.102" x2="1164.14" y2="-418.163" gradientUnits="userSpaceOnUse">
<stop stop-color="#FF00F7"/>
<stop offset="1" stop-color="#00F0FF"/>
</linearGradient>
<linearGradient id="paint16_linear_1020_247" x1="1653.42" y1="793.012" x2="1166.69" y2="-411.683" gradientUnits="userSpaceOnUse">
<stop stop-color="#FF00F7"/>
<stop offset="1" stop-color="#00F0FF"/>
</linearGradient>
<linearGradient id="paint17_linear_1020_247" x1="1634.04" y1="805.725" x2="1169.29" y2="-405.002" gradientUnits="userSpaceOnUse">
<stop stop-color="#FF00F7"/>
<stop offset="1" stop-color="#00F0FF"/>
</linearGradient>
<linearGradient id="paint18_linear_1020_247" x1="1614.63" y1="818.243" x2="1171.91" y2="-398.115" gradientUnits="userSpaceOnUse">
<stop stop-color="#FF00F7"/>
<stop offset="1" stop-color="#00F0FF"/>
</linearGradient>
<linearGradient id="paint19_linear_1020_247" x1="1595.18" y1="830.56" x2="1174.55" y2="-391.031" gradientUnits="userSpaceOnUse">
<stop stop-color="#FF00F7"/>
<stop offset="1" stop-color="#00F0FF"/>
</linearGradient>
<linearGradient id="paint20_linear_1020_247" x1="1575.71" y1="842.688" x2="1177.23" y2="-383.734" gradientUnits="userSpaceOnUse">
<stop stop-color="#FF00F7"/>
<stop offset="1" stop-color="#00F0FF"/>
</linearGradient>
<linearGradient id="paint21_linear_1020_247" x1="1556.22" y1="854.614" x2="1179.91" y2="-376.24" gradientUnits="userSpaceOnUse">
<stop stop-color="#FF00F7"/>
<stop offset="1" stop-color="#00F0FF"/>
</linearGradient>
<linearGradient id="paint22_linear_1020_247" x1="1536.72" y1="866.348" x2="1182.62" y2="-368.538" gradientUnits="userSpaceOnUse">
<stop stop-color="#FF00F7"/>
<stop offset="1" stop-color="#00F0FF"/>
</linearGradient>
<linearGradient id="paint23_linear_1020_247" x1="1517.21" y1="877.887" x2="1185.35" y2="-360.633" gradientUnits="userSpaceOnUse">
<stop stop-color="#FF00F7"/>
<stop offset="1" stop-color="#00F0FF"/>
</linearGradient>
<linearGradient id="paint24_linear_1020_247" x1="1497.67" y1="889.226" x2="1188.07" y2="-352.527" gradientUnits="userSpaceOnUse">
<stop stop-color="#FF00F7"/>
<stop offset="1" stop-color="#00F0FF"/>
</linearGradient>
<linearGradient id="paint25_linear_1020_247" x1="1478.14" y1="900.37" x2="1190.8" y2="-344.218" gradientUnits="userSpaceOnUse">
<stop stop-color="#FF00F7"/>
<stop offset="1" stop-color="#00F0FF"/>
</linearGradient>
<linearGradient id="paint26_linear_1020_247" x1="1458.6" y1="911.32" x2="1193.54" y2="-335.703" gradientUnits="userSpaceOnUse">
<stop stop-color="#FF00F7"/>
<stop offset="1" stop-color="#00F0FF"/>
</linearGradient>
<linearGradient id="paint27_linear_1020_247" x1="1439.07" y1="922.075" x2="1196.28" y2="-326.987" gradientUnits="userSpaceOnUse">
<stop stop-color="#FF00F7"/>
<stop offset="1" stop-color="#00F0FF"/>
</linearGradient>
<linearGradient id="paint28_linear_1020_247" x1="1419.54" y1="932.637" x2="1199" y2="-318.067" gradientUnits="userSpaceOnUse">
<stop stop-color="#FF00F7"/>
<stop offset="1" stop-color="#00F0FF"/>
</linearGradient>
<linearGradient id="paint29_linear_1020_247" x1="1400.01" y1="943.001" x2="1201.72" y2="-308.949" gradientUnits="userSpaceOnUse">
<stop stop-color="#FF00F7"/>
<stop offset="1" stop-color="#00F0FF"/>
</linearGradient>
<linearGradient id="paint30_linear_1020_247" x1="1380.5" y1="953.176" x2="1204.43" y2="-299.626" gradientUnits="userSpaceOnUse">
<stop stop-color="#FF00F7"/>
<stop offset="1" stop-color="#00F0FF"/>
</linearGradient>
<linearGradient id="paint31_linear_1020_247" x1="1361" y1="963.152" x2="1207.12" y2="-290.108" gradientUnits="userSpaceOnUse">
<stop stop-color="#FF00F7"/>
<stop offset="1" stop-color="#00F0FF"/>
</linearGradient>
<linearGradient id="paint32_linear_1020_247" x1="1341.52" y1="972.94" x2="1209.79" y2="-280.385" gradientUnits="userSpaceOnUse">
<stop stop-color="#FF00F7"/>
<stop offset="1" stop-color="#00F0FF"/>
</linearGradient>
<linearGradient id="paint33_linear_1020_247" x1="1322.06" y1="982.534" x2="1212.43" y2="-270.466" gradientUnits="userSpaceOnUse">
<stop stop-color="#FF00F7"/>
<stop offset="1" stop-color="#00F0FF"/>
</linearGradient>
<linearGradient id="paint34_linear_1020_247" x1="1302.62" y1="991.94" x2="1215.05" y2="-260.346" gradientUnits="userSpaceOnUse">
<stop stop-color="#FF00F7"/>
<stop offset="1" stop-color="#00F0FF"/>
</linearGradient>
<linearGradient id="paint35_linear_1020_247" x1="1283.21" y1="1001.15" x2="1217.64" y2="-250.032" gradientUnits="userSpaceOnUse">
<stop stop-color="#FF00F7"/>
<stop offset="1" stop-color="#00F0FF"/>
</linearGradient>
<linearGradient id="paint36_linear_1020_247" x1="1263.84" y1="1010.18" x2="1220.2" y2="-239.518" gradientUnits="userSpaceOnUse">
<stop stop-color="#FF00F7"/>
<stop offset="1" stop-color="#00F0FF"/>
</linearGradient>
<linearGradient id="paint37_linear_1020_247" x1="1244.5" y1="1019.01" x2="1222.71" y2="-228.813" gradientUnits="userSpaceOnUse">
<stop stop-color="#FF00F7"/>
<stop offset="1" stop-color="#00F0FF"/>
</linearGradient>
<linearGradient id="paint38_linear_1020_247" x1="1225.19" y1="1027.66" x2="1225.19" y2="-217.91" gradientUnits="userSpaceOnUse">
<stop stop-color="#FF00F7"/>
<stop offset="1" stop-color="#00F0FF"/>
</linearGradient>
<linearGradient id="paint39_linear_1020_247" x1="1205.93" y1="1036.12" x2="1227.62" y2="-206.82" gradientUnits="userSpaceOnUse">
<stop stop-color="#FF00F7"/>
<stop offset="1" stop-color="#00F0FF"/>
</linearGradient>
<linearGradient id="paint40_linear_1020_247" x1="1186.71" y1="1044.4" x2="1230.01" y2="-195.531" gradientUnits="userSpaceOnUse">
<stop stop-color="#FF00F7"/>
<stop offset="1" stop-color="#00F0FF"/>
</linearGradient>
<linearGradient id="paint41_linear_1020_247" x1="1167.54" y1="1052.5" x2="1232.34" y2="-184.053" gradientUnits="userSpaceOnUse">
<stop stop-color="#FF00F7"/>
<stop offset="1" stop-color="#00F0FF"/>
</linearGradient>
<linearGradient id="paint42_linear_1020_247" x1="1148.42" y1="1060.41" x2="1234.62" y2="-172.388" gradientUnits="userSpaceOnUse">
<stop stop-color="#FF00F7"/>
<stop offset="1" stop-color="#00F0FF"/>
</linearGradient>
<linearGradient id="paint43_linear_1020_247" x1="1129.35" y1="1068.14" x2="1236.85" y2="-160.533" gradientUnits="userSpaceOnUse">
<stop stop-color="#FF00F7"/>
<stop offset="1" stop-color="#00F0FF"/>
</linearGradient>
<linearGradient id="paint44_linear_1020_247" x1="1110.34" y1="1075.69" x2="1239.01" y2="-148.489" gradientUnits="userSpaceOnUse">
<stop stop-color="#FF00F7"/>
<stop offset="1" stop-color="#00F0FF"/>
</linearGradient>
<linearGradient id="paint45_linear_1020_247" x1="1091.4" y1="1083.06" x2="1241.11" y2="-136.263" gradientUnits="userSpaceOnUse">
<stop stop-color="#FF00F7"/>
<stop offset="1" stop-color="#00F0FF"/>
</linearGradient>
<linearGradient id="paint46_linear_1020_247" x1="1072.51" y1="1090.25" x2="1243.14" y2="-123.854" gradientUnits="userSpaceOnUse">
<stop stop-color="#FF00F7"/>
<stop offset="1" stop-color="#00F0FF"/>
</linearGradient>
<linearGradient id="paint47_linear_1020_247" x1="1053.69" y1="1097.27" x2="1245.1" y2="-111.262" gradientUnits="userSpaceOnUse">
<stop stop-color="#FF00F7"/>
<stop offset="1" stop-color="#00F0FF"/>
</linearGradient>
<linearGradient id="paint48_linear_1020_247" x1="1034.94" y1="1104.11" x2="1246.99" y2="-98.4916" gradientUnits="userSpaceOnUse">
<stop stop-color="#FF00F7"/>
<stop offset="1" stop-color="#00F0FF"/>
</linearGradient>
<linearGradient id="paint49_linear_1020_247" x1="1016.26" y1="1110.78" x2="1248.8" y2="-85.5373" gradientUnits="userSpaceOnUse">
<stop stop-color="#FF00F7"/>
<stop offset="1" stop-color="#00F0FF"/>
</linearGradient>
<linearGradient id="paint50_linear_1020_247" x1="997.66" y1="1117.28" x2="1250.54" y2="-72.4078" gradientUnits="userSpaceOnUse">
<stop stop-color="#FF00F7"/>
<stop offset="1" stop-color="#00F0FF"/>
</linearGradient>
<linearGradient id="paint51_linear_1020_247" x1="979.135" y1="1123.61" x2="1252.19" y2="-59.1044" gradientUnits="userSpaceOnUse">
<stop stop-color="#FF00F7"/>
<stop offset="1" stop-color="#00F0FF"/>
</linearGradient>
<linearGradient id="paint52_linear_1020_247" x1="960.693" y1="1129.77" x2="1253.75" y2="-45.626" gradientUnits="userSpaceOnUse">
<stop stop-color="#FF00F7"/>
<stop offset="1" stop-color="#00F0FF"/>
</linearGradient>
<linearGradient id="paint53_linear_1020_247" x1="942.332" y1="1135.77" x2="1255.23" y2="-31.9769" gradientUnits="userSpaceOnUse">
<stop stop-color="#FF00F7"/>
<stop offset="1" stop-color="#00F0FF"/>
</linearGradient>
<linearGradient id="paint54_linear_1020_247" x1="924.058" y1="1141.6" x2="1256.61" y2="-18.1593" gradientUnits="userSpaceOnUse">
<stop stop-color="#FF00F7"/>
<stop offset="1" stop-color="#00F0FF"/>
</linearGradient>
<linearGradient id="paint55_linear_1020_247" x1="905.875" y1="1147.27" x2="1257.91" y2="-4.17126" gradientUnits="userSpaceOnUse">
<stop stop-color="#FF00F7"/>
<stop offset="1" stop-color="#00F0FF"/>
</linearGradient>
<linearGradient id="paint56_linear_1020_247" x1="887.783" y1="1152.78" x2="1259.1" y2="9.97924" gradientUnits="userSpaceOnUse">
<stop stop-color="#FF00F7"/>
<stop offset="1" stop-color="#00F0FF"/>
</linearGradient>
<linearGradient id="paint57_linear_1020_247" x1="869.787" y1="1158.14" x2="1260.2" y2="24.2965" gradientUnits="userSpaceOnUse">
<stop stop-color="#FF00F7"/>
<stop offset="1" stop-color="#00F0FF"/>
</linearGradient>
<linearGradient id="paint58_linear_1020_247" x1="851.886" y1="1163.33" x2="1261.19" y2="38.7732" gradientUnits="userSpaceOnUse">
<stop stop-color="#FF00F7"/>
<stop offset="1" stop-color="#00F0FF"/>
</linearGradient>
<linearGradient id="paint59_linear_1020_247" x1="834.087" y1="1168.37" x2="1262.08" y2="53.41" gradientUnits="userSpaceOnUse">
<stop stop-color="#FF00F7"/>
<stop offset="1" stop-color="#00F0FF"/>
</linearGradient>
<linearGradient id="paint60_linear_1020_247" x1="816.389" y1="1173.26" x2="1262.86" y2="68.2028" gradientUnits="userSpaceOnUse">
<stop stop-color="#FF00F7"/>
<stop offset="1" stop-color="#00F0FF"/>
</linearGradient>
<linearGradient id="paint61_linear_1020_247" x1="798.797" y1="1178" x2="1263.53" y2="83.1532" gradientUnits="userSpaceOnUse">
<stop stop-color="#FF00F7"/>
<stop offset="1" stop-color="#00F0FF"/>
</linearGradient>
<linearGradient id="paint62_linear_1020_247" x1="781.313" y1="1182.6" x2="1264.09" y2="98.2564" gradientUnits="userSpaceOnUse">
<stop stop-color="#FF00F7"/>
<stop offset="1" stop-color="#00F0FF"/>
</linearGradient>
<linearGradient id="paint63_linear_1020_247" x1="763.937" y1="1187.04" x2="1264.54" y2="113.507" gradientUnits="userSpaceOnUse">
<stop stop-color="#FF00F7"/>
<stop offset="1" stop-color="#00F0FF"/>
</linearGradient>
<linearGradient id="paint64_linear_1020_247" x1="746.676" y1="1191.35" x2="1264.86" y2="128.907" gradientUnits="userSpaceOnUse">
<stop stop-color="#FF00F7"/>
<stop offset="1" stop-color="#00F0FF"/>
</linearGradient>
<linearGradient id="paint65_linear_1020_247" x1="729.526" y1="1195.51" x2="1265.07" y2="144.449" gradientUnits="userSpaceOnUse">
<stop stop-color="#FF00F7"/>
<stop offset="1" stop-color="#00F0FF"/>
</linearGradient>
<linearGradient id="paint66_linear_1020_247" x1="712.493" y1="1199.54" x2="1265.15" y2="160.138" gradientUnits="userSpaceOnUse">
<stop stop-color="#FF00F7"/>
<stop offset="1" stop-color="#00F0FF"/>
</linearGradient>
<linearGradient id="paint67_linear_1020_247" x1="695.581" y1="1203.42" x2="1265.11" y2="175.965" gradientUnits="userSpaceOnUse">
<stop stop-color="#FF00F7"/>
<stop offset="1" stop-color="#00F0FF"/>
</linearGradient>
<linearGradient id="paint68_linear_1020_247" x1="678.789" y1="1207.18" x2="1264.94" y2="191.93" gradientUnits="userSpaceOnUse">
<stop stop-color="#FF00F7"/>
<stop offset="1" stop-color="#00F0FF"/>
</linearGradient>
<linearGradient id="paint69_linear_1020_247" x1="662.122" y1="1210.8" x2="1264.65" y2="208.034" gradientUnits="userSpaceOnUse">
<stop stop-color="#FF00F7"/>
<stop offset="1" stop-color="#00F0FF"/>
</linearGradient>
<linearGradient id="paint70_linear_1020_247" x1="645.578" y1="1214.29" x2="1264.22" y2="224.266" gradientUnits="userSpaceOnUse">
<stop stop-color="#FF00F7"/>
<stop offset="1" stop-color="#00F0FF"/>
</linearGradient>
<linearGradient id="paint71_linear_1020_247" x1="629.163" y1="1217.67" x2="1263.66" y2="240.632" gradientUnits="userSpaceOnUse">
<stop stop-color="#FF00F7"/>
<stop offset="1" stop-color="#00F0FF"/>
</linearGradient>
<linearGradient id="paint72_linear_1020_247" x1="612.878" y1="1220.91" x2="1262.96" y2="257.122" gradientUnits="userSpaceOnUse">
<stop stop-color="#FF00F7"/>
<stop offset="1" stop-color="#00F0FF"/>
</linearGradient>
<linearGradient id="paint73_linear_1020_247" x1="596.724" y1="1224.04" x2="1262.13" y2="273.742" gradientUnits="userSpaceOnUse">
<stop stop-color="#FF00F7"/>
<stop offset="1" stop-color="#00F0FF"/>
</linearGradient>
<linearGradient id="paint74_linear_1020_247" x1="580.701" y1="1227.04" x2="1261.15" y2="290.478" gradientUnits="userSpaceOnUse">
<stop stop-color="#FF00F7"/>
<stop offset="1" stop-color="#00F0FF"/>
</linearGradient>
<linearGradient id="paint75_linear_1020_247" x1="564.815" y1="1229.93" x2="1260.04" y2="307.336" gradientUnits="userSpaceOnUse">
<stop stop-color="#FF00F7"/>
<stop offset="1" stop-color="#00F0FF"/>
</linearGradient>
<linearGradient id="paint76_linear_1020_247" x1="549.067" y1="1232.71" x2="1258.78" y2="324.313" gradientUnits="userSpaceOnUse">
<stop stop-color="#FF00F7"/>
<stop offset="1" stop-color="#00F0FF"/>
</linearGradient>
<linearGradient id="paint77_linear_1020_247" x1="533.458" y1="1235.37" x2="1257.38" y2="341.403" gradientUnits="userSpaceOnUse">
<stop stop-color="#FF00F7"/>
<stop offset="1" stop-color="#00F0FF"/>
</linearGradient>
<linearGradient id="paint78_linear_1020_247" x1="517.986" y1="1237.93" x2="1255.83" y2="358.6" gradientUnits="userSpaceOnUse">
<stop stop-color="#FF00F7"/>
<stop offset="1" stop-color="#00F0FF"/>
</linearGradient>
<linearGradient id="paint79_linear_1020_247" x1="502.659" y1="1240.38" x2="1254.14" y2="375.91" gradientUnits="userSpaceOnUse">
<stop stop-color="#FF00F7"/>
<stop offset="1" stop-color="#00F0FF"/>
</linearGradient>
<linearGradient id="paint80_linear_1020_247" x1="487.473" y1="1242.73" x2="1252.29" y2="393.321" gradientUnits="userSpaceOnUse">
<stop stop-color="#FF00F7"/>
<stop offset="1" stop-color="#00F0FF"/>
</linearGradient>
<linearGradient id="paint81_linear_1020_247" x1="472.432" y1="1244.99" x2="1250.29" y2="410.836" gradientUnits="userSpaceOnUse">
<stop stop-color="#FF00F7"/>
<stop offset="1" stop-color="#00F0FF"/>
</linearGradient>
<linearGradient id="paint82_linear_1020_247" x1="457.538" y1="1247.14" x2="1248.14" y2="428.448" gradientUnits="userSpaceOnUse">
<stop stop-color="#FF00F7"/>
<stop offset="1" stop-color="#00F0FF"/>
</linearGradient>
<linearGradient id="paint83_linear_1020_247" x1="442.794" y1="1249.2" x2="1245.83" y2="446.16" gradientUnits="userSpaceOnUse">
<stop stop-color="#FF00F7"/>
<stop offset="1" stop-color="#00F0FF"/>
</linearGradient>
<linearGradient id="paint84_linear_1020_247" x1="428.196" y1="1251.17" x2="1243.37" y2="463.962" gradientUnits="userSpaceOnUse">
<stop stop-color="#FF00F7"/>
<stop offset="1" stop-color="#00F0FF"/>
</linearGradient>
<linearGradient id="paint85_linear_1020_247" x1="413.75" y1="1253.05" x2="1240.76" y2="481.856" gradientUnits="userSpaceOnUse">
<stop stop-color="#FF00F7"/>
<stop offset="1" stop-color="#00F0FF"/>
</linearGradient>
<linearGradient id="paint86_linear_1020_247" x1="399.457" y1="1254.85" x2="1237.98" y2="499.839" gradientUnits="userSpaceOnUse">
<stop stop-color="#FF00F7"/>
<stop offset="1" stop-color="#00F0FF"/>
</linearGradient>
<linearGradient id="paint87_linear_1020_247" x1="385.315" y1="1256.56" x2="1235.04" y2="517.904" gradientUnits="userSpaceOnUse">
<stop stop-color="#FF00F7"/>
<stop offset="1" stop-color="#00F0FF"/>
</linearGradient>
<linearGradient id="paint88_linear_1020_247" x1="371.329" y1="1258.2" x2="1231.95" y2="536.051" gradientUnits="userSpaceOnUse">
<stop stop-color="#FF00F7"/>
<stop offset="1" stop-color="#00F0FF"/>
</linearGradient>
<linearGradient id="paint89_linear_1020_247" x1="357.499" y1="1259.76" x2="1228.69" y2="554.28" gradientUnits="userSpaceOnUse">
<stop stop-color="#FF00F7"/>
<stop offset="1" stop-color="#00F0FF"/>
</linearGradient>
<linearGradient id="paint90_linear_1020_247" x1="343.822" y1="1261.24" x2="1225.27" y2="572.577" gradientUnits="userSpaceOnUse">
<stop stop-color="#FF00F7"/>
<stop offset="1" stop-color="#00F0FF"/>
</linearGradient>
<linearGradient id="paint91_linear_1020_247" x1="330.304" y1="1262.66" x2="1221.69" y2="590.95" gradientUnits="userSpaceOnUse">
<stop stop-color="#FF00F7"/>
<stop offset="1" stop-color="#00F0FF"/>
</linearGradient>
<linearGradient id="paint92_linear_1020_247" x1="316.943" y1="1264" x2="1217.94" y2="609.393" gradientUnits="userSpaceOnUse">
<stop stop-color="#FF00F7"/>
<stop offset="1" stop-color="#00F0FF"/>
</linearGradient>
<linearGradient id="paint93_linear_1020_247" x1="303.744" y1="1265.29" x2="1214.03" y2="627.905" gradientUnits="userSpaceOnUse">
<stop stop-color="#FF00F7"/>
<stop offset="1" stop-color="#00F0FF"/>
</linearGradient>
<linearGradient id="paint94_linear_1020_247" x1="290.702" y1="1266.51" x2="1209.94" y2="646.472" gradientUnits="userSpaceOnUse">
<stop stop-color="#FF00F7"/>
<stop offset="1" stop-color="#00F0FF"/>
</linearGradient>
<linearGradient id="paint95_linear_1020_247" x1="277.822" y1="1267.67" x2="1205.7" y2="665.104" gradientUnits="userSpaceOnUse">
<stop stop-color="#FF00F7"/>
<stop offset="1" stop-color="#00F0FF"/>
</linearGradient>
<linearGradient id="paint96_linear_1020_247" x1="265.1" y1="1268.78" x2="1201.28" y2="683.787" gradientUnits="userSpaceOnUse">
<stop stop-color="#FF00F7"/>
<stop offset="1" stop-color="#00F0FF"/>
</linearGradient>
<linearGradient id="paint97_linear_1020_247" x1="252.543" y1="1269.83" x2="1196.7" y2="702.529" gradientUnits="userSpaceOnUse">
<stop stop-color="#FF00F7"/>
<stop offset="1" stop-color="#00F0FF"/>
</linearGradient>
<linearGradient id="paint98_linear_1020_247" x1="240.148" y1="1270.84" x2="1191.94" y2="721.32" gradientUnits="userSpaceOnUse">
<stop stop-color="#FF00F7"/>
<stop offset="1" stop-color="#00F0FF"/>
</linearGradient>
<clipPath id="clip0_1020_247">
<rect width="1920" height="2000" fill="white"/>
</clipPath>
</defs>
</svg>
