<svg width="3000" height="2000" viewBox="0 0 3000 2000" fill="none" xmlns="http://www.w3.org/2000/svg">
<g clip-path="url(#clip0_1019_141)">
<path opacity="0.010101" d="M1115.49 845.968C1107.26 843.609 1101.49 836.223 1101.19 827.672L1049.45 -654.039C1049.15 -662.59 1054.4 -670.361 1062.44 -673.288L2455.64 -1180.37C2463.68 -1183.3 2472.69 -1180.71 2477.96 -1173.97L3390.74 -5.65584C3396.01 1.08655 3396.34 10.454 3391.56 17.5474L2562.49 1246.69C2557.7 1253.78 2548.89 1256.99 2540.67 1254.63L1115.49 845.968Z" stroke="url(#paint0_linear_1019_141)" stroke-opacity="0.2" stroke-width="0.5"/>
<path opacity="0.020202" d="M1093.79 838.097C1085.6 835.595 1079.96 828.11 1079.81 819.555L1053.99 -660.076C1053.84 -668.631 1059.21 -676.309 1067.3 -679.095L2466.53 -1160.89C2474.62 -1163.67 2483.59 -1160.93 2488.74 -1154.1L3379.34 27.7649C3384.49 34.5982 3384.65 43.97 3379.74 50.9788L2530.93 1263.21C2526.02 1270.21 2517.16 1273.27 2508.98 1270.77L1093.79 838.097Z" stroke="url(#paint1_linear_1019_141)" stroke-opacity="0.2" stroke-width="0.5"/>
<path opacity="0.030303" d="M1072.44 830.056C1064.3 827.412 1058.79 819.829 1058.79 811.272L1058.79 -665.826C1058.79 -674.382 1064.3 -681.965 1072.44 -684.609L2477.24 -1141.06C2485.38 -1143.7 2494.3 -1140.8 2499.32 -1133.88L3367.54 61.1147C3372.57 68.0369 3372.57 77.41 3367.54 84.3321L2499.32 1279.33C2494.3 1286.25 2485.38 1289.15 2477.24 1286.5L1072.44 830.056Z" stroke="url(#paint2_linear_1019_141)" stroke-opacity="0.2" stroke-width="0.5"/>
<path opacity="0.040404" d="M1051.45 821.854C1043.36 819.069 1037.99 811.39 1038.14 802.835L1063.87 -671.279C1064.02 -679.834 1069.66 -687.32 1077.84 -689.822L2487.76 -1120.88C2495.94 -1123.38 2504.8 -1120.33 2509.71 -1113.32L3355.36 94.3903C3360.27 101.399 3360.1 110.771 3354.95 117.604L2467.67 1295.06C2462.52 1301.9 2453.56 1304.64 2445.47 1301.85L1051.45 821.854Z" stroke="url(#paint3_linear_1019_141)" stroke-opacity="0.2" stroke-width="0.5"/>
<path opacity="0.050505" d="M1030.83 813.493C1022.79 810.567 1017.55 802.796 1017.85 794.245L1069.21 -676.439C1069.51 -684.99 1075.28 -692.376 1083.5 -694.735L2498.07 -1100.36C2506.3 -1102.72 2515.11 -1099.51 2519.89 -1092.42L3342.79 127.579C3347.57 134.672 3347.25 144.04 3341.98 150.782L2435.98 1310.4C2430.72 1317.15 2421.71 1319.73 2413.67 1316.8L1030.83 813.493Z" stroke="url(#paint4_linear_1019_141)" stroke-opacity="0.2" stroke-width="0.5"/>
<path opacity="0.0606061" d="M1010.57 804.978C1002.58 801.912 997.479 794.051 997.926 785.506L1074.8 -681.303C1075.25 -689.847 1081.15 -697.132 1089.41 -699.346L2508.18 -1079.51C2516.45 -1081.72 2525.2 -1078.36 2529.86 -1071.19L3329.84 160.673C3334.5 167.849 3334.01 177.209 3328.62 183.858L2404.26 1325.35C2398.88 1332 2389.82 1334.42 2381.84 1331.36L1010.57 804.978Z" stroke="url(#paint5_linear_1019_141)" stroke-opacity="0.2" stroke-width="0.5"/>
<path opacity="0.0707071" d="M990.677 796.318C982.743 793.113 977.776 785.164 978.373 776.629L1080.64 -685.864C1081.24 -694.399 1087.26 -701.579 1095.56 -703.649L2518.08 -1058.32C2526.38 -1060.39 2535.07 -1056.88 2539.61 -1049.62L3316.5 193.668C3321.04 200.924 3320.38 210.274 3314.88 216.828L2372.51 1339.9C2367.02 1346.45 2357.92 1348.72 2349.99 1345.52L990.677 796.318Z" stroke="url(#paint6_linear_1019_141)" stroke-opacity="0.2" stroke-width="0.5"/>
<path opacity="0.0808081" d="M971.15 787.527C963.274 784.183 958.446 776.149 959.192 767.625L1086.73 -690.111C1087.47 -698.635 1093.62 -705.709 1101.96 -707.634L2527.76 -1036.81C2536.1 -1038.73 2544.72 -1035.07 2549.13 -1027.73L3302.79 226.563C3307.2 233.897 3306.38 243.235 3300.77 249.692L2340.75 1354.06C2335.14 1360.52 2326.01 1362.63 2318.13 1359.29L971.15 787.527Z" stroke="url(#paint7_linear_1019_141)" stroke-opacity="0.2" stroke-width="0.5"/>
<path opacity="0.0909091" d="M951.997 778.601C944.18 775.121 939.493 767.003 940.388 758.494L1093.06 -694.052C1093.95 -702.561 1100.22 -709.527 1108.59 -711.306L2537.22 -1014.97C2545.59 -1016.75 2554.15 -1012.94 2558.43 -1005.53L3288.71 259.343C3292.98 266.753 3292 276.075 3286.28 282.434L2308.98 1367.83C2303.26 1374.19 2294.09 1376.14 2286.27 1372.66L951.997 778.601Z" stroke="url(#paint8_linear_1019_141)" stroke-opacity="0.2" stroke-width="0.5"/>
<path opacity="0.10101" d="M933.209 769.549C925.454 765.933 920.91 757.735 921.953 749.242L1099.61 -697.68C1100.66 -706.172 1107.05 -713.027 1115.45 -714.66L2546.45 -992.819C2554.85 -994.452 2563.35 -990.49 2567.49 -983.007L3274.24 292.003C3278.39 299.487 3277.25 308.79 3271.41 315.048L2277.2 1381.21C2271.37 1387.46 2262.17 1389.25 2254.41 1385.64L933.209 769.549Z" stroke="url(#paint9_linear_1019_141)" stroke-opacity="0.2" stroke-width="0.5"/>
<path opacity="0.111111" d="M914.795 760.386C907.105 756.635 902.704 748.359 903.895 739.886L1106.4 -700.983C1107.59 -709.456 1114.1 -716.199 1122.52 -717.684L2555.45 -970.348C2563.87 -971.833 2572.3 -967.724 2576.32 -960.17L3259.41 324.545C3263.43 332.1 3262.12 341.382 3256.18 347.536L2245.43 1394.2C2239.49 1400.35 2230.26 1401.98 2222.57 1398.23L914.795 760.386Z" stroke="url(#paint10_linear_1019_141)" stroke-opacity="0.2" stroke-width="0.5"/>
<path opacity="0.121212" d="M896.759 751.106C889.136 747.222 884.88 738.87 886.219 730.419L1113.4 -703.972C1114.74 -712.422 1121.37 -719.05 1129.82 -720.389L2564.21 -947.574C2572.66 -948.912 2581.01 -944.657 2584.9 -937.033L3244.22 356.949C3248.1 364.573 3246.63 373.831 3240.58 379.881L2213.67 1406.79C2207.62 1412.84 2198.37 1414.31 2190.74 1410.42L896.759 751.106Z" stroke="url(#paint11_linear_1019_141)" stroke-opacity="0.2" stroke-width="0.5"/>
<path opacity="0.131313" d="M879.09 741.729C871.536 737.712 867.427 729.288 868.912 720.862L1120.62 -706.63C1122.1 -715.056 1128.85 -721.567 1137.32 -722.758L2572.72 -924.491C2581.2 -925.682 2589.47 -921.281 2593.22 -913.591L3228.65 389.222C3232.4 396.913 3230.77 406.143 3224.62 412.087L2181.93 1419C2175.77 1424.95 2166.49 1426.25 2158.93 1422.23L879.09 741.729Z" stroke="url(#paint12_linear_1019_141)" stroke-opacity="0.2" stroke-width="0.5"/>
<path opacity="0.141414" d="M861.808 732.255C854.324 728.106 850.363 719.611 851.996 711.212L1128.05 -708.961C1129.68 -717.36 1136.54 -723.752 1145.03 -724.795L2581 -901.11C2589.49 -902.153 2597.69 -897.608 2601.31 -889.854L3212.73 421.35C3216.35 429.105 3214.56 438.306 3208.3 444.141L2150.21 1430.83C2143.95 1436.66 2134.65 1437.8 2127.17 1433.65L861.808 732.255Z" stroke="url(#paint13_linear_1019_141)" stroke-opacity="0.2" stroke-width="0.5"/>
<path opacity="0.151515" d="M844.896 722.687C837.486 718.408 833.674 709.846 835.452 701.476L1135.68 -710.964C1137.45 -719.334 1144.42 -725.606 1152.93 -726.5L2589.01 -877.439C2597.52 -878.333 2605.64 -873.646 2609.12 -865.83L3196.45 453.326C3199.93 461.142 3197.98 470.311 3191.62 476.036L2118.52 1442.26C2112.16 1447.98 2102.84 1448.96 2095.43 1444.68L844.896 722.687Z" stroke="url(#paint14_linear_1019_141)" stroke-opacity="0.2" stroke-width="0.5"/>
<path opacity="0.161616" d="M828.366 713.04C821.032 708.633 817.37 700.005 819.294 691.668L1143.5 -712.63C1145.43 -720.967 1152.5 -727.117 1161.02 -727.862L2596.78 -853.474C2605.3 -854.22 2613.34 -849.393 2616.68 -841.516L3179.81 485.149C3183.16 493.025 3181.05 502.158 3174.59 507.771L2086.88 1453.31C2080.42 1458.92 2071.08 1459.74 2063.75 1455.33L828.366 713.04Z" stroke="url(#paint15_linear_1019_141)" stroke-opacity="0.2" stroke-width="0.5"/>
<path opacity="0.171717" d="M812.21 703.318C804.954 698.784 801.442 690.093 803.512 681.791L1151.51 -713.958C1153.58 -722.26 1160.76 -728.285 1169.3 -728.882L2604.27 -829.225C2612.81 -829.822 2620.76 -824.855 2623.96 -816.922L3162.82 516.812C3166.03 524.745 3163.76 533.84 3157.21 539.34L2055.27 1463.98C2048.72 1469.48 2039.36 1470.13 2032.11 1465.6L812.21 703.318Z" stroke="url(#paint16_linear_1019_141)" stroke-opacity="0.2" stroke-width="0.5"/>
<path opacity="0.181818" d="M796.44 693.526C789.265 688.866 785.905 680.115 788.12 671.85L1159.71 -714.949C1161.93 -723.213 1169.21 -729.112 1177.75 -729.56L2611.51 -804.7C2620.05 -805.147 2627.91 -800.042 2630.98 -792.054L3145.5 548.305C3148.56 556.293 3146.14 565.347 3139.49 570.732L2023.72 1474.26C2017.07 1479.64 2007.71 1480.13 2000.54 1475.47L796.44 693.526Z" stroke="url(#paint17_linear_1019_141)" stroke-opacity="0.2" stroke-width="0.5"/>
<path opacity="0.191919" d="M781.048 683.673C773.954 678.889 770.748 670.081 773.107 661.856L1168.08 -715.595C1170.44 -723.819 1177.83 -729.59 1186.38 -729.889L2618.47 -779.899C2627.02 -780.197 2634.79 -774.956 2637.72 -766.916L3127.82 579.627C3130.74 587.668 3128.16 596.678 3121.42 601.946L1992.23 1484.16C1985.49 1489.43 1976.12 1489.76 1969.03 1484.97L781.048 683.673Z" stroke="url(#paint18_linear_1019_141)" stroke-opacity="0.2" stroke-width="0.5"/>
<path opacity="0.20202" d="M766.028 673.758C759.02 668.851 755.968 659.988 758.469 651.806L1176.62 -715.904C1179.12 -724.086 1186.61 -729.727 1195.16 -729.876L2625.15 -754.837C2633.7 -754.986 2641.38 -749.61 2644.17 -741.52L3109.79 610.763C3112.58 618.853 3109.84 627.817 3103.01 632.966L1960.8 1493.68C1953.96 1498.83 1944.59 1499 1937.58 1494.09L766.028 673.758Z" stroke="url(#paint19_linear_1019_141)" stroke-opacity="0.2" stroke-width="0.5"/>
<path opacity="0.212121" d="M751.4 663.805C744.478 658.776 741.581 649.862 744.225 641.724L1185.33 -715.856C1187.97 -723.994 1195.56 -729.503 1204.11 -729.503L2631.56 -729.503C2640.11 -729.503 2647.7 -723.994 2650.34 -715.856L3091.45 641.724C3094.09 649.862 3091.19 658.776 3084.27 663.805L1929.44 1502.84C1922.52 1507.87 1913.15 1507.87 1906.23 1502.84L751.4 663.805Z" stroke="url(#paint20_linear_1019_141)" stroke-opacity="0.2" stroke-width="0.5"/>
<path opacity="0.222222" d="M737.145 653.804C730.312 648.654 727.571 639.691 730.357 631.601L1194.19 -715.466C1196.97 -723.556 1204.65 -728.932 1213.21 -728.783L2637.68 -703.919C2646.23 -703.769 2653.72 -698.129 2656.22 -689.946L3072.76 672.487C3075.26 680.67 3072.21 689.532 3065.2 694.44L1898.16 1511.61C1891.15 1516.51 1881.78 1516.35 1874.95 1511.2L737.145 653.804Z" stroke="url(#paint21_linear_1019_141)" stroke-opacity="0.2" stroke-width="0.5"/>
<path opacity="0.232323" d="M723.275 643.772C716.532 638.504 713.949 629.494 716.875 621.454L1203.2 -714.721C1206.13 -722.761 1213.9 -728.002 1222.45 -727.704L2643.51 -678.079C2652.06 -677.781 2659.45 -672.01 2661.81 -663.785L3053.74 703.059C3056.1 711.284 3052.9 720.092 3045.8 724.876L1866.97 1520.01C1859.88 1524.79 1850.51 1524.47 1843.77 1519.2L723.275 643.772Z" stroke="url(#paint22_linear_1019_141)" stroke-opacity="0.2" stroke-width="0.5"/>
<path opacity="0.242424" d="M709.787 633.713C703.137 628.329 700.711 619.275 703.778 611.287L1212.36 -713.621C1215.43 -721.609 1223.29 -726.714 1231.83 -726.266L2649.06 -651.993C2657.6 -651.545 2664.89 -645.646 2667.1 -637.382L3034.41 733.43C3036.62 741.695 3033.26 750.445 3026.09 755.105L1835.87 1528.04C1828.7 1532.7 1819.34 1532.21 1812.69 1526.82L709.787 633.713Z" stroke="url(#paint23_linear_1019_141)" stroke-opacity="0.2" stroke-width="0.5"/>
<path opacity="0.252525" d="M696.671 623.63C690.116 618.13 687.849 609.035 691.054 601.102L1221.65 -712.171C1224.86 -720.104 1232.8 -725.071 1241.34 -724.474L2654.3 -625.67C2662.84 -625.074 2670.02 -619.049 2672.09 -610.747L3014.75 763.59C3016.82 771.892 3013.3 780.583 3006.05 785.117L1804.86 1535.7C1797.61 1540.23 1788.26 1539.58 1781.7 1534.08L696.671 623.63Z" stroke="url(#paint24_linear_1019_141)" stroke-opacity="0.2" stroke-width="0.5"/>
<path opacity="0.262626" d="M683.938 613.533C677.481 607.919 675.372 598.786 678.716 590.91L1231.07 -710.363C1234.42 -718.239 1242.45 -723.066 1250.97 -722.321L2659.25 -599.113C2667.77 -598.367 2674.84 -592.218 2676.77 -583.881L2994.77 793.539C2996.7 801.876 2993.03 810.504 2985.7 814.911L1773.96 1542.99C1766.63 1547.4 1757.29 1546.58 1750.83 1540.97L683.938 613.533Z" stroke="url(#paint25_linear_1019_141)" stroke-opacity="0.2" stroke-width="0.5"/>
<path opacity="0.272727" d="M671.589 603.431C665.23 597.706 663.281 588.537 666.761 580.721L1240.62 -708.194C1244.1 -716.01 1252.22 -720.697 1260.73 -719.803L2663.89 -572.324C2672.4 -571.43 2679.37 -565.158 2681.15 -556.789L2974.49 823.273C2976.27 831.642 2972.46 840.205 2965.05 844.483L1743.18 1549.93C1735.77 1554.21 1726.44 1553.23 1720.09 1547.5L671.589 603.431Z" stroke="url(#paint26_linear_1019_141)" stroke-opacity="0.2" stroke-width="0.5"/>
<path opacity="0.282828" d="M659.618 593.328C653.36 587.493 651.571 578.292 655.187 570.537L1250.29 -705.666C1253.91 -713.42 1262.1 -717.965 1270.6 -716.922L2668.24 -545.313C2676.73 -544.271 2683.58 -537.878 2685.22 -529.479L2953.9 852.784C2955.53 861.183 2951.57 869.678 2944.09 873.826L1712.51 1556.5C1705.02 1560.65 1695.72 1559.51 1689.46 1553.67L659.618 593.328Z" stroke="url(#paint27_linear_1019_141)" stroke-opacity="0.2" stroke-width="0.5"/>
<path opacity="0.292929" d="M648.022 583.234C641.867 577.291 640.239 568.06 643.99 560.369L1260.07 -702.774C1263.82 -710.465 1272.09 -714.865 1280.57 -713.674L2672.26 -518.084C2680.74 -516.893 2687.48 -510.382 2688.97 -501.955L2933.01 882.07C2934.49 890.496 2930.38 898.921 2922.83 902.938L1681.96 1562.72C1674.4 1566.74 1665.12 1565.43 1658.96 1559.49L648.022 583.234Z" stroke="url(#paint28_linear_1019_141)" stroke-opacity="0.2" stroke-width="0.5"/>
<path opacity="0.30303" d="M636.801 573.148C630.751 567.098 629.284 557.84 633.169 550.216L1269.94 -699.525C1273.83 -707.149 1282.18 -711.404 1290.63 -710.066L2675.98 -490.648C2684.43 -489.309 2691.06 -482.681 2692.4 -474.23L2911.81 911.118C2913.15 919.569 2908.9 927.921 2901.27 931.805L1651.53 1568.58C1643.91 1572.46 1634.65 1571 1628.6 1564.95L636.801 573.148Z" stroke="url(#paint29_linear_1019_141)" stroke-opacity="0.2" stroke-width="0.5"/>
<path opacity="0.313131" d="M625.961 563.088C620.018 556.933 618.713 547.651 622.73 540.096L1279.92 -695.906C1283.94 -703.46 1292.37 -707.57 1300.79 -706.084L2679.38 -463.001C2687.81 -461.515 2694.32 -454.773 2695.51 -446.3L2890.33 939.936C2891.52 948.409 2887.12 956.685 2879.43 960.436L1621.25 1574.09C1613.56 1577.84 1604.33 1576.22 1598.38 1570.06L625.961 563.088Z" stroke="url(#paint30_linear_1019_141)" stroke-opacity="0.2" stroke-width="0.5"/>
<path opacity="0.323232" d="M615.49 553.047C609.655 546.789 608.513 537.486 612.661 530.002L1289.99 -691.929C1294.14 -699.413 1302.63 -703.374 1311.03 -701.741L2682.46 -435.162C2690.86 -433.53 2697.25 -426.674 2698.3 -418.182L2868.56 968.504C2869.6 976.997 2865.06 985.195 2857.3 988.811L1591.1 1579.25C1583.35 1582.87 1574.15 1581.08 1568.31 1574.82L615.49 553.047Z" stroke="url(#paint31_linear_1019_141)" stroke-opacity="0.2" stroke-width="0.5"/>
<path opacity="0.333333" d="M605.397 543.044C599.672 536.685 598.692 527.363 602.97 519.953L1300.14 -687.582C1304.42 -694.992 1312.98 -698.804 1321.35 -697.025L2685.22 -407.125C2693.59 -405.346 2699.86 -398.381 2700.76 -389.871L2846.51 996.832C2847.4 1005.34 2842.72 1013.46 2834.9 1016.94L1561.1 1584.07C1553.29 1587.55 1544.12 1585.6 1538.39 1579.24L605.397 543.044Z" stroke="url(#paint32_linear_1019_141)" stroke-opacity="0.2" stroke-width="0.5"/>
<path opacity="0.343434" d="M595.678 533.078C590.064 526.621 589.247 517.283 593.654 509.949L1310.37 -682.87C1314.78 -690.204 1323.41 -693.867 1331.74 -691.942L2687.66 -378.904C2696 -376.979 2702.15 -369.905 2702.89 -361.382L2824.18 1024.91C2824.92 1033.43 2820.1 1041.46 2812.22 1044.81L1531.26 1588.54C1523.38 1591.89 1514.25 1589.78 1508.64 1583.32L595.678 533.078Z" stroke="url(#paint33_linear_1019_141)" stroke-opacity="0.2" stroke-width="0.5"/>
<path opacity="0.353535" d="M586.327 523.162C580.827 516.608 580.174 507.257 584.708 500.001L1320.67 -677.789C1325.21 -685.045 1333.9 -688.556 1342.2 -686.486L2689.77 -350.499C2698.07 -348.429 2704.1 -341.249 2704.69 -332.713L2801.57 1052.73C2802.17 1061.26 2797.2 1069.21 2789.27 1072.42L1501.57 1592.68C1493.64 1595.89 1484.55 1593.62 1479.05 1587.06L586.327 523.162Z" stroke="url(#paint34_linear_1019_141)" stroke-opacity="0.2" stroke-width="0.5"/>
<path opacity="0.363636" d="M577.344 513.296C571.96 506.647 571.469 497.286 576.129 490.11L1331.03 -672.342C1335.69 -679.518 1344.45 -682.877 1352.71 -680.663L2691.55 -321.923C2699.81 -319.708 2705.71 -312.424 2706.16 -303.879L2778.7 1080.29C2779.15 1088.83 2774.04 1096.69 2766.05 1099.76L1472.05 1596.48C1464.06 1599.55 1455.01 1597.12 1449.62 1590.47L577.344 513.296Z" stroke="url(#paint35_linear_1019_141)" stroke-opacity="0.2" stroke-width="0.5"/>
<path opacity="0.373737" d="M568.732 503.492C563.465 496.75 563.137 487.382 567.922 480.289L1341.46 -666.525C1346.24 -673.618 1355.05 -676.824 1363.28 -674.466L2693 -293.175C2701.22 -290.816 2706.99 -283.43 2707.29 -274.879L2755.57 1107.59C2755.86 1116.14 2750.62 1123.91 2742.58 1126.83L1442.7 1599.95C1434.66 1602.88 1425.65 1600.3 1420.38 1593.55L568.732 503.492Z" stroke="url(#paint36_linear_1019_141)" stroke-opacity="0.2" stroke-width="0.5"/>
<path opacity="0.383838" d="M560.485 493.749C555.336 486.916 555.172 477.544 560.08 470.535L1351.93 -660.345C1356.84 -667.353 1365.7 -670.405 1373.88 -667.904L2694.11 -264.27C2702.29 -261.769 2707.93 -254.283 2708.08 -245.728L2732.18 1134.61C2732.32 1143.17 2726.95 1150.84 2718.86 1153.63L1413.52 1603.09C1405.43 1605.88 1396.47 1603.14 1391.32 1596.3L560.485 493.749Z" stroke="url(#paint37_linear_1019_141)" stroke-opacity="0.2" stroke-width="0.5"/>
<path opacity="0.393939" d="M552.6 484.082C547.571 477.16 547.571 467.786 552.6 460.864L1362.45 -653.792C1367.47 -660.714 1376.39 -663.611 1384.53 -660.967L2694.88 -235.206C2703.02 -232.562 2708.53 -224.979 2708.53 -216.422V1161.37C2708.53 1169.92 2703.02 1177.51 2694.88 1180.15L1384.53 1605.91C1376.39 1608.56 1367.47 1605.66 1362.45 1598.74L552.6 484.082Z" stroke="url(#paint38_linear_1019_141)" stroke-opacity="0.2" stroke-width="0.5"/>
<path opacity="0.40404" d="M545.076 474.487C540.169 467.478 540.332 458.106 545.481 451.273L1373 -646.877C1378.15 -653.71 1387.11 -656.451 1395.2 -653.665L2695.32 -205.998C2703.41 -203.212 2708.78 -195.534 2708.64 -186.979L2684.64 1187.84C2684.49 1196.4 2678.85 1203.88 2670.67 1206.39L1355.72 1608.41C1347.53 1610.91 1338.67 1607.86 1333.76 1600.85L545.076 474.487Z" stroke="url(#paint39_linear_1019_141)" stroke-opacity="0.2" stroke-width="0.5"/>
<path opacity="0.414141" d="M537.914 464.984C533.13 457.891 533.457 448.523 538.724 441.781L1383.58 -639.586C1388.85 -646.328 1397.86 -648.912 1405.9 -645.985L2695.41 -176.64C2703.45 -173.713 2708.7 -165.943 2708.4 -157.392L2660.51 1214.05C2660.21 1222.6 2654.44 1229.98 2646.21 1232.34L1327.1 1610.59C1318.87 1612.95 1310.06 1609.74 1305.28 1602.65L537.914 464.984Z" stroke="url(#paint40_linear_1019_141)" stroke-opacity="0.2" stroke-width="0.5"/>
<path opacity="0.424242" d="M531.111 455.57C526.451 448.394 526.942 439.034 532.326 432.384L1394.19 -631.929C1399.57 -638.578 1408.63 -641.004 1416.62 -637.938L2695.17 -147.147C2703.16 -144.081 2708.26 -136.22 2707.81 -127.676L2636.14 1239.96C2635.69 1248.51 2629.79 1255.79 2621.53 1258.01L1298.68 1612.46C1290.41 1614.68 1281.66 1611.32 1277 1604.14L531.111 455.57Z" stroke="url(#paint41_linear_1019_141)" stroke-opacity="0.2" stroke-width="0.5"/>
<path opacity="0.434343" d="M524.66 446.251C520.126 438.995 520.78 429.644 526.28 423.09L1404.81 -623.906C1410.31 -630.461 1419.41 -632.728 1427.34 -629.523L2694.58 -117.527C2702.51 -114.322 2707.48 -106.373 2706.88 -97.8376L2611.54 1265.59C2610.94 1274.12 2604.92 1281.31 2596.62 1283.38L1270.46 1614.02C1262.16 1616.09 1253.46 1612.58 1248.93 1605.33L524.66 446.251Z" stroke="url(#paint42_linear_1019_141)" stroke-opacity="0.2" stroke-width="0.5"/>
<path opacity="0.444444" d="M518.564 437.037C514.157 429.703 514.974 420.365 520.587 413.908L1415.45 -615.514C1421.06 -621.971 1430.2 -624.08 1438.07 -620.737L2693.64 -87.7807C2701.52 -84.4375 2706.34 -76.403 2705.6 -67.8793L2586.72 1290.93C2585.97 1299.45 2579.82 1306.53 2571.49 1308.45L1242.45 1615.28C1234.11 1617.21 1225.48 1613.55 1221.07 1606.21L518.564 437.037Z" stroke="url(#paint43_linear_1019_141)" stroke-opacity="0.2" stroke-width="0.5"/>
<path opacity="0.454545" d="M512.818 427.935C508.54 420.525 509.52 411.203 515.245 404.844L1426.09 -606.753C1431.82 -613.112 1440.99 -615.061 1448.8 -611.58L2692.36 -57.9146C2700.17 -54.4346 2704.86 -46.3171 2703.96 -37.8077L2561.68 1315.97C2560.78 1324.48 2554.51 1331.45 2546.14 1333.23L1214.65 1616.25C1206.28 1618.02 1197.72 1614.21 1193.44 1606.8L512.818 427.935Z" stroke="url(#paint44_linear_1019_141)" stroke-opacity="0.2" stroke-width="0.5"/>
<path opacity="0.464646" d="M507.419 418.945C503.271 411.461 504.414 402.158 510.249 395.9L1436.73 -597.63C1442.57 -603.887 1451.77 -605.676 1459.52 -602.06L2690.72 -27.9407C2698.48 -24.3247 2703.02 -16.1268 2701.98 -7.63426L2536.42 1340.72C2535.38 1349.21 2528.99 1356.07 2520.59 1357.7L1187.07 1616.91C1178.67 1618.54 1170.17 1614.58 1166.02 1607.1L507.419 418.945Z" stroke="url(#paint45_linear_1019_141)" stroke-opacity="0.2" stroke-width="0.5"/>
<path opacity="0.474747" d="M502.363 410.074C498.346 402.519 499.65 393.237 505.594 387.083L1447.36 -588.142C1453.3 -594.297 1462.53 -595.925 1470.22 -592.174L2688.74 2.13555C2696.43 5.88638 2700.83 14.1623 2699.64 22.6353L2510.96 1365.16C2509.77 1373.64 2503.26 1380.38 2494.83 1381.87L1159.7 1617.28C1151.28 1618.77 1142.85 1614.66 1138.84 1607.11L502.363 410.074Z" stroke="url(#paint46_linear_1019_141)" stroke-opacity="0.2" stroke-width="0.5"/>
<path opacity="0.484848" d="M497.65 401.333C493.766 393.709 495.232 384.451 501.282 378.401L1457.97 -578.289C1464.02 -584.339 1473.28 -585.805 1480.9 -581.921L2686.4 32.3118C2694.03 36.1961 2698.28 44.5477 2696.94 52.9986L2485.29 1389.31C2483.96 1397.76 2477.33 1404.38 2468.88 1405.72L1132.57 1617.37C1124.12 1618.71 1115.77 1614.46 1111.88 1606.83L497.65 401.333Z" stroke="url(#paint47_linear_1019_141)" stroke-opacity="0.2" stroke-width="0.5"/>
<path opacity="0.494949" d="M493.274 392.722C489.523 385.031 491.151 375.8 497.306 369.857L1468.56 -568.075C1474.72 -574.018 1484 -575.323 1491.55 -571.306L2683.71 62.5771C2691.27 66.594 2695.38 75.0187 2693.89 83.445L2459.43 1413.14C2457.95 1421.56 2451.2 1428.07 2442.73 1429.27L1105.66 1617.18C1097.19 1618.37 1088.92 1613.97 1085.17 1606.28L493.274 392.722Z" stroke="url(#paint48_linear_1019_141)" stroke-opacity="0.2" stroke-width="0.5"/>
<path opacity="0.50505" d="M489.239 384.255C485.623 376.5 487.411 367.299 493.669 361.464L1479.13 -557.492C1485.39 -563.328 1494.69 -564.47 1502.17 -560.322L2680.68 92.9332C2688.16 97.0812 2692.12 105.576 2690.49 113.975L2433.38 1436.67C2431.75 1445.06 2424.9 1451.46 2416.4 1452.5L1079 1616.71C1070.51 1617.75 1062.31 1613.21 1058.69 1605.46L489.239 384.255Z" stroke="url(#paint49_linear_1019_141)" stroke-opacity="0.2" stroke-width="0.5"/>
<path opacity="0.515152" d="M485.532 375.931C482.051 368.114 484 358.946 490.359 353.22L1489.66 -546.551C1496.02 -552.276 1505.34 -553.256 1512.75 -548.978L2677.28 123.366C2684.69 127.644 2688.5 136.207 2686.72 144.576L2407.15 1459.88C2405.37 1468.25 2398.4 1474.52 2389.89 1475.41L1052.57 1615.97C1044.06 1616.87 1035.95 1612.18 1032.47 1604.36L485.532 375.931Z" stroke="url(#paint50_linear_1019_141)" stroke-opacity="0.2" stroke-width="0.5"/>
<path opacity="0.525253" d="M482.155 367.755C478.812 359.879 480.92 350.746 487.378 345.132L1500.14 -535.253C1506.6 -540.866 1515.94 -541.683 1523.27 -537.277L2673.53 153.869C2680.87 158.275 2684.53 166.903 2682.6 175.24L2380.74 1482.78C2378.81 1491.11 2371.74 1497.26 2363.21 1498.01L1026.39 1614.97C1017.87 1615.71 1009.83 1610.88 1006.49 1603.01L482.155 367.755Z" stroke="url(#paint51_linear_1019_141)" stroke-opacity="0.2" stroke-width="0.5"/>
<path opacity="0.535354" d="M479.106 359.736C475.9 351.803 478.168 342.708 484.722 337.208L1510.59 -523.594C1517.14 -529.094 1526.49 -529.748 1533.75 -525.214L2669.43 184.439C2676.69 188.973 2680.2 197.664 2678.13 205.966L2354.15 1505.36C2352.08 1513.66 2344.9 1519.68 2336.37 1520.28L1000.46 1613.7C991.922 1614.29 983.973 1609.33 980.768 1601.39L479.106 359.736Z" stroke="url(#paint52_linear_1019_141)" stroke-opacity="0.2" stroke-width="0.5"/>
<path opacity="0.545455" d="M476.377 351.878C473.311 343.89 475.737 334.836 482.386 329.452L1520.97 -511.58C1527.62 -516.964 1536.98 -517.455 1544.16 -512.795L2664.97 215.068C2672.15 219.728 2675.5 228.478 2673.29 236.743L2327.4 1527.62C2325.19 1535.88 2317.9 1541.78 2309.36 1542.23L974.776 1612.17C966.232 1612.62 958.371 1607.51 955.304 1599.53L476.377 351.878Z" stroke="url(#paint53_linear_1019_141)" stroke-opacity="0.2" stroke-width="0.5"/>
<path opacity="0.555556" d="M473.966 344.185C471.04 336.145 473.623 327.134 480.366 321.867L1531.3 -499.212C1538.04 -504.48 1547.41 -504.807 1554.5 -500.023L2660.15 245.747C2667.25 250.532 2670.45 259.34 2668.09 267.564L2300.49 1549.55C2298.13 1557.78 2290.74 1563.55 2282.19 1563.85L949.351 1610.39C940.8 1610.69 933.029 1605.45 930.102 1597.41L473.966 344.185Z" stroke="url(#paint54_linear_1019_141)" stroke-opacity="0.2" stroke-width="0.5"/>
<path opacity="0.565657" d="M471.874 336.667C469.088 328.577 471.829 319.613 478.662 314.464L1541.56 -486.489C1548.4 -491.638 1557.77 -491.802 1564.78 -486.894L2654.98 276.476C2661.99 281.384 2665.04 290.246 2662.54 298.429L2273.42 1571.17C2270.92 1579.35 2263.44 1584.99 2254.88 1585.14L924.19 1608.37C915.635 1608.52 907.957 1603.14 905.171 1595.05L471.874 336.667Z" stroke="url(#paint55_linear_1019_141)" stroke-opacity="0.2" stroke-width="0.5"/>
<path opacity="0.575758" d="M470.09 329.322C467.446 321.185 470.343 312.27 477.265 307.241L1551.75 -473.418C1558.67 -478.447 1568.05 -478.447 1574.97 -473.418L2649.45 307.241C2656.38 312.27 2659.27 321.185 2656.63 329.322L2246.21 1592.46C2243.57 1600.59 2235.98 1606.1 2227.43 1606.1L899.291 1606.1C890.735 1606.1 883.151 1600.59 880.507 1592.46L470.09 329.322Z" stroke="url(#paint56_linear_1019_141)" stroke-opacity="0.2" stroke-width="0.5"/>
<path opacity="0.585859" d="M468.617 322.164C466.115 313.982 469.167 305.119 476.175 300.211L1561.86 -459.994C1568.87 -464.902 1578.24 -464.738 1585.08 -459.589L2643.57 338.044C2650.4 343.193 2653.14 352.156 2650.36 360.247L2218.86 1613.42C2216.07 1621.51 2208.39 1626.88 2199.84 1626.73L874.662 1603.6C866.107 1603.45 858.621 1597.81 856.12 1589.63L468.617 322.164Z" stroke="url(#paint57_linear_1019_141)" stroke-opacity="0.2" stroke-width="0.5"/>
<path opacity="0.59596" d="M467.444 315.191C465.085 306.966 468.291 298.158 475.385 293.374L1571.89 -446.226C1578.98 -451.011 1588.35 -450.684 1595.09 -445.416L2637.33 368.87C2644.07 374.138 2646.65 383.148 2643.73 391.188L2191.37 1634.04C2188.44 1642.08 2180.67 1647.33 2172.12 1647.03L850.303 1600.87C841.752 1600.57 834.366 1594.8 832.007 1586.57L467.444 315.191Z" stroke="url(#paint58_linear_1019_141)" stroke-opacity="0.2" stroke-width="0.5"/>
<path opacity="0.606061" d="M466.575 308.411C464.36 300.146 467.719 291.396 474.895 286.736L1581.82 -432.112C1589 -436.772 1598.36 -436.282 1605.01 -430.897L2630.73 399.718C2637.38 405.103 2639.81 414.157 2636.74 422.145L2163.75 1654.34C2160.68 1662.33 2152.82 1667.43 2144.28 1666.99L826.223 1597.91C817.679 1597.46 810.394 1591.56 808.18 1583.3L466.575 308.411Z" stroke="url(#paint59_linear_1019_141)" stroke-opacity="0.2" stroke-width="0.5"/>
<path opacity="0.616162" d="M465.998 301.828C463.928 293.525 467.439 284.835 474.695 280.301L1591.66 -417.658C1598.92 -422.191 1608.27 -421.538 1614.82 -416.038L2623.78 430.58C2630.34 436.079 2632.6 445.174 2629.4 453.107L2136 1674.3C2132.8 1682.24 2124.85 1687.2 2116.31 1686.61L802.419 1594.73C793.884 1594.13 786.704 1588.11 784.634 1579.81L465.998 301.828Z" stroke="url(#paint60_linear_1019_141)" stroke-opacity="0.2" stroke-width="0.5"/>
<path opacity="0.626263" d="M465.715 295.449C463.79 287.112 467.453 278.484 474.787 274.078L1601.4 -402.86C1608.73 -407.266 1618.07 -406.45 1624.53 -400.836L2616.48 461.451C2622.93 467.064 2625.04 476.197 2621.7 484.074L2108.14 1693.93C2104.8 1701.81 2096.77 1706.64 2088.24 1705.89L778.901 1591.34C770.377 1590.59 763.303 1584.44 761.378 1576.11L465.715 295.449Z" stroke="url(#paint61_linear_1019_141)" stroke-opacity="0.2" stroke-width="0.5"/>
<path opacity="0.636364" d="M465.719 289.278C463.94 280.909 467.753 272.346 475.163 268.068L1611.03 -387.725C1618.44 -392.003 1627.76 -391.023 1634.12 -385.298L2608.82 492.325C2615.18 498.05 2617.13 507.218 2613.64 515.035L2080.17 1713.23C2076.69 1721.04 2068.58 1725.73 2060.07 1724.84L755.667 1587.74C747.158 1586.84 740.192 1580.57 738.413 1572.2L465.719 289.278Z" stroke="url(#paint62_linear_1019_141)" stroke-opacity="0.2" stroke-width="0.5"/>
<path opacity="0.646465" d="M466.005 283.317C464.372 274.918 468.334 266.422 475.817 262.274L1620.54 -372.258C1628.03 -376.406 1637.33 -375.264 1643.59 -369.428L2600.8 523.19C2607.06 529.025 2608.85 538.226 2605.23 545.981L2052.1 1732.18C2048.48 1739.94 2040.29 1744.48 2031.79 1743.44L732.721 1583.93C724.229 1582.89 717.374 1576.5 715.741 1568.1L466.005 283.317Z" stroke="url(#paint63_linear_1019_141)" stroke-opacity="0.2" stroke-width="0.5"/>
<path opacity="0.656566" d="M466.573 277.573C465.087 269.146 469.196 260.722 476.751 256.705L1629.94 -356.457C1637.5 -360.474 1646.78 -359.17 1652.93 -353.226L2592.44 554.045C2598.59 559.989 2600.22 569.22 2596.47 576.91L2023.93 1750.8C2020.18 1758.49 2011.9 1762.89 2003.43 1761.7L710.071 1579.93C701.598 1578.74 694.855 1572.23 693.369 1563.8L466.573 277.573Z" stroke="url(#paint64_linear_1019_141)" stroke-opacity="0.2" stroke-width="0.5"/>
<path opacity="0.666667" d="M467.409 272.046C466.071 263.595 470.326 255.243 477.95 251.359L1639.21 -340.332C1646.83 -344.216 1656.09 -342.75 1662.14 -336.7L2583.72 584.879C2589.77 590.93 2591.24 600.188 2587.35 607.811L1995.66 1769.07C1991.78 1776.69 1983.42 1780.95 1974.97 1779.61L687.709 1575.73C679.259 1574.39 672.631 1567.76 671.292 1559.31L467.409 272.046Z" stroke="url(#paint65_linear_1019_141)" stroke-opacity="0.2" stroke-width="0.5"/>
<path opacity="0.676768" d="M468.518 266.748C467.327 258.275 471.728 249.999 479.418 246.249L1648.35 -323.876C1656.04 -327.626 1665.27 -325.999 1671.21 -319.844L2574.65 615.694C2580.59 621.849 2581.9 631.131 2577.88 638.686L1967.31 1787C1963.29 1794.56 1954.87 1798.67 1946.44 1797.18L665.648 1571.34C657.222 1569.86 650.711 1563.12 649.52 1554.64L468.518 266.748Z" stroke="url(#paint66_linear_1019_141)" stroke-opacity="0.2" stroke-width="0.5"/>
<path opacity="0.686869" d="M469.893 261.678C468.85 253.186 473.395 244.988 481.149 241.372L1657.35 -307.099C1665.1 -310.715 1674.3 -308.927 1680.14 -302.669L2565.23 646.476C2571.07 652.734 2572.21 662.037 2568.06 669.521L1938.88 1804.6C1934.73 1812.08 1926.24 1816.04 1917.84 1814.41L643.889 1566.78C635.49 1565.15 629.097 1558.29 628.054 1549.8L469.893 261.678Z" stroke="url(#paint67_linear_1019_141)" stroke-opacity="0.2" stroke-width="0.5"/>
<path opacity="0.69697" d="M471.526 256.842C470.631 248.332 475.318 240.215 483.134 236.735L1666.21 -290.003C1674.02 -293.483 1683.19 -291.535 1688.92 -285.176L2555.46 677.222C2561.19 683.581 2562.17 692.902 2557.89 700.312L1910.37 1821.85C1906.1 1829.26 1897.53 1833.07 1889.16 1831.29L622.429 1562.04C614.06 1560.26 607.788 1553.29 606.894 1544.78L471.526 256.842Z" stroke="url(#paint68_linear_1019_141)" stroke-opacity="0.2" stroke-width="0.5"/>
<path opacity="0.707071" d="M473.417 252.248C472.672 243.724 477.499 235.69 485.375 232.346L1674.92 -272.586C1682.8 -275.929 1691.93 -273.821 1697.54 -267.363L2545.35 707.93C2550.97 714.387 2551.78 723.725 2547.38 731.059L1881.81 1838.76C1877.4 1846.09 1868.77 1849.75 1860.43 1847.83L601.279 1557.13C592.942 1555.2 586.792 1548.13 586.047 1539.61L473.417 252.248Z" stroke="url(#paint69_linear_1019_141)" stroke-opacity="0.2" stroke-width="0.5"/>
<path opacity="0.717172" d="M475.558 247.89C474.961 239.355 479.928 231.406 487.861 228.201L1683.48 -254.861C1691.41 -258.066 1700.51 -255.799 1706.01 -249.244L2534.89 738.583C2540.39 745.138 2541.05 754.488 2536.51 761.744L1853.17 1855.32C1848.64 1862.57 1839.95 1866.08 1831.65 1864.01L580.434 1552.05C572.132 1549.98 566.107 1542.8 565.51 1534.27L475.558 247.89Z" stroke="url(#paint70_linear_1019_141)" stroke-opacity="0.2" stroke-width="0.5"/>
<path opacity="0.727273" d="M477.944 243.783C477.496 235.239 482.601 227.378 490.589 224.312L1691.88 -236.822C1699.87 -239.888 1708.92 -237.462 1714.31 -230.813L2524.09 769.187C2529.48 775.836 2529.97 785.197 2525.31 792.373L1824.49 1871.54C1819.83 1878.72 1811.08 1882.07 1802.81 1879.86L559.899 1546.82C551.634 1544.61 545.736 1537.32 545.288 1528.78L477.944 243.783Z" stroke="url(#paint71_linear_1019_141)" stroke-opacity="0.2" stroke-width="0.5"/>
<path opacity="0.737374" d="M480.573 239.924C480.275 231.373 485.516 223.602 493.556 220.675L1700.12 -218.479C1708.16 -221.405 1717.17 -218.821 1722.44 -212.079L2512.95 799.727C2518.22 806.469 2518.54 815.837 2513.76 822.931L1795.76 1887.42C1790.97 1894.51 1782.16 1897.71 1773.94 1895.36L539.678 1541.44C531.454 1539.08 525.683 1531.69 525.384 1523.14L480.573 239.924Z" stroke="url(#paint72_linear_1019_141)" stroke-opacity="0.2" stroke-width="0.5"/>
<path opacity="0.747475" d="M483.439 236.322C483.289 227.767 488.666 220.088 496.756 217.303L1708.19 -199.829C1716.28 -202.614 1725.25 -199.874 1730.4 -193.041L2501.47 830.205C2506.62 837.038 2506.78 846.41 2501.87 853.419L1766.98 1902.95C1762.07 1909.96 1753.21 1913.01 1745.03 1910.51L519.772 1535.91C511.59 1533.41 505.949 1525.92 505.799 1517.37L483.439 236.322Z" stroke="url(#paint73_linear_1019_141)" stroke-opacity="0.2" stroke-width="0.5"/>
<path opacity="0.757576" d="M486.531 232.971C486.531 224.414 492.04 216.831 500.178 214.187L1716.09 -180.886C1724.22 -183.53 1733.14 -180.633 1738.17 -173.711L2489.64 860.603C2494.67 867.526 2494.67 876.899 2489.64 883.821L1738.17 1918.14C1733.14 1925.06 1724.23 1927.95 1716.09 1925.31L500.178 1530.24C492.04 1527.59 486.531 1520.01 486.531 1511.45L486.531 232.971Z" stroke="url(#paint74_linear_1019_141)" stroke-opacity="0.2" stroke-width="0.5"/>
<path opacity="0.767677" d="M489.852 229.884C490.001 221.329 495.642 213.843 503.824 211.342L1723.81 -161.644C1731.99 -164.145 1740.85 -161.094 1745.76 -154.085L2477.48 890.928C2482.39 897.936 2482.23 907.308 2477.08 914.142L1709.33 1932.98C1704.18 1939.81 1695.22 1942.55 1687.13 1939.77L480.904 1524.43C472.814 1521.65 467.438 1513.97 467.587 1505.41L489.852 229.884Z" stroke="url(#paint75_linear_1019_141)" stroke-opacity="0.2" stroke-width="0.5"/>
<path opacity="0.777778" d="M493.394 227.065C493.693 218.514 499.464 211.127 507.688 208.769L1731.34 -142.108C1739.57 -144.466 1748.37 -141.261 1753.16 -134.167L2464.99 921.17C2469.78 928.263 2469.45 937.631 2464.18 944.373L1680.47 1947.48C1675.2 1954.23 1666.19 1956.81 1658.15 1953.88L461.951 1518.5C453.911 1515.58 448.67 1507.81 448.968 1499.26L493.394 227.065Z" stroke="url(#paint76_linear_1019_141)" stroke-opacity="0.2" stroke-width="0.5"/>
<path opacity="0.787879" d="M497.154 224.513C497.602 215.968 503.501 208.684 511.766 206.469L1738.69 -122.285C1746.96 -124.499 1755.71 -121.14 1760.37 -113.964L2452.17 951.322C2456.83 958.497 2456.34 967.858 2450.96 974.507L1651.59 1961.64C1646.2 1968.29 1637.15 1970.72 1629.16 1967.65L443.322 1512.45C435.334 1509.39 430.229 1501.52 430.677 1492.98L497.154 224.513Z" stroke="url(#paint77_linear_1019_141)" stroke-opacity="0.2" stroke-width="0.5"/>
<path opacity="0.79798" d="M501.12 222.227C501.717 213.691 507.742 206.511 516.044 204.441L1745.84 -102.183C1754.15 -104.252 1762.84 -100.741 1767.37 -93.4853L2439.02 981.372C2443.55 988.629 2442.9 997.979 2437.4 1004.53L1622.7 1975.46C1617.2 1982.01 1608.1 1984.28 1600.17 1981.07L425.01 1506.28C417.077 1503.07 412.11 1495.12 412.707 1486.59L501.12 222.227Z" stroke="url(#paint78_linear_1019_141)" stroke-opacity="0.2" stroke-width="0.5"/>
<path opacity="0.808081" d="M505.293 220.22C506.038 211.696 512.188 204.622 520.525 202.697L1752.8 -81.7961C1761.14 -83.7208 1769.77 -80.0584 1774.17 -72.7243L2425.54 1011.33C2429.94 1018.66 2429.13 1028 2423.51 1034.46L1593.8 1988.93C1588.19 1995.39 1579.06 1997.5 1571.18 1994.15L407.025 1500C399.149 1496.66 394.322 1488.62 395.068 1480.1L505.293 220.22Z" stroke="url(#paint79_linear_1019_141)" stroke-opacity="0.2" stroke-width="0.5"/>
<path opacity="0.818182" d="M509.663 218.487C510.558 209.978 516.83 203.012 525.199 201.233L1759.55 -61.1374C1767.92 -62.9164 1776.49 -59.104 1780.77 -51.6942L2411.73 1041.17C2416.01 1048.58 2415.03 1057.9 2409.3 1064.26L1564.91 2002.06C1559.18 2008.42 1550.01 2010.37 1542.2 2006.89L389.364 1493.61C381.548 1490.13 376.861 1482.02 377.756 1473.51L509.663 218.487Z" stroke="url(#paint80_linear_1019_141)" stroke-opacity="0.2" stroke-width="0.5"/>
<path opacity="0.828283" d="M514.229 217.036C515.272 208.544 521.664 201.688 530.063 200.056L1766.1 -40.2058C1774.5 -41.8384 1783 -37.8772 1787.14 -30.3938L2397.6 1070.9C2401.75 1078.39 2400.61 1087.69 2394.77 1093.95L1536.02 2014.85C1530.18 2021.11 1520.98 2022.9 1513.23 2019.28L372.03 1487.13C364.276 1483.51 359.731 1475.32 360.774 1466.82L514.229 217.036Z" stroke="url(#paint81_linear_1019_141)" stroke-opacity="0.2" stroke-width="0.5"/>
<path opacity="0.838384" d="M518.983 215.865C520.174 207.392 526.685 200.65 535.112 199.164L1772.44 -19.0102C1780.87 -20.496 1789.29 -16.3872 1793.31 -8.83249L2383.16 1100.52C2387.17 1108.07 2385.87 1117.35 2379.93 1123.51L1507.15 2027.3C1501.2 2033.45 1491.97 2035.08 1484.28 2031.33L355.024 1480.55C347.334 1476.8 342.933 1468.53 344.124 1460.05L518.983 215.865Z" stroke="url(#paint82_linear_1019_141)" stroke-opacity="0.2" stroke-width="0.5"/>
<path opacity="0.848485" d="M523.922 214.985C525.261 206.534 531.889 199.906 540.339 198.568L1778.56 2.45281C1787.01 1.11434 1795.36 5.36958 1799.25 12.9932L2368.4 1130.01C2372.28 1137.63 2370.82 1146.89 2364.76 1152.94L1478.3 2039.41C1472.25 2045.46 1462.99 2046.93 1455.36 2043.04L338.348 1473.89C330.724 1470.01 326.469 1461.66 327.807 1453.21L523.922 214.985Z" stroke="url(#paint83_linear_1019_141)" stroke-opacity="0.2" stroke-width="0.5"/>
<path opacity="0.858586" d="M529.037 214.389C530.523 205.963 537.265 199.452 545.738 198.261L1784.46 24.1693C1792.94 22.9786 1801.21 27.379 1804.96 35.0693L2353.32 1159.37C2357.07 1167.06 2355.44 1176.29 2349.29 1182.23L1449.47 2051.18C1443.31 2057.12 1434.03 2058.43 1426.48 2054.41L321.999 1467.15C314.444 1463.13 310.335 1454.71 311.821 1446.28L529.037 214.389Z" stroke="url(#paint84_linear_1019_141)" stroke-opacity="0.2" stroke-width="0.5"/>
<path opacity="0.868687" d="M534.324 214.086C535.957 205.687 542.812 199.295 551.304 198.252L1790.14 46.1421C1798.63 45.0993 1806.83 49.6436 1810.45 57.3981L2337.93 1188.6C2341.55 1196.35 2339.76 1205.55 2333.5 1211.39L1420.67 2062.62C1414.41 2068.45 1405.11 2069.59 1397.63 2065.45L305.98 1460.34C298.497 1456.19 294.535 1447.69 296.168 1439.29L534.324 214.086Z" stroke="url(#paint85_linear_1019_141)" stroke-opacity="0.2" stroke-width="0.5"/>
<path opacity="0.878788" d="M539.78 214.079C541.559 205.709 548.525 199.437 557.034 198.543L1795.59 68.3655C1804.1 67.4712 1812.22 72.1577 1815.7 79.9742L2322.24 1217.69C2325.72 1225.5 2323.77 1234.67 2317.41 1240.4L1391.92 2073.72C1385.56 2079.44 1376.24 2080.42 1368.83 2076.15L290.294 1453.46C282.884 1449.18 279.072 1440.61 280.851 1432.25L539.78 214.079Z" stroke="url(#paint86_linear_1019_141)" stroke-opacity="0.2" stroke-width="0.5"/>
<path opacity="0.888889" d="M545.394 214.365C547.319 206.028 554.393 199.879 562.917 199.133L1800.81 90.8311C1809.33 90.0854 1817.37 94.9129 1820.71 102.789L2306.24 1246.63C2309.59 1254.5 2307.48 1263.64 2301.02 1269.25L1363.2 2084.49C1356.74 2090.1 1347.41 2090.92 1340.07 2086.51L274.937 1446.51C267.603 1442.1 263.94 1433.48 265.865 1425.14L545.394 214.365Z" stroke="url(#paint87_linear_1019_141)" stroke-opacity="0.2" stroke-width="0.5"/>
<path opacity="0.89899" d="M551.165 214.951C553.235 206.649 560.416 200.624 568.951 200.027L1805.79 113.538C1814.33 112.941 1822.28 117.908 1825.48 125.842L2289.95 1275.42C2293.15 1283.36 2290.88 1292.45 2284.33 1297.95L1334.54 2094.92C1327.98 2100.42 1318.63 2101.07 1311.38 2096.54L259.913 1439.51C252.657 1434.98 249.145 1426.29 251.215 1417.99L551.165 214.951Z" stroke="url(#paint88_linear_1019_141)" stroke-opacity="0.2" stroke-width="0.5"/>
<path opacity="0.909091" d="M557.088 215.84C559.303 207.575 566.587 201.676 575.132 201.229L1810.54 136.484C1819.09 136.036 1826.95 141.141 1830.01 149.129L2273.35 1304.07C2276.42 1312.05 2273.99 1321.11 2267.34 1326.49L1305.93 2105.03C1299.28 2110.41 1289.92 2110.9 1282.75 2106.24L245.222 1432.47C238.047 1427.81 234.688 1419.06 236.902 1410.79L557.088 215.84Z" stroke="url(#paint89_linear_1019_141)" stroke-opacity="0.2" stroke-width="0.5"/>
<path opacity="0.919192" d="M563.15 217.023C565.508 208.799 572.895 203.028 581.446 202.729L1815.04 159.651C1823.59 159.353 1831.36 164.594 1834.29 172.634L2256.46 1332.54C2259.39 1340.58 2256.8 1349.59 2250.06 1354.86L1277.38 2114.8C1270.64 2120.07 1261.27 2120.39 1254.18 2115.61L230.859 1425.37C223.765 1420.59 220.56 1411.78 222.918 1403.55L563.15 217.023Z" stroke="url(#paint90_linear_1019_141)" stroke-opacity="0.2" stroke-width="0.5"/>
<path opacity="0.929293" d="M569.353 218.515C571.855 210.333 579.34 204.692 587.895 204.542L1819.3 183.048C1827.85 182.899 1835.53 188.275 1838.31 196.365L2239.28 1360.85C2242.07 1368.94 2239.33 1377.91 2232.49 1383.06L1248.9 2124.25C1242.07 2129.4 1232.7 2129.56 1225.69 2124.65L216.83 1418.24C209.822 1413.33 206.77 1404.47 209.271 1396.29L569.353 218.515Z" stroke="url(#paint91_linear_1019_141)" stroke-opacity="0.2" stroke-width="0.5"/>
<path opacity="0.939394" d="M575.687 220.313C578.331 212.176 585.914 206.666 594.47 206.666L1823.3 206.666C1831.86 206.666 1839.44 212.175 1842.08 220.313L2221.81 1389C2224.46 1397.14 2221.56 1406.05 2214.64 1411.08L1220.49 2133.37C1213.57 2138.4 1204.2 2138.4 1197.28 2133.37L203.132 1411.08C196.21 1406.05 193.313 1397.14 195.957 1389L575.687 220.313Z" stroke="url(#paint92_linear_1019_141)" stroke-opacity="0.2" stroke-width="0.5"/>
<path opacity="0.949495" d="M582.15 222.423C584.936 214.333 592.614 208.957 601.169 209.106L1827.05 230.504C1835.61 230.653 1843.09 236.294 1845.6 244.476L2204.06 1416.97C2206.57 1425.16 2203.51 1434.02 2196.51 1438.93L1192.17 2142.17C1185.16 2147.08 1175.79 2146.92 1168.95 2141.77L189.769 1403.9C182.936 1398.75 180.195 1389.79 182.981 1381.7L582.15 222.423Z" stroke="url(#paint93_linear_1019_141)" stroke-opacity="0.2" stroke-width="0.5"/>
<path opacity="0.959596" d="M588.732 224.834C591.658 216.794 599.429 211.552 607.98 211.851L1830.55 254.544C1839.1 254.843 1846.49 260.613 1848.84 268.838L2186.03 1444.76C2188.39 1452.99 2185.19 1461.79 2178.09 1466.58L1163.92 2150.65C1156.83 2155.43 1147.46 2155.1 1140.72 2149.84L176.734 1396.69C169.992 1391.42 167.408 1382.41 170.335 1374.37L588.732 224.834Z" stroke="url(#paint94_linear_1019_141)" stroke-opacity="0.2" stroke-width="0.5"/>
<path opacity="0.969697" d="M595.43 227.561C598.496 219.573 606.357 214.468 614.902 214.916L1833.78 278.795C1842.33 279.243 1849.61 285.141 1851.83 293.406L2167.73 1472.37C2169.94 1480.64 2166.58 1489.39 2159.41 1494.05L1135.77 2158.81C1128.59 2163.47 1119.23 2162.98 1112.58 2157.59L164.032 1389.47C157.382 1384.09 154.956 1375.03 158.022 1367.05L595.43 227.561Z" stroke="url(#paint95_linear_1019_141)" stroke-opacity="0.2" stroke-width="0.5"/>
<path opacity="0.979798" d="M602.233 230.594C605.439 222.661 613.388 217.694 621.923 218.29L1836.75 303.24C1845.29 303.836 1852.47 309.861 1854.54 318.163L2149.15 1499.79C2151.22 1508.09 2147.71 1516.78 2140.45 1521.31L1107.7 2166.65C1100.45 2171.18 1091.1 2170.53 1084.54 2165.03L151.656 1382.24C145.102 1376.74 142.834 1367.65 146.039 1359.71L602.233 230.594Z" stroke="url(#paint96_linear_1019_141)" stroke-opacity="0.2" stroke-width="0.5"/>
<path opacity="0.989899" d="M609.144 233.946C612.487 226.07 620.522 221.242 629.046 221.988L1839.46 327.885C1847.98 328.631 1855.06 334.78 1856.98 343.117L2130.31 1527.01C2132.23 1535.35 2128.57 1543.98 2121.23 1548.39L1079.74 2174.18C1072.41 2178.58 1063.07 2177.77 1056.61 2172.15L139.614 1375.02C133.157 1369.4 131.048 1360.27 134.391 1352.39L609.144 233.946Z" stroke="url(#paint97_linear_1019_141)" stroke-opacity="0.2" stroke-width="0.5"/>
<path d="M616.152 237.611C619.632 229.794 627.749 225.108 636.259 226.002L1841.9 352.72C1850.41 353.614 1857.37 359.886 1859.15 368.255L2111.2 1554.04C2112.98 1562.41 2109.16 1570.97 2101.75 1575.25L1051.89 2181.39C1044.48 2185.67 1035.16 2184.69 1028.8 2178.97L127.901 1367.79C121.542 1362.07 119.593 1352.9 123.074 1345.08L616.152 237.611Z" stroke="url(#paint98_linear_1019_141)" stroke-opacity="0.2" stroke-width="0.5"/>
</g>
<defs>
<linearGradient id="paint0_linear_1019_141" x1="2578.8" y1="640.135" x2="1637.1" y2="-565.191" gradientUnits="userSpaceOnUse">
<stop stop-color="#FF00F7" stop-opacity="0.5"/>
<stop offset="1" stop-color="#00F0FF"/>
</linearGradient>
<linearGradient id="paint1_linear_1019_141" x1="2557.76" y1="658.156" x2="1638.92" y2="-561.192" gradientUnits="userSpaceOnUse">
<stop stop-color="#FF00F7" stop-opacity="0.5"/>
<stop offset="1" stop-color="#00F0FF"/>
</linearGradient>
<linearGradient id="paint2_linear_1019_141" x1="2536.63" y1="675.966" x2="1640.84" y2="-556.974" gradientUnits="userSpaceOnUse">
<stop stop-color="#FF00F7" stop-opacity="0.5"/>
<stop offset="1" stop-color="#00F0FF"/>
</linearGradient>
<linearGradient id="paint3_linear_1019_141" x1="2515.4" y1="693.569" x2="1642.87" y2="-552.531" gradientUnits="userSpaceOnUse">
<stop stop-color="#FF00F7" stop-opacity="0.5"/>
<stop offset="1" stop-color="#00F0FF"/>
</linearGradient>
<linearGradient id="paint4_linear_1019_141" x1="2494.08" y1="710.956" x2="1644.99" y2="-547.867" gradientUnits="userSpaceOnUse">
<stop stop-color="#FF00F7" stop-opacity="0.5"/>
<stop offset="1" stop-color="#00F0FF"/>
</linearGradient>
<linearGradient id="paint5_linear_1019_141" x1="2472.66" y1="728.126" x2="1647.2" y2="-542.983" gradientUnits="userSpaceOnUse">
<stop stop-color="#FF00F7" stop-opacity="0.5"/>
<stop offset="1" stop-color="#00F0FF"/>
</linearGradient>
<linearGradient id="paint6_linear_1019_141" x1="2451.17" y1="745.08" x2="1649.49" y2="-537.875" gradientUnits="userSpaceOnUse">
<stop stop-color="#FF00F7" stop-opacity="0.5"/>
<stop offset="1" stop-color="#00F0FF"/>
</linearGradient>
<linearGradient id="paint7_linear_1019_141" x1="2429.59" y1="761.823" x2="1651.86" y2="-532.535" gradientUnits="userSpaceOnUse">
<stop stop-color="#FF00F7" stop-opacity="0.5"/>
<stop offset="1" stop-color="#00F0FF"/>
</linearGradient>
<linearGradient id="paint8_linear_1019_141" x1="2407.95" y1="778.345" x2="1654.32" y2="-526.973" gradientUnits="userSpaceOnUse">
<stop stop-color="#FF00F7" stop-opacity="0.5"/>
<stop offset="1" stop-color="#00F0FF"/>
</linearGradient>
<linearGradient id="paint9_linear_1019_141" x1="2386.22" y1="794.645" x2="1656.84" y2="-521.185" gradientUnits="userSpaceOnUse">
<stop stop-color="#FF00F7" stop-opacity="0.5"/>
<stop offset="1" stop-color="#00F0FF"/>
</linearGradient>
<linearGradient id="paint10_linear_1019_141" x1="2364.43" y1="810.732" x2="1659.44" y2="-515.163" gradientUnits="userSpaceOnUse">
<stop stop-color="#FF00F7" stop-opacity="0.5"/>
<stop offset="1" stop-color="#00F0FF"/>
</linearGradient>
<linearGradient id="paint11_linear_1019_141" x1="2342.58" y1="826.592" x2="1662.1" y2="-508.917" gradientUnits="userSpaceOnUse">
<stop stop-color="#FF00F7" stop-opacity="0.5"/>
<stop offset="1" stop-color="#00F0FF"/>
</linearGradient>
<linearGradient id="paint12_linear_1019_141" x1="2320.66" y1="842.236" x2="1664.81" y2="-502.437" gradientUnits="userSpaceOnUse">
<stop stop-color="#FF00F7" stop-opacity="0.5"/>
<stop offset="1" stop-color="#00F0FF"/>
</linearGradient>
<linearGradient id="paint13_linear_1019_141" x1="2298.69" y1="857.658" x2="1667.6" y2="-495.727" gradientUnits="userSpaceOnUse">
<stop stop-color="#FF00F7" stop-opacity="0.5"/>
<stop offset="1" stop-color="#00F0FF"/>
</linearGradient>
<linearGradient id="paint14_linear_1019_141" x1="2276.67" y1="872.853" x2="1670.42" y2="-488.789" gradientUnits="userSpaceOnUse">
<stop stop-color="#FF00F7" stop-opacity="0.5"/>
<stop offset="1" stop-color="#00F0FF"/>
</linearGradient>
<linearGradient id="paint15_linear_1019_141" x1="2254.6" y1="887.83" x2="1673.3" y2="-481.617" gradientUnits="userSpaceOnUse">
<stop stop-color="#FF00F7" stop-opacity="0.5"/>
<stop offset="1" stop-color="#00F0FF"/>
</linearGradient>
<linearGradient id="paint16_linear_1019_141" x1="2232.48" y1="902.584" x2="1676.22" y2="-474.21" gradientUnits="userSpaceOnUse">
<stop stop-color="#FF00F7" stop-opacity="0.5"/>
<stop offset="1" stop-color="#00F0FF"/>
</linearGradient>
<linearGradient id="paint17_linear_1019_141" x1="2210.33" y1="917.113" x2="1679.18" y2="-466.575" gradientUnits="userSpaceOnUse">
<stop stop-color="#FF00F7" stop-opacity="0.5"/>
<stop offset="1" stop-color="#00F0FF"/>
</linearGradient>
<linearGradient id="paint18_linear_1019_141" x1="2188.14" y1="931.42" x2="1682.18" y2="-458.704" gradientUnits="userSpaceOnUse">
<stop stop-color="#FF00F7" stop-opacity="0.5"/>
<stop offset="1" stop-color="#00F0FF"/>
</linearGradient>
<linearGradient id="paint19_linear_1019_141" x1="2165.92" y1="945.495" x2="1685.2" y2="-450.608" gradientUnits="userSpaceOnUse">
<stop stop-color="#FF00F7" stop-opacity="0.5"/>
<stop offset="1" stop-color="#00F0FF"/>
</linearGradient>
<linearGradient id="paint20_linear_1019_141" x1="2143.67" y1="959.357" x2="1688.26" y2="-442.269" gradientUnits="userSpaceOnUse">
<stop stop-color="#FF00F7" stop-opacity="0.5"/>
<stop offset="1" stop-color="#00F0FF"/>
</linearGradient>
<linearGradient id="paint21_linear_1019_141" x1="2121.4" y1="972.987" x2="1691.33" y2="-433.704" gradientUnits="userSpaceOnUse">
<stop stop-color="#FF00F7" stop-opacity="0.5"/>
<stop offset="1" stop-color="#00F0FF"/>
</linearGradient>
<linearGradient id="paint22_linear_1019_141" x1="2099.11" y1="986.397" x2="1694.43" y2="-424.902" gradientUnits="userSpaceOnUse">
<stop stop-color="#FF00F7" stop-opacity="0.5"/>
<stop offset="1" stop-color="#00F0FF"/>
</linearGradient>
<linearGradient id="paint23_linear_1019_141" x1="2076.81" y1="999.584" x2="1697.54" y2="-415.867" gradientUnits="userSpaceOnUse">
<stop stop-color="#FF00F7" stop-opacity="0.5"/>
<stop offset="1" stop-color="#00F0FF"/>
</linearGradient>
<linearGradient id="paint24_linear_1019_141" x1="2054.48" y1="1012.54" x2="1700.65" y2="-406.604" gradientUnits="userSpaceOnUse">
<stop stop-color="#FF00F7" stop-opacity="0.5"/>
<stop offset="1" stop-color="#00F0FF"/>
</linearGradient>
<linearGradient id="paint25_linear_1019_141" x1="2032.16" y1="1025.28" x2="1703.77" y2="-397.107" gradientUnits="userSpaceOnUse">
<stop stop-color="#FF00F7" stop-opacity="0.5"/>
<stop offset="1" stop-color="#00F0FF"/>
</linearGradient>
<linearGradient id="paint26_linear_1019_141" x1="2009.83" y1="1037.79" x2="1706.9" y2="-387.376" gradientUnits="userSpaceOnUse">
<stop stop-color="#FF00F7" stop-opacity="0.5"/>
<stop offset="1" stop-color="#00F0FF"/>
</linearGradient>
<linearGradient id="paint27_linear_1019_141" x1="1987.51" y1="1050.08" x2="1710.03" y2="-377.415" gradientUnits="userSpaceOnUse">
<stop stop-color="#FF00F7" stop-opacity="0.5"/>
<stop offset="1" stop-color="#00F0FF"/>
</linearGradient>
<linearGradient id="paint28_linear_1019_141" x1="1965.18" y1="1062.16" x2="1713.15" y2="-367.22" gradientUnits="userSpaceOnUse">
<stop stop-color="#FF00F7" stop-opacity="0.5"/>
<stop offset="1" stop-color="#00F0FF"/>
</linearGradient>
<linearGradient id="paint29_linear_1019_141" x1="1942.87" y1="1074" x2="1716.25" y2="-356.8" gradientUnits="userSpaceOnUse">
<stop stop-color="#FF00F7" stop-opacity="0.5"/>
<stop offset="1" stop-color="#00F0FF"/>
</linearGradient>
<linearGradient id="paint30_linear_1019_141" x1="1920.57" y1="1085.63" x2="1719.35" y2="-346.145" gradientUnits="userSpaceOnUse">
<stop stop-color="#FF00F7" stop-opacity="0.5"/>
<stop offset="1" stop-color="#00F0FF"/>
</linearGradient>
<linearGradient id="paint31_linear_1019_141" x1="1898.28" y1="1097.03" x2="1722.42" y2="-335.267" gradientUnits="userSpaceOnUse">
<stop stop-color="#FF00F7" stop-opacity="0.5"/>
<stop offset="1" stop-color="#00F0FF"/>
</linearGradient>
<linearGradient id="paint32_linear_1019_141" x1="1876.02" y1="1108.22" x2="1725.47" y2="-324.156" gradientUnits="userSpaceOnUse">
<stop stop-color="#FF00F7" stop-opacity="0.5"/>
<stop offset="1" stop-color="#00F0FF"/>
</linearGradient>
<linearGradient id="paint33_linear_1019_141" x1="1853.78" y1="1119.18" x2="1728.49" y2="-312.82" gradientUnits="userSpaceOnUse">
<stop stop-color="#FF00F7" stop-opacity="0.5"/>
<stop offset="1" stop-color="#00F0FF"/>
</linearGradient>
<linearGradient id="paint34_linear_1019_141" x1="1831.57" y1="1129.93" x2="1731.49" y2="-301.254" gradientUnits="userSpaceOnUse">
<stop stop-color="#FF00F7" stop-opacity="0.5"/>
<stop offset="1" stop-color="#00F0FF"/>
</linearGradient>
<linearGradient id="paint35_linear_1019_141" x1="1809.38" y1="1140.46" x2="1734.45" y2="-289.466" gradientUnits="userSpaceOnUse">
<stop stop-color="#FF00F7" stop-opacity="0.5"/>
<stop offset="1" stop-color="#00F0FF"/>
</linearGradient>
<linearGradient id="paint36_linear_1019_141" x1="1787.24" y1="1150.78" x2="1737.37" y2="-277.45" gradientUnits="userSpaceOnUse">
<stop stop-color="#FF00F7" stop-opacity="0.5"/>
<stop offset="1" stop-color="#00F0FF"/>
</linearGradient>
<linearGradient id="paint37_linear_1019_141" x1="1765.14" y1="1160.87" x2="1740.25" y2="-265.216" gradientUnits="userSpaceOnUse">
<stop stop-color="#FF00F7" stop-opacity="0.5"/>
<stop offset="1" stop-color="#00F0FF"/>
</linearGradient>
<linearGradient id="paint38_linear_1019_141" x1="1743.07" y1="1170.76" x2="1743.07" y2="-252.756" gradientUnits="userSpaceOnUse">
<stop stop-color="#FF00F7" stop-opacity="0.5"/>
<stop offset="1" stop-color="#00F0FF"/>
</linearGradient>
<linearGradient id="paint39_linear_1019_141" x1="1721.06" y1="1180.43" x2="1745.85" y2="-240.081" gradientUnits="userSpaceOnUse">
<stop stop-color="#FF00F7" stop-opacity="0.5"/>
<stop offset="1" stop-color="#00F0FF"/>
</linearGradient>
<linearGradient id="paint40_linear_1019_141" x1="1699.09" y1="1189.89" x2="1748.58" y2="-227.179" gradientUnits="userSpaceOnUse">
<stop stop-color="#FF00F7" stop-opacity="0.5"/>
<stop offset="1" stop-color="#00F0FF"/>
</linearGradient>
<linearGradient id="paint41_linear_1019_141" x1="1677.19" y1="1199.14" x2="1751.25" y2="-214.062" gradientUnits="userSpaceOnUse">
<stop stop-color="#FF00F7" stop-opacity="0.5"/>
<stop offset="1" stop-color="#00F0FF"/>
</linearGradient>
<linearGradient id="paint42_linear_1019_141" x1="1655.33" y1="1208.18" x2="1753.85" y2="-200.731" gradientUnits="userSpaceOnUse">
<stop stop-color="#FF00F7" stop-opacity="0.5"/>
<stop offset="1" stop-color="#00F0FF"/>
</linearGradient>
<linearGradient id="paint43_linear_1019_141" x1="1633.54" y1="1217.01" x2="1756.4" y2="-187.182" gradientUnits="userSpaceOnUse">
<stop stop-color="#FF00F7" stop-opacity="0.5"/>
<stop offset="1" stop-color="#00F0FF"/>
</linearGradient>
<linearGradient id="paint44_linear_1019_141" x1="1611.82" y1="1225.64" x2="1758.87" y2="-173.417" gradientUnits="userSpaceOnUse">
<stop stop-color="#FF00F7" stop-opacity="0.5"/>
<stop offset="1" stop-color="#00F0FF"/>
</linearGradient>
<linearGradient id="paint45_linear_1019_141" x1="1590.17" y1="1234.07" x2="1761.27" y2="-159.444" gradientUnits="userSpaceOnUse">
<stop stop-color="#FF00F7" stop-opacity="0.5"/>
<stop offset="1" stop-color="#00F0FF"/>
</linearGradient>
<linearGradient id="paint46_linear_1019_141" x1="1568.58" y1="1242.29" x2="1763.59" y2="-145.263" gradientUnits="userSpaceOnUse">
<stop stop-color="#FF00F7" stop-opacity="0.5"/>
<stop offset="1" stop-color="#00F0FF"/>
</linearGradient>
<linearGradient id="paint47_linear_1019_141" x1="1547.07" y1="1250.3" x2="1765.83" y2="-130.872" gradientUnits="userSpaceOnUse">
<stop stop-color="#FF00F7" stop-opacity="0.5"/>
<stop offset="1" stop-color="#00F0FF"/>
</linearGradient>
<linearGradient id="paint48_linear_1019_141" x1="1525.64" y1="1258.12" x2="1767.99" y2="-116.277" gradientUnits="userSpaceOnUse">
<stop stop-color="#FF00F7" stop-opacity="0.5"/>
<stop offset="1" stop-color="#00F0FF"/>
</linearGradient>
<linearGradient id="paint49_linear_1019_141" x1="1504.3" y1="1265.75" x2="1770.06" y2="-101.472" gradientUnits="userSpaceOnUse">
<stop stop-color="#FF00F7" stop-opacity="0.5"/>
<stop offset="1" stop-color="#00F0FF"/>
</linearGradient>
<linearGradient id="paint50_linear_1019_141" x1="1483.04" y1="1273.18" x2="1772.04" y2="-86.4672" gradientUnits="userSpaceOnUse">
<stop stop-color="#FF00F7" stop-opacity="0.5"/>
<stop offset="1" stop-color="#00F0FF"/>
</linearGradient>
<linearGradient id="paint51_linear_1019_141" x1="1461.87" y1="1280.41" x2="1773.93" y2="-71.2635" gradientUnits="userSpaceOnUse">
<stop stop-color="#FF00F7" stop-opacity="0.5"/>
<stop offset="1" stop-color="#00F0FF"/>
</linearGradient>
<linearGradient id="paint52_linear_1019_141" x1="1440.79" y1="1287.45" x2="1775.72" y2="-55.8595" gradientUnits="userSpaceOnUse">
<stop stop-color="#FF00F7" stop-opacity="0.5"/>
<stop offset="1" stop-color="#00F0FF"/>
</linearGradient>
<linearGradient id="paint53_linear_1019_141" x1="1419.81" y1="1294.31" x2="1777.4" y2="-40.2604" gradientUnits="userSpaceOnUse">
<stop stop-color="#FF00F7" stop-opacity="0.5"/>
<stop offset="1" stop-color="#00F0FF"/>
</linearGradient>
<linearGradient id="paint54_linear_1019_141" x1="1398.92" y1="1300.97" x2="1778.99" y2="-24.4691" gradientUnits="userSpaceOnUse">
<stop stop-color="#FF00F7" stop-opacity="0.5"/>
<stop offset="1" stop-color="#00F0FF"/>
</linearGradient>
<linearGradient id="paint55_linear_1019_141" x1="1378.14" y1="1307.45" x2="1780.47" y2="-8.48254" gradientUnits="userSpaceOnUse">
<stop stop-color="#FF00F7" stop-opacity="0.5"/>
<stop offset="1" stop-color="#00F0FF"/>
</linearGradient>
<linearGradient id="paint56_linear_1019_141" x1="1357.47" y1="1313.75" x2="1781.83" y2="7.68917" gradientUnits="userSpaceOnUse">
<stop stop-color="#FF00F7" stop-opacity="0.5"/>
<stop offset="1" stop-color="#00F0FF"/>
</linearGradient>
<linearGradient id="paint57_linear_1019_141" x1="1336.9" y1="1319.87" x2="1783.08" y2="24.0519" gradientUnits="userSpaceOnUse">
<stop stop-color="#FF00F7" stop-opacity="0.5"/>
<stop offset="1" stop-color="#00F0FF"/>
</linearGradient>
<linearGradient id="paint58_linear_1019_141" x1="1316.44" y1="1325.81" x2="1784.22" y2="40.5967" gradientUnits="userSpaceOnUse">
<stop stop-color="#FF00F7" stop-opacity="0.5"/>
<stop offset="1" stop-color="#00F0FF"/>
</linearGradient>
<linearGradient id="paint59_linear_1019_141" x1="1296.1" y1="1331.57" x2="1785.24" y2="57.3245" gradientUnits="userSpaceOnUse">
<stop stop-color="#FF00F7" stop-opacity="0.5"/>
<stop offset="1" stop-color="#00F0FF"/>
</linearGradient>
<linearGradient id="paint60_linear_1019_141" x1="1275.87" y1="1337.16" x2="1786.13" y2="74.2307" gradientUnits="userSpaceOnUse">
<stop stop-color="#FF00F7" stop-opacity="0.5"/>
<stop offset="1" stop-color="#00F0FF"/>
</linearGradient>
<linearGradient id="paint61_linear_1019_141" x1="1255.77" y1="1342.57" x2="1786.9" y2="91.3168" gradientUnits="userSpaceOnUse">
<stop stop-color="#FF00F7" stop-opacity="0.5"/>
<stop offset="1" stop-color="#00F0FF"/>
</linearGradient>
<linearGradient id="paint62_linear_1019_141" x1="1235.79" y1="1347.83" x2="1787.53" y2="108.577" gradientUnits="userSpaceOnUse">
<stop stop-color="#FF00F7" stop-opacity="0.5"/>
<stop offset="1" stop-color="#00F0FF"/>
</linearGradient>
<linearGradient id="paint63_linear_1019_141" x1="1215.93" y1="1352.91" x2="1788.04" y2="126.007" gradientUnits="userSpaceOnUse">
<stop stop-color="#FF00F7" stop-opacity="0.5"/>
<stop offset="1" stop-color="#00F0FF"/>
</linearGradient>
<linearGradient id="paint64_linear_1019_141" x1="1196.2" y1="1357.83" x2="1788.42" y2="143.607" gradientUnits="userSpaceOnUse">
<stop stop-color="#FF00F7" stop-opacity="0.5"/>
<stop offset="1" stop-color="#00F0FF"/>
</linearGradient>
<linearGradient id="paint65_linear_1019_141" x1="1176.6" y1="1362.58" x2="1788.65" y2="161.369" gradientUnits="userSpaceOnUse">
<stop stop-color="#FF00F7" stop-opacity="0.5"/>
<stop offset="1" stop-color="#00F0FF"/>
</linearGradient>
<linearGradient id="paint66_linear_1019_141" x1="1157.13" y1="1367.18" x2="1788.74" y2="179.299" gradientUnits="userSpaceOnUse">
<stop stop-color="#FF00F7" stop-opacity="0.5"/>
<stop offset="1" stop-color="#00F0FF"/>
</linearGradient>
<linearGradient id="paint67_linear_1019_141" x1="1137.81" y1="1371.62" x2="1788.7" y2="197.387" gradientUnits="userSpaceOnUse">
<stop stop-color="#FF00F7" stop-opacity="0.5"/>
<stop offset="1" stop-color="#00F0FF"/>
</linearGradient>
<linearGradient id="paint68_linear_1019_141" x1="1118.61" y1="1375.91" x2="1788.5" y2="215.633" gradientUnits="userSpaceOnUse">
<stop stop-color="#FF00F7" stop-opacity="0.5"/>
<stop offset="1" stop-color="#00F0FF"/>
</linearGradient>
<linearGradient id="paint69_linear_1019_141" x1="1099.57" y1="1380.06" x2="1788.17" y2="234.037" gradientUnits="userSpaceOnUse">
<stop stop-color="#FF00F7" stop-opacity="0.5"/>
<stop offset="1" stop-color="#00F0FF"/>
</linearGradient>
<linearGradient id="paint70_linear_1019_141" x1="1080.66" y1="1384.05" x2="1787.68" y2="252.588" gradientUnits="userSpaceOnUse">
<stop stop-color="#FF00F7" stop-opacity="0.5"/>
<stop offset="1" stop-color="#00F0FF"/>
</linearGradient>
<linearGradient id="paint71_linear_1019_141" x1="1061.9" y1="1387.9" x2="1787.03" y2="271.292" gradientUnits="userSpaceOnUse">
<stop stop-color="#FF00F7" stop-opacity="0.5"/>
<stop offset="1" stop-color="#00F0FF"/>
</linearGradient>
<linearGradient id="paint72_linear_1019_141" x1="1043.29" y1="1391.61" x2="1786.24" y2="290.139" gradientUnits="userSpaceOnUse">
<stop stop-color="#FF00F7" stop-opacity="0.5"/>
<stop offset="1" stop-color="#00F0FF"/>
</linearGradient>
<linearGradient id="paint73_linear_1019_141" x1="1024.83" y1="1395.18" x2="1785.29" y2="309.132" gradientUnits="userSpaceOnUse">
<stop stop-color="#FF00F7" stop-opacity="0.5"/>
<stop offset="1" stop-color="#00F0FF"/>
</linearGradient>
<linearGradient id="paint74_linear_1019_141" x1="1006.51" y1="1398.61" x2="1784.17" y2="328.259" gradientUnits="userSpaceOnUse">
<stop stop-color="#FF00F7" stop-opacity="0.5"/>
<stop offset="1" stop-color="#00F0FF"/>
</linearGradient>
<linearGradient id="paint75_linear_1019_141" x1="988.359" y1="1401.92" x2="1782.9" y2="347.526" gradientUnits="userSpaceOnUse">
<stop stop-color="#FF00F7" stop-opacity="0.5"/>
<stop offset="1" stop-color="#00F0FF"/>
</linearGradient>
<linearGradient id="paint76_linear_1019_141" x1="970.361" y1="1405.09" x2="1781.46" y2="366.928" gradientUnits="userSpaceOnUse">
<stop stop-color="#FF00F7" stop-opacity="0.5"/>
<stop offset="1" stop-color="#00F0FF"/>
</linearGradient>
<linearGradient id="paint77_linear_1019_141" x1="952.524" y1="1408.14" x2="1779.86" y2="386.46" gradientUnits="userSpaceOnUse">
<stop stop-color="#FF00F7" stop-opacity="0.5"/>
<stop offset="1" stop-color="#00F0FF"/>
</linearGradient>
<linearGradient id="paint78_linear_1019_141" x1="934.841" y1="1411.06" x2="1778.09" y2="406.113" gradientUnits="userSpaceOnUse">
<stop stop-color="#FF00F7" stop-opacity="0.5"/>
<stop offset="1" stop-color="#00F0FF"/>
</linearGradient>
<linearGradient id="paint79_linear_1019_141" x1="917.324" y1="1413.87" x2="1776.15" y2="425.895" gradientUnits="userSpaceOnUse">
<stop stop-color="#FF00F7" stop-opacity="0.5"/>
<stop offset="1" stop-color="#00F0FF"/>
</linearGradient>
<linearGradient id="paint80_linear_1019_141" x1="899.969" y1="1416.55" x2="1774.04" y2="445.794" gradientUnits="userSpaceOnUse">
<stop stop-color="#FF00F7" stop-opacity="0.5"/>
<stop offset="1" stop-color="#00F0FF"/>
</linearGradient>
<linearGradient id="paint81_linear_1019_141" x1="882.779" y1="1419.13" x2="1771.76" y2="465.811" gradientUnits="userSpaceOnUse">
<stop stop-color="#FF00F7" stop-opacity="0.5"/>
<stop offset="1" stop-color="#00F0FF"/>
</linearGradient>
<linearGradient id="paint82_linear_1019_141" x1="865.758" y1="1421.59" x2="1769.3" y2="485.939" gradientUnits="userSpaceOnUse">
<stop stop-color="#FF00F7" stop-opacity="0.5"/>
<stop offset="1" stop-color="#00F0FF"/>
</linearGradient>
<linearGradient id="paint83_linear_1019_141" x1="848.907" y1="1423.94" x2="1766.67" y2="506.182" gradientUnits="userSpaceOnUse">
<stop stop-color="#FF00F7" stop-opacity="0.5"/>
<stop offset="1" stop-color="#00F0FF"/>
</linearGradient>
<linearGradient id="paint84_linear_1019_141" x1="832.224" y1="1426.19" x2="1763.85" y2="526.526" gradientUnits="userSpaceOnUse">
<stop stop-color="#FF00F7" stop-opacity="0.5"/>
<stop offset="1" stop-color="#00F0FF"/>
</linearGradient>
<linearGradient id="paint85_linear_1019_141" x1="815.714" y1="1428.34" x2="1760.86" y2="546.977" gradientUnits="userSpaceOnUse">
<stop stop-color="#FF00F7" stop-opacity="0.5"/>
<stop offset="1" stop-color="#00F0FF"/>
</linearGradient>
<linearGradient id="paint86_linear_1019_141" x1="799.38" y1="1430.4" x2="1757.69" y2="567.529" gradientUnits="userSpaceOnUse">
<stop stop-color="#FF00F7" stop-opacity="0.5"/>
<stop offset="1" stop-color="#00F0FF"/>
</linearGradient>
<linearGradient id="paint87_linear_1019_141" x1="783.217" y1="1432.36" x2="1754.34" y2="588.175" gradientUnits="userSpaceOnUse">
<stop stop-color="#FF00F7" stop-opacity="0.5"/>
<stop offset="1" stop-color="#00F0FF"/>
</linearGradient>
<linearGradient id="paint88_linear_1019_141" x1="767.233" y1="1434.23" x2="1750.8" y2="608.916" gradientUnits="userSpaceOnUse">
<stop stop-color="#FF00F7" stop-opacity="0.5"/>
<stop offset="1" stop-color="#00F0FF"/>
</linearGradient>
<linearGradient id="paint89_linear_1019_141" x1="751.428" y1="1436.01" x2="1747.08" y2="629.749" gradientUnits="userSpaceOnUse">
<stop stop-color="#FF00F7" stop-opacity="0.5"/>
<stop offset="1" stop-color="#00F0FF"/>
</linearGradient>
<linearGradient id="paint90_linear_1019_141" x1="735.796" y1="1437.7" x2="1743.17" y2="650.66" gradientUnits="userSpaceOnUse">
<stop stop-color="#FF00F7" stop-opacity="0.5"/>
<stop offset="1" stop-color="#00F0FF"/>
</linearGradient>
<linearGradient id="paint91_linear_1019_141" x1="720.348" y1="1439.32" x2="1739.07" y2="671.658" gradientUnits="userSpaceOnUse">
<stop stop-color="#FF00F7" stop-opacity="0.5"/>
<stop offset="1" stop-color="#00F0FF"/>
</linearGradient>
<linearGradient id="paint92_linear_1019_141" x1="705.078" y1="1440.86" x2="1734.79" y2="692.734" gradientUnits="userSpaceOnUse">
<stop stop-color="#FF00F7" stop-opacity="0.5"/>
<stop offset="1" stop-color="#00F0FF"/>
</linearGradient>
<linearGradient id="paint93_linear_1019_141" x1="689.993" y1="1442.33" x2="1730.31" y2="713.891" gradientUnits="userSpaceOnUse">
<stop stop-color="#FF00F7" stop-opacity="0.5"/>
<stop offset="1" stop-color="#00F0FF"/>
</linearGradient>
<linearGradient id="paint94_linear_1019_141" x1="675.088" y1="1443.72" x2="1725.65" y2="735.111" gradientUnits="userSpaceOnUse">
<stop stop-color="#FF00F7" stop-opacity="0.5"/>
<stop offset="1" stop-color="#00F0FF"/>
</linearGradient>
<linearGradient id="paint95_linear_1019_141" x1="660.368" y1="1445.06" x2="1720.8" y2="756.405" gradientUnits="userSpaceOnUse">
<stop stop-color="#FF00F7" stop-opacity="0.5"/>
<stop offset="1" stop-color="#00F0FF"/>
</linearGradient>
<linearGradient id="paint96_linear_1019_141" x1="645.829" y1="1446.32" x2="1715.75" y2="777.757" gradientUnits="userSpaceOnUse">
<stop stop-color="#FF00F7" stop-opacity="0.5"/>
<stop offset="1" stop-color="#00F0FF"/>
</linearGradient>
<linearGradient id="paint97_linear_1019_141" x1="631.478" y1="1447.52" x2="1710.51" y2="799.176" gradientUnits="userSpaceOnUse">
<stop stop-color="#FF00F7" stop-opacity="0.5"/>
<stop offset="1" stop-color="#00F0FF"/>
</linearGradient>
<linearGradient id="paint98_linear_1019_141" x1="617.312" y1="1448.67" x2="1705.08" y2="820.651" gradientUnits="userSpaceOnUse">
<stop stop-color="#FF00F7" stop-opacity="0.5"/>
<stop offset="1" stop-color="#00F0FF"/>
</linearGradient>
<clipPath id="clip0_1019_141">
<rect width="3000" height="2000" fill="white"/>
</clipPath>
</defs>
</svg>
