<svg width="1920" height="2000" viewBox="0 0 1920 2000" fill="none" xmlns="http://www.w3.org/2000/svg">
<g clip-path="url(#clip0_933_141)">
<path opacity="0.010101" d="M527.821 743.895C519.617 741.543 513.861 734.176 513.563 725.646L468.415 -567.221C468.117 -575.751 473.346 -583.502 481.365 -586.421L1697 -1028.88C1705.02 -1031.8 1714.01 -1029.22 1719.27 -1022.49L2515.72 -3.07899C2520.97 3.64633 2521.3 12.9902 2516.53 20.0656L1793.12 1092.55C1788.35 1099.63 1779.57 1102.83 1771.36 1100.48L527.821 743.895Z" stroke="url(#paint0_linear_933_141)" stroke-opacity="0.2" stroke-width="0.6"/>
<path opacity="0.020202" d="M508.823 737.039C500.661 734.544 495.035 727.077 494.886 718.544L472.35 -572.501C472.201 -581.034 477.564 -588.693 485.634 -591.471L1706.53 -1011.86C1714.6 -1014.64 1723.54 -1011.9 1728.67 -1005.09L2505.76 26.1438C2510.9 32.9598 2511.06 42.308 2506.17 49.299L1765.54 1107.02C1760.65 1114.01 1751.8 1117.06 1743.64 1114.56L508.823 737.039Z" stroke="url(#paint1_linear_933_141)" stroke-opacity="0.2" stroke-width="0.6"/>
<path opacity="0.030303" d="M490.137 730.034C482.021 727.397 476.525 719.833 476.525 711.298L476.525 -577.53C476.525 -586.064 482.021 -593.628 490.137 -596.265L1715.89 -994.535C1724 -997.173 1732.89 -994.283 1737.91 -987.379L2495.46 55.3048C2500.48 62.2094 2500.48 71.559 2495.46 78.4636L1737.91 1121.15C1732.89 1128.05 1724 1130.94 1715.89 1128.3L490.137 730.034Z" stroke="url(#paint2_linear_933_141)" stroke-opacity="0.2" stroke-width="0.6"/>
<path opacity="0.040404" d="M471.767 722.888C463.697 720.109 458.335 712.451 458.483 703.917L480.935 -582.301C481.083 -590.834 486.71 -598.301 494.872 -600.796L1725.08 -976.907C1733.24 -979.403 1742.08 -976.359 1746.97 -969.368L2484.83 84.4012C2489.72 91.3923 2489.56 100.74 2484.43 107.556L1710.24 1134.93C1705.11 1141.75 1696.16 1144.48 1688.1 1141.7L471.767 722.888Z" stroke="url(#paint3_linear_933_141)" stroke-opacity="0.2" stroke-width="0.6"/>
<path opacity="0.050505" d="M453.713 715.602C445.693 712.684 440.465 704.932 440.763 696.403L485.573 -586.815C485.871 -595.345 491.627 -602.712 499.831 -605.065L1734.09 -958.983C1742.3 -961.336 1751.08 -958.138 1755.85 -951.062L2473.86 113.422C2478.63 120.498 2478.3 129.841 2473.05 136.567L1682.54 1148.37C1677.29 1155.1 1668.3 1157.68 1660.28 1154.76L453.713 715.602Z" stroke="url(#paint4_linear_933_141)" stroke-opacity="0.2" stroke-width="0.6"/>
<path opacity="0.0606061" d="M435.975 708.182C428.007 705.123 422.915 697.282 423.362 688.759L490.435 -591.071C490.881 -599.594 496.765 -606.86 505.009 -609.069L1742.93 -940.768C1751.17 -942.977 1759.9 -939.626 1764.55 -932.468L2462.55 142.361C2467.2 149.518 2466.71 158.855 2461.34 165.488L1654.81 1161.47C1649.44 1168.1 1640.41 1170.52 1632.44 1167.46L435.975 708.182Z" stroke="url(#paint5_linear_933_141)" stroke-opacity="0.2" stroke-width="0.6"/>
<path opacity="0.0707071" d="M418.556 700.635C410.643 697.438 405.689 689.509 406.284 680.995L495.515 -595.062C496.11 -603.576 502.12 -610.738 510.401 -612.803L1751.58 -922.263C1759.86 -924.327 1768.53 -920.825 1773.05 -913.587L2450.91 171.213C2455.43 178.451 2454.78 187.778 2449.29 194.315L1627.06 1174.22C1621.57 1180.76 1612.5 1183.02 1604.58 1179.82L418.556 700.635Z" stroke="url(#paint6_linear_933_141)" stroke-opacity="0.2" stroke-width="0.6"/>
<path opacity="0.0808081" d="M401.46 692.972C393.604 689.637 388.788 681.623 389.532 673.121L500.809 -598.78C501.553 -607.282 507.687 -614.338 516.002 -616.258L1760.04 -903.466C1768.35 -905.386 1776.96 -901.733 1781.36 -894.417L2438.94 199.979C2443.33 207.294 2442.52 216.608 2436.92 223.049L1599.29 1186.63C1593.69 1193.07 1584.58 1195.18 1576.72 1191.84L401.46 692.972Z" stroke="url(#paint7_linear_933_141)" stroke-opacity="0.2" stroke-width="0.6"/>
<path opacity="0.0909091" d="M384.689 685.191C376.893 681.72 372.218 673.623 373.11 665.135L506.315 -602.229C507.208 -610.717 513.464 -617.665 521.812 -619.439L1768.31 -884.391C1776.66 -886.165 1785.2 -882.362 1789.47 -874.971L2426.64 228.644C2430.91 236.035 2429.93 245.334 2424.22 251.676L1571.51 1198.7C1565.8 1205.04 1556.66 1206.99 1548.86 1203.51L384.689 685.191Z" stroke="url(#paint8_linear_933_141)" stroke-opacity="0.2" stroke-width="0.6"/>
<path opacity="0.10101" d="M368.238 677.3C360.503 673.693 355.971 665.516 357.011 657.045L512.02 -605.406C513.06 -613.877 519.437 -620.715 527.814 -622.343L1776.38 -865.039C1784.76 -866.668 1793.23 -862.716 1797.37 -855.252L2414.01 257.205C2418.15 264.669 2417.01 273.949 2411.19 280.191L1543.73 1210.42C1537.91 1216.66 1528.73 1218.45 1521 1214.84L368.238 677.3Z" stroke="url(#paint9_linear_933_141)" stroke-opacity="0.2" stroke-width="0.6"/>
<path opacity="0.111111" d="M352.114 669.312C344.443 665.571 340.054 657.315 341.241 648.864L517.924 -608.299C519.112 -616.751 525.607 -623.476 534.011 -624.958L1784.24 -845.408C1792.65 -846.89 1801.05 -842.791 1805.06 -835.255L2401.06 285.662C2405.07 293.198 2403.77 302.456 2397.84 308.596L1515.96 1221.81C1510.03 1227.95 1500.82 1229.57 1493.15 1225.83L352.114 669.312Z" stroke="url(#paint10_linear_933_141)" stroke-opacity="0.2" stroke-width="0.6"/>
<path opacity="0.121212" d="M336.32 661.221C328.715 657.347 324.471 649.016 325.806 640.587L524.025 -610.917C525.36 -619.346 531.971 -625.958 540.4 -627.293L1791.9 -825.512C1800.33 -826.847 1808.66 -822.602 1812.54 -814.998L2387.79 314C2391.67 321.605 2390.2 330.839 2384.17 336.874L1488.19 1232.85C1482.16 1238.89 1472.92 1240.35 1465.32 1236.47L336.32 661.221Z" stroke="url(#paint11_linear_933_141)" stroke-opacity="0.2" stroke-width="0.6"/>
<path opacity="0.131313" d="M320.846 653.045C313.31 649.038 309.212 640.635 310.694 632.23L530.305 -613.247C531.787 -621.652 538.512 -628.147 546.964 -629.334L1799.35 -805.345C1807.8 -806.533 1816.05 -802.144 1819.79 -794.473L2374.2 342.224C2377.94 349.894 2376.32 359.102 2370.18 365.03L1460.43 1243.56C1454.3 1249.49 1445.04 1250.79 1437.5 1246.78L320.846 653.045Z" stroke="url(#paint12_linear_933_141)" stroke-opacity="0.2" stroke-width="0.6"/>
<path opacity="0.141414" d="M305.71 644.783C298.245 640.646 294.294 632.172 295.922 623.794L536.776 -615.291C538.405 -623.668 545.242 -630.045 553.713 -631.085L1806.58 -784.918C1815.05 -785.958 1823.23 -781.425 1826.84 -773.691L2360.3 370.321C2363.9 378.056 2362.12 387.233 2355.88 393.054L1432.71 1253.92C1426.47 1259.75 1417.19 1260.88 1409.72 1256.75L305.71 644.783Z" stroke="url(#paint13_linear_933_141)" stroke-opacity="0.2" stroke-width="0.6"/>
<path opacity="0.151515" d="M290.897 636.44C283.506 632.172 279.704 623.631 281.478 615.283L543.418 -617.049C545.193 -625.397 552.141 -631.653 560.629 -632.545L1813.59 -764.237C1822.08 -765.129 1830.17 -760.454 1833.65 -752.657L2346.08 398.285C2349.55 406.082 2347.61 415.227 2341.26 420.938L1405 1263.95C1398.66 1269.66 1389.36 1270.64 1381.97 1266.37L290.897 636.44Z" stroke="url(#paint14_linear_933_141)" stroke-opacity="0.2" stroke-width="0.6"/>
<path opacity="0.161616" d="M276.419 628.027C269.104 623.631 265.451 615.025 267.37 606.709L550.235 -618.512C552.155 -626.828 559.211 -632.962 567.713 -633.706L1820.38 -743.3C1828.88 -744.043 1836.89 -739.228 1840.23 -731.372L2331.55 426.116C2334.89 433.972 2332.78 443.082 2326.34 448.681L1377.33 1273.64C1370.89 1279.24 1361.58 1280.06 1354.26 1275.66L276.419 628.027Z" stroke="url(#paint15_linear_933_141)" stroke-opacity="0.2" stroke-width="0.6"/>
<path opacity="0.171717" d="M262.267 619.548C255.03 615.026 251.527 606.357 253.592 598.076L557.212 -619.68C559.277 -627.961 566.439 -633.971 574.953 -634.566L1826.93 -722.113C1835.45 -722.708 1843.37 -717.754 1846.57 -709.841L2316.72 453.808C2319.91 461.721 2317.65 470.793 2311.11 476.279L1349.7 1283C1343.16 1288.49 1333.84 1289.14 1326.6 1284.62L262.267 619.548Z" stroke="url(#paint16_linear_933_141)" stroke-opacity="0.2" stroke-width="0.6"/>
<path opacity="0.181818" d="M248.453 611.007C241.295 606.359 237.944 597.63 240.153 589.386L564.356 -620.554C566.565 -628.797 573.831 -634.681 582.353 -635.128L1833.26 -700.685C1841.78 -701.132 1849.62 -696.04 1852.68 -688.072L2301.58 481.352C2304.64 489.319 2302.22 498.35 2295.59 503.721L1322.12 1292.02C1315.48 1297.39 1306.15 1297.88 1298.99 1293.23L248.453 611.007Z" stroke="url(#paint17_linear_933_141)" stroke-opacity="0.2" stroke-width="0.6"/>
<path opacity="0.191919" d="M234.968 602.413C227.892 597.641 224.695 588.855 227.047 580.651L571.651 -621.126C574.004 -629.33 581.371 -635.086 589.9 -635.384L1839.35 -679.016C1847.88 -679.314 1855.63 -674.085 1858.55 -666.065L2286.14 508.746C2289.06 516.766 2286.48 525.753 2279.76 531.008L1294.58 1300.71C1287.86 1305.97 1278.51 1306.29 1271.44 1301.52L234.968 602.413Z" stroke="url(#paint18_linear_933_141)" stroke-opacity="0.2" stroke-width="0.6"/>
<path opacity="0.20202" d="M221.809 593.765C214.818 588.87 211.774 580.029 214.27 571.868L579.089 -621.404C581.585 -629.566 589.052 -635.193 597.585 -635.341L1845.19 -657.118C1853.72 -657.267 1861.38 -651.905 1864.16 -643.835L2270.4 535.978C2273.18 544.048 2270.45 552.989 2263.63 558.125L1267.1 1309.07C1260.28 1314.2 1250.93 1314.37 1243.94 1309.47L221.809 593.765Z" stroke="url(#paint19_linear_933_141)" stroke-opacity="0.2" stroke-width="0.6"/>
<path opacity="0.212121" d="M208.992 585.083C202.087 580.066 199.198 571.174 201.835 563.057L586.679 -621.37C589.317 -629.487 596.88 -634.983 605.415 -634.983L1850.8 -634.983C1859.33 -634.983 1866.89 -629.487 1869.53 -621.37L2254.38 563.057C2257.01 571.174 2254.12 580.066 2247.22 585.082L1239.68 1317.1C1232.78 1322.12 1223.43 1322.12 1216.53 1317.1L208.992 585.083Z" stroke="url(#paint20_linear_933_141)" stroke-opacity="0.2" stroke-width="0.6"/>
<path opacity="0.222222" d="M196.502 576.357C189.686 571.221 186.952 562.28 189.731 554.211L594.401 -621.038C597.18 -629.107 604.838 -634.47 613.372 -634.321L1856.15 -612.629C1864.68 -612.48 1872.15 -606.853 1874.64 -598.691L2238.05 589.964C2240.55 598.126 2237.5 606.966 2230.51 611.861L1212.33 1324.8C1205.34 1329.69 1196 1329.53 1189.18 1324.39L196.502 576.357Z" stroke="url(#paint21_linear_933_141)" stroke-opacity="0.2" stroke-width="0.6"/>
<path opacity="0.232323" d="M184.346 567.606C177.621 562.351 175.044 553.364 177.963 545.344L602.257 -620.395C605.176 -628.415 612.927 -633.643 621.457 -633.345L1861.25 -590.05C1869.78 -589.753 1877.15 -583.996 1879.5 -575.792L2221.45 616.704C2223.8 624.908 2220.6 633.694 2213.53 638.466L1185.06 1332.18C1177.99 1336.95 1168.64 1336.62 1161.92 1331.37L184.346 567.606Z" stroke="url(#paint22_linear_933_141)" stroke-opacity="0.2" stroke-width="0.6"/>
<path opacity="0.242424" d="M172.526 558.83C165.893 553.459 163.474 544.428 166.532 536.46L610.242 -619.443C613.3 -627.41 621.141 -632.503 629.664 -632.056L1866.11 -567.257C1874.63 -566.81 1881.9 -560.926 1884.1 -552.682L2204.56 643.269C2206.77 651.513 2203.42 660.241 2196.26 664.889L1157.87 1339.23C1150.71 1343.88 1141.37 1343.39 1134.74 1338.02L172.526 558.83Z" stroke="url(#paint23_linear_933_141)" stroke-opacity="0.2" stroke-width="0.6"/>
<path opacity="0.252525" d="M161.03 550.032C154.493 544.546 152.231 535.474 155.428 527.561L618.339 -618.184C621.536 -626.097 629.465 -631.052 637.979 -630.456L1870.69 -544.256C1879.21 -543.661 1886.37 -537.651 1888.43 -529.37L2187.38 669.65C2189.45 677.931 2185.95 686.599 2178.71 691.122L1130.75 1345.96C1123.52 1350.48 1114.19 1349.83 1107.65 1344.34L161.03 550.032Z" stroke="url(#paint24_linear_933_141)" stroke-opacity="0.2" stroke-width="0.6"/>
<path opacity="0.262626" d="M149.87 541.222C143.429 535.623 141.326 526.513 144.661 518.657L626.554 -616.613C629.889 -624.469 637.903 -629.284 646.405 -628.54L1875.02 -521.05C1883.53 -520.306 1890.58 -514.172 1892.5 -505.857L2169.94 695.846C2171.86 704.162 2168.2 712.768 2160.89 717.164L1103.73 1352.37C1096.42 1356.76 1087.1 1355.95 1080.66 1350.35L149.87 541.222Z" stroke="url(#paint25_linear_933_141)" stroke-opacity="0.2" stroke-width="0.6"/>
<path opacity="0.272727" d="M139.044 532.408C132.702 526.698 130.758 517.552 134.229 509.756L634.881 -614.726C638.352 -622.523 646.449 -627.198 654.937 -626.305L1879.09 -497.642C1887.58 -496.749 1894.53 -490.493 1896.3 -482.145L2152.22 721.855C2154 730.203 2150.19 738.744 2142.8 743.012L1076.81 1358.46C1069.42 1362.73 1060.12 1361.75 1053.78 1356.04L139.044 532.408Z" stroke="url(#paint26_linear_933_141)" stroke-opacity="0.2" stroke-width="0.6"/>
<path opacity="0.282828" d="M128.549 523.593C122.307 517.772 120.523 508.594 124.13 500.859L643.31 -612.526C646.917 -620.261 655.095 -624.794 663.565 -623.754L1882.89 -474.039C1891.36 -472.999 1898.2 -466.622 1899.83 -458.245L2134.24 747.669C2135.87 756.047 2131.91 764.521 2124.45 768.658L1049.99 1364.24C1042.53 1368.38 1033.25 1367.24 1027.01 1361.42L128.549 523.593Z" stroke="url(#paint27_linear_933_141)" stroke-opacity="0.2" stroke-width="0.6"/>
<path opacity="0.292929" d="M118.382 514.784C112.243 508.856 110.619 499.648 114.36 491.977L651.835 -610.008C655.576 -617.679 663.831 -622.069 672.283 -620.881L1886.42 -450.245C1894.87 -449.057 1901.6 -442.562 1903.08 -434.157L2115.99 773.287C2117.47 781.692 2113.37 790.096 2105.83 794.102L1023.28 1369.71C1015.74 1373.71 1006.48 1372.41 1000.34 1366.48L118.382 514.784Z" stroke="url(#paint28_linear_933_141)" stroke-opacity="0.2" stroke-width="0.6"/>
<path opacity="0.30303" d="M108.543 505.982C102.508 499.948 101.045 490.713 104.92 483.109L660.449 -607.178C664.323 -614.782 672.654 -619.027 681.083 -617.692L1889.68 -426.27C1898.1 -424.935 1904.72 -418.323 1906.05 -409.894L2097.47 798.698C2098.81 807.128 2094.56 815.458 2086.96 819.333L996.673 1374.86C989.068 1378.74 979.834 1377.27 973.799 1371.24L108.543 505.982Z" stroke="url(#paint29_linear_933_141)" stroke-opacity="0.2" stroke-width="0.6"/>
<path opacity="0.313131" d="M99.0361 497.203C93.1075 491.063 91.8062 481.805 95.813 474.269L669.152 -604.025C673.159 -611.56 681.562 -615.659 689.967 -614.177L1892.66 -402.11C1901.06 -400.628 1907.56 -393.903 1908.74 -385.451L2078.71 823.907C2079.9 832.359 2075.51 840.614 2067.84 844.355L970.19 1379.71C962.519 1383.45 953.312 1381.83 947.383 1375.69L99.0361 497.203Z" stroke="url(#paint30_linear_933_141)" stroke-opacity="0.2" stroke-width="0.6"/>
<path opacity="0.323232" d="M89.852 488.44C84.0315 482.198 82.892 472.918 87.0297 465.454L677.93 -600.559C682.068 -608.023 690.541 -611.975 698.919 -610.346L1895.36 -377.783C1903.73 -376.154 1910.11 -369.316 1911.15 -360.845L2059.69 848.899C2060.73 857.37 2056.2 865.548 2048.46 869.155L943.825 1384.25C936.09 1387.86 926.913 1386.08 921.092 1379.84L89.852 488.44Z" stroke="url(#paint31_linear_933_141)" stroke-opacity="0.2" stroke-width="0.6"/>
<path opacity="0.333333" d="M80.998 479.71C75.2872 473.367 74.3099 464.069 78.5772 456.678L686.785 -596.769C691.053 -604.16 699.594 -607.964 707.942 -606.189L1897.78 -353.282C1906.12 -351.507 1912.38 -344.559 1913.27 -336.071L2040.42 873.681C2041.32 882.169 2036.64 890.266 2028.84 893.737L917.592 1388.5C909.795 1391.97 900.65 1390.03 894.939 1383.68L80.998 479.71Z" stroke="url(#paint32_linear_933_141)" stroke-opacity="0.2" stroke-width="0.6"/>
<path opacity="0.343434" d="M72.471 471.012C66.8718 464.571 66.0569 455.257 70.4525 447.941L695.71 -592.662C700.106 -599.977 708.712 -603.631 717.028 -601.711L1899.92 -328.62C1908.23 -326.7 1914.37 -319.644 1915.11 -311.141L2020.92 898.241C2021.66 906.743 2016.84 914.758 2008.99 918.092L891.494 1392.44C883.637 1395.78 874.527 1393.67 868.928 1387.23L72.471 471.012Z" stroke="url(#paint33_linear_933_141)" stroke-opacity="0.2" stroke-width="0.6"/>
<path opacity="0.353535" d="M64.2663 462.357C58.7804 455.819 58.1282 446.493 62.6508 439.255L704.695 -588.23C709.218 -595.468 717.886 -598.971 726.167 -596.906L1901.77 -303.796C1910.05 -301.731 1916.06 -294.569 1916.65 -286.055L2001.17 922.582C2001.76 931.096 1996.81 939.025 1988.9 942.222L865.531 1396.09C857.618 1399.29 848.546 1397.03 843.061 1390.49L64.2663 462.357Z" stroke="url(#paint34_linear_933_141)" stroke-opacity="0.2" stroke-width="0.6"/>
<path opacity="0.363636" d="M56.3822 453.746C51.0113 447.113 50.5219 437.776 55.1702 430.619L713.734 -583.481C718.382 -590.638 727.111 -593.989 735.355 -591.78L1903.33 -278.823C1911.57 -276.614 1917.46 -269.348 1917.9 -260.825L1981.19 946.693C1981.63 955.216 1976.54 963.057 1968.57 966.115L839.71 1399.44C831.743 1402.5 822.712 1400.08 817.341 1393.45L56.3822 453.746Z" stroke="url(#paint35_linear_933_141)" stroke-opacity="0.2" stroke-width="0.6"/>
<path opacity="0.373737" d="M48.8229 445.188C43.5685 438.463 43.2422 429.119 48.0147 422.043L722.827 -578.407C727.6 -585.482 736.385 -588.68 744.589 -586.328L1904.6 -253.699C1912.81 -251.347 1918.56 -243.979 1918.86 -235.45L1960.98 970.576C1961.27 979.106 1956.05 986.857 1948.03 989.776L814.041 1402.51C806.021 1405.43 797.034 1402.85 791.779 1396.13L48.8229 445.188Z" stroke="url(#paint36_linear_933_141)" stroke-opacity="0.2" stroke-width="0.6"/>
<path opacity="0.383838" d="M41.5825 436.683C36.4463 429.867 36.2831 420.519 41.1784 413.528L731.964 -573.016C736.859 -580.007 745.699 -583.051 753.861 -580.556L1905.58 -228.439C1913.75 -225.943 1919.37 -218.476 1919.52 -209.943L1940.54 994.221C1940.69 1002.75 1935.33 1010.41 1927.26 1013.19L788.524 1405.29C780.454 1408.07 771.513 1405.33 766.377 1398.52L41.5825 436.683Z" stroke="url(#paint37_linear_933_141)" stroke-opacity="0.2" stroke-width="0.6"/>
<path opacity="0.393939" d="M34.6587 428.244C29.6423 421.34 29.6422 411.99 34.6587 405.085L741.138 -567.3C746.154 -574.204 755.046 -577.094 763.163 -574.456L1906.27 -203.038C1914.39 -200.401 1919.88 -192.837 1919.88 -184.302V1017.63C1919.88 1026.17 1914.39 1033.73 1906.27 1036.37L763.163 1407.79C755.046 1410.42 746.154 1407.53 741.138 1400.63L34.6587 428.244Z" stroke="url(#paint38_linear_933_141)" stroke-opacity="0.2" stroke-width="0.6"/>
<path opacity="0.40404" d="M28.0502 419.868C23.155 412.877 23.3181 403.529 28.4543 396.713L750.344 -561.267C755.48 -568.083 764.421 -570.816 772.491 -568.038L1906.66 -177.512C1914.73 -174.733 1920.09 -167.075 1919.94 -158.541L1899.01 1040.8C1898.86 1049.33 1893.23 1056.8 1885.07 1059.29L737.964 1410C729.802 1412.49 720.962 1409.45 716.067 1402.46L28.0502 419.868Z" stroke="url(#paint39_linear_933_141)" stroke-opacity="0.2" stroke-width="0.6"/>
<path opacity="0.414141" d="M21.7578 411.573C16.9854 404.497 17.3116 395.153 22.566 388.428L759.578 -554.905C764.833 -561.63 773.82 -564.207 781.84 -561.288L1906.75 -151.854C1914.77 -148.935 1920 -141.183 1919.7 -132.654L1877.92 1063.72C1877.63 1072.25 1871.87 1079.62 1863.67 1081.97L712.933 1411.94C704.729 1414.29 695.944 1411.09 691.171 1404.02L21.7578 411.573Z" stroke="url(#paint40_linear_933_141)" stroke-opacity="0.2" stroke-width="0.6"/>
<path opacity="0.424242" d="M15.7796 403.354C11.1314 396.196 11.6207 386.859 16.9916 380.227L768.836 -548.224C774.207 -554.856 783.238 -557.276 791.206 -554.218L1906.55 -126.078C1914.52 -123.02 1919.61 -115.178 1919.16 -106.655L1856.64 1086.4C1856.19 1094.92 1850.3 1102.19 1842.06 1104.4L688.076 1413.61C679.833 1415.82 671.104 1412.47 666.456 1405.31L15.7796 403.354Z" stroke="url(#paint41_linear_933_141)" stroke-opacity="0.2" stroke-width="0.6"/>
<path opacity="0.434343" d="M10.1092 395.218C5.58656 387.98 6.23872 378.653 11.7246 372.116L778.107 -541.223C783.593 -547.761 792.665 -550.023 800.578 -546.826L1906.04 -100.19C1913.95 -96.9931 1918.91 -89.0641 1918.31 -80.5504L1835.14 1108.82C1834.55 1117.34 1828.54 1124.5 1820.26 1126.57L663.393 1415C655.112 1417.07 646.443 1413.57 641.921 1406.33L10.1092 395.218Z" stroke="url(#paint42_linear_933_141)" stroke-opacity="0.2" stroke-width="0.6"/>
<path opacity="0.444444" d="M4.74848 387.174C0.352854 379.858 1.1677 370.544 6.76687 364.103L787.389 -533.9C792.988 -540.341 802.098 -542.444 809.954 -539.11L1905.23 -74.192C1913.09 -70.8574 1917.9 -62.8432 1917.16 -54.3411L1813.45 1131C1812.71 1139.5 1806.58 1146.55 1798.26 1148.47L638.892 1416.14C630.576 1418.06 621.97 1414.4 617.574 1407.09L4.74848 387.174Z" stroke="url(#paint43_linear_933_141)" stroke-opacity="0.2" stroke-width="0.6"/>
<path opacity="0.454545" d="M-0.305294 379.226C-4.57257 371.835 -3.5953 362.537 2.11542 356.195L796.675 -526.254C802.386 -532.596 811.532 -534.54 819.328 -531.069L1904.12 -48.0889C1911.92 -44.6177 1916.59 -36.5206 1915.7 -28.0328L1791.58 1152.91C1790.68 1161.4 1784.43 1168.35 1776.08 1170.12L614.577 1417.01C606.229 1418.78 597.688 1414.98 593.42 1407.59L-0.305294 379.226Z" stroke="url(#paint44_linear_933_141)" stroke-opacity="0.2" stroke-width="0.6"/>
<path opacity="0.464646" d="M-5.05634 371.377C-9.19398 363.913 -8.05456 354.633 -2.23401 348.391L805.96 -518.291C811.78 -524.533 820.958 -526.317 828.693 -522.71L1902.7 -21.8909C1910.44 -18.2841 1914.97 -10.1067 1913.93 -1.63581L1769.51 1174.57C1768.47 1183.04 1762.09 1189.88 1753.72 1191.51L590.45 1417.62C582.073 1419.25 573.599 1415.3 569.461 1407.83L-5.05634 371.377Z" stroke="url(#paint45_linear_933_141)" stroke-opacity="0.2" stroke-width="0.6"/>
<path opacity="0.474747" d="M-9.50802 363.632C-13.5148 356.096 -12.2136 346.837 -6.28496 340.698L815.235 -510.01C821.163 -516.15 830.371 -517.773 838.042 -514.032L1900.98 4.3965C1908.65 8.1378 1913.04 16.393 1911.85 24.8445L1747.26 1195.96C1746.07 1204.41 1739.58 1211.14 1731.17 1212.62L566.515 1417.98C558.11 1419.46 549.707 1415.36 545.7 1407.83L-9.50802 363.632Z" stroke="url(#paint46_linear_933_141)" stroke-opacity="0.2" stroke-width="0.6"/>
<path opacity="0.484848" d="M-13.659 355.999C-17.5336 348.394 -16.0711 339.16 -10.0362 333.125L824.499 -501.41C830.533 -507.445 839.768 -508.907 847.372 -505.033L1898.95 30.7716C1906.55 34.646 1910.8 42.9767 1909.46 51.4062L1724.84 1217.09C1723.5 1225.52 1716.89 1232.13 1708.46 1233.46L542.78 1418.09C534.351 1419.42 526.02 1415.18 522.145 1407.57L-13.659 355.999Z" stroke="url(#paint47_linear_933_141)" stroke-opacity="0.2" stroke-width="0.6"/>
<path opacity="0.494949" d="M-17.5159 348.479C-21.2572 340.809 -19.6336 331.601 -13.4944 325.672L833.742 -492.494C839.881 -498.423 849.14 -499.724 856.675 -495.717L1896.61 57.2251C1904.14 61.2317 1908.24 69.6351 1906.76 78.04L1702.24 1237.94C1700.76 1246.35 1694.03 1252.84 1685.58 1254.03L519.244 1417.95C510.793 1419.14 502.538 1414.75 498.796 1407.08L-17.5159 348.479Z" stroke="url(#paint48_linear_933_141)" stroke-opacity="0.2" stroke-width="0.6"/>
<path opacity="0.50505" d="M-21.0749 341.086C-24.6817 333.351 -22.8978 324.173 -16.656 318.353L842.965 -483.257C849.206 -489.077 858.486 -490.217 865.951 -486.079L1893.96 83.758C1901.43 87.8956 1905.38 96.3693 1903.75 104.747L1679.48 1258.53C1677.85 1266.91 1671.01 1273.29 1662.54 1274.33L495.919 1417.57C487.448 1418.61 479.27 1414.08 475.663 1406.34L-21.0749 341.086Z" stroke="url(#paint49_linear_933_141)" stroke-opacity="0.2" stroke-width="0.6"/>
<path opacity="0.515152" d="M-24.3467 333.817C-27.8181 326.02 -25.8742 316.875 -19.5318 311.164L852.154 -473.706C858.497 -479.416 867.795 -480.394 875.186 -476.127L1891.01 110.358C1898.4 114.625 1902.2 123.167 1900.43 131.515L1656.55 1278.85C1654.78 1287.2 1647.83 1293.46 1639.34 1294.35L472.799 1416.96C464.311 1417.85 456.214 1413.17 452.743 1405.38L-24.3467 333.817Z" stroke="url(#paint50_linear_933_141)" stroke-opacity="0.2" stroke-width="0.6"/>
<path opacity="0.525253" d="M-27.3301 326.677C-30.6648 318.82 -28.5616 309.71 -22.1205 304.111L861.309 -463.842C867.75 -469.442 877.064 -470.257 884.38 -465.861L1887.74 137.02C1895.06 141.416 1898.71 150.022 1896.79 158.338L1633.47 1298.89C1631.55 1307.21 1624.5 1313.34 1615.99 1314.09L449.893 1416.11C441.391 1416.85 433.377 1412.03 430.042 1404.18L-27.3301 326.677Z" stroke="url(#paint51_linear_933_141)" stroke-opacity="0.2" stroke-width="0.6"/>
<path opacity="0.535354" d="M-30.0267 319.674C-33.2238 311.761 -30.9619 302.689 -24.4241 297.203L870.425 -453.664C876.963 -459.15 886.289 -459.802 893.527 -455.28L1884.17 163.741C1891.41 168.264 1894.91 176.933 1892.84 185.214L1610.24 1318.66C1608.18 1326.94 1601.02 1332.95 1592.5 1333.54L427.207 1415.03C418.693 1415.62 410.764 1410.67 407.567 1402.76L-30.0267 319.674Z" stroke="url(#paint52_linear_933_141)" stroke-opacity="0.2" stroke-width="0.6"/>
<path opacity="0.545455" d="M-32.4435 312.811C-35.502 304.843 -33.0822 295.812 -26.4496 290.441L879.491 -443.175C886.124 -448.546 895.461 -449.036 902.618 -444.388L1880.28 190.514C1887.44 195.162 1890.79 203.891 1888.58 212.134L1586.87 1338.14C1584.66 1346.39 1577.39 1352.27 1568.87 1352.72L404.739 1413.73C396.216 1414.17 388.375 1409.08 385.316 1401.11L-32.4435 312.811Z" stroke="url(#paint53_linear_933_141)" stroke-opacity="0.2" stroke-width="0.6"/>
<path opacity="0.555556" d="M-34.5821 306.092C-37.5011 298.072 -34.924 289.085 -28.1987 283.83L888.506 -432.377C895.231 -437.632 904.575 -437.958 911.65 -433.186L1876.08 217.331C1883.16 222.104 1886.35 230.89 1884 239.094L1563.35 1357.34C1561 1365.55 1553.63 1371.3 1545.1 1371.6L382.494 1412.2C373.965 1412.5 366.214 1407.27 363.295 1399.25L-34.5821 306.092Z" stroke="url(#paint54_linear_933_141)" stroke-opacity="0.2" stroke-width="0.6"/>
<path opacity="0.565657" d="M-36.4422 299.526C-39.2208 291.456 -36.4872 282.515 -29.6712 277.379L897.465 -421.269C904.281 -426.405 913.63 -426.568 920.621 -421.673L1871.57 244.193C1878.57 249.088 1881.61 257.928 1879.11 266.09L1539.7 1376.26C1537.2 1384.43 1529.74 1390.05 1521.2 1390.2L360.481 1410.46C351.947 1410.61 344.289 1405.25 341.51 1397.18L-36.4422 299.526Z" stroke="url(#paint55_linear_933_141)" stroke-opacity="0.2" stroke-width="0.6"/>
<path opacity="0.575758" d="M-38.0324 293.111C-40.6697 284.994 -37.7805 276.102 -30.876 271.085L906.36 -409.856C913.264 -414.873 922.614 -414.873 929.519 -409.856L1866.75 271.085C1873.66 276.102 1876.55 284.994 1873.91 293.111L1515.92 1394.9C1513.28 1403.01 1505.72 1408.51 1497.18 1408.51L338.696 1408.51C330.161 1408.51 322.597 1403.01 319.96 1394.9L-38.0324 293.111Z" stroke="url(#paint56_linear_933_141)" stroke-opacity="0.2" stroke-width="0.6"/>
<path opacity="0.585859" d="M-39.3517 286.858C-41.847 278.696 -38.803 269.856 -31.812 264.961L915.188 -398.135C922.179 -403.031 931.527 -402.868 938.343 -397.731L1861.62 298.011C1868.44 303.147 1871.17 312.088 1868.4 320.158L1492.01 1413.25C1489.24 1421.32 1481.58 1426.68 1473.04 1426.53L317.147 1406.35C308.614 1406.2 301.147 1400.58 298.651 1392.42L-39.3517 286.858Z" stroke="url(#paint57_linear_933_141)" stroke-opacity="0.2" stroke-width="0.6"/>
<path opacity="0.59596" d="M-40.408 280.767C-42.7605 272.563 -39.5627 263.777 -32.4873 259.005L923.94 -386.114C931.015 -390.886 940.359 -390.56 947.085 -385.306L1856.18 324.958C1862.91 330.213 1865.48 339.2 1862.56 347.22L1467.99 1431.31C1465.07 1439.33 1457.32 1444.55 1448.79 1444.26L295.833 1403.99C287.304 1403.7 279.936 1397.94 277.584 1389.74L-40.408 280.767Z" stroke="url(#paint58_linear_933_141)" stroke-opacity="0.2" stroke-width="0.6"/>
<path opacity="0.606061" d="M-41.1988 274.844C-43.4077 266.6 -40.0571 257.872 -32.8995 253.224L932.617 -373.79C939.774 -378.438 949.111 -377.949 955.744 -372.578L1850.43 351.925C1857.06 357.296 1859.48 366.327 1856.42 374.294L1443.85 1449.08C1440.8 1457.04 1432.95 1462.13 1424.43 1461.69L274.763 1401.44C266.24 1400.99 258.974 1395.11 256.766 1386.86L-41.1988 274.844Z" stroke="url(#paint59_linear_933_141)" stroke-opacity="0.2" stroke-width="0.6"/>
<path opacity="0.616162" d="M-41.7338 269.093C-43.7985 260.812 -40.2961 252.143 -33.0584 247.621L941.206 -361.168C948.444 -365.69 957.771 -365.038 964.309 -359.553L1844.37 378.903C1850.9 384.389 1853.16 393.46 1849.97 401.374L1419.61 1466.55C1416.41 1474.47 1408.48 1479.42 1399.97 1478.82L253.934 1398.69C245.421 1398.09 238.259 1392.08 236.194 1383.8L-41.7338 269.093Z" stroke="url(#paint60_linear_933_141)" stroke-opacity="0.2" stroke-width="0.6"/>
<path opacity="0.626263" d="M-42.0118 263.521C-43.9317 255.205 -40.2785 246.599 -32.963 242.203L949.709 -348.246C957.025 -352.642 966.339 -351.827 972.78 -346.228L1837.99 405.89C1844.43 411.49 1846.54 420.6 1843.2 428.456L1395.26 1483.74C1391.93 1491.6 1383.91 1496.41 1375.41 1495.67L233.354 1395.75C224.852 1395.01 217.796 1388.87 215.876 1380.56L-42.0118 263.521Z" stroke="url(#paint61_linear_933_141)" stroke-opacity="0.2" stroke-width="0.6"/>
<path opacity="0.636364" d="M-42.0383 258.13C-43.8127 249.782 -40.0099 241.24 -32.6188 236.973L958.118 -335.029C965.509 -339.297 974.808 -338.319 981.15 -332.609L1831.31 432.88C1837.65 438.591 1839.6 447.736 1836.13 455.533L1370.82 1500.63C1367.35 1508.43 1359.25 1513.1 1350.76 1512.21L213.024 1392.63C204.536 1391.74 197.588 1385.48 195.814 1377.14L-42.0383 258.13Z" stroke="url(#paint62_linear_933_141)" stroke-opacity="0.2" stroke-width="0.6"/>
<path opacity="0.646465" d="M-41.8194 252.921C-43.4479 244.543 -39.4965 236.069 -32.0321 231.932L966.426 -321.523C973.89 -325.66 983.17 -324.521 989.412 -318.701L1824.32 459.863C1830.56 465.683 1832.34 474.861 1828.74 482.596L1346.28 1517.23C1342.67 1524.96 1334.5 1529.5 1326.03 1528.46L192.944 1389.33C184.473 1388.29 177.635 1381.92 176.007 1373.54L-41.8194 252.921Z" stroke="url(#paint63_linear_933_141)" stroke-opacity="0.2" stroke-width="0.6"/>
<path opacity="0.656566" d="M-41.3536 247.902C-42.8356 239.497 -38.737 231.094 -31.2015 227.087L974.632 -307.724C982.168 -311.731 991.427 -310.43 997.566 -304.501L1817.02 486.838C1823.16 492.766 1824.78 501.974 1821.04 509.645L1321.66 1533.53C1317.92 1541.2 1309.66 1545.59 1301.21 1544.4L173.122 1385.86C164.67 1384.67 157.945 1378.18 156.462 1369.77L-41.3536 247.902Z" stroke="url(#paint64_linear_933_141)" stroke-opacity="0.2" stroke-width="0.6"/>
<path opacity="0.666667" d="M-40.6523 243.072C-41.9874 234.643 -37.7428 226.312 -30.1385 222.438L982.725 -293.642C990.33 -297.517 999.564 -296.054 1005.6 -290.02L1809.41 513.794C1815.45 519.828 1816.91 529.063 1813.04 536.667L1296.96 1549.53C1293.08 1557.14 1284.75 1561.38 1276.32 1560.04L153.553 1382.22C145.123 1380.88 138.512 1374.27 137.177 1365.84L-40.6523 243.072Z" stroke="url(#paint65_linear_933_141)" stroke-opacity="0.2" stroke-width="0.6"/>
<path opacity="0.676768" d="M-39.7132 238.443C-40.901 229.992 -36.5117 221.736 -28.8409 217.995L990.706 -279.271C998.377 -283.012 1007.58 -281.389 1013.51 -275.25L1801.5 540.733C1807.43 546.873 1808.73 556.131 1804.72 563.667L1272.18 1565.24C1268.17 1572.77 1259.77 1576.87 1251.36 1575.39L134.245 1378.41C125.84 1376.93 119.346 1370.21 118.158 1361.75L-39.7132 238.443Z" stroke="url(#paint66_linear_933_141)" stroke-opacity="0.2" stroke-width="0.6"/>
<path opacity="0.686869" d="M-38.5417 234.013C-39.5818 225.542 -35.049 217.364 -27.3141 213.757L998.568 -264.62C1006.3 -268.226 1015.48 -266.443 1021.3 -260.201L1793.28 567.645C1799.1 573.887 1800.24 583.167 1796.1 590.631L1247.33 1580.64C1243.19 1588.11 1234.72 1592.06 1226.34 1590.43L115.201 1374.45C106.823 1372.82 100.447 1365.98 99.4066 1357.51L-38.5417 234.013Z" stroke="url(#paint67_linear_933_141)" stroke-opacity="0.2" stroke-width="0.6"/>
<path opacity="0.69697" d="M-37.1443 229.785C-38.0364 221.298 -33.3616 213.201 -25.5649 209.729L1006.31 -249.689C1014.1 -253.16 1023.25 -251.216 1028.96 -244.874L1784.76 594.525C1790.47 600.867 1791.44 610.166 1787.18 617.557L1222.42 1595.75C1218.15 1603.14 1209.61 1606.95 1201.26 1605.17L96.4192 1370.33C88.0711 1368.56 81.8151 1361.61 80.9229 1353.12L-37.1443 229.785Z" stroke="url(#paint68_linear_933_141)" stroke-opacity="0.2" stroke-width="0.6"/>
<path opacity="0.707071" d="M-35.5206 225.77C-36.2645 217.268 -31.4491 209.254 -23.593 205.919L1013.92 -234.477C1021.77 -237.812 1030.88 -235.709 1036.48 -229.268L1775.93 621.372C1781.53 627.813 1782.35 637.127 1777.95 644.443L1197.45 1610.56C1193.05 1617.88 1184.44 1621.53 1176.13 1619.61L77.9069 1366.07C69.5911 1364.15 63.4572 1357.09 62.7134 1348.59L-35.5206 225.77Z" stroke="url(#paint69_linear_933_141)" stroke-opacity="0.2" stroke-width="0.6"/>
<path opacity="0.717172" d="M-33.6791 221.961C-34.2744 213.448 -29.3199 205.519 -21.4069 202.322L1021.39 -218.997C1029.31 -222.194 1038.38 -219.932 1043.86 -213.394L1766.8 648.172C1772.29 654.71 1772.94 664.037 1768.42 671.275L1172.42 1625.07C1167.9 1632.31 1159.23 1635.81 1150.95 1633.75L59.6619 1361.66C51.3808 1359.59 45.3711 1352.43 44.7757 1343.92L-33.6791 221.961Z" stroke="url(#paint70_linear_933_141)" stroke-opacity="0.2" stroke-width="0.6"/>
<path opacity="0.727273" d="M-31.6226 218.371C-32.0693 209.848 -26.9771 202.007 -19.0094 198.949L1028.73 -203.241C1036.7 -206.3 1045.73 -203.88 1051.1 -197.247L1757.37 674.929C1762.75 681.562 1763.23 690.899 1758.59 698.056L1147.35 1639.28C1142.7 1646.44 1133.97 1649.79 1125.73 1647.58L41.6874 1357.11C33.4436 1354.9 27.5597 1347.64 27.113 1339.11L-31.6226 218.371Z" stroke="url(#paint71_linear_933_141)" stroke-opacity="0.2" stroke-width="0.6"/>
<path opacity="0.737374" d="M-29.3539 214.997C-29.6517 206.467 -24.4235 198.716 -16.4037 195.797L1035.93 -187.22C1043.95 -190.139 1052.94 -187.562 1058.19 -180.837L1747.65 701.631C1752.9 708.356 1753.23 717.7 1748.46 724.776L1122.23 1653.19C1117.46 1660.26 1108.68 1663.46 1100.47 1661.11L23.9869 1352.43C15.7829 1350.08 10.0268 1342.71 9.7289 1334.18L-29.3539 214.997Z" stroke="url(#paint72_linear_933_141)" stroke-opacity="0.2" stroke-width="0.6"/>
<path opacity="0.747475" d="M-26.8784 211.847C-27.0273 203.314 -21.6646 195.655 -13.5951 192.877L1042.98 -170.931C1051.05 -173.709 1059.99 -170.976 1065.13 -164.16L1737.63 728.278C1742.76 735.094 1742.93 744.443 1738.03 751.434L1097.08 1666.8C1092.19 1673.79 1083.35 1676.83 1075.19 1674.34L6.56132 1347.63C-1.6003 1345.13 -7.22703 1337.66 -7.37602 1329.13L-26.8784 211.847Z" stroke="url(#paint73_linear_933_141)" stroke-opacity="0.2" stroke-width="0.6"/>
<path opacity="0.757576" d="M-24.2043 208.917C-24.2043 200.382 -18.7088 192.818 -10.5919 190.181L1049.87 -154.385C1057.99 -157.023 1066.88 -154.134 1071.9 -147.229L1727.3 754.857C1732.32 761.762 1732.32 771.112 1727.3 778.016L1071.9 1680.1C1066.88 1687.01 1057.99 1689.9 1049.87 1687.26L-10.5919 1342.69C-18.7087 1340.06 -24.2042 1332.49 -24.2043 1323.96L-24.2043 208.917Z" stroke="url(#paint74_linear_933_141)" stroke-opacity="0.2" stroke-width="0.6"/>
<path opacity="0.767677" d="M-21.3304 206.217C-21.1814 197.684 -15.5547 190.217 -7.39309 187.722L1056.62 -137.579C1064.78 -140.074 1073.62 -137.03 1078.51 -130.039L1716.69 781.371C1721.59 788.362 1721.42 797.711 1716.29 804.527L1046.69 1693.11C1041.55 1699.93 1032.61 1702.66 1024.54 1699.88L-27.465 1337.64C-35.5346 1334.87 -40.8973 1327.21 -40.7484 1318.67L-21.3304 206.217Z" stroke="url(#paint75_linear_933_141)" stroke-opacity="0.2" stroke-width="0.6"/>
<path opacity="0.777778" d="M-18.2621 203.751C-17.9643 195.222 -12.2081 187.854 -4.0042 185.502L1063.2 -120.514C1071.4 -122.867 1080.19 -119.669 1084.96 -112.594L1705.79 807.814C1710.56 814.89 1710.23 824.234 1704.98 830.959L1021.46 1705.82C1016.21 1712.54 1007.22 1715.12 999.201 1712.2L-44.0578 1332.49C-52.0777 1329.57 -57.3059 1321.82 -57.0081 1313.29L-18.2621 203.751Z" stroke="url(#paint76_linear_933_141)" stroke-opacity="0.2" stroke-width="0.6"/>
<path opacity="0.787879" d="M-15.0037 201.518C-14.5571 192.995 -8.67319 185.729 -0.429481 183.52L1069.62 -103.199C1077.87 -105.408 1086.59 -102.058 1091.24 -94.9002L1694.59 834.178C1699.24 841.336 1698.75 850.673 1693.38 857.305L996.221 1718.23C990.85 1724.86 981.819 1727.28 973.851 1724.22L-60.3682 1327.22C-68.3359 1324.16 -73.4281 1316.32 -72.9814 1307.8L-15.0037 201.518Z" stroke="url(#paint77_linear_933_141)" stroke-opacity="0.2" stroke-width="0.6"/>
<path opacity="0.79798" d="M-11.5659 199.517C-10.9706 191.003 -4.9608 183.841 3.3202 181.776L1075.87 -85.6405C1084.15 -87.7052 1092.82 -84.2029 1097.34 -76.9652L1683.11 860.455C1687.63 867.692 1686.98 877.019 1681.49 883.557L970.965 1730.33C965.479 1736.87 956.407 1739.13 948.494 1735.93L-76.4014 1321.85C-84.3144 1318.65 -89.269 1310.72 -88.6737 1302.21L-11.5659 199.517Z" stroke="url(#paint78_linear_933_141)" stroke-opacity="0.2" stroke-width="0.6"/>
<path opacity="0.808081" d="M-7.94642 197.76C-7.20258 189.258 -1.06871 182.202 7.24707 180.282L1081.95 -67.8326C1090.27 -69.7525 1098.87 -66.0994 1103.27 -58.7839L1671.34 886.647C1675.74 893.963 1674.92 903.277 1669.32 909.718L945.707 1742.14C940.107 1748.58 930.998 1750.69 923.141 1747.35L-92.1491 1316.39C-100.005 1313.05 -104.821 1305.04 -104.077 1296.53L-7.94642 197.76Z" stroke="url(#paint79_linear_933_141)" stroke-opacity="0.2" stroke-width="0.6"/>
<path opacity="0.818182" d="M-4.15372 196.242C-3.26162 187.754 2.99448 180.806 11.3425 179.032L1087.85 -49.7872C1096.2 -51.5617 1104.74 -47.759 1109.01 -40.3678L1659.29 912.743C1663.55 920.134 1662.58 929.433 1656.87 935.775L920.448 1753.65C914.738 1759.99 905.592 1761.94 897.796 1758.46L-107.614 1310.83C-115.411 1307.36 -120.085 1299.26 -119.193 1290.77L-4.15372 196.242Z" stroke="url(#paint80_linear_933_141)" stroke-opacity="0.2" stroke-width="0.6"/>
<path opacity="0.828283" d="M-0.190394 194.97C0.849706 186.499 7.22612 179.661 15.6038 178.033L1093.57 -31.5028C1101.95 -33.1313 1110.42 -29.18 1114.56 -21.7156L1646.95 938.743C1651.09 946.207 1649.95 955.487 1644.13 961.729L895.197 1764.86C889.376 1771.1 880.199 1772.89 872.464 1769.28L-122.793 1305.18C-130.528 1301.58 -135.061 1293.4 -134.021 1284.93L-0.190394 194.97Z" stroke="url(#paint81_linear_933_141)" stroke-opacity="0.2" stroke-width="0.6"/>
<path opacity="0.838384" d="M3.93792 193.943C5.1257 185.492 11.6205 178.766 20.0253 177.284L1099.11 -12.9875C1107.51 -14.4695 1115.92 -10.371 1119.92 -2.83549L1634.34 964.637C1638.35 972.173 1637.04 981.431 1631.12 987.571L869.957 1775.77C864.029 1781.91 854.821 1783.54 847.15 1779.79L-137.686 1299.46C-145.357 1295.72 -149.746 1287.46 -148.558 1279.01L3.93792 193.943Z" stroke="url(#paint82_linear_933_141)" stroke-opacity="0.2" stroke-width="0.6"/>
<path opacity="0.848485" d="M8.22816 193.17C9.56326 184.74 16.1744 178.129 24.6039 176.794L1104.46 5.76155C1112.89 4.42645 1121.22 8.67094 1125.09 16.2753L1621.45 990.428C1625.32 998.032 1623.86 1007.27 1617.83 1013.3L844.736 1786.39C838.701 1792.43 829.466 1793.89 821.862 1790.02L-152.29 1293.66C-159.895 1289.79 -164.139 1281.46 -162.804 1273.03L8.22816 193.17Z" stroke="url(#paint83_linear_933_141)" stroke-opacity="0.2" stroke-width="0.6"/>
<path opacity="0.858586" d="M12.6718 192.644C14.1538 184.239 20.8794 177.745 29.3308 176.557L1109.62 24.7325C1118.07 23.5447 1126.32 27.934 1130.07 35.6048L1608.29 1016.1C1612.03 1023.77 1610.4 1032.98 1604.26 1038.91L819.534 1796.71C813.395 1802.64 804.136 1803.94 796.601 1799.94L-166.609 1287.79C-174.145 1283.78 -178.243 1275.38 -176.761 1266.97L12.6718 192.644Z" stroke="url(#paint84_linear_933_141)" stroke-opacity="0.2" stroke-width="0.6"/>
<path opacity="0.868687" d="M17.2669 192.375C18.8954 183.997 25.7332 177.621 34.2041 176.581L1114.58 43.9273C1123.05 42.8872 1131.23 47.4199 1134.84 55.1548L1594.85 1041.66C1598.46 1049.4 1596.67 1058.57 1590.43 1064.39L794.361 1806.74C788.119 1812.56 778.839 1813.7 771.375 1809.56L-180.639 1281.85C-188.104 1277.72 -192.055 1269.24 -190.427 1260.87L17.2669 192.375Z" stroke="url(#paint85_linear_933_141)" stroke-opacity="0.2" stroke-width="0.6"/>
<path opacity="0.878788" d="M22.0093 192.364C23.7838 184.015 30.7319 177.759 39.2196 176.867L1119.35 63.3414C1127.83 62.4493 1135.93 67.1241 1139.4 74.9207L1581.15 1067.1C1584.62 1074.9 1582.68 1084.04 1576.33 1089.75L769.222 1816.48C762.88 1822.19 753.581 1823.17 746.19 1818.9L-194.379 1275.86C-201.77 1271.6 -205.573 1263.05 -203.798 1254.71L22.0093 192.364Z" stroke="url(#paint86_linear_933_141)" stroke-opacity="0.2" stroke-width="0.6"/>
<path opacity="0.888889" d="M26.8907 192.608C28.8105 184.293 35.8667 178.159 44.3688 177.415L1123.91 82.9675C1132.41 82.2237 1140.42 87.039 1143.76 94.8951L1567.18 1092.41C1570.51 1100.27 1568.41 1109.38 1561.97 1114.98L744.119 1825.92C737.678 1831.52 728.364 1832.34 721.048 1827.94L-207.831 1269.81C-215.147 1265.42 -218.8 1256.81 -216.88 1248.5L26.8907 192.608Z" stroke="url(#paint87_linear_933_141)" stroke-opacity="0.2" stroke-width="0.6"/>
<path opacity="0.89899" d="M31.9092 193.114C33.9739 184.833 41.1361 178.823 49.6498 178.228L1128.26 102.804C1136.78 102.208 1144.71 107.163 1147.9 115.076L1552.95 1117.59C1556.14 1125.5 1553.88 1134.58 1547.34 1140.06L719.06 1835.08C712.522 1840.56 703.195 1841.21 695.958 1836.69L-220.993 1263.72C-228.231 1259.19 -231.733 1250.53 -229.668 1242.24L31.9092 193.114Z" stroke="url(#paint88_linear_933_141)" stroke-opacity="0.2" stroke-width="0.6"/>
<path opacity="0.909091" d="M37.0607 193.886C39.2697 185.642 46.5356 179.758 55.0585 179.311L1132.41 122.85C1140.94 122.403 1148.78 127.495 1151.84 135.463L1538.46 1142.64C1541.52 1150.61 1539.1 1159.64 1532.46 1165.01L694.051 1843.94C687.418 1849.31 678.082 1849.8 670.924 1845.16L-233.863 1257.58C-241.02 1252.93 -244.371 1244.2 -242.162 1235.96L37.0607 193.886Z" stroke="url(#paint89_linear_933_141)" stroke-opacity="0.2" stroke-width="0.6"/>
<path opacity="0.919192" d="M42.3338 194.914C44.6863 186.71 52.0539 180.954 60.5832 180.656L1136.35 143.089C1144.88 142.791 1152.63 148.02 1155.55 156.039L1523.71 1167.54C1526.62 1175.56 1524.05 1184.55 1517.32 1189.81L669.091 1852.52C662.365 1857.77 653.022 1858.1 645.946 1853.32L-246.447 1251.4C-253.523 1246.63 -256.72 1237.84 -254.368 1229.64L42.3338 194.914Z" stroke="url(#paint90_linear_933_141)" stroke-opacity="0.2" stroke-width="0.6"/>
<path opacity="0.929293" d="M47.7307 196.212C50.2259 188.05 57.6928 182.423 66.2261 182.274L1140.07 163.53C1148.6 163.381 1156.26 168.744 1159.04 176.814L1508.7 1192.31C1511.48 1200.38 1508.75 1209.32 1501.93 1214.45L644.191 1860.81C637.375 1865.94 628.027 1866.11 621.036 1861.21L-258.739 1245.19C-265.73 1240.29 -268.774 1231.45 -266.279 1223.29L47.7307 196.212Z" stroke="url(#paint91_linear_933_141)" stroke-opacity="0.2" stroke-width="0.6"/>
<path opacity="0.939394" d="M53.2416 197.777C55.879 189.66 63.4429 184.164 71.9775 184.164L1143.57 184.164C1152.11 184.164 1159.67 189.66 1162.31 197.776L1493.45 1216.92C1496.08 1225.04 1493.2 1233.93 1486.29 1238.95L619.354 1868.81C612.449 1873.83 603.099 1873.83 596.195 1868.81L-270.742 1238.95C-277.647 1233.93 -280.536 1225.04 -277.899 1216.92L53.2416 197.777Z" stroke="url(#paint92_linear_933_141)" stroke-opacity="0.2" stroke-width="0.6"/>
<path opacity="0.949495" d="M58.8673 199.614C61.6459 191.544 69.3046 186.182 77.8378 186.331L1146.85 204.991C1155.39 205.139 1162.85 210.766 1165.35 218.928L1477.95 1241.39C1480.44 1249.55 1477.4 1258.39 1470.41 1263.29L594.587 1876.54C587.596 1881.44 578.248 1881.27 571.432 1876.14L-282.452 1232.69C-289.268 1227.55 -292.002 1218.61 -289.223 1210.54L58.8673 199.614Z" stroke="url(#paint93_linear_933_141)" stroke-opacity="0.2" stroke-width="0.6"/>
<path opacity="0.959596" d="M64.5956 201.715C67.5146 193.695 75.2658 188.467 83.7951 188.764L1149.91 225.994C1158.44 226.292 1165.81 232.048 1168.16 240.252L1462.2 1265.69C1464.55 1273.9 1461.36 1282.68 1454.28 1287.46L569.891 1883.98C562.816 1888.76 553.472 1888.43 546.747 1883.18L-293.876 1226.41C-300.602 1221.15 -303.179 1212.17 -300.26 1204.15L64.5956 201.715Z" stroke="url(#paint94_linear_933_141)" stroke-opacity="0.2" stroke-width="0.6"/>
<path opacity="0.969697" d="M70.4262 204.091C73.4848 196.123 81.326 191.031 89.8488 191.478L1152.74 247.182C1161.27 247.628 1168.53 253.512 1170.74 261.756L1446.21 1289.84C1448.42 1298.08 1445.07 1306.81 1437.92 1311.46L545.275 1891.15C538.117 1895.8 528.78 1895.31 522.148 1889.94L-305.009 1220.12C-311.642 1214.75 -314.062 1205.72 -311.003 1197.75L70.4262 204.091Z" stroke="url(#paint95_linear_933_141)" stroke-opacity="0.2" stroke-width="0.6"/>
<path opacity="0.979798" d="M76.3495 206.734C79.5466 198.821 87.4755 193.867 95.9892 194.462L1155.34 268.539C1163.85 269.134 1171.02 275.144 1173.08 283.425L1429.99 1313.82C1432.05 1322.1 1428.55 1330.77 1421.31 1335.29L520.737 1898.03C513.5 1902.56 504.173 1901.9 497.635 1896.42L-315.857 1213.82C-322.395 1208.33 -324.657 1199.26 -321.46 1191.35L76.3495 206.734Z" stroke="url(#paint96_linear_933_141)" stroke-opacity="0.2" stroke-width="0.6"/>
<path opacity="0.989899" d="M82.3663 209.656C85.701 201.8 93.7152 196.985 102.217 197.729L1157.71 290.072C1166.21 290.816 1173.27 296.95 1175.19 305.266L1413.53 1337.64C1415.45 1345.95 1411.8 1354.56 1404.48 1358.95L496.291 1904.65C488.975 1909.04 479.661 1908.23 473.22 1902.63L-326.413 1207.52C-332.855 1201.92 -334.958 1192.81 -331.623 1184.95L82.3663 209.656Z" stroke="url(#paint97_linear_933_141)" stroke-opacity="0.2" stroke-width="0.6"/>
<path d="M88.4682 212.852C91.9395 205.055 100.037 200.38 108.524 201.272L1159.84 311.771C1168.33 312.663 1175.28 318.919 1177.05 327.267L1396.84 1361.28C1398.61 1369.63 1394.81 1378.17 1387.42 1382.43L471.936 1910.99C464.545 1915.26 455.246 1914.28 448.904 1908.57L-336.683 1201.22C-343.025 1195.51 -344.969 1186.37 -341.498 1178.57L88.4682 212.852Z" stroke="url(#paint98_linear_933_141)" stroke-opacity="0.2" stroke-width="0.6"/>
</g>
<defs>
<linearGradient id="paint0_linear_933_141" x1="1806.45" y1="563.369" x2="982.459" y2="-491.291" gradientUnits="userSpaceOnUse">
<stop stop-color="#FF00F7"/>
<stop offset="1" stop-color="#00F0FF"/>
</linearGradient>
<linearGradient id="paint1_linear_933_141" x1="1788.04" y1="579.137" x2="984.054" y2="-487.792" gradientUnits="userSpaceOnUse">
<stop stop-color="#FF00F7"/>
<stop offset="1" stop-color="#00F0FF"/>
</linearGradient>
<linearGradient id="paint2_linear_933_141" x1="1769.55" y1="594.722" x2="985.739" y2="-484.101" gradientUnits="userSpaceOnUse">
<stop stop-color="#FF00F7"/>
<stop offset="1" stop-color="#00F0FF"/>
</linearGradient>
<linearGradient id="paint3_linear_933_141" x1="1750.97" y1="610.124" x2="987.511" y2="-480.213" gradientUnits="userSpaceOnUse">
<stop stop-color="#FF00F7"/>
<stop offset="1" stop-color="#00F0FF"/>
</linearGradient>
<linearGradient id="paint4_linear_933_141" x1="1732.32" y1="625.338" x2="989.366" y2="-476.133" gradientUnits="userSpaceOnUse">
<stop stop-color="#FF00F7"/>
<stop offset="1" stop-color="#00F0FF"/>
</linearGradient>
<linearGradient id="paint5_linear_933_141" x1="1713.58" y1="640.362" x2="991.297" y2="-471.859" gradientUnits="userSpaceOnUse">
<stop stop-color="#FF00F7"/>
<stop offset="1" stop-color="#00F0FF"/>
</linearGradient>
<linearGradient id="paint6_linear_933_141" x1="1694.77" y1="655.196" x2="993.303" y2="-467.389" gradientUnits="userSpaceOnUse">
<stop stop-color="#FF00F7"/>
<stop offset="1" stop-color="#00F0FF"/>
</linearGradient>
<linearGradient id="paint7_linear_933_141" x1="1675.89" y1="669.846" x2="995.381" y2="-462.717" gradientUnits="userSpaceOnUse">
<stop stop-color="#FF00F7"/>
<stop offset="1" stop-color="#00F0FF"/>
</linearGradient>
<linearGradient id="paint8_linear_933_141" x1="1656.95" y1="684.302" x2="997.53" y2="-457.85" gradientUnits="userSpaceOnUse">
<stop stop-color="#FF00F7"/>
<stop offset="1" stop-color="#00F0FF"/>
</linearGradient>
<linearGradient id="paint9_linear_933_141" x1="1637.94" y1="698.565" x2="999.738" y2="-452.786" gradientUnits="userSpaceOnUse">
<stop stop-color="#FF00F7"/>
<stop offset="1" stop-color="#00F0FF"/>
</linearGradient>
<linearGradient id="paint10_linear_933_141" x1="1618.87" y1="712.641" x2="1002.01" y2="-447.516" gradientUnits="userSpaceOnUse">
<stop stop-color="#FF00F7"/>
<stop offset="1" stop-color="#00F0FF"/>
</linearGradient>
<linearGradient id="paint11_linear_933_141" x1="1599.75" y1="726.519" x2="1004.34" y2="-442.052" gradientUnits="userSpaceOnUse">
<stop stop-color="#FF00F7"/>
<stop offset="1" stop-color="#00F0FF"/>
</linearGradient>
<linearGradient id="paint12_linear_933_141" x1="1580.57" y1="740.208" x2="1006.71" y2="-436.381" gradientUnits="userSpaceOnUse">
<stop stop-color="#FF00F7"/>
<stop offset="1" stop-color="#00F0FF"/>
</linearGradient>
<linearGradient id="paint13_linear_933_141" x1="1561.35" y1="753.701" x2="1009.15" y2="-430.51" gradientUnits="userSpaceOnUse">
<stop stop-color="#FF00F7"/>
<stop offset="1" stop-color="#00F0FF"/>
</linearGradient>
<linearGradient id="paint14_linear_933_141" x1="1542.08" y1="766.998" x2="1011.62" y2="-424.44" gradientUnits="userSpaceOnUse">
<stop stop-color="#FF00F7"/>
<stop offset="1" stop-color="#00F0FF"/>
</linearGradient>
<linearGradient id="paint15_linear_933_141" x1="1522.77" y1="780.102" x2="1014.14" y2="-418.163" gradientUnits="userSpaceOnUse">
<stop stop-color="#FF00F7"/>
<stop offset="1" stop-color="#00F0FF"/>
</linearGradient>
<linearGradient id="paint16_linear_933_141" x1="1503.42" y1="793.012" x2="1016.69" y2="-411.683" gradientUnits="userSpaceOnUse">
<stop stop-color="#FF00F7"/>
<stop offset="1" stop-color="#00F0FF"/>
</linearGradient>
<linearGradient id="paint17_linear_933_141" x1="1484.04" y1="805.725" x2="1019.28" y2="-405.002" gradientUnits="userSpaceOnUse">
<stop stop-color="#FF00F7"/>
<stop offset="1" stop-color="#00F0FF"/>
</linearGradient>
<linearGradient id="paint18_linear_933_141" x1="1464.62" y1="818.243" x2="1021.91" y2="-398.115" gradientUnits="userSpaceOnUse">
<stop stop-color="#FF00F7"/>
<stop offset="1" stop-color="#00F0FF"/>
</linearGradient>
<linearGradient id="paint19_linear_933_141" x1="1445.18" y1="830.559" x2="1024.55" y2="-391.031" gradientUnits="userSpaceOnUse">
<stop stop-color="#FF00F7"/>
<stop offset="1" stop-color="#00F0FF"/>
</linearGradient>
<linearGradient id="paint20_linear_933_141" x1="1425.71" y1="842.688" x2="1027.22" y2="-383.734" gradientUnits="userSpaceOnUse">
<stop stop-color="#FF00F7"/>
<stop offset="1" stop-color="#00F0FF"/>
</linearGradient>
<linearGradient id="paint21_linear_933_141" x1="1406.22" y1="854.614" x2="1029.91" y2="-376.24" gradientUnits="userSpaceOnUse">
<stop stop-color="#FF00F7"/>
<stop offset="1" stop-color="#00F0FF"/>
</linearGradient>
<linearGradient id="paint22_linear_933_141" x1="1386.72" y1="866.348" x2="1032.62" y2="-368.538" gradientUnits="userSpaceOnUse">
<stop stop-color="#FF00F7"/>
<stop offset="1" stop-color="#00F0FF"/>
</linearGradient>
<linearGradient id="paint23_linear_933_141" x1="1367.21" y1="877.887" x2="1035.35" y2="-360.633" gradientUnits="userSpaceOnUse">
<stop stop-color="#FF00F7"/>
<stop offset="1" stop-color="#00F0FF"/>
</linearGradient>
<linearGradient id="paint24_linear_933_141" x1="1347.67" y1="889.226" x2="1038.07" y2="-352.527" gradientUnits="userSpaceOnUse">
<stop stop-color="#FF00F7"/>
<stop offset="1" stop-color="#00F0FF"/>
</linearGradient>
<linearGradient id="paint25_linear_933_141" x1="1328.14" y1="900.369" x2="1040.8" y2="-344.218" gradientUnits="userSpaceOnUse">
<stop stop-color="#FF00F7"/>
<stop offset="1" stop-color="#00F0FF"/>
</linearGradient>
<linearGradient id="paint26_linear_933_141" x1="1308.6" y1="911.32" x2="1043.54" y2="-335.703" gradientUnits="userSpaceOnUse">
<stop stop-color="#FF00F7"/>
<stop offset="1" stop-color="#00F0FF"/>
</linearGradient>
<linearGradient id="paint27_linear_933_141" x1="1289.07" y1="922.075" x2="1046.28" y2="-326.987" gradientUnits="userSpaceOnUse">
<stop stop-color="#FF00F7"/>
<stop offset="1" stop-color="#00F0FF"/>
</linearGradient>
<linearGradient id="paint28_linear_933_141" x1="1269.54" y1="932.637" x2="1049" y2="-318.067" gradientUnits="userSpaceOnUse">
<stop stop-color="#FF00F7"/>
<stop offset="1" stop-color="#00F0FF"/>
</linearGradient>
<linearGradient id="paint29_linear_933_141" x1="1250.01" y1="943.001" x2="1051.72" y2="-308.949" gradientUnits="userSpaceOnUse">
<stop stop-color="#FF00F7"/>
<stop offset="1" stop-color="#00F0FF"/>
</linearGradient>
<linearGradient id="paint30_linear_933_141" x1="1230.5" y1="953.176" x2="1054.43" y2="-299.626" gradientUnits="userSpaceOnUse">
<stop stop-color="#FF00F7"/>
<stop offset="1" stop-color="#00F0FF"/>
</linearGradient>
<linearGradient id="paint31_linear_933_141" x1="1211" y1="963.152" x2="1057.11" y2="-290.108" gradientUnits="userSpaceOnUse">
<stop stop-color="#FF00F7"/>
<stop offset="1" stop-color="#00F0FF"/>
</linearGradient>
<linearGradient id="paint32_linear_933_141" x1="1191.51" y1="972.94" x2="1059.78" y2="-280.385" gradientUnits="userSpaceOnUse">
<stop stop-color="#FF00F7"/>
<stop offset="1" stop-color="#00F0FF"/>
</linearGradient>
<linearGradient id="paint33_linear_933_141" x1="1172.06" y1="982.534" x2="1062.43" y2="-270.466" gradientUnits="userSpaceOnUse">
<stop stop-color="#FF00F7"/>
<stop offset="1" stop-color="#00F0FF"/>
</linearGradient>
<linearGradient id="paint34_linear_933_141" x1="1152.62" y1="991.94" x2="1065.05" y2="-260.346" gradientUnits="userSpaceOnUse">
<stop stop-color="#FF00F7"/>
<stop offset="1" stop-color="#00F0FF"/>
</linearGradient>
<linearGradient id="paint35_linear_933_141" x1="1133.21" y1="1001.15" x2="1067.64" y2="-250.031" gradientUnits="userSpaceOnUse">
<stop stop-color="#FF00F7"/>
<stop offset="1" stop-color="#00F0FF"/>
</linearGradient>
<linearGradient id="paint36_linear_933_141" x1="1113.84" y1="1010.18" x2="1070.2" y2="-239.518" gradientUnits="userSpaceOnUse">
<stop stop-color="#FF00F7"/>
<stop offset="1" stop-color="#00F0FF"/>
</linearGradient>
<linearGradient id="paint37_linear_933_141" x1="1094.5" y1="1019.01" x2="1072.71" y2="-228.813" gradientUnits="userSpaceOnUse">
<stop stop-color="#FF00F7"/>
<stop offset="1" stop-color="#00F0FF"/>
</linearGradient>
<linearGradient id="paint38_linear_933_141" x1="1075.19" y1="1027.66" x2="1075.19" y2="-217.911" gradientUnits="userSpaceOnUse">
<stop stop-color="#FF00F7"/>
<stop offset="1" stop-color="#00F0FF"/>
</linearGradient>
<linearGradient id="paint39_linear_933_141" x1="1055.93" y1="1036.12" x2="1077.62" y2="-206.82" gradientUnits="userSpaceOnUse">
<stop stop-color="#FF00F7"/>
<stop offset="1" stop-color="#00F0FF"/>
</linearGradient>
<linearGradient id="paint40_linear_933_141" x1="1036.71" y1="1044.4" x2="1080.01" y2="-195.531" gradientUnits="userSpaceOnUse">
<stop stop-color="#FF00F7"/>
<stop offset="1" stop-color="#00F0FF"/>
</linearGradient>
<linearGradient id="paint41_linear_933_141" x1="1017.54" y1="1052.5" x2="1082.34" y2="-184.053" gradientUnits="userSpaceOnUse">
<stop stop-color="#FF00F7"/>
<stop offset="1" stop-color="#00F0FF"/>
</linearGradient>
<linearGradient id="paint42_linear_933_141" x1="998.417" y1="1060.41" x2="1084.62" y2="-172.388" gradientUnits="userSpaceOnUse">
<stop stop-color="#FF00F7"/>
<stop offset="1" stop-color="#00F0FF"/>
</linearGradient>
<linearGradient id="paint43_linear_933_141" x1="979.352" y1="1068.14" x2="1086.85" y2="-160.533" gradientUnits="userSpaceOnUse">
<stop stop-color="#FF00F7"/>
<stop offset="1" stop-color="#00F0FF"/>
</linearGradient>
<linearGradient id="paint44_linear_933_141" x1="960.344" y1="1075.69" x2="1089.01" y2="-148.489" gradientUnits="userSpaceOnUse">
<stop stop-color="#FF00F7"/>
<stop offset="1" stop-color="#00F0FF"/>
</linearGradient>
<linearGradient id="paint45_linear_933_141" x1="941.395" y1="1083.06" x2="1091.11" y2="-136.262" gradientUnits="userSpaceOnUse">
<stop stop-color="#FF00F7"/>
<stop offset="1" stop-color="#00F0FF"/>
</linearGradient>
<linearGradient id="paint46_linear_933_141" x1="922.508" y1="1090.25" x2="1093.14" y2="-123.854" gradientUnits="userSpaceOnUse">
<stop stop-color="#FF00F7"/>
<stop offset="1" stop-color="#00F0FF"/>
</linearGradient>
<linearGradient id="paint47_linear_933_141" x1="903.689" y1="1097.27" x2="1095.1" y2="-111.262" gradientUnits="userSpaceOnUse">
<stop stop-color="#FF00F7"/>
<stop offset="1" stop-color="#00F0FF"/>
</linearGradient>
<linearGradient id="paint48_linear_933_141" x1="884.938" y1="1104.11" x2="1096.99" y2="-98.4915" gradientUnits="userSpaceOnUse">
<stop stop-color="#FF00F7"/>
<stop offset="1" stop-color="#00F0FF"/>
</linearGradient>
<linearGradient id="paint49_linear_933_141" x1="866.263" y1="1110.78" x2="1098.8" y2="-85.5373" gradientUnits="userSpaceOnUse">
<stop stop-color="#FF00F7"/>
<stop offset="1" stop-color="#00F0FF"/>
</linearGradient>
<linearGradient id="paint50_linear_933_141" x1="847.659" y1="1117.28" x2="1100.54" y2="-72.4077" gradientUnits="userSpaceOnUse">
<stop stop-color="#FF00F7"/>
<stop offset="1" stop-color="#00F0FF"/>
</linearGradient>
<linearGradient id="paint51_linear_933_141" x1="829.134" y1="1123.61" x2="1102.19" y2="-59.1045" gradientUnits="userSpaceOnUse">
<stop stop-color="#FF00F7"/>
<stop offset="1" stop-color="#00F0FF"/>
</linearGradient>
<linearGradient id="paint52_linear_933_141" x1="810.693" y1="1129.77" x2="1103.75" y2="-45.6261" gradientUnits="userSpaceOnUse">
<stop stop-color="#FF00F7"/>
<stop offset="1" stop-color="#00F0FF"/>
</linearGradient>
<linearGradient id="paint53_linear_933_141" x1="792.332" y1="1135.77" x2="1105.23" y2="-31.977" gradientUnits="userSpaceOnUse">
<stop stop-color="#FF00F7"/>
<stop offset="1" stop-color="#00F0FF"/>
</linearGradient>
<linearGradient id="paint54_linear_933_141" x1="774.058" y1="1141.6" x2="1106.61" y2="-18.1592" gradientUnits="userSpaceOnUse">
<stop stop-color="#FF00F7"/>
<stop offset="1" stop-color="#00F0FF"/>
</linearGradient>
<linearGradient id="paint55_linear_933_141" x1="755.875" y1="1147.27" x2="1107.91" y2="-4.17114" gradientUnits="userSpaceOnUse">
<stop stop-color="#FF00F7"/>
<stop offset="1" stop-color="#00F0FF"/>
</linearGradient>
<linearGradient id="paint56_linear_933_141" x1="737.783" y1="1152.78" x2="1109.1" y2="9.9793" gradientUnits="userSpaceOnUse">
<stop stop-color="#FF00F7"/>
<stop offset="1" stop-color="#00F0FF"/>
</linearGradient>
<linearGradient id="paint57_linear_933_141" x1="719.787" y1="1158.14" x2="1110.2" y2="24.2966" gradientUnits="userSpaceOnUse">
<stop stop-color="#FF00F7"/>
<stop offset="1" stop-color="#00F0FF"/>
</linearGradient>
<linearGradient id="paint58_linear_933_141" x1="701.885" y1="1163.33" x2="1111.19" y2="38.7732" gradientUnits="userSpaceOnUse">
<stop stop-color="#FF00F7"/>
<stop offset="1" stop-color="#00F0FF"/>
</linearGradient>
<linearGradient id="paint59_linear_933_141" x1="684.087" y1="1168.37" x2="1112.08" y2="53.41" gradientUnits="userSpaceOnUse">
<stop stop-color="#FF00F7"/>
<stop offset="1" stop-color="#00F0FF"/>
</linearGradient>
<linearGradient id="paint60_linear_933_141" x1="666.388" y1="1173.26" x2="1112.86" y2="68.2029" gradientUnits="userSpaceOnUse">
<stop stop-color="#FF00F7"/>
<stop offset="1" stop-color="#00F0FF"/>
</linearGradient>
<linearGradient id="paint61_linear_933_141" x1="648.797" y1="1178" x2="1113.53" y2="83.1532" gradientUnits="userSpaceOnUse">
<stop stop-color="#FF00F7"/>
<stop offset="1" stop-color="#00F0FF"/>
</linearGradient>
<linearGradient id="paint62_linear_933_141" x1="631.313" y1="1182.6" x2="1114.09" y2="98.2565" gradientUnits="userSpaceOnUse">
<stop stop-color="#FF00F7"/>
<stop offset="1" stop-color="#00F0FF"/>
</linearGradient>
<linearGradient id="paint63_linear_933_141" x1="613.937" y1="1187.04" x2="1114.54" y2="113.507" gradientUnits="userSpaceOnUse">
<stop stop-color="#FF00F7"/>
<stop offset="1" stop-color="#00F0FF"/>
</linearGradient>
<linearGradient id="paint64_linear_933_141" x1="596.676" y1="1191.35" x2="1114.86" y2="128.907" gradientUnits="userSpaceOnUse">
<stop stop-color="#FF00F7"/>
<stop offset="1" stop-color="#00F0FF"/>
</linearGradient>
<linearGradient id="paint65_linear_933_141" x1="579.525" y1="1195.51" x2="1115.07" y2="144.449" gradientUnits="userSpaceOnUse">
<stop stop-color="#FF00F7"/>
<stop offset="1" stop-color="#00F0FF"/>
</linearGradient>
<linearGradient id="paint66_linear_933_141" x1="562.493" y1="1199.54" x2="1115.15" y2="160.138" gradientUnits="userSpaceOnUse">
<stop stop-color="#FF00F7"/>
<stop offset="1" stop-color="#00F0FF"/>
</linearGradient>
<linearGradient id="paint67_linear_933_141" x1="545.581" y1="1203.42" x2="1115.11" y2="175.965" gradientUnits="userSpaceOnUse">
<stop stop-color="#FF00F7"/>
<stop offset="1" stop-color="#00F0FF"/>
</linearGradient>
<linearGradient id="paint68_linear_933_141" x1="528.788" y1="1207.18" x2="1114.94" y2="191.93" gradientUnits="userSpaceOnUse">
<stop stop-color="#FF00F7"/>
<stop offset="1" stop-color="#00F0FF"/>
</linearGradient>
<linearGradient id="paint69_linear_933_141" x1="512.121" y1="1210.8" x2="1114.65" y2="208.034" gradientUnits="userSpaceOnUse">
<stop stop-color="#FF00F7"/>
<stop offset="1" stop-color="#00F0FF"/>
</linearGradient>
<linearGradient id="paint70_linear_933_141" x1="495.578" y1="1214.29" x2="1114.22" y2="224.266" gradientUnits="userSpaceOnUse">
<stop stop-color="#FF00F7"/>
<stop offset="1" stop-color="#00F0FF"/>
</linearGradient>
<linearGradient id="paint71_linear_933_141" x1="479.162" y1="1217.67" x2="1113.66" y2="240.632" gradientUnits="userSpaceOnUse">
<stop stop-color="#FF00F7"/>
<stop offset="1" stop-color="#00F0FF"/>
</linearGradient>
<linearGradient id="paint72_linear_933_141" x1="462.877" y1="1220.91" x2="1112.96" y2="257.122" gradientUnits="userSpaceOnUse">
<stop stop-color="#FF00F7"/>
<stop offset="1" stop-color="#00F0FF"/>
</linearGradient>
<linearGradient id="paint73_linear_933_141" x1="446.724" y1="1224.04" x2="1112.13" y2="273.742" gradientUnits="userSpaceOnUse">
<stop stop-color="#FF00F7"/>
<stop offset="1" stop-color="#00F0FF"/>
</linearGradient>
<linearGradient id="paint74_linear_933_141" x1="430.701" y1="1227.04" x2="1111.15" y2="290.478" gradientUnits="userSpaceOnUse">
<stop stop-color="#FF00F7"/>
<stop offset="1" stop-color="#00F0FF"/>
</linearGradient>
<linearGradient id="paint75_linear_933_141" x1="414.814" y1="1229.93" x2="1110.04" y2="307.336" gradientUnits="userSpaceOnUse">
<stop stop-color="#FF00F7"/>
<stop offset="1" stop-color="#00F0FF"/>
</linearGradient>
<linearGradient id="paint76_linear_933_141" x1="399.066" y1="1232.71" x2="1108.78" y2="324.313" gradientUnits="userSpaceOnUse">
<stop stop-color="#FF00F7"/>
<stop offset="1" stop-color="#00F0FF"/>
</linearGradient>
<linearGradient id="paint77_linear_933_141" x1="383.458" y1="1235.37" x2="1107.38" y2="341.403" gradientUnits="userSpaceOnUse">
<stop stop-color="#FF00F7"/>
<stop offset="1" stop-color="#00F0FF"/>
</linearGradient>
<linearGradient id="paint78_linear_933_141" x1="367.986" y1="1237.93" x2="1105.83" y2="358.6" gradientUnits="userSpaceOnUse">
<stop stop-color="#FF00F7"/>
<stop offset="1" stop-color="#00F0FF"/>
</linearGradient>
<linearGradient id="paint79_linear_933_141" x1="352.658" y1="1240.38" x2="1104.13" y2="375.91" gradientUnits="userSpaceOnUse">
<stop stop-color="#FF00F7"/>
<stop offset="1" stop-color="#00F0FF"/>
</linearGradient>
<linearGradient id="paint80_linear_933_141" x1="337.472" y1="1242.73" x2="1102.29" y2="393.321" gradientUnits="userSpaceOnUse">
<stop stop-color="#FF00F7"/>
<stop offset="1" stop-color="#00F0FF"/>
</linearGradient>
<linearGradient id="paint81_linear_933_141" x1="322.432" y1="1244.99" x2="1100.29" y2="410.836" gradientUnits="userSpaceOnUse">
<stop stop-color="#FF00F7"/>
<stop offset="1" stop-color="#00F0FF"/>
</linearGradient>
<linearGradient id="paint82_linear_933_141" x1="307.538" y1="1247.14" x2="1098.14" y2="428.448" gradientUnits="userSpaceOnUse">
<stop stop-color="#FF00F7"/>
<stop offset="1" stop-color="#00F0FF"/>
</linearGradient>
<linearGradient id="paint83_linear_933_141" x1="292.794" y1="1249.2" x2="1095.83" y2="446.16" gradientUnits="userSpaceOnUse">
<stop stop-color="#FF00F7"/>
<stop offset="1" stop-color="#00F0FF"/>
</linearGradient>
<linearGradient id="paint84_linear_933_141" x1="278.196" y1="1251.17" x2="1093.37" y2="463.962" gradientUnits="userSpaceOnUse">
<stop stop-color="#FF00F7"/>
<stop offset="1" stop-color="#00F0FF"/>
</linearGradient>
<linearGradient id="paint85_linear_933_141" x1="263.75" y1="1253.05" x2="1090.76" y2="481.856" gradientUnits="userSpaceOnUse">
<stop stop-color="#FF00F7"/>
<stop offset="1" stop-color="#00F0FF"/>
</linearGradient>
<linearGradient id="paint86_linear_933_141" x1="249.457" y1="1254.85" x2="1087.98" y2="499.839" gradientUnits="userSpaceOnUse">
<stop stop-color="#FF00F7"/>
<stop offset="1" stop-color="#00F0FF"/>
</linearGradient>
<linearGradient id="paint87_linear_933_141" x1="235.315" y1="1256.56" x2="1085.04" y2="517.904" gradientUnits="userSpaceOnUse">
<stop stop-color="#FF00F7"/>
<stop offset="1" stop-color="#00F0FF"/>
</linearGradient>
<linearGradient id="paint88_linear_933_141" x1="221.329" y1="1258.2" x2="1081.95" y2="536.051" gradientUnits="userSpaceOnUse">
<stop stop-color="#FF00F7"/>
<stop offset="1" stop-color="#00F0FF"/>
</linearGradient>
<linearGradient id="paint89_linear_933_141" x1="207.499" y1="1259.76" x2="1078.69" y2="554.28" gradientUnits="userSpaceOnUse">
<stop stop-color="#FF00F7"/>
<stop offset="1" stop-color="#00F0FF"/>
</linearGradient>
<linearGradient id="paint90_linear_933_141" x1="193.822" y1="1261.24" x2="1075.27" y2="572.577" gradientUnits="userSpaceOnUse">
<stop stop-color="#FF00F7"/>
<stop offset="1" stop-color="#00F0FF"/>
</linearGradient>
<linearGradient id="paint91_linear_933_141" x1="180.304" y1="1262.66" x2="1071.69" y2="590.95" gradientUnits="userSpaceOnUse">
<stop stop-color="#FF00F7"/>
<stop offset="1" stop-color="#00F0FF"/>
</linearGradient>
<linearGradient id="paint92_linear_933_141" x1="166.943" y1="1264" x2="1067.94" y2="609.393" gradientUnits="userSpaceOnUse">
<stop stop-color="#FF00F7"/>
<stop offset="1" stop-color="#00F0FF"/>
</linearGradient>
<linearGradient id="paint93_linear_933_141" x1="153.744" y1="1265.29" x2="1064.03" y2="627.905" gradientUnits="userSpaceOnUse">
<stop stop-color="#FF00F7"/>
<stop offset="1" stop-color="#00F0FF"/>
</linearGradient>
<linearGradient id="paint94_linear_933_141" x1="140.702" y1="1266.51" x2="1059.94" y2="646.472" gradientUnits="userSpaceOnUse">
<stop stop-color="#FF00F7"/>
<stop offset="1" stop-color="#00F0FF"/>
</linearGradient>
<linearGradient id="paint95_linear_933_141" x1="127.822" y1="1267.67" x2="1055.7" y2="665.104" gradientUnits="userSpaceOnUse">
<stop stop-color="#FF00F7"/>
<stop offset="1" stop-color="#00F0FF"/>
</linearGradient>
<linearGradient id="paint96_linear_933_141" x1="115.1" y1="1268.78" x2="1051.28" y2="683.787" gradientUnits="userSpaceOnUse">
<stop stop-color="#FF00F7"/>
<stop offset="1" stop-color="#00F0FF"/>
</linearGradient>
<linearGradient id="paint97_linear_933_141" x1="102.543" y1="1269.83" x2="1046.7" y2="702.529" gradientUnits="userSpaceOnUse">
<stop stop-color="#FF00F7"/>
<stop offset="1" stop-color="#00F0FF"/>
</linearGradient>
<linearGradient id="paint98_linear_933_141" x1="90.1483" y1="1270.84" x2="1041.94" y2="721.32" gradientUnits="userSpaceOnUse">
<stop stop-color="#FF00F7"/>
<stop offset="1" stop-color="#00F0FF"/>
</linearGradient>
<clipPath id="clip0_933_141">
<rect width="1920" height="2000" fill="white"/>
</clipPath>
</defs>
</svg>
