<svg width="1920" height="2000" viewBox="0 0 1920 2000" fill="none" xmlns="http://www.w3.org/2000/svg">
<g clip-path="url(#clip0_1020_247)">
<path opacity="0.010101" d="M569.277 910.882L1011.73 -304.756C1014.65 -312.776 1022.4 -318.004 1030.93 -317.706L2323.8 -272.558C2332.33 -272.261 2339.7 -266.504 2342.05 -258.3L2698.63 985.241C2700.98 993.445 2697.78 1002.23 2690.71 1007L1618.22 1730.41C1611.14 1735.18 1601.8 1734.85 1595.07 1729.6L575.66 933.144C568.935 927.889 566.358 918.902 569.277 910.882Z" stroke="url(#paint0_linear_1020_247)" stroke-opacity="0.2" stroke-width="0.6"/>
<path opacity="0.020202" d="M554.62 897.3L1017.36 -308.178C1020.42 -316.146 1028.26 -321.238 1036.78 -320.791L2326.25 -253.213C2334.78 -252.766 2342.04 -246.882 2344.25 -238.638L2678.45 1008.61C2680.66 1016.85 2677.31 1025.58 2670.15 1030.23L1587.22 1733.49C1580.07 1738.13 1570.73 1737.65 1564.1 1732.27L560.614 919.67C553.981 914.299 551.561 905.268 554.62 897.3Z" stroke="url(#paint1_linear_1020_247)" stroke-opacity="0.2" stroke-width="0.6"/>
<path opacity="0.030303" d="M540.31 883.704L1023.11 -311.276C1026.31 -319.19 1034.24 -324.144 1042.75 -323.549L2328.44 -233.645C2336.96 -233.049 2344.12 -227.039 2346.18 -218.758L2657.98 1031.79C2660.04 1040.07 2656.54 1048.74 2649.3 1053.26L1556.31 1736.23C1549.08 1740.76 1539.75 1740.1 1533.21 1734.62L545.913 906.175C539.375 900.689 537.113 891.617 540.31 883.704Z" stroke="url(#paint2_linear_1020_247)" stroke-opacity="0.2" stroke-width="0.6"/>
<path opacity="0.040404" d="M526.347 870.102L1028.99 -314.048C1032.32 -321.904 1040.34 -326.72 1048.84 -325.976L2330.36 -213.857C2338.86 -213.113 2345.92 -206.979 2347.84 -198.664L2637.22 1054.78C2639.14 1063.1 2635.48 1071.7 2628.17 1076.1L1525.5 1738.65C1518.18 1743.05 1508.87 1742.23 1502.43 1736.63L531.557 892.668C525.116 887.068 523.013 877.959 526.347 870.102Z" stroke="url(#paint3_linear_1020_247)" stroke-opacity="0.2" stroke-width="0.6"/>
<path opacity="0.050505" d="M512.732 856.497L1034.98 -316.496C1038.45 -324.293 1046.55 -328.968 1055.04 -328.076L2332 -193.861C2340.49 -192.969 2347.44 -186.713 2349.22 -178.365L2616.17 1077.58C2617.95 1085.93 2614.15 1094.47 2606.75 1098.73L1494.78 1740.73C1487.39 1745 1478.09 1744.02 1471.75 1738.31L517.547 879.149C511.205 873.439 509.261 864.293 512.732 856.497Z" stroke="url(#paint4_linear_1020_247)" stroke-opacity="0.2" stroke-width="0.6"/>
<path opacity="0.0606061" d="M499.46 842.891L1041.08 -318.621C1044.69 -326.356 1052.87 -330.889 1061.34 -329.849L2333.37 -173.663C2341.84 -172.623 2348.68 -166.246 2350.31 -157.868L2594.85 1100.17C2596.48 1108.55 2592.52 1117.02 2585.06 1121.16L1464.16 1742.49C1456.69 1746.62 1447.41 1745.48 1441.17 1739.66L503.879 865.624C497.637 859.804 495.853 850.626 499.46 842.891Z" stroke="url(#paint5_linear_1020_247)" stroke-opacity="0.2" stroke-width="0.6"/>
<path opacity="0.0707071" d="M486.537 829.295L1047.29 -320.418C1051.03 -328.089 1059.29 -332.479 1067.74 -331.291L2334.46 -153.264C2342.91 -152.076 2349.64 -145.582 2351.12 -137.177L2573.25 1122.56C2574.73 1130.97 2570.63 1139.37 2563.09 1143.38L1433.65 1743.91C1426.12 1747.92 1416.86 1746.62 1410.72 1740.69L490.558 852.102C484.419 846.173 482.795 836.965 486.537 829.295Z" stroke="url(#paint6_linear_1020_247)" stroke-opacity="0.2" stroke-width="0.6"/>
<path opacity="0.0808081" d="M473.954 815.719L1053.59 -321.882C1057.46 -329.486 1065.8 -333.731 1074.22 -332.396L2335.27 -132.667C2343.69 -131.332 2350.31 -124.721 2351.64 -116.291L2551.37 1144.75C2552.7 1153.18 2548.46 1161.51 2540.86 1165.38L1403.26 1745.02C1395.65 1748.89 1386.42 1747.43 1380.38 1741.4L477.576 838.592C471.542 832.558 470.079 823.323 473.954 815.719Z" stroke="url(#paint7_linear_1020_247)" stroke-opacity="0.2" stroke-width="0.6"/>
<path opacity="0.0909091" d="M461.719 802.163L1059.99 -323.018C1063.99 -330.553 1072.4 -334.652 1080.8 -333.17L2335.79 -111.882C2344.19 -110.4 2350.69 -103.675 2351.88 -95.2231L2529.23 1166.72C2530.42 1175.17 2526.03 1183.43 2518.36 1187.17L1372.98 1745.8C1365.31 1749.55 1356.11 1747.92 1350.18 1741.78L464.942 825.096C459.013 818.957 457.712 809.698 461.719 802.163Z" stroke="url(#paint8_linear_1020_247)" stroke-opacity="0.2" stroke-width="0.6"/>
<path opacity="0.10101" d="M449.822 788.631L1066.47 -323.826C1070.6 -331.291 1079.08 -335.242 1087.46 -333.613L2336.02 -90.9174C2344.4 -89.2889 2350.77 -82.4511 2351.81 -73.9801L2506.82 1188.47C2507.86 1196.94 2503.33 1205.12 2495.59 1208.73L1342.83 1746.27C1335.1 1749.87 1325.92 1748.09 1320.1 1741.85L452.644 811.617C446.824 805.375 445.684 796.095 449.822 788.631Z" stroke="url(#paint9_linear_1020_247)" stroke-opacity="0.2" stroke-width="0.6"/>
<path opacity="0.111111" d="M438.265 775.138L1073.02 -324.297C1077.29 -331.688 1085.83 -335.491 1094.18 -333.716L2335.96 -69.7689C2344.3 -67.9944 2350.56 -61.0463 2351.45 -52.5585L2484.15 1210.01C2485.05 1218.49 2480.37 1226.59 2472.57 1230.06L1312.81 1746.42C1305.02 1749.89 1295.87 1747.95 1290.16 1741.61L440.686 798.17C434.975 791.827 433.998 782.529 438.265 775.138Z" stroke="url(#paint10_linear_1020_247)" stroke-opacity="0.2" stroke-width="0.6"/>
<path opacity="0.121212" d="M427.056 761.682L1079.66 -324.439C1084.06 -331.754 1092.66 -335.407 1100.98 -333.487L2335.61 -48.451C2343.92 -46.5311 2350.06 -39.4749 2350.8 -30.9728L2461.24 1231.31C2461.98 1239.81 2457.17 1247.83 2449.31 1251.16L1282.93 1746.26C1275.08 1749.59 1265.97 1747.49 1260.37 1741.05L429.074 784.752C423.475 778.311 422.66 768.997 427.056 761.682Z" stroke="url(#paint11_linear_1020_247)" stroke-opacity="0.2" stroke-width="0.6"/>
<path opacity="0.131313" d="M416.173 748.272L1086.36 -324.247C1090.88 -331.485 1099.55 -334.987 1107.83 -332.922L2334.95 -26.966C2343.23 -24.9013 2349.24 -17.7391 2349.84 -9.22537L2438.06 1252.38C2438.66 1260.9 2433.7 1268.83 2425.79 1272.02L1253.19 1745.79C1245.27 1748.98 1236.2 1746.72 1230.72 1740.18L417.788 771.374C412.302 764.836 411.65 755.509 416.173 748.272Z" stroke="url(#paint12_linear_1020_247)" stroke-opacity="0.2" stroke-width="0.6"/>
<path opacity="0.141414" d="M405.638 734.917L1093.12 -323.717C1097.77 -330.875 1106.5 -334.226 1114.74 -332.017L2334.01 -5.31555C2342.25 -3.10664 2348.14 4.15935 2348.58 12.6822L2414.65 1273.23C2415.09 1281.75 2410 1289.59 2402.03 1292.65L1223.6 1745.01C1215.63 1748.07 1206.6 1745.65 1201.23 1739.02L406.85 758.044C401.479 751.412 400.989 742.075 405.638 734.917Z" stroke="url(#paint13_linear_1020_247)" stroke-opacity="0.2" stroke-width="0.6"/>
<path opacity="0.151515" d="M395.433 721.615L1099.94 -322.859C1104.71 -329.935 1113.5 -333.133 1121.7 -330.78L2332.76 16.4853C2340.96 18.8378 2346.72 26.2054 2347.02 34.7347L2390.99 1293.83C2391.28 1302.36 2386.06 1310.11 2378.04 1313.03L1194.15 1743.93C1186.13 1746.85 1177.14 1744.27 1171.89 1737.55L396.241 744.759C390.987 738.034 390.66 728.69 395.433 721.615Z" stroke="url(#paint14_linear_1020_247)" stroke-opacity="0.2" stroke-width="0.6"/>
<path opacity="0.161616" d="M385.566 708.38L1106.81 -321.662C1111.7 -328.653 1120.54 -331.697 1128.71 -329.202L2331.21 38.4407C2339.37 40.936 2345 48.4029 2345.15 56.9362L2367.09 1314.19C2367.24 1322.73 2361.88 1330.39 2353.81 1333.16L1164.87 1742.55C1156.8 1745.33 1147.86 1742.6 1142.72 1735.78L385.97 731.535C380.834 724.719 380.671 715.371 385.566 708.38Z" stroke="url(#paint15_linear_1020_247)" stroke-opacity="0.2" stroke-width="0.6"/>
<path opacity="0.171717" d="M376.025 695.214L1113.72 -320.131C1118.73 -327.036 1127.62 -329.925 1135.74 -327.288L2329.35 60.5397C2337.47 63.177 2342.96 70.741 2342.96 79.2755L2342.96 1334.31C2342.96 1342.85 2337.47 1350.41 2329.35 1353.05L1135.74 1740.87C1127.62 1743.51 1118.73 1740.62 1113.72 1733.72L376.025 718.373C371.008 711.468 371.008 702.119 376.025 695.214Z" stroke="url(#paint16_linear_1020_247)" stroke-opacity="0.2" stroke-width="0.6"/>
<path opacity="0.181818" d="M366.819 682.123L1120.67 -318.265C1125.8 -325.081 1134.74 -327.815 1142.81 -325.036L2327.19 82.7777C2335.26 85.5563 2340.62 93.2151 2340.47 101.748L2318.61 1354.18C2318.46 1362.71 2312.84 1370.18 2304.67 1372.68L1106.79 1738.91C1098.62 1741.4 1089.78 1738.36 1084.89 1731.37L366.415 705.279C361.52 698.287 361.683 688.939 366.819 682.123Z" stroke="url(#paint17_linear_1020_247)" stroke-opacity="0.2" stroke-width="0.6"/>
<path opacity="0.191919" d="M357.94 669.115L1127.64 -316.063C1132.9 -322.788 1141.89 -325.365 1149.91 -322.446L2324.72 105.15C2332.74 108.069 2337.97 115.82 2337.67 124.35L2294.04 1373.8C2293.74 1382.33 2287.98 1389.69 2279.78 1392.05L1078 1736.65C1069.8 1739 1061.01 1735.8 1056.24 1728.73L357.132 692.259C352.359 685.184 352.685 675.84 357.94 669.115Z" stroke="url(#paint18_linear_1020_247)" stroke-opacity="0.2" stroke-width="0.6"/>
<path opacity="0.20202" d="M349.383 656.184L1134.65 -313.534C1140.02 -320.167 1149.05 -322.587 1157.02 -319.528L2321.93 127.641C2329.9 130.7 2334.99 138.541 2334.55 147.064L2269.24 1393.15C2268.79 1401.67 2262.91 1408.94 2254.67 1411.15L1049.39 1734.1C1041.15 1736.31 1032.42 1732.96 1027.77 1725.8L348.171 679.311C343.523 672.154 344.012 662.817 349.383 656.184Z" stroke="url(#paint19_linear_1020_247)" stroke-opacity="0.2" stroke-width="0.6"/>
<path opacity="0.212121" d="M341.154 643.357L1141.67 -310.66C1147.16 -317.198 1156.23 -319.46 1164.14 -316.263L2318.84 150.265C2326.75 153.462 2331.71 161.391 2331.11 169.905L2244.24 1412.25C2243.64 1420.77 2237.63 1427.93 2229.35 1429.99L1020.96 1731.28C1012.68 1733.34 1004.01 1729.84 999.49 1722.6L339.539 666.46C335.016 659.222 335.668 649.895 341.154 643.357Z" stroke="url(#paint20_linear_1020_247)" stroke-opacity="0.2" stroke-width="0.6"/>
<path opacity="0.222222" d="M333.245 630.62L1148.71 -307.459C1154.3 -313.9 1163.41 -316.003 1171.27 -312.669L2315.43 172.997C2323.28 176.332 2328.1 184.346 2327.36 192.848L2219.02 1431.09C2218.28 1439.59 2212.15 1446.64 2203.83 1448.56L992.72 1728.17C984.404 1730.09 975.798 1726.44 971.402 1719.12L331.227 653.691C326.831 646.375 327.646 637.061 333.245 630.62Z" stroke="url(#paint21_linear_1020_247)" stroke-opacity="0.2" stroke-width="0.6"/>
<path opacity="0.232323" d="M325.656 617.991L1155.75 -303.92C1161.46 -310.263 1170.6 -312.207 1178.4 -308.735L2311.7 195.843C2319.5 199.315 2324.17 207.412 2323.28 215.9L2193.61 1449.66C2192.72 1458.14 2186.46 1465.09 2178.11 1466.87L964.669 1724.79C956.32 1726.57 947.779 1722.76 943.512 1715.37L323.235 641.023C318.968 633.631 319.945 624.333 325.656 617.991Z" stroke="url(#paint22_linear_1020_247)" stroke-opacity="0.2" stroke-width="0.6"/>
<path opacity="0.242424" d="M318.385 605.472L1162.79 -300.046C1168.61 -306.288 1177.79 -308.072 1185.53 -304.465L2307.66 218.795C2315.4 222.402 2319.93 230.58 2318.89 239.05L2168 1467.96C2166.96 1476.43 2160.58 1483.27 2152.21 1484.9L936.814 1721.15C928.436 1722.78 919.962 1718.82 915.825 1711.36L315.562 628.458C311.425 620.994 312.564 611.714 318.385 605.472Z" stroke="url(#paint23_linear_1020_247)" stroke-opacity="0.2" stroke-width="0.6"/>
<path opacity="0.252525" d="M311.423 593.061L1169.83 -295.846C1175.76 -301.985 1184.97 -303.609 1192.64 -299.867L2303.3 241.839C2310.97 245.58 2315.36 253.836 2314.17 262.287L2142.19 1485.99C2141.01 1494.44 2134.51 1501.16 2126.11 1502.65L909.153 1717.23C900.748 1718.71 892.345 1714.61 888.338 1707.08L308.2 615.994C304.193 608.459 305.494 599.2 311.423 593.061Z" stroke="url(#paint24_linear_1020_247)" stroke-opacity="0.2" stroke-width="0.6"/>
<path opacity="0.262626" d="M304.776 580.772L1176.86 -291.312C1182.89 -297.347 1192.13 -298.809 1199.73 -294.934L2298.62 264.978C2306.23 268.852 2310.47 277.183 2309.14 285.612L2116.2 1503.74C2114.87 1512.17 2108.26 1518.78 2099.83 1520.12L881.7 1713.05C873.271 1714.38 864.94 1710.14 861.065 1702.53L301.153 603.646C297.279 596.041 298.741 586.807 304.776 580.772Z" stroke="url(#paint25_linear_1020_247)" stroke-opacity="0.2" stroke-width="0.6"/>
<path opacity="0.272727" d="M298.437 568.611L1183.87 -286.443C1190.01 -292.372 1199.27 -293.673 1206.8 -289.666L2293.62 288.206C2301.16 292.212 2305.26 300.616 2303.78 309.021L2090.03 1521.22C2088.55 1529.62 2081.83 1536.12 2073.37 1537.31L854.454 1708.61C846.002 1709.8 837.747 1705.41 834.006 1697.74L294.415 591.418C290.674 583.747 292.298 574.539 298.437 568.611Z" stroke="url(#paint26_linear_1020_247)" stroke-opacity="0.2" stroke-width="0.6"/>
<path opacity="0.282828" d="M292.406 556.579L1190.86 -281.246C1197.11 -287.066 1206.39 -288.206 1213.85 -284.068L2288.31 311.513C2295.77 315.651 2299.72 324.125 2298.09 332.502L2063.69 1538.42C2062.06 1546.79 2055.22 1553.17 2046.75 1554.21L827.423 1703.93C818.952 1704.97 810.775 1700.43 807.168 1692.7L287.988 579.312C284.381 571.577 286.165 562.4 292.406 556.579Z" stroke="url(#paint27_linear_1020_247)" stroke-opacity="0.2" stroke-width="0.6"/>
<path opacity="0.292929" d="M286.676 544.684L1197.82 -275.718C1204.17 -281.428 1213.47 -282.406 1220.86 -278.139L2282.67 334.897C2290.06 339.164 2293.86 347.706 2292.08 356.054L2037.17 1555.33C2035.4 1563.68 2028.45 1569.94 2019.96 1570.83L800.605 1698.99C792.117 1699.88 784.02 1695.21 780.549 1687.41L281.861 567.337C278.39 559.54 280.333 550.395 286.676 544.684Z" stroke="url(#paint28_linear_1020_247)" stroke-opacity="0.2" stroke-width="0.6"/>
<path opacity="0.30303" d="M281.245 532.925L1204.75 -269.867C1211.19 -275.466 1220.51 -276.281 1227.82 -271.885L2276.7 358.345C2284.02 362.741 2287.67 371.347 2285.75 379.663L2010.49 1571.96C2008.57 1580.27 2001.51 1586.41 1993.01 1587.15L774.008 1693.8C765.506 1694.54 757.492 1689.73 754.157 1681.87L276.036 555.49C272.701 547.634 274.804 538.524 281.245 532.925Z" stroke="url(#paint29_linear_1020_247)" stroke-opacity="0.2" stroke-width="0.6"/>
<path opacity="0.313131" d="M276.112 521.317L1211.64 -263.683C1218.18 -269.169 1227.5 -269.821 1234.74 -265.299L2270.41 381.862C2277.65 386.385 2281.15 395.053 2279.09 403.334L1983.64 1588.3C1981.58 1596.58 1974.42 1602.59 1965.9 1603.19L747.635 1688.38C739.122 1688.97 731.193 1684.02 727.995 1676.11L270.51 543.788C267.312 535.875 269.574 526.803 276.112 521.317Z" stroke="url(#paint30_linear_1020_247)" stroke-opacity="0.2" stroke-width="0.6"/>
<path opacity="0.323232" d="M271.272 509.854L1218.48 -257.181C1225.11 -262.552 1234.45 -263.041 1241.61 -258.393L2263.8 405.429C2270.96 410.078 2274.31 418.806 2272.1 427.05L1956.65 1604.35C1954.44 1612.59 1947.17 1618.48 1938.65 1618.92L721.49 1682.71C712.967 1683.16 705.126 1678.07 702.067 1670.1L265.278 532.223C262.219 524.255 264.639 515.224 271.272 509.854Z" stroke="url(#paint31_linear_1020_247)" stroke-opacity="0.2" stroke-width="0.6"/>
<path opacity="0.333333" d="M266.722 498.551L1225.27 -250.35C1232 -255.604 1241.34 -255.931 1248.42 -251.158L2256.87 429.053C2263.95 433.825 2267.14 442.611 2264.79 450.815L1929.5 1620.11C1927.15 1628.31 1919.78 1634.07 1911.25 1634.37L695.577 1676.82C687.048 1677.12 679.297 1671.89 676.378 1663.87L260.339 520.812C257.42 512.792 259.997 503.805 266.722 498.551Z" stroke="url(#paint32_linear_1020_247)" stroke-opacity="0.2" stroke-width="0.6"/>
<path opacity="0.343434" d="M262.461 487.406L1232.01 -243.199C1238.82 -248.335 1248.17 -248.498 1255.16 -243.603L2249.61 452.72C2256.61 457.615 2259.65 466.456 2257.15 474.617L1902.21 1635.57C1899.72 1643.74 1892.25 1649.36 1883.72 1649.51L669.901 1670.7C661.368 1670.85 653.709 1665.48 650.93 1657.41L255.69 509.553C252.911 501.483 255.645 492.542 262.461 487.406Z" stroke="url(#paint33_linear_1020_247)" stroke-opacity="0.2" stroke-width="0.6"/>
<path opacity="0.353535" d="M258.482 476.43L1238.68 -235.724C1245.58 -240.741 1254.93 -240.741 1261.84 -235.724L2242.03 476.43C2248.94 481.446 2251.83 490.338 2249.19 498.455L1874.79 1650.74C1872.15 1658.86 1864.59 1664.36 1856.05 1664.36L644.463 1664.36C635.929 1664.36 628.365 1658.86 625.727 1650.74L251.326 498.455C248.688 490.338 251.577 481.446 258.482 476.43Z" stroke="url(#paint34_linear_1020_247)" stroke-opacity="0.2" stroke-width="0.6"/>
<path opacity="0.363636" d="M254.781 465.62L1245.28 -227.934C1252.27 -232.829 1261.62 -232.666 1268.43 -227.53L2234.12 500.17C2240.94 505.306 2243.67 514.247 2240.9 522.317L1847.23 1665.61C1844.45 1673.68 1836.79 1679.05 1828.26 1678.9L619.266 1657.79C610.732 1657.65 603.266 1652.02 600.77 1643.86L247.242 487.517C244.746 479.356 247.79 470.515 254.781 465.62Z" stroke="url(#paint35_linear_1020_247)" stroke-opacity="0.2" stroke-width="0.6"/>
<path opacity="0.373737" d="M251.359 454.989L1251.81 -219.823C1258.89 -224.596 1268.23 -224.269 1274.95 -219.015L2225.9 523.941C2232.62 529.196 2235.2 538.183 2232.28 546.203L1819.54 1680.19C1816.62 1688.21 1808.87 1693.44 1800.34 1693.14L594.316 1651.02C585.787 1650.72 578.419 1644.97 576.067 1636.76L243.438 476.751C241.086 468.547 244.284 459.761 251.359 454.989Z" stroke="url(#paint36_linear_1020_247)" stroke-opacity="0.2" stroke-width="0.6"/>
<path opacity="0.383838" d="M248.209 444.533L1258.26 -211.402C1265.42 -216.051 1274.75 -215.561 1281.39 -210.19L2217.34 547.73C2223.97 553.101 2226.39 562.132 2223.34 570.1L1791.74 1694.46C1788.68 1702.42 1780.84 1707.52 1772.31 1707.07L569.616 1644.04C561.093 1643.59 553.827 1637.71 551.618 1629.46L239.91 466.153C237.701 457.909 241.052 449.181 248.209 444.533Z" stroke="url(#paint37_linear_1020_247)" stroke-opacity="0.2" stroke-width="0.6"/>
<path opacity="0.393939" d="M245.327 434.262L1264.63 -202.666C1271.86 -207.188 1281.19 -206.536 1287.73 -201.05L2208.46 571.538C2215 577.024 2217.26 586.096 2214.07 594.009L1763.81 1708.42C1760.62 1716.34 1752.69 1721.29 1744.17 1720.7L545.167 1636.85C536.653 1636.26 529.491 1630.25 527.426 1621.97L236.652 455.735C234.587 447.454 238.09 438.785 245.327 434.262Z" stroke="url(#paint38_linear_1020_247)" stroke-opacity="0.2" stroke-width="0.6"/>
<path opacity="0.40404" d="M242.712 424.176L1270.9 -193.623C1278.22 -198.019 1287.53 -197.204 1293.97 -191.605L2199.26 595.352C2205.7 600.951 2207.81 610.061 2204.47 617.917L1735.78 1722.08C1732.45 1729.94 1724.43 1734.75 1715.93 1734.01L520.975 1629.46C512.472 1628.72 505.416 1622.59 503.496 1614.27L233.663 445.493C231.743 437.178 235.396 428.571 242.712 424.176Z" stroke="url(#paint39_linear_1020_247)" stroke-opacity="0.2" stroke-width="0.6"/>
<path opacity="0.414141" d="M240.356 414.288L1277.08 -184.265C1284.47 -188.533 1293.77 -187.555 1300.11 -181.845L2189.74 619.176C2196.08 624.887 2198.02 634.032 2194.55 641.829L1707.64 1735.44C1704.17 1743.24 1696.08 1747.91 1687.59 1747.02L497.039 1621.89C488.551 1621 481.603 1614.74 479.829 1606.39L230.936 435.445C229.162 427.097 232.965 418.555 240.356 414.288Z" stroke="url(#paint40_linear_1020_247)" stroke-opacity="0.2" stroke-width="0.6"/>
<path opacity="0.424242" d="M238.259 404.596L1283.16 -174.603C1290.63 -178.741 1299.9 -177.601 1306.15 -171.781L2179.89 642.998C2186.13 648.819 2187.92 657.996 2184.31 665.731L1679.41 1748.49C1675.8 1756.23 1667.63 1760.76 1659.15 1759.72L473.367 1614.12C464.896 1613.08 458.058 1606.71 456.43 1598.33L228.471 425.585C226.843 417.207 230.794 408.733 238.259 404.596Z" stroke="url(#paint41_linear_1020_247)" stroke-opacity="0.2" stroke-width="0.6"/>
<path opacity="0.434343" d="M236.415 395.102L1289.13 -164.639C1296.67 -168.645 1305.93 -167.344 1312.07 -161.416L2169.72 666.811C2175.86 672.74 2177.48 681.947 2173.74 689.618L1651.08 1761.23C1647.34 1768.9 1639.09 1773.29 1630.63 1772.1L449.959 1606.17C441.507 1604.98 434.782 1598.49 433.3 1590.08L226.263 415.917C224.781 407.512 228.879 399.109 236.415 395.102Z" stroke="url(#paint42_linear_1020_247)" stroke-opacity="0.2" stroke-width="0.6"/>
<path opacity="0.444444" d="M234.82 385.816L1295 -154.371C1302.6 -158.246 1311.84 -156.783 1317.87 -150.748L2159.23 690.613C2165.27 696.648 2166.73 705.883 2162.86 713.487L1622.67 1773.66C1618.79 1781.27 1610.46 1785.51 1602.03 1784.18L426.818 1598.04C418.389 1596.71 411.778 1590.1 410.443 1581.67L224.307 406.451C222.972 398.021 227.216 389.691 234.82 385.816Z" stroke="url(#paint43_linear_1020_247)" stroke-opacity="0.2" stroke-width="0.6"/>
<path opacity="0.454545" d="M233.469 376.741L1300.74 -143.804C1308.41 -147.545 1317.62 -145.922 1323.55 -139.783L2148.42 714.399C2154.35 720.538 2155.65 729.797 2151.65 737.332L1594.17 1785.79C1590.17 1793.33 1581.76 1797.42 1573.36 1795.94L403.946 1589.74C395.541 1588.26 389.046 1581.54 387.858 1573.08L222.597 397.189C221.409 388.737 225.798 380.482 233.469 376.741Z" stroke="url(#paint44_linear_1020_247)" stroke-opacity="0.2" stroke-width="0.6"/>
<path opacity="0.464646" d="M232.361 367.876L1306.37 -132.943C1314.1 -136.549 1323.28 -134.765 1329.1 -128.524L2137.3 738.158C2143.12 744.4 2144.26 753.68 2140.12 761.144L1565.6 1797.6C1561.46 1805.07 1552.99 1809.02 1544.61 1807.39L381.347 1581.27C372.969 1579.64 366.593 1572.81 365.553 1564.34L221.133 388.131C220.093 379.66 224.626 371.483 232.361 367.876Z" stroke="url(#paint45_linear_1020_247)" stroke-opacity="0.2" stroke-width="0.6"/>
<path opacity="0.474747" d="M231.486 359.226L1311.87 -121.791C1319.66 -125.262 1328.81 -123.318 1334.52 -116.976L2125.85 761.885C2131.56 768.228 2132.54 777.526 2128.27 784.917L1536.96 1809.1C1532.69 1816.49 1524.15 1820.29 1515.8 1818.52L359.021 1572.64C350.673 1570.86 344.417 1563.92 343.525 1555.43L219.907 379.282C219.014 370.794 223.689 362.697 231.486 359.226Z" stroke="url(#paint46_linear_1020_247)" stroke-opacity="0.2" stroke-width="0.6"/>
<path opacity="0.484848" d="M230.844 350.799L1317.23 -110.346C1325.09 -113.681 1334.2 -111.578 1339.8 -105.137L2114.09 785.579C2119.69 792.021 2120.5 801.334 2116.11 808.65L1508.25 1820.29C1503.86 1827.6 1495.25 1831.26 1486.93 1829.34L336.972 1563.85C328.656 1561.93 322.523 1554.87 321.779 1546.37L218.917 370.65C218.173 362.148 222.988 354.133 230.844 350.799Z" stroke="url(#paint47_linear_1020_247)" stroke-opacity="0.2" stroke-width="0.6"/>
<path opacity="0.494949" d="M230.431 342.594L1322.46 -98.6168C1330.38 -101.814 1339.45 -99.5521 1344.94 -93.0142L2102.01 809.231C2107.49 815.768 2108.15 825.095 2103.62 832.333L1479.49 1831.16C1474.96 1838.4 1466.3 1841.9 1458.01 1839.84L315.203 1554.9C306.922 1552.84 300.913 1545.67 300.317 1537.16L218.158 362.233C217.563 353.72 222.518 345.791 230.431 342.594Z" stroke="url(#paint48_linear_1020_247)" stroke-opacity="0.2" stroke-width="0.6"/>
<path opacity="0.50505" d="M230.241 334.622L1327.56 -86.5974C1335.52 -89.656 1344.55 -87.2361 1349.93 -80.6036L2089.62 832.841C2094.99 839.473 2095.48 848.81 2090.83 855.968L1450.67 1841.73C1446.02 1848.88 1437.29 1852.23 1429.05 1850.03L293.717 1545.81C285.474 1543.61 279.59 1536.34 279.143 1527.82L217.628 354.045C217.182 345.522 222.274 337.681 230.241 334.622Z" stroke="url(#paint49_linear_1020_247)" stroke-opacity="0.2" stroke-width="0.6"/>
<path opacity="0.515152" d="M230.266 326.88L1332.5 -74.2997C1340.52 -77.2186 1349.5 -74.6415 1354.76 -67.9162L2076.91 856.396C2082.17 863.122 2082.49 872.465 2077.72 879.541L1421.8 1851.98C1417.03 1859.05 1408.24 1862.25 1400.04 1859.9L272.51 1536.58C264.306 1534.23 258.55 1526.86 258.252 1518.33L217.316 346.079C217.018 337.55 222.246 329.798 230.266 326.88Z" stroke="url(#paint50_linear_1020_247)" stroke-opacity="0.2" stroke-width="0.6"/>
<path opacity="0.525253" d="M230.509 319.371L1337.29 -61.7248C1345.36 -64.5033 1354.3 -61.7697 1359.44 -54.9537L2063.9 879.894C2069.03 886.71 2069.2 896.058 2064.3 903.049L1392.9 1861.91C1388 1868.9 1379.16 1871.95 1371 1869.45L251.593 1527.21C243.431 1524.72 237.804 1517.25 237.655 1508.72L217.226 338.342C217.077 329.808 222.44 322.15 230.509 319.371Z" stroke="url(#paint51_linear_1020_247)" stroke-opacity="0.2" stroke-width="0.6"/>
<path opacity="0.535354" d="M230.961 312.103L1341.93 -48.8731C1350.05 -51.5104 1358.94 -48.6212 1363.95 -41.7166L2050.57 903.33C2055.59 910.235 2055.59 919.584 2050.57 926.489L1363.95 1871.54C1358.94 1878.44 1350.05 1881.33 1341.93 1878.69L230.961 1517.72C222.844 1515.08 217.348 1507.52 217.348 1498.98L217.348 330.838C217.348 322.304 222.844 314.74 230.961 312.103Z" stroke="url(#paint52_linear_1020_247)" stroke-opacity="0.2" stroke-width="0.6"/>
<path opacity="0.545455" d="M231.616 305.074L1346.41 -35.7516C1354.57 -38.2469 1363.41 -35.2029 1368.31 -28.2118L2036.94 926.697C2041.83 933.688 2041.67 943.036 2036.54 949.852L1334.98 1880.84C1329.85 1887.66 1320.91 1890.39 1312.84 1887.62L210.618 1508.09C202.548 1505.31 197.185 1497.65 197.334 1489.12L217.679 323.57C217.828 315.037 223.455 307.57 231.616 305.074Z" stroke="url(#paint53_linear_1020_247)" stroke-opacity="0.2" stroke-width="0.6"/>
<path opacity="0.555556" d="M232.472 298.29L1350.72 -22.3629C1358.93 -24.7154 1367.71 -21.5176 1372.48 -14.4422L2023 949.989C2027.77 957.065 2027.45 966.409 2022.19 973.134L1305.98 1889.84C1300.73 1896.56 1291.74 1899.14 1283.72 1896.22L190.565 1498.34C182.545 1495.43 177.317 1487.67 177.615 1479.15L218.214 316.539C218.511 308.01 224.268 300.643 232.472 298.29Z" stroke="url(#paint54_linear_1020_247)" stroke-opacity="0.2" stroke-width="0.6"/>
<path opacity="0.565657" d="M233.522 291.756L1354.87 -8.70701C1363.11 -10.9159 1371.84 -7.56528 1376.49 -0.407605L2008.76 973.206C2013.41 980.363 2012.92 989.7 2007.55 996.333L1276.97 1898.52C1271.6 1905.15 1262.57 1907.57 1254.6 1904.52L170.804 1488.49C162.836 1485.43 157.744 1477.59 158.191 1469.06L218.948 309.754C219.394 301.231 225.278 293.965 233.522 291.756Z" stroke="url(#paint55_linear_1020_247)" stroke-opacity="0.2" stroke-width="0.6"/>
<path opacity="0.575758" d="M234.762 285.47L1358.84 5.20656C1367.12 3.14194 1375.79 6.64432 1380.31 13.882L1994.21 996.335C1998.74 1003.57 1998.08 1012.9 1992.6 1019.44L1247.94 1906.89C1242.45 1913.43 1233.38 1915.69 1225.47 1912.49L151.336 1478.52C143.423 1475.32 138.468 1467.39 139.064 1458.88L219.876 303.211C220.471 294.697 226.481 287.535 234.762 285.47Z" stroke="url(#paint56_linear_1020_247)" stroke-opacity="0.2" stroke-width="0.6"/>
<path opacity="0.585859" d="M236.19 279.441L1362.63 19.381C1370.95 17.4611 1379.56 21.1143 1383.95 28.4298L1979.37 1019.38C1983.77 1026.69 1982.95 1036.01 1977.35 1042.45L1218.9 1914.95C1213.3 1921.39 1204.19 1923.49 1196.34 1920.16L132.166 1468.44C124.31 1465.11 119.494 1457.1 120.238 1448.59L220.997 296.919C221.74 288.417 227.874 281.361 236.19 279.441Z" stroke="url(#paint57_linear_1020_247)" stroke-opacity="0.2" stroke-width="0.6"/>
<path opacity="0.59596" d="M237.795 273.665L1366.24 33.8058C1374.59 32.0314 1383.13 35.8342 1387.4 43.2253L1964.23 1042.32C1968.5 1049.72 1967.52 1059.01 1961.81 1065.36L1189.86 1922.69C1184.15 1929.03 1175.01 1930.98 1167.21 1927.51L113.288 1458.27C105.491 1454.8 100.816 1446.7 101.709 1438.22L222.299 290.876C223.191 282.388 229.447 275.44 237.795 273.665Z" stroke="url(#paint58_linear_1020_247)" stroke-opacity="0.2" stroke-width="0.6"/>
<path opacity="0.606061" d="M239.577 268.151L1369.67 48.4826C1378.05 46.8541 1386.52 50.8054 1390.66 58.2698L1948.8 1065.17C1952.93 1072.64 1951.79 1081.92 1945.97 1088.16L1160.83 1930.13C1155 1936.37 1145.83 1938.15 1138.09 1934.55L94.7084 1448.01C86.9735 1444.4 82.4407 1436.22 83.4808 1427.75L223.782 285.088C224.823 276.617 231.199 269.779 239.577 268.151Z" stroke="url(#paint59_linear_1020_247)" stroke-opacity="0.2" stroke-width="0.6"/>
<path opacity="0.616162" d="M241.53 262.896L1372.91 63.4035C1381.31 61.9216 1389.72 66.0201 1393.72 73.5557L1933.07 1087.91C1937.08 1095.45 1935.77 1104.71 1929.85 1110.85L1131.8 1937.25C1125.87 1943.39 1116.66 1945.01 1108.99 1941.27L76.4287 1437.66C68.7579 1433.91 64.3685 1425.66 65.5563 1417.21L225.443 279.555C226.631 271.104 233.125 264.378 241.53 262.896Z" stroke="url(#paint60_linear_1020_247)" stroke-opacity="0.2" stroke-width="0.6"/>
<path opacity="0.626263" d="M243.647 257.909L1375.95 78.5695C1384.38 77.2344 1392.71 81.479 1396.59 89.0833L1917.05 1110.55C1920.92 1118.15 1919.46 1127.39 1913.43 1133.42L1102.79 1944.06C1096.75 1950.1 1087.52 1951.56 1079.91 1947.69L58.4459 1427.22C50.8416 1423.35 46.597 1415.02 47.932 1406.59L227.271 274.285C228.606 265.855 235.218 259.244 243.647 257.909Z" stroke="url(#paint61_linear_1020_247)" stroke-opacity="0.2" stroke-width="0.6"/>
<path opacity="0.636364" d="M245.926 253.189L1378.8 93.9743C1387.25 92.7865 1395.5 97.1758 1399.25 104.847L1900.74 1133.07C1904.49 1140.74 1902.86 1149.95 1896.72 1155.88L1073.79 1950.57C1067.66 1956.5 1058.4 1957.8 1050.86 1953.79L40.765 1416.72C33.2294 1412.71 29.1309 1404.31 30.6128 1395.9L229.267 269.276C230.749 260.871 237.475 254.377 245.926 253.189Z" stroke="url(#paint62_linear_1020_247)" stroke-opacity="0.2" stroke-width="0.6"/>
<path opacity="0.646465" d="M248.359 248.734L1381.44 109.609C1389.91 108.569 1398.09 113.102 1401.7 120.837L1884.15 1155.47C1887.76 1163.2 1885.98 1172.38 1879.73 1178.2L1044.83 1956.77C1038.59 1962.59 1029.31 1963.73 1021.84 1959.59L23.3832 1406.13C15.9187 1402 11.9673 1393.52 13.5958 1385.15L231.422 264.529C233.05 256.151 239.888 249.774 248.359 248.734Z" stroke="url(#paint63_linear_1020_247)" stroke-opacity="0.2" stroke-width="0.6"/>
<path opacity="0.656566" d="M250.943 244.553L1383.88 125.477C1392.37 124.585 1400.46 129.259 1403.94 137.056L1867.28 1177.75C1870.75 1185.54 1868.81 1194.69 1862.47 1200.4L1015.89 1962.66C1009.55 1968.37 1000.25 1969.35 992.86 1965.08L6.30354 1395.49C-1.08759 1391.22 -4.89043 1382.68 -3.11603 1374.33L233.732 260.05C235.507 251.702 242.455 245.446 250.943 244.553Z" stroke="url(#paint64_linear_1020_247)" stroke-opacity="0.2" stroke-width="0.6"/>
<path opacity="0.666667" d="M253.671 240.641L1386.11 141.565C1394.61 140.822 1402.62 145.637 1405.96 153.493L1850.13 1199.89C1853.46 1207.75 1851.36 1216.86 1844.92 1222.45L986.993 1968.24C980.551 1973.84 971.237 1974.65 963.922 1970.26L-10.4746 1384.78C-17.7902 1380.39 -21.4434 1371.78 -19.5235 1363.46L236.193 255.834C238.112 247.519 245.169 241.385 253.671 240.641Z" stroke="url(#paint65_linear_1020_247)" stroke-opacity="0.2" stroke-width="0.6"/>
<path opacity="0.676768" d="M256.537 237.008L1388.12 157.88C1396.64 157.284 1404.57 162.239 1407.76 170.152L1832.7 1221.9C1835.9 1229.82 1833.63 1238.89 1827.1 1244.37L958.133 1973.52C951.595 1979.01 942.268 1979.66 935.031 1975.14L-26.9527 1374.02C-34.1904 1369.5 -37.6928 1360.83 -35.6281 1352.55L238.796 251.894C240.861 243.613 248.023 237.603 256.537 237.008Z" stroke="url(#paint66_linear_1020_247)" stroke-opacity="0.2" stroke-width="0.6"/>
<path opacity="0.686869" d="M259.54 233.651L1389.93 174.41C1398.45 173.963 1406.29 179.055 1409.35 187.023L1815 1243.78C1818.06 1251.74 1815.64 1260.78 1809 1266.15L929.324 1978.5C922.691 1983.87 913.355 1984.36 906.197 1979.71L-43.1245 1363.21C-50.2822 1358.56 -53.6328 1349.84 -51.4239 1341.59L241.543 248.225C243.752 239.981 251.018 234.097 259.54 233.651Z" stroke="url(#paint67_linear_1020_247)" stroke-opacity="0.2" stroke-width="0.6"/>
<path opacity="0.69697" d="M262.671 230.572L1391.51 191.152C1400.04 190.854 1407.79 196.082 1410.71 204.102L1797.02 1265.51C1799.94 1273.53 1797.37 1282.51 1790.64 1287.77L900.565 1983.17C893.84 1988.43 884.496 1988.75 877.421 1983.98L-58.9961 1352.36C-66.0715 1347.59 -69.2693 1338.8 -66.9168 1330.6L244.422 244.829C246.774 236.626 254.142 230.869 262.671 230.572Z" stroke="url(#paint68_linear_1020_247)" stroke-opacity="0.2" stroke-width="0.6"/>
<path opacity="0.707071" d="M265.927 227.777L1392.86 208.107C1401.4 207.958 1409.06 213.32 1411.83 221.39L1778.79 1287.09C1781.56 1295.16 1778.83 1304.1 1772.01 1309.24L871.865 1987.55C865.049 1992.69 855.701 1992.85 848.71 1987.95L-74.5635 1341.47C-81.5546 1336.58 -84.5986 1327.74 -82.1033 1319.57L247.431 241.715C249.927 233.553 257.394 227.926 265.927 227.777Z" stroke="url(#paint69_linear_1020_247)" stroke-opacity="0.2" stroke-width="0.6"/>
<path opacity="0.717172" d="M269.301 225.26L1394 225.26C1402.53 225.26 1410.1 230.756 1412.73 238.873L1760.28 1308.52C1762.92 1316.64 1760.03 1325.53 1753.13 1330.55L843.229 1991.63C836.324 1996.64 826.974 1996.64 820.07 1991.63L-89.8277 1330.55C-96.7324 1325.53 -99.6215 1316.64 -96.9842 1308.52L250.566 238.873C253.203 230.756 260.767 225.26 269.301 225.26Z" stroke="url(#paint70_linear_1020_247)" stroke-opacity="0.2" stroke-width="0.6"/>
<path opacity="0.727273" d="M272.788 223.031L1394.9 242.618C1403.43 242.767 1410.9 248.393 1413.39 256.555L1741.52 1329.8C1744.01 1337.96 1740.97 1346.8 1733.98 1351.7L814.658 1995.41C807.667 2000.3 798.319 2000.14 791.503 1995.01L-104.791 1319.6C-111.607 1314.46 -114.34 1305.52 -111.562 1297.45L253.818 236.315C256.596 228.245 264.255 222.882 272.788 223.031Z" stroke="url(#paint71_linear_1020_247)" stroke-opacity="0.2" stroke-width="0.6"/>
<path opacity="0.737374" d="M276.385 221.085L1395.57 260.168C1404.1 260.466 1411.47 266.222 1413.82 274.426L1722.5 1350.91C1724.85 1359.12 1721.65 1367.9 1714.58 1372.67L786.164 1998.9C779.089 2003.67 769.745 2003.34 763.02 1998.09L-119.448 1308.63C-126.173 1303.37 -128.751 1294.39 -125.832 1286.37L257.186 234.035C260.105 226.016 267.856 220.787 276.385 221.085Z" stroke="url(#paint72_linear_1020_247)" stroke-opacity="0.2" stroke-width="0.6"/>
<path opacity="0.747475" d="M280.082 219.43L1396 277.913C1404.53 278.359 1411.79 284.243 1414 292.487L1703.22 1371.86C1705.43 1380.11 1702.08 1388.84 1694.92 1393.49L757.746 2002.09C750.588 2006.74 741.252 2006.25 734.619 2000.88L-133.806 1297.65C-140.439 1292.27 -142.859 1283.24 -139.8 1275.28L260.66 232.043C263.718 224.075 271.559 218.983 280.082 219.43Z" stroke="url(#paint73_linear_1020_247)" stroke-opacity="0.2" stroke-width="0.6"/>
<path opacity="0.757576" d="M283.877 218.055L1396.2 295.837C1404.71 296.432 1411.88 302.442 1413.94 310.723L1683.69 1392.64C1685.76 1400.92 1682.26 1409.59 1675.02 1414.11L729.411 2005C722.174 2009.52 712.847 2008.87 706.309 2003.38L-147.861 1286.65C-154.399 1281.16 -156.661 1272.09 -153.464 1264.18L264.237 230.328C267.434 222.415 275.363 217.46 283.877 218.055Z" stroke="url(#paint74_linear_1020_247)" stroke-opacity="0.2" stroke-width="0.6"/>
<path opacity="0.767677" d="M287.765 216.974L1396.16 313.946C1404.66 314.689 1411.72 320.823 1413.64 329.139L1663.92 1413.25C1665.84 1421.56 1662.19 1430.17 1654.87 1434.57L701.166 2007.61C693.851 2012.01 684.537 2011.19 678.096 2005.59L-161.614 1275.64C-168.055 1270.05 -170.159 1260.94 -166.824 1253.08L267.914 228.901C271.249 221.045 279.263 216.23 287.765 216.974Z" stroke="url(#paint75_linear_1020_247)" stroke-opacity="0.2" stroke-width="0.6"/>
<path opacity="0.777778" d="M291.738 216.184L1395.87 332.233C1404.36 333.125 1411.3 339.381 1413.08 347.729L1643.91 1433.68C1645.68 1442.03 1641.88 1450.57 1634.49 1454.84L673.014 2009.94C665.622 2014.21 656.324 2013.23 649.982 2007.52L-175.067 1264.65C-181.41 1258.94 -183.353 1249.79 -179.882 1241.99L271.682 227.764C275.153 219.967 283.25 215.292 291.738 216.184Z" stroke="url(#paint76_linear_1020_247)" stroke-opacity="0.2" stroke-width="0.6"/>
<path opacity="0.787879" d="M295.794 215.686L1395.34 350.693C1403.81 351.733 1410.64 358.109 1412.27 366.487L1623.65 1453.93C1625.28 1462.31 1621.33 1470.78 1613.86 1474.92L644.961 2011.99C637.496 2016.13 628.217 2014.99 621.975 2009.17L-188.218 1253.65C-194.46 1247.83 -196.244 1238.66 -192.637 1230.92L275.539 226.914C279.146 219.179 287.323 214.646 295.794 215.686Z" stroke="url(#paint77_linear_1020_247)" stroke-opacity="0.2" stroke-width="0.6"/>
<path opacity="0.79798" d="M299.924 215.474L1394.55 369.314C1403 370.502 1409.73 376.997 1411.21 385.401L1603.16 1473.99C1604.64 1482.4 1600.54 1490.8 1593.01 1494.81L617.009 2013.76C609.474 2017.76 600.215 2016.46 594.076 2010.53L-201.072 1242.67C-207.211 1236.74 -208.834 1227.53 -205.093 1219.86L279.476 226.347C283.217 218.676 291.472 214.286 299.924 215.474Z" stroke="url(#paint78_linear_1020_247)" stroke-opacity="0.2" stroke-width="0.6"/>
<path opacity="0.808081" d="M304.126 215.56L1393.52 388.103C1401.95 389.438 1408.56 396.049 1409.89 404.478L1582.44 1493.87C1583.77 1502.3 1579.53 1510.63 1571.92 1514.51L589.168 2015.24C581.563 2019.12 572.329 2017.66 566.294 2011.62L-213.625 1231.7C-219.66 1225.67 -221.122 1216.43 -217.248 1208.83L283.491 226.074C287.366 218.469 295.696 214.225 304.126 215.56Z" stroke="url(#paint79_linear_1020_247)" stroke-opacity="0.2" stroke-width="0.6"/>
<path opacity="0.818182" d="M308.391 215.935L1392.23 407.045C1400.63 408.527 1407.13 415.252 1408.32 423.704L1561.48 1513.55C1562.67 1522 1558.28 1530.26 1550.61 1534L561.437 2016.45C553.766 2020.19 544.559 2018.57 538.63 2012.43L-225.881 1220.76C-231.81 1214.62 -233.111 1205.36 -229.105 1197.82L287.576 226.087C291.583 218.551 299.986 214.453 308.391 215.935Z" stroke="url(#paint80_linear_1020_247)" stroke-opacity="0.2" stroke-width="0.6"/>
<path opacity="0.828283" d="M312.716 216.605L1390.68 426.141C1399.06 427.769 1405.44 434.607 1406.48 443.078L1540.31 1533.04C1541.35 1541.51 1536.82 1549.68 1529.08 1553.29L533.824 2017.39C526.089 2020.99 516.911 2019.21 511.091 2012.97L-237.842 1209.84C-243.662 1203.59 -244.802 1194.32 -240.664 1186.85L291.727 226.392C295.864 218.928 304.338 214.976 312.716 216.605Z" stroke="url(#paint81_linear_1020_247)" stroke-opacity="0.2" stroke-width="0.6"/>
<path opacity="0.838384" d="M317.097 217.567L1388.88 445.382C1397.23 447.157 1403.49 454.105 1404.38 462.592L1518.91 1552.32C1519.81 1560.81 1515.13 1568.91 1507.33 1572.38L506.335 2018.05C498.538 2021.52 489.393 2019.58 483.682 2013.24L-249.504 1198.95C-255.215 1192.61 -256.193 1183.31 -251.925 1175.92L295.94 226.986C300.207 219.595 308.748 215.792 317.097 217.567Z" stroke="url(#paint82_linear_1020_247)" stroke-opacity="0.2" stroke-width="0.6"/>
<path opacity="0.848485" d="M321.525 218.828L1386.82 464.77C1395.14 466.69 1401.27 473.747 1402.01 482.249L1497.3 1571.41C1498.05 1579.91 1493.23 1587.92 1485.38 1591.26L478.972 2018.45C471.116 2021.78 462.006 2019.68 456.406 2013.24L-260.874 1188.1C-266.473 1181.66 -267.288 1172.35 -262.892 1165.03L300.207 227.877C304.603 220.561 313.209 216.908 321.525 218.828Z" stroke="url(#paint83_linear_1020_247)" stroke-opacity="0.2" stroke-width="0.6"/>
<path opacity="0.858586" d="M325.997 220.379L1384.5 484.292C1392.78 486.357 1398.79 493.519 1399.38 502.033L1475.48 1590.28C1476.07 1598.79 1471.12 1606.72 1463.21 1609.92L451.739 2018.58C443.826 2021.77 434.754 2019.51 429.268 2012.97L-271.951 1177.29C-277.437 1170.76 -278.089 1161.43 -273.566 1154.19L304.524 229.054C309.047 221.817 317.716 218.314 325.997 220.379Z" stroke="url(#paint84_linear_1020_247)" stroke-opacity="0.2" stroke-width="0.6"/>
<path opacity="0.868687" d="M330.505 222.226L1381.91 503.948C1390.15 506.157 1396.03 513.423 1396.48 521.946L1453.45 1608.94C1453.89 1617.47 1448.8 1625.31 1440.83 1628.37L424.641 2018.45C416.673 2021.5 407.642 2019.08 402.271 2012.45L-282.737 1166.54C-288.108 1159.9 -288.597 1150.57 -283.949 1143.41L308.885 230.526C313.533 223.368 322.262 220.017 330.505 222.226Z" stroke="url(#paint85_linear_1020_247)" stroke-opacity="0.2" stroke-width="0.6"/>
<path opacity="0.878788" d="M335.049 224.371L1379.05 523.734C1387.26 526.086 1393.01 533.454 1393.31 541.983L1431.21 1627.4C1431.51 1635.93 1426.28 1643.68 1418.26 1646.6L397.686 2018.06C389.666 2020.98 380.679 2018.4 375.424 2011.67L-293.231 1155.83C-298.485 1149.11 -298.811 1139.76 -294.039 1132.69L313.287 232.292C318.059 225.216 326.845 222.018 335.049 224.371Z" stroke="url(#paint86_linear_1020_247)" stroke-opacity="0.2" stroke-width="0.6"/>
<path opacity="0.888889" d="M339.617 226.807L1375.93 543.639C1384.09 546.134 1389.72 553.601 1389.87 562.135L1408.78 1645.63C1408.93 1654.16 1403.56 1661.82 1395.49 1664.6L370.872 2017.41C362.803 2020.19 353.862 2017.45 348.725 2010.64L-303.439 1145.19C-308.575 1138.37 -308.738 1129.02 -303.843 1122.03L317.72 234.347C322.615 227.356 331.455 224.312 339.617 226.807Z" stroke="url(#paint87_linear_1020_247)" stroke-opacity="0.2" stroke-width="0.6"/>
<path opacity="0.89899" d="M344.21 229.539L1372.54 563.663C1380.65 566.301 1386.15 573.865 1386.15 582.399L1386.15 1663.65C1386.15 1672.18 1380.66 1679.75 1372.54 1682.38L344.21 2016.51C336.093 2019.14 327.201 2016.26 322.185 2009.35L-313.357 1134.6C-318.373 1127.7 -318.373 1118.35 -313.357 1111.44L322.185 236.696C327.201 229.791 336.093 226.902 344.21 229.539Z" stroke="url(#paint88_linear_1020_247)" stroke-opacity="0.2" stroke-width="0.6"/>
<path opacity="0.909091" d="M348.819 232.57L1368.88 583.804C1376.95 586.583 1382.31 594.242 1382.16 602.775L1363.33 1681.45C1363.18 1689.98 1357.56 1697.45 1349.4 1699.94L317.701 2015.36C309.539 2017.86 300.699 2014.81 295.804 2007.82L-322.991 1124.09C-327.886 1117.1 -327.723 1107.75 -322.586 1100.94L326.672 239.341C331.809 232.525 340.75 229.792 348.819 232.57Z" stroke="url(#paint89_linear_1020_247)" stroke-opacity="0.2" stroke-width="0.6"/>
<path opacity="0.919192" d="M353.437 235.886L1364.94 604.044C1372.96 606.963 1378.19 614.714 1377.89 623.243L1340.33 1699.01C1340.03 1707.54 1334.27 1714.91 1326.07 1717.26L291.345 2013.96C283.141 2016.31 274.356 2013.11 269.583 2006.04L-332.344 1113.65C-337.116 1106.57 -336.79 1097.23 -331.536 1090.5L331.175 242.27C336.43 235.545 345.417 232.967 353.437 235.886Z" stroke="url(#paint90_linear_1020_247)" stroke-opacity="0.2" stroke-width="0.6"/>
<path opacity="0.929293" d="M358.063 239.501L1360.74 624.39C1368.7 627.449 1373.8 635.29 1373.35 643.813L1317.14 1716.35C1316.69 1724.87 1310.81 1732.14 1302.56 1734.35L265.154 2012.32C256.91 2014.53 248.182 2011.18 243.533 2004.02L-341.413 1103.28C-346.061 1096.12 -345.572 1086.79 -340.201 1080.15L335.694 245.494C341.065 238.862 350.096 236.442 358.063 239.501Z" stroke="url(#paint91_linear_1020_247)" stroke-opacity="0.2" stroke-width="0.6"/>
<path opacity="0.939394" d="M362.688 243.408L1356.25 644.834C1364.17 648.031 1369.12 655.96 1368.52 664.473L1293.77 1733.46C1293.18 1741.97 1287.17 1749.13 1278.89 1751.2L239.126 2010.44C230.845 2012.5 222.176 2009 217.653 2001.76L-350.205 1093C-354.727 1085.76 -354.075 1076.44 -348.589 1069.9L340.218 249.01C345.703 242.472 354.775 240.211 362.688 243.408Z" stroke="url(#paint92_linear_1020_247)" stroke-opacity="0.2" stroke-width="0.6"/>
<path opacity="0.949495" d="M367.31 247.612L1351.49 665.374C1359.35 668.708 1364.17 676.722 1363.42 685.224L1270.24 1750.34C1269.49 1758.84 1263.36 1765.89 1255.04 1767.81L213.267 2008.33C204.951 2010.25 196.345 2006.59 191.949 1999.28L-358.719 1082.81C-363.114 1075.5 -362.3 1066.18 -356.7 1059.74L344.745 252.821C350.344 246.38 359.454 244.277 367.31 247.612Z" stroke="url(#paint93_linear_1020_247)" stroke-opacity="0.2" stroke-width="0.6"/>
<path opacity="0.959596" d="M371.921 252.1L1346.46 685.993C1354.26 689.464 1358.93 697.561 1358.04 706.049L1246.53 1766.97C1245.64 1775.46 1239.38 1782.41 1231.04 1784.18L187.582 2005.97C179.234 2007.75 170.693 2003.95 166.425 1996.56L-366.958 1072.71C-371.225 1065.32 -370.248 1056.02 -364.537 1049.68L349.269 256.915C354.979 250.573 364.125 248.629 371.921 252.1Z" stroke="url(#paint94_linear_1020_247)" stroke-opacity="0.2" stroke-width="0.6"/>
<path opacity="0.969697" d="M376.518 256.883L1341.15 706.698C1348.88 710.305 1353.42 718.482 1352.38 726.953L1222.66 1783.37C1221.62 1791.84 1215.25 1798.68 1206.87 1800.31L162.073 2003.4C153.695 2005.03 145.222 2001.07 141.084 1993.61L-374.924 1062.71C-379.062 1055.24 -377.922 1045.96 -372.102 1039.72L353.785 261.302C359.605 255.06 368.783 253.276 376.518 256.883Z" stroke="url(#paint95_linear_1020_247)" stroke-opacity="0.2" stroke-width="0.6"/>
<path opacity="0.979798" d="M381.094 261.95L1335.56 727.474C1343.23 731.215 1347.62 739.47 1346.43 747.921L1198.64 1799.52C1197.45 1807.98 1190.95 1814.7 1182.55 1816.18L136.745 2000.59C128.34 2002.07 119.936 1997.97 115.93 1990.44L-382.62 1052.8C-386.627 1045.26 -385.326 1036.01 -379.397 1029.87L358.287 265.972C364.216 259.833 373.423 258.209 381.094 261.95Z" stroke="url(#paint96_linear_1020_247)" stroke-opacity="0.2" stroke-width="0.6"/>
<path opacity="0.989899" d="M385.645 267.313L1329.69 748.327C1337.29 752.201 1341.54 760.532 1340.2 768.961L1174.46 1815.44C1173.12 1823.87 1166.51 1830.48 1158.08 1831.82L111.6 1997.56C103.17 1998.9 94.8399 1994.65 90.9653 1987.05L-390.049 1043.01C-393.923 1035.4 -392.461 1026.17 -386.426 1020.13L362.771 270.935C368.806 264.901 378.04 263.438 385.645 267.313Z" stroke="url(#paint97_linear_1020_247)" stroke-opacity="0.2" stroke-width="0.6"/>
<path d="M390.165 272.961L1323.54 769.245C1331.07 773.251 1335.17 781.655 1333.69 790.06L1150.13 1831.11C1148.64 1839.52 1141.92 1846.01 1133.47 1847.2L86.6428 1994.32C78.1913 1995.51 69.9361 1991.12 66.1948 1983.45L-397.212 1033.32C-400.953 1025.65 -399.33 1016.44 -393.191 1010.52L367.231 276.184C373.371 270.256 382.629 268.954 390.165 272.961Z" stroke="url(#paint98_linear_1020_247)" stroke-opacity="0.2" stroke-width="0.6"/>
</g>
<defs>
<linearGradient id="paint0_linear_1020_247" x1="1828.81" y1="1244.75" x2="1459.9" y2="-41.7903" gradientUnits="userSpaceOnUse">
<stop stop-color="#FF00F7" stop-opacity="0.5"/>
<stop offset="1" stop-color="#00F0FF"/>
</linearGradient>
<linearGradient id="paint1_linear_1020_247" x1="1805.84" y1="1252.47" x2="1460.07" y2="-37.9495" gradientUnits="userSpaceOnUse">
<stop stop-color="#FF00F7" stop-opacity="0.5"/>
<stop offset="1" stop-color="#00F0FF"/>
</linearGradient>
<linearGradient id="paint2_linear_1020_247" x1="1782.85" y1="1259.99" x2="1460.25" y2="-33.8957" gradientUnits="userSpaceOnUse">
<stop stop-color="#FF00F7" stop-opacity="0.5"/>
<stop offset="1" stop-color="#00F0FF"/>
</linearGradient>
<linearGradient id="paint3_linear_1020_247" x1="1759.86" y1="1267.31" x2="1460.44" y2="-29.6272" gradientUnits="userSpaceOnUse">
<stop stop-color="#FF00F7" stop-opacity="0.5"/>
<stop offset="1" stop-color="#00F0FF"/>
</linearGradient>
<linearGradient id="paint4_linear_1020_247" x1="1736.86" y1="1274.43" x2="1460.63" y2="-25.1492" gradientUnits="userSpaceOnUse">
<stop stop-color="#FF00F7" stop-opacity="0.5"/>
<stop offset="1" stop-color="#00F0FF"/>
</linearGradient>
<linearGradient id="paint5_linear_1020_247" x1="1713.86" y1="1281.34" x2="1460.82" y2="-20.4636" gradientUnits="userSpaceOnUse">
<stop stop-color="#FF00F7" stop-opacity="0.5"/>
<stop offset="1" stop-color="#00F0FF"/>
</linearGradient>
<linearGradient id="paint6_linear_1020_247" x1="1690.87" y1="1288.05" x2="1461" y2="-15.5675" gradientUnits="userSpaceOnUse">
<stop stop-color="#FF00F7" stop-opacity="0.5"/>
<stop offset="1" stop-color="#00F0FF"/>
</linearGradient>
<linearGradient id="paint7_linear_1020_247" x1="1667.87" y1="1294.56" x2="1461.18" y2="-10.4572" gradientUnits="userSpaceOnUse">
<stop stop-color="#FF00F7" stop-opacity="0.5"/>
<stop offset="1" stop-color="#00F0FF"/>
</linearGradient>
<linearGradient id="paint8_linear_1020_247" x1="1644.9" y1="1300.87" x2="1461.35" y2="-5.13951" gradientUnits="userSpaceOnUse">
<stop stop-color="#FF00F7" stop-opacity="0.5"/>
<stop offset="1" stop-color="#00F0FF"/>
</linearGradient>
<linearGradient id="paint9_linear_1020_247" x1="1621.93" y1="1306.97" x2="1461.5" y2="0.383045" gradientUnits="userSpaceOnUse">
<stop stop-color="#FF00F7" stop-opacity="0.5"/>
<stop offset="1" stop-color="#00F0FF"/>
</linearGradient>
<linearGradient id="paint10_linear_1020_247" x1="1598.97" y1="1312.88" x2="1461.63" y2="6.11925" gradientUnits="userSpaceOnUse">
<stop stop-color="#FF00F7" stop-opacity="0.5"/>
<stop offset="1" stop-color="#00F0FF"/>
</linearGradient>
<linearGradient id="paint11_linear_1020_247" x1="1576.05" y1="1318.59" x2="1461.74" y2="12.0591" gradientUnits="userSpaceOnUse">
<stop stop-color="#FF00F7" stop-opacity="0.5"/>
<stop offset="1" stop-color="#00F0FF"/>
</linearGradient>
<linearGradient id="paint12_linear_1020_247" x1="1553.14" y1="1324.09" x2="1461.82" y2="18.2057" gradientUnits="userSpaceOnUse">
<stop stop-color="#FF00F7" stop-opacity="0.5"/>
<stop offset="1" stop-color="#00F0FF"/>
</linearGradient>
<linearGradient id="paint13_linear_1020_247" x1="1530.26" y1="1329.4" x2="1461.88" y2="24.5617" gradientUnits="userSpaceOnUse">
<stop stop-color="#FF00F7" stop-opacity="0.5"/>
<stop offset="1" stop-color="#00F0FF"/>
</linearGradient>
<linearGradient id="paint14_linear_1020_247" x1="1507.41" y1="1334.51" x2="1461.9" y2="31.1167" gradientUnits="userSpaceOnUse">
<stop stop-color="#FF00F7" stop-opacity="0.5"/>
<stop offset="1" stop-color="#00F0FF"/>
</linearGradient>
<linearGradient id="paint15_linear_1020_247" x1="1484.6" y1="1339.43" x2="1461.88" y2="37.8797" gradientUnits="userSpaceOnUse">
<stop stop-color="#FF00F7" stop-opacity="0.5"/>
<stop offset="1" stop-color="#00F0FF"/>
</linearGradient>
<linearGradient id="paint16_linear_1020_247" x1="1461.82" y1="1344.15" x2="1461.82" y2="44.8443" gradientUnits="userSpaceOnUse">
<stop stop-color="#FF00F7" stop-opacity="0.5"/>
<stop offset="1" stop-color="#00F0FF"/>
</linearGradient>
<linearGradient id="paint17_linear_1020_247" x1="1439.09" y1="1348.68" x2="1461.72" y2="52.0105" gradientUnits="userSpaceOnUse">
<stop stop-color="#FF00F7" stop-opacity="0.5"/>
<stop offset="1" stop-color="#00F0FF"/>
</linearGradient>
<linearGradient id="paint18_linear_1020_247" x1="1416.4" y1="1353.01" x2="1461.57" y2="59.3782" gradientUnits="userSpaceOnUse">
<stop stop-color="#FF00F7" stop-opacity="0.5"/>
<stop offset="1" stop-color="#00F0FF"/>
</linearGradient>
<linearGradient id="paint19_linear_1020_247" x1="1393.75" y1="1357.14" x2="1461.37" y2="66.9366" gradientUnits="userSpaceOnUse">
<stop stop-color="#FF00F7" stop-opacity="0.5"/>
<stop offset="1" stop-color="#00F0FF"/>
</linearGradient>
<linearGradient id="paint20_linear_1020_247" x1="1371.16" y1="1361.1" x2="1461.12" y2="74.7038" gradientUnits="userSpaceOnUse">
<stop stop-color="#FF00F7" stop-opacity="0.5"/>
<stop offset="1" stop-color="#00F0FF"/>
</linearGradient>
<linearGradient id="paint21_linear_1020_247" x1="1348.63" y1="1364.86" x2="1460.8" y2="82.6596" gradientUnits="userSpaceOnUse">
<stop stop-color="#FF00F7" stop-opacity="0.5"/>
<stop offset="1" stop-color="#00F0FF"/>
</linearGradient>
<linearGradient id="paint22_linear_1020_247" x1="1326.15" y1="1368.43" x2="1460.43" y2="90.8146" gradientUnits="userSpaceOnUse">
<stop stop-color="#FF00F7" stop-opacity="0.5"/>
<stop offset="1" stop-color="#00F0FF"/>
</linearGradient>
<linearGradient id="paint23_linear_1020_247" x1="1303.73" y1="1371.82" x2="1459.99" y2="99.1649" gradientUnits="userSpaceOnUse">
<stop stop-color="#FF00F7" stop-opacity="0.5"/>
<stop offset="1" stop-color="#00F0FF"/>
</linearGradient>
<linearGradient id="paint24_linear_1020_247" x1="1281.37" y1="1375.01" x2="1459.48" y2="107.701" gradientUnits="userSpaceOnUse">
<stop stop-color="#FF00F7" stop-opacity="0.5"/>
<stop offset="1" stop-color="#00F0FF"/>
</linearGradient>
<linearGradient id="paint25_linear_1020_247" x1="1259.09" y1="1378.03" x2="1458.9" y2="116.429" gradientUnits="userSpaceOnUse">
<stop stop-color="#FF00F7" stop-opacity="0.5"/>
<stop offset="1" stop-color="#00F0FF"/>
</linearGradient>
<linearGradient id="paint26_linear_1020_247" x1="1236.87" y1="1380.86" x2="1458.25" y2="125.349" gradientUnits="userSpaceOnUse">
<stop stop-color="#FF00F7" stop-opacity="0.5"/>
<stop offset="1" stop-color="#00F0FF"/>
</linearGradient>
<linearGradient id="paint27_linear_1020_247" x1="1214.73" y1="1383.52" x2="1457.52" y2="134.455" gradientUnits="userSpaceOnUse">
<stop stop-color="#FF00F7" stop-opacity="0.5"/>
<stop offset="1" stop-color="#00F0FF"/>
</linearGradient>
<linearGradient id="paint28_linear_1020_247" x1="1192.66" y1="1385.99" x2="1456.71" y2="143.748" gradientUnits="userSpaceOnUse">
<stop stop-color="#FF00F7" stop-opacity="0.5"/>
<stop offset="1" stop-color="#00F0FF"/>
</linearGradient>
<linearGradient id="paint29_linear_1020_247" x1="1170.68" y1="1388.29" x2="1455.81" y2="153.219" gradientUnits="userSpaceOnUse">
<stop stop-color="#FF00F7" stop-opacity="0.5"/>
<stop offset="1" stop-color="#00F0FF"/>
</linearGradient>
<linearGradient id="paint30_linear_1020_247" x1="1148.77" y1="1390.41" x2="1454.83" y2="162.878" gradientUnits="userSpaceOnUse">
<stop stop-color="#FF00F7" stop-opacity="0.5"/>
<stop offset="1" stop-color="#00F0FF"/>
</linearGradient>
<linearGradient id="paint31_linear_1020_247" x1="1126.95" y1="1392.36" x2="1453.76" y2="172.71" gradientUnits="userSpaceOnUse">
<stop stop-color="#FF00F7" stop-opacity="0.5"/>
<stop offset="1" stop-color="#00F0FF"/>
</linearGradient>
<linearGradient id="paint32_linear_1020_247" x1="1105.22" y1="1394.13" x2="1452.59" y2="182.724" gradientUnits="userSpaceOnUse">
<stop stop-color="#FF00F7" stop-opacity="0.5"/>
<stop offset="1" stop-color="#00F0FF"/>
</linearGradient>
<linearGradient id="paint33_linear_1020_247" x1="1083.59" y1="1395.74" x2="1451.33" y2="192.912" gradientUnits="userSpaceOnUse">
<stop stop-color="#FF00F7" stop-opacity="0.5"/>
<stop offset="1" stop-color="#00F0FF"/>
</linearGradient>
<linearGradient id="paint34_linear_1020_247" x1="1062.05" y1="1397.18" x2="1449.97" y2="203.277" gradientUnits="userSpaceOnUse">
<stop stop-color="#FF00F7" stop-opacity="0.5"/>
<stop offset="1" stop-color="#00F0FF"/>
</linearGradient>
<linearGradient id="paint35_linear_1020_247" x1="1040.6" y1="1398.45" x2="1448.5" y2="213.81" gradientUnits="userSpaceOnUse">
<stop stop-color="#FF00F7" stop-opacity="0.5"/>
<stop offset="1" stop-color="#00F0FF"/>
</linearGradient>
<linearGradient id="paint36_linear_1020_247" x1="1019.25" y1="1399.56" x2="1446.93" y2="224.516" gradientUnits="userSpaceOnUse">
<stop stop-color="#FF00F7" stop-opacity="0.5"/>
<stop offset="1" stop-color="#00F0FF"/>
</linearGradient>
<linearGradient id="paint37_linear_1020_247" x1="998.008" y1="1400.51" x2="1445.26" y2="235.385" gradientUnits="userSpaceOnUse">
<stop stop-color="#FF00F7" stop-opacity="0.5"/>
<stop offset="1" stop-color="#00F0FF"/>
</linearGradient>
<linearGradient id="paint38_linear_1020_247" x1="976.869" y1="1401.3" x2="1443.47" y2="246.421" gradientUnits="userSpaceOnUse">
<stop stop-color="#FF00F7" stop-opacity="0.5"/>
<stop offset="1" stop-color="#00F0FF"/>
</linearGradient>
<linearGradient id="paint39_linear_1020_247" x1="955.84" y1="1401.92" x2="1441.57" y2="257.614" gradientUnits="userSpaceOnUse">
<stop stop-color="#FF00F7" stop-opacity="0.5"/>
<stop offset="1" stop-color="#00F0FF"/>
</linearGradient>
<linearGradient id="paint40_linear_1020_247" x1="934.919" y1="1402.4" x2="1439.55" y2="268.975" gradientUnits="userSpaceOnUse">
<stop stop-color="#FF00F7" stop-opacity="0.5"/>
<stop offset="1" stop-color="#00F0FF"/>
</linearGradient>
<linearGradient id="paint41_linear_1020_247" x1="914.112" y1="1402.73" x2="1437.42" y2="280.492" gradientUnits="userSpaceOnUse">
<stop stop-color="#FF00F7" stop-opacity="0.5"/>
<stop offset="1" stop-color="#00F0FF"/>
</linearGradient>
<linearGradient id="paint42_linear_1020_247" x1="893.421" y1="1402.9" x2="1435.16" y2="292.162" gradientUnits="userSpaceOnUse">
<stop stop-color="#FF00F7" stop-opacity="0.5"/>
<stop offset="1" stop-color="#00F0FF"/>
</linearGradient>
<linearGradient id="paint43_linear_1020_247" x1="872.85" y1="1402.92" x2="1432.78" y2="303.987" gradientUnits="userSpaceOnUse">
<stop stop-color="#FF00F7" stop-opacity="0.5"/>
<stop offset="1" stop-color="#00F0FF"/>
</linearGradient>
<linearGradient id="paint44_linear_1020_247" x1="852.396" y1="1402.8" x2="1430.28" y2="315.964" gradientUnits="userSpaceOnUse">
<stop stop-color="#FF00F7" stop-opacity="0.5"/>
<stop offset="1" stop-color="#00F0FF"/>
</linearGradient>
<linearGradient id="paint45_linear_1020_247" x1="832.067" y1="1402.54" x2="1427.65" y2="328.087" gradientUnits="userSpaceOnUse">
<stop stop-color="#FF00F7" stop-opacity="0.5"/>
<stop offset="1" stop-color="#00F0FF"/>
</linearGradient>
<linearGradient id="paint46_linear_1020_247" x1="811.861" y1="1402.13" x2="1424.88" y2="340.352" gradientUnits="userSpaceOnUse">
<stop stop-color="#FF00F7" stop-opacity="0.5"/>
<stop offset="1" stop-color="#00F0FF"/>
</linearGradient>
<linearGradient id="paint47_linear_1020_247" x1="791.783" y1="1401.59" x2="1421.98" y2="352.762" gradientUnits="userSpaceOnUse">
<stop stop-color="#FF00F7" stop-opacity="0.5"/>
<stop offset="1" stop-color="#00F0FF"/>
</linearGradient>
<linearGradient id="paint48_linear_1020_247" x1="771.835" y1="1400.91" x2="1418.95" y2="365.31" gradientUnits="userSpaceOnUse">
<stop stop-color="#FF00F7" stop-opacity="0.5"/>
<stop offset="1" stop-color="#00F0FF"/>
</linearGradient>
<linearGradient id="paint49_linear_1020_247" x1="752.02" y1="1400.1" x2="1415.78" y2="378" gradientUnits="userSpaceOnUse">
<stop stop-color="#FF00F7" stop-opacity="0.5"/>
<stop offset="1" stop-color="#00F0FF"/>
</linearGradient>
<linearGradient id="paint50_linear_1020_247" x1="732.335" y1="1399.15" x2="1412.46" y2="390.823" gradientUnits="userSpaceOnUse">
<stop stop-color="#FF00F7" stop-opacity="0.5"/>
<stop offset="1" stop-color="#00F0FF"/>
</linearGradient>
<linearGradient id="paint51_linear_1020_247" x1="712.79" y1="1398.08" x2="1409.01" y2="403.776" gradientUnits="userSpaceOnUse">
<stop stop-color="#FF00F7" stop-opacity="0.5"/>
<stop offset="1" stop-color="#00F0FF"/>
</linearGradient>
<linearGradient id="paint52_linear_1020_247" x1="693.381" y1="1396.89" x2="1405.41" y2="416.859" gradientUnits="userSpaceOnUse">
<stop stop-color="#FF00F7" stop-opacity="0.5"/>
<stop offset="1" stop-color="#00F0FF"/>
</linearGradient>
<linearGradient id="paint53_linear_1020_247" x1="674.112" y1="1395.57" x2="1401.67" y2="430.068" gradientUnits="userSpaceOnUse">
<stop stop-color="#FF00F7" stop-opacity="0.5"/>
<stop offset="1" stop-color="#00F0FF"/>
</linearGradient>
<linearGradient id="paint54_linear_1020_247" x1="654.984" y1="1394.13" x2="1397.78" y2="443.398" gradientUnits="userSpaceOnUse">
<stop stop-color="#FF00F7" stop-opacity="0.5"/>
<stop offset="1" stop-color="#00F0FF"/>
</linearGradient>
<linearGradient id="paint55_linear_1020_247" x1="636" y1="1392.58" x2="1393.74" y2="456.852" gradientUnits="userSpaceOnUse">
<stop stop-color="#FF00F7" stop-opacity="0.5"/>
<stop offset="1" stop-color="#00F0FF"/>
</linearGradient>
<linearGradient id="paint56_linear_1020_247" x1="617.161" y1="1390.91" x2="1389.54" y2="470.42" gradientUnits="userSpaceOnUse">
<stop stop-color="#FF00F7" stop-opacity="0.5"/>
<stop offset="1" stop-color="#00F0FF"/>
</linearGradient>
<linearGradient id="paint57_linear_1020_247" x1="598.471" y1="1389.13" x2="1385.2" y2="484.105" gradientUnits="userSpaceOnUse">
<stop stop-color="#FF00F7" stop-opacity="0.5"/>
<stop offset="1" stop-color="#00F0FF"/>
</linearGradient>
<linearGradient id="paint58_linear_1020_247" x1="579.927" y1="1387.24" x2="1380.69" y2="497.9" gradientUnits="userSpaceOnUse">
<stop stop-color="#FF00F7" stop-opacity="0.5"/>
<stop offset="1" stop-color="#00F0FF"/>
</linearGradient>
<linearGradient id="paint59_linear_1020_247" x1="561.534" y1="1385.25" x2="1376.04" y2="511.804" gradientUnits="userSpaceOnUse">
<stop stop-color="#FF00F7" stop-opacity="0.5"/>
<stop offset="1" stop-color="#00F0FF"/>
</linearGradient>
<linearGradient id="paint60_linear_1020_247" x1="543.295" y1="1383.15" x2="1371.22" y2="525.812" gradientUnits="userSpaceOnUse">
<stop stop-color="#FF00F7" stop-opacity="0.5"/>
<stop offset="1" stop-color="#00F0FF"/>
</linearGradient>
<linearGradient id="paint61_linear_1020_247" x1="525.207" y1="1380.96" x2="1366.24" y2="539.926" gradientUnits="userSpaceOnUse">
<stop stop-color="#FF00F7" stop-opacity="0.5"/>
<stop offset="1" stop-color="#00F0FF"/>
</linearGradient>
<linearGradient id="paint62_linear_1020_247" x1="507.275" y1="1378.67" x2="1361.1" y2="554.139" gradientUnits="userSpaceOnUse">
<stop stop-color="#FF00F7" stop-opacity="0.5"/>
<stop offset="1" stop-color="#00F0FF"/>
</linearGradient>
<linearGradient id="paint63_linear_1020_247" x1="489.499" y1="1376.28" x2="1355.8" y2="568.445" gradientUnits="userSpaceOnUse">
<stop stop-color="#FF00F7" stop-opacity="0.5"/>
<stop offset="1" stop-color="#00F0FF"/>
</linearGradient>
<linearGradient id="paint64_linear_1020_247" x1="471.881" y1="1373.81" x2="1350.33" y2="582.846" gradientUnits="userSpaceOnUse">
<stop stop-color="#FF00F7" stop-opacity="0.5"/>
<stop offset="1" stop-color="#00F0FF"/>
</linearGradient>
<linearGradient id="paint65_linear_1020_247" x1="454.422" y1="1371.24" x2="1344.7" y2="597.333" gradientUnits="userSpaceOnUse">
<stop stop-color="#FF00F7" stop-opacity="0.5"/>
<stop offset="1" stop-color="#00F0FF"/>
</linearGradient>
<linearGradient id="paint66_linear_1020_247" x1="437.121" y1="1368.59" x2="1338.9" y2="611.91" gradientUnits="userSpaceOnUse">
<stop stop-color="#FF00F7" stop-opacity="0.5"/>
<stop offset="1" stop-color="#00F0FF"/>
</linearGradient>
<linearGradient id="paint67_linear_1020_247" x1="419.984" y1="1365.86" x2="1332.94" y2="626.57" gradientUnits="userSpaceOnUse">
<stop stop-color="#FF00F7" stop-opacity="0.5"/>
<stop offset="1" stop-color="#00F0FF"/>
</linearGradient>
<linearGradient id="paint68_linear_1020_247" x1="403.008" y1="1363.05" x2="1326.8" y2="641.309" gradientUnits="userSpaceOnUse">
<stop stop-color="#FF00F7" stop-opacity="0.5"/>
<stop offset="1" stop-color="#00F0FF"/>
</linearGradient>
<linearGradient id="paint69_linear_1020_247" x1="386.196" y1="1360.17" x2="1320.49" y2="656.13" gradientUnits="userSpaceOnUse">
<stop stop-color="#FF00F7" stop-opacity="0.5"/>
<stop offset="1" stop-color="#00F0FF"/>
</linearGradient>
<linearGradient id="paint70_linear_1020_247" x1="369.55" y1="1357.21" x2="1314.01" y2="671.019" gradientUnits="userSpaceOnUse">
<stop stop-color="#FF00F7" stop-opacity="0.5"/>
<stop offset="1" stop-color="#00F0FF"/>
</linearGradient>
<linearGradient id="paint71_linear_1020_247" x1="353.067" y1="1354.19" x2="1307.36" y2="685.983" gradientUnits="userSpaceOnUse">
<stop stop-color="#FF00F7" stop-opacity="0.5"/>
<stop offset="1" stop-color="#00F0FF"/>
</linearGradient>
<linearGradient id="paint72_linear_1020_247" x1="336.753" y1="1351.09" x2="1300.54" y2="701.012" gradientUnits="userSpaceOnUse">
<stop stop-color="#FF00F7" stop-opacity="0.5"/>
<stop offset="1" stop-color="#00F0FF"/>
</linearGradient>
<linearGradient id="paint73_linear_1020_247" x1="320.604" y1="1347.94" x2="1293.54" y2="716.109" gradientUnits="userSpaceOnUse">
<stop stop-color="#FF00F7" stop-opacity="0.5"/>
<stop offset="1" stop-color="#00F0FF"/>
</linearGradient>
<linearGradient id="paint74_linear_1020_247" x1="304.623" y1="1344.72" x2="1286.37" y2="731.261" gradientUnits="userSpaceOnUse">
<stop stop-color="#FF00F7" stop-opacity="0.5"/>
<stop offset="1" stop-color="#00F0FF"/>
</linearGradient>
<linearGradient id="paint75_linear_1020_247" x1="288.812" y1="1341.45" x2="1279.02" y2="746.475" gradientUnits="userSpaceOnUse">
<stop stop-color="#FF00F7" stop-opacity="0.5"/>
<stop offset="1" stop-color="#00F0FF"/>
</linearGradient>
<linearGradient id="paint76_linear_1020_247" x1="273.169" y1="1338.13" x2="1271.49" y2="761.745" gradientUnits="userSpaceOnUse">
<stop stop-color="#FF00F7" stop-opacity="0.5"/>
<stop offset="1" stop-color="#00F0FF"/>
</linearGradient>
<linearGradient id="paint77_linear_1020_247" x1="257.697" y1="1334.75" x2="1263.79" y2="777.066" gradientUnits="userSpaceOnUse">
<stop stop-color="#FF00F7" stop-opacity="0.5"/>
<stop offset="1" stop-color="#00F0FF"/>
</linearGradient>
<linearGradient id="paint78_linear_1020_247" x1="242.394" y1="1331.33" x2="1255.91" y2="792.43" gradientUnits="userSpaceOnUse">
<stop stop-color="#FF00F7" stop-opacity="0.5"/>
<stop offset="1" stop-color="#00F0FF"/>
</linearGradient>
<linearGradient id="paint79_linear_1020_247" x1="227.264" y1="1327.86" x2="1247.86" y2="807.844" gradientUnits="userSpaceOnUse">
<stop stop-color="#FF00F7" stop-opacity="0.5"/>
<stop offset="1" stop-color="#00F0FF"/>
</linearGradient>
<linearGradient id="paint80_linear_1020_247" x1="212.303" y1="1324.35" x2="1239.62" y2="823.295" gradientUnits="userSpaceOnUse">
<stop stop-color="#FF00F7" stop-opacity="0.5"/>
<stop offset="1" stop-color="#00F0FF"/>
</linearGradient>
<linearGradient id="paint81_linear_1020_247" x1="197.515" y1="1320.81" x2="1231.21" y2="838.786" gradientUnits="userSpaceOnUse">
<stop stop-color="#FF00F7" stop-opacity="0.5"/>
<stop offset="1" stop-color="#00F0FF"/>
</linearGradient>
<linearGradient id="paint82_linear_1020_247" x1="182.899" y1="1317.22" x2="1222.62" y2="854.31" gradientUnits="userSpaceOnUse">
<stop stop-color="#FF00F7" stop-opacity="0.5"/>
<stop offset="1" stop-color="#00F0FF"/>
</linearGradient>
<linearGradient id="paint83_linear_1020_247" x1="168.456" y1="1313.61" x2="1213.85" y2="869.87" gradientUnits="userSpaceOnUse">
<stop stop-color="#FF00F7" stop-opacity="0.5"/>
<stop offset="1" stop-color="#00F0FF"/>
</linearGradient>
<linearGradient id="paint84_linear_1020_247" x1="154.184" y1="1309.97" x2="1204.9" y2="885.453" gradientUnits="userSpaceOnUse">
<stop stop-color="#FF00F7" stop-opacity="0.5"/>
<stop offset="1" stop-color="#00F0FF"/>
</linearGradient>
<linearGradient id="paint85_linear_1020_247" x1="140.084" y1="1306.3" x2="1195.76" y2="901.063" gradientUnits="userSpaceOnUse">
<stop stop-color="#FF00F7" stop-opacity="0.5"/>
<stop offset="1" stop-color="#00F0FF"/>
</linearGradient>
<linearGradient id="paint86_linear_1020_247" x1="126.159" y1="1302.61" x2="1186.46" y2="916.698" gradientUnits="userSpaceOnUse">
<stop stop-color="#FF00F7" stop-opacity="0.5"/>
<stop offset="1" stop-color="#00F0FF"/>
</linearGradient>
<linearGradient id="paint87_linear_1020_247" x1="112.404" y1="1298.91" x2="1176.97" y2="932.347" gradientUnits="userSpaceOnUse">
<stop stop-color="#FF00F7" stop-opacity="0.5"/>
<stop offset="1" stop-color="#00F0FF"/>
</linearGradient>
<linearGradient id="paint88_linear_1020_247" x1="98.8245" y1="1295.18" x2="1167.3" y2="948.013" gradientUnits="userSpaceOnUse">
<stop stop-color="#FF00F7" stop-opacity="0.5"/>
<stop offset="1" stop-color="#00F0FF"/>
</linearGradient>
<linearGradient id="paint89_linear_1020_247" x1="85.4171" y1="1291.45" x2="1157.45" y2="963.696" gradientUnits="userSpaceOnUse">
<stop stop-color="#FF00F7" stop-opacity="0.5"/>
<stop offset="1" stop-color="#00F0FF"/>
</linearGradient>
<linearGradient id="paint90_linear_1020_247" x1="72.1793" y1="1287.7" x2="1147.42" y2="979.379" gradientUnits="userSpaceOnUse">
<stop stop-color="#FF00F7" stop-opacity="0.5"/>
<stop offset="1" stop-color="#00F0FF"/>
</linearGradient>
<linearGradient id="paint91_linear_1020_247" x1="59.1167" y1="1283.95" x2="1137.22" y2="995.071" gradientUnits="userSpaceOnUse">
<stop stop-color="#FF00F7" stop-opacity="0.5"/>
<stop offset="1" stop-color="#00F0FF"/>
</linearGradient>
<linearGradient id="paint92_linear_1020_247" x1="46.2239" y1="1280.19" x2="1126.83" y2="1010.77" gradientUnits="userSpaceOnUse">
<stop stop-color="#FF00F7" stop-opacity="0.5"/>
<stop offset="1" stop-color="#00F0FF"/>
</linearGradient>
<linearGradient id="paint93_linear_1020_247" x1="33.5035" y1="1276.44" x2="1116.27" y2="1026.46" gradientUnits="userSpaceOnUse">
<stop stop-color="#FF00F7" stop-opacity="0.5"/>
<stop offset="1" stop-color="#00F0FF"/>
</linearGradient>
<linearGradient id="paint94_linear_1020_247" x1="20.9546" y1="1272.69" x2="1105.53" y2="1042.15" gradientUnits="userSpaceOnUse">
<stop stop-color="#FF00F7" stop-opacity="0.5"/>
<stop offset="1" stop-color="#00F0FF"/>
</linearGradient>
<linearGradient id="paint95_linear_1020_247" x1="8.57638" y1="1268.94" x2="1094.61" y2="1057.84" gradientUnits="userSpaceOnUse">
<stop stop-color="#FF00F7" stop-opacity="0.5"/>
<stop offset="1" stop-color="#00F0FF"/>
</linearGradient>
<linearGradient id="paint96_linear_1020_247" x1="-3.63169" y1="1265.2" x2="1083.52" y2="1073.5" gradientUnits="userSpaceOnUse">
<stop stop-color="#FF00F7" stop-opacity="0.5"/>
<stop offset="1" stop-color="#00F0FF"/>
</linearGradient>
<linearGradient id="paint97_linear_1020_247" x1="-15.6701" y1="1261.47" x2="1072.25" y2="1089.16" gradientUnits="userSpaceOnUse">
<stop stop-color="#FF00F7" stop-opacity="0.5"/>
<stop offset="1" stop-color="#00F0FF"/>
</linearGradient>
<linearGradient id="paint98_linear_1020_247" x1="-27.5395" y1="1257.76" x2="1060.8" y2="1104.8" gradientUnits="userSpaceOnUse">
<stop stop-color="#FF00F7" stop-opacity="0.5"/>
<stop offset="1" stop-color="#00F0FF"/>
</linearGradient>
<clipPath id="clip0_1020_247">
<rect width="1920" height="2000" fill="white"/>
</clipPath>
</defs>
</svg>
