<svg width="108" height="64" viewBox="0 0 108 64" fill="none" xmlns="http://www.w3.org/2000/svg">
<g filter="url(#filter0_i_1132_152)">
<rect width="107.195" height="63.24" rx="5" fill="url(#paint0_linear_1132_152)"/>
<path fill-rule="evenodd" clip-rule="evenodd" d="M20.7592 20.2895C19.1543 18.7237 20.2629 16 22.505 16H46.5186V19H23.7335L34.8324 29.8282C35.838 30.8093 35.838 32.426 34.8324 33.4071L23.7335 44.2353H46.5186V47.2353H22.505C20.2629 47.2353 19.1543 44.5116 20.7592 42.9458L32.3706 31.6176L20.7592 20.2895Z" fill="white"/>
<path fill-rule="evenodd" clip-rule="evenodd" d="M82.7079 16.8128C84.3284 15.1117 87.1953 16.2586 87.1953 18.6081L87.1953 47.24L84.0719 47.24L84.0719 19.9092L72.8197 31.7206C71.794 32.7973 70.0763 32.7973 69.0506 31.7206L57.7984 19.9092L57.7984 47.24L54.675 47.24L54.675 18.6081C54.675 16.2587 57.5418 15.1117 59.1624 16.8127L70.9351 29.1706L82.7079 16.8128Z" fill="white"/>
</g>
<defs>
<filter id="filter0_i_1132_152" x="0" y="0" width="107.195" height="63.24" filterUnits="userSpaceOnUse" color-interpolation-filters="sRGB">
<feFlood flood-opacity="0" result="BackgroundImageFix"/>
<feBlend mode="normal" in="SourceGraphic" in2="BackgroundImageFix" result="shape"/>
<feColorMatrix in="SourceAlpha" type="matrix" values="0 0 0 0 0 0 0 0 0 0 0 0 0 0 0 0 0 0 127 0" result="hardAlpha"/>
<feOffset dy="1"/>
<feComposite in2="hardAlpha" operator="arithmetic" k2="-1" k3="1"/>
<feColorMatrix type="matrix" values="0 0 0 0 1 0 0 0 0 1 0 0 0 0 1 0 0 0 0.35 0"/>
<feBlend mode="normal" in2="shape" result="effect1_innerShadow_1132_152"/>
</filter>
<linearGradient id="paint0_linear_1132_152" x1="32.661" y1="18.5093" x2="50.8494" y2="64.3308" gradientUnits="userSpaceOnUse">
<stop stop-color="#2D5EA8"/>
<stop offset="1" stop-color="#1F2C9E"/>
</linearGradient>
</defs>
</svg>
