<svg width="150" height="150" viewBox="0 0 150 150" fill="none" xmlns="http://www.w3.org/2000/svg">
<path d="M0 75C0 116.423 33.5802 150 75.0027 150C116.423 150 150 116.423 150 75C150 33.5774 116.423 2.62865e-05 75.0027 2.62865e-05C33.5802 2.62865e-05 0 33.5774 0 75Z" fill="url(#paint0_linear_1346_9260)"/>
<path d="M102.051 79.2949C99.9855 92.3627 88.6431 102.386 75.0047 102.386C66.1255 102.386 58.2229 98.1367 53.2168 91.5644H42.8125C48.8362 103.225 61.0016 111.218 75.0047 111.218C93.5229 111.218 108.829 97.248 110.963 79.2949H102.051Z" fill="white"/>
<path d="M75.0069 47.6155C84.6103 47.6155 93.0726 52.5886 97.9606 60.0935H108.003C102.308 47.5387 89.6657 38.7829 75.0069 38.7829C56.7438 38.7829 41.6023 52.3719 39.1445 69.9712H48.0923C50.4623 57.2655 61.6264 47.6155 75.0069 47.6155Z" fill="white"/>
<path d="M39.2393 69.3214L39.0445 70.095C38.8498 71.7051 38.74 73.34 38.74 74.9995C38.74 76.6426 38.847 78.2582 39.0363 79.8492H39.0445H126.857C124.402 106.308 102.088 127.092 75.0002 127.092C46.2752 127.092 22.9073 103.725 22.9073 74.9995C22.9073 46.2772 46.2752 22.9093 75.0002 22.9093C97.8332 22.9093 117.268 37.6833 124.284 58.1683H134.727C127.37 32.1012 103.388 12.9329 75.0002 12.9329C40.7754 12.9329 12.9336 40.7774 12.9336 74.9995C12.9336 109.224 40.7754 137.069 75.0002 137.069C109.222 137.069 137.067 109.224 137.067 74.9995C137.067 73.0849 136.965 71.1922 136.792 69.3214H39.2393Z" fill="white"/>
<defs>
<linearGradient id="paint0_linear_1346_9260" x1="75.0009" y1="150" x2="75.0009" y2="0.000699241" gradientUnits="userSpaceOnUse">
<stop stop-color="#337ABE"/>
<stop offset="1" stop-color="#3C4694"/>
</linearGradient>
</defs>
</svg>
