<svg width="817" height="876" viewBox="0 0 817 876" fill="none" xmlns="http://www.w3.org/2000/svg">
<g clip-path="url(#clip0_1328_54431)">
<path d="M80.3277 614.079H55.1225L50.3145 625.705H37.4414L61.6365 571.431H74.0444L98.319 625.705H85.1358L80.3277 614.079ZM76.3709 604.536L67.7648 583.757L59.1551 604.536H76.3709Z" fill="#404040"/>
<path d="M146.335 625.705L135.864 610.588H124.311V625.705H111.748V571.431H135.244C149.747 571.431 158.818 578.954 158.818 591.128C158.967 594.79 157.972 598.406 155.971 601.476C153.969 604.546 151.062 606.916 147.651 608.258L159.828 625.705L146.335 625.705ZM134.548 581.665H124.311V600.584H134.547C142.223 600.584 146.1 597.021 146.1 591.128C146.1 585.156 142.223 581.665 134.548 581.665Z" fill="#404040"/>
<path d="M213.192 597.713H224.669V619.733C218.259 624.28 210.581 626.695 202.721 626.635C185.661 626.635 173.098 614.929 173.098 598.571C173.098 582.206 185.661 570.5 202.956 570.5C207.2 570.301 211.435 571.039 215.362 572.661C219.288 574.282 222.81 576.748 225.676 579.884L217.611 587.327C215.85 585.356 213.685 583.789 211.263 582.732C208.841 581.675 206.219 581.154 203.576 581.204C201.269 581.152 198.975 581.561 196.827 582.406C194.68 583.25 192.722 584.514 191.069 586.124C189.416 587.733 188.099 589.656 187.197 591.78C186.295 593.903 185.825 596.185 185.815 598.493C185.805 600.8 186.254 603.086 187.137 605.218C188.02 607.349 189.319 609.284 190.958 610.908C192.597 612.532 194.544 613.813 196.683 614.677C198.823 615.541 201.114 615.97 203.421 615.939C206.824 616.01 210.188 615.208 213.192 613.61V597.713Z" fill="#404040"/>
<path d="M240.656 598.572C240.656 582.444 253.219 570.5 270.356 570.5C287.416 570.5 300.059 582.365 300.059 598.572C300.059 614.771 287.416 626.636 270.356 626.636C253.219 626.636 240.656 614.699 240.656 598.572ZM287.341 598.572C287.265 595.23 286.205 591.984 284.293 589.242C282.381 586.5 279.702 584.383 276.592 583.156C273.482 581.929 270.079 581.647 266.809 582.345C263.54 583.043 260.549 584.691 258.211 587.081C255.874 589.471 254.294 592.498 253.669 595.781C253.044 599.065 253.403 602.461 254.699 605.542C255.996 608.623 258.173 611.253 260.958 613.103C263.743 614.952 267.012 615.939 270.356 615.939C272.636 616.001 274.904 615.591 277.018 614.735C279.133 613.878 281.047 612.595 282.642 610.964C284.236 609.333 285.477 607.391 286.286 605.259C287.094 603.126 287.453 600.849 287.341 598.572Z" fill="#404040"/>
<path d="M392.896 571.431L374.519 625.705H370.331L353.501 577.014L336.595 625.705H332.408L313.951 571.431H318.139L334.659 620.281L351.64 571.431H355.442L372.347 620.354L389.018 571.431H392.896Z" fill="#808080"/>
<path d="M412.066 571.431H416.023V625.705H412.066V571.431Z" fill="#808080"/>
<path d="M480.394 625.705L467.445 607.566C465.698 607.813 463.936 607.941 462.172 607.948H446.662V625.705H442.705V571.431H462.172C475.82 571.431 484.04 578.254 484.04 589.729C484.225 593.596 483.056 597.406 480.735 600.505C478.414 603.604 475.086 605.797 471.322 606.707L484.892 625.705L480.394 625.705ZM462.172 604.464C473.804 604.464 480.008 599.033 480.008 589.729C480.008 580.345 473.804 575.001 462.172 575.001H446.662V604.464H462.172Z" fill="#808080"/>
<path d="M543.763 622.142V625.705H506.305V571.431H542.597V575.001H510.261V596.401H539.185V599.884H510.261V622.142L543.763 622.142Z" fill="#808080"/>
<path d="M565.953 571.431H569.906V622.142H601.16V625.705H565.953V571.431Z" fill="#808080"/>
<path d="M656.538 622.142V625.705H619.084V571.431H655.377V575.001H623.037V596.401H651.965V599.884H623.037V622.142L656.538 622.142Z" fill="#808080"/>
<path d="M673.223 618.731L675.004 615.781C679.878 620.271 686.293 622.714 692.92 622.604C703.777 622.604 708.585 617.872 708.585 611.98C708.585 595.701 674.694 605.467 674.694 585.466C674.694 577.792 680.588 571.041 693.926 571.041C699.748 570.997 705.449 572.701 710.291 575.931L708.816 579.105C704.414 576.142 699.233 574.55 693.926 574.532C683.38 574.532 678.651 579.415 678.651 585.387C678.651 601.673 712.538 592.059 712.538 611.749C712.538 619.423 706.414 626.095 692.996 626.095C685.693 626.331 678.591 623.686 673.223 618.731Z" fill="#808080"/>
<path d="M728.215 618.731L729.997 615.781C734.87 620.271 741.286 622.714 747.912 622.604C758.769 622.604 763.577 617.872 763.577 611.98C763.577 595.701 729.686 605.467 729.686 585.466C729.686 577.792 735.58 571.041 748.919 571.041C754.74 570.997 760.441 572.701 765.283 575.931L763.808 579.105C759.407 576.142 754.225 574.55 748.919 574.532C738.372 574.532 733.643 579.415 733.643 585.387C733.643 601.673 767.53 592.059 767.53 611.749C767.53 619.423 761.406 626.095 747.988 626.095C740.685 626.331 733.583 623.686 728.215 618.731Z" fill="#808080"/>
<path d="M408.5 491.883C544.355 491.883 654.487 381.772 654.487 245.942C654.487 110.112 544.355 0 408.5 0C272.646 0 162.514 110.112 162.514 245.942C162.514 381.772 272.646 491.883 408.5 491.883Z" fill="url(#paint0_linear_1328_54431)"/>
<g opacity="0.75">
<mask id="mask0_1328_54431" style="mask-type:luminance" maskUnits="userSpaceOnUse" x="189" y="26" width="439" height="439">
<path d="M408.5 464.914C529.457 464.914 627.512 366.876 627.512 245.942C627.512 125.007 529.457 26.9695 408.5 26.9695C287.543 26.9695 189.488 125.007 189.488 245.942C189.488 366.876 287.543 464.914 408.5 464.914Z" fill="white"/>
</mask>
<g mask="url(#mask0_1328_54431)">
<path d="M408.5 876C634.108 876 817 742.833 817 578.564C817 414.295 634.108 281.128 408.5 281.128C182.892 281.128 0 414.295 0 578.564C0 742.833 182.892 876 408.5 876Z" fill="#00AEEF"/>
<path d="M408.499 831.701C600.506 831.701 756.159 718.368 756.159 578.564C756.159 438.76 600.506 325.427 408.499 325.427C216.492 325.427 60.8398 438.76 60.8398 578.564C60.8398 718.368 216.492 831.701 408.499 831.701Z" fill="url(#paint1_linear_1328_54431)"/>
<path d="M408.5 789.512C568.505 789.512 698.216 695.067 698.216 578.564C698.216 462.061 568.505 367.616 408.5 367.616C248.494 367.616 118.783 462.061 118.783 578.564C118.783 695.067 248.494 789.512 408.5 789.512Z" fill="#2E3192"/>
<path d="M408.5 747.322C536.504 747.322 640.273 671.766 640.273 578.564C640.273 485.361 536.504 409.806 408.5 409.806C280.495 409.806 176.727 485.361 176.727 578.564C176.727 671.766 280.495 747.322 408.5 747.322Z" fill="#231F20"/>
</g>
</g>
<mask id="mask1_1328_54431" style="mask-type:luminance" maskUnits="userSpaceOnUse" x="113" y="-30" width="591" height="394">
<path d="M411.002 281.128C518.167 281.128 615.674 311.189 688.539 360.342C703.519 315.798 707.653 268.324 700.598 221.862C693.543 175.4 675.503 131.291 647.975 93.1992C620.448 55.1074 584.227 24.1318 542.323 2.84506C500.418 -18.4417 454.039 -29.4252 407.037 -29.1932C360.034 -28.9612 313.765 -17.5204 272.073 4.17888C230.381 25.8782 194.468 57.2098 167.318 95.5715C140.168 133.933 122.564 178.218 115.968 224.747C109.373 271.277 113.975 318.708 129.394 363.102C202.677 312.308 301.838 281.128 411.002 281.128Z" fill="white"/>
</mask>
<g mask="url(#mask1_1328_54431)">
<path d="M295.523 195.79L241.497 326.539H210.189L280.735 164.248H312.04L369.467 298.069H337.01L295.523 195.79Z" fill="white"/>
<path d="M499.792 298.069L465.932 202.673L431.347 298.069H392.204L336.729 164.248H377.555L412.856 265.187L447.92 164.248H485.143L520.686 265.187L555.746 164.248H594.652L538.935 298.069H499.792Z" fill="white"/>
</g>
<path d="M190.694 230.348C196.543 174.893 223.334 123.759 265.602 87.3778C307.869 50.9969 362.428 32.1112 418.146 34.5738C473.865 37.0364 526.544 60.6618 565.435 100.63C604.327 140.598 626.501 193.896 627.433 249.651C627.973 220.564 622.71 191.661 611.951 164.631C601.192 137.601 585.153 112.986 564.771 92.2236C544.389 71.4616 520.072 54.9693 493.242 43.7103C466.412 32.4513 437.607 26.6515 408.51 26.6497C379.413 26.6478 350.607 32.4441 323.775 43.6997C296.944 54.9553 272.625 71.4446 252.241 92.204C231.856 112.963 215.813 137.577 205.051 164.605C194.289 191.634 189.022 220.537 189.559 249.624C189.674 243.24 190.011 236.817 190.694 230.348Z" fill="#005CB5"/>
</g>
<defs>
<linearGradient id="paint0_linear_1328_54431" x1="408.5" y1="491.883" x2="408.5" y2="0" gradientUnits="userSpaceOnUse">
<stop offset="0.25" stop-color="#27AAE1"/>
<stop offset="1" stop-color="#262262"/>
</linearGradient>
<linearGradient id="paint1_linear_1328_54431" x1="60.8398" y1="578.564" x2="756.159" y2="578.564" gradientUnits="userSpaceOnUse">
<stop stop-color="#00AEEF"/>
<stop offset="1" stop-color="#262262"/>
</linearGradient>
<clipPath id="clip0_1328_54431">
<rect width="817" height="876" fill="white"/>
</clipPath>
</defs>
</svg>
