<svg width="73" height="73" viewBox="0 0 73 73" fill="none" xmlns="http://www.w3.org/2000/svg">
<path d="M0 36.4561C0 56.5908 16.3227 72.9121 36.4573 72.9121C56.5907 72.9121 72.912 56.5908 72.912 36.4561C72.912 16.3214 56.5907 0.00012207 36.4573 0.00012207C16.3227 0.00012207 0 16.3214 0 36.4561Z" fill="url(#paint0_linear_1346_9260)"/>
<path d="M49.6052 38.5437C48.6012 44.8957 43.0879 49.7677 36.4585 49.7677C32.1425 49.7677 28.3012 47.7024 25.8679 44.5077H20.8105C23.7385 50.1757 29.6519 54.061 36.4585 54.061C45.4599 54.061 52.8999 47.2704 53.9372 38.5437H49.6052Z" fill="white"/>
<path d="M36.4593 23.1451C41.1273 23.1451 45.2407 25.5624 47.6167 29.2104H52.498C49.73 23.1077 43.5847 18.8517 36.4593 18.8517C27.582 18.8517 20.222 25.4571 19.0273 34.0117H23.3767C24.5287 27.8357 29.9553 23.1451 36.4593 23.1451Z" fill="white"/>
<path d="M19.0738 33.6958L18.9791 34.0718C18.8844 34.8545 18.8311 35.6491 18.8311 36.4558C18.8311 37.2545 18.8831 38.0398 18.9751 38.8131H18.9791H61.6631C60.4698 51.6745 49.6231 61.7771 36.4564 61.7771C22.4938 61.7771 11.1351 50.4185 11.1351 36.4558C11.1351 22.4945 22.4938 11.1358 36.4564 11.1358C47.5551 11.1358 57.0018 18.3171 60.4124 28.2745H65.4884C61.9124 15.6038 50.2551 6.28647 36.4564 6.28647C19.8204 6.28647 6.28711 19.8211 6.28711 36.4558C6.28711 53.0918 19.8204 66.6265 36.4564 66.6265C53.0911 66.6265 66.6258 53.0918 66.6258 36.4558C66.6258 35.5251 66.5764 34.6051 66.4924 33.6958H19.0738Z" fill="white"/>
<defs>
<linearGradient id="paint0_linear_1346_9260" x1="36.4564" y1="72.9121" x2="36.4564" y2="0.000447124" gradientUnits="userSpaceOnUse">
<stop stop-color="#337ABE"/>
<stop offset="1" stop-color="#3C4694"/>
</linearGradient>
</defs>
</svg>
