<svg width="730" height="573" viewBox="0 0 730 573" fill="none" xmlns="http://www.w3.org/2000/svg">
<g clip-path="url(#clip0_1328_54223)">
<path d="M0 503.722V473.137H23.4302V353.314H0V322.757H90.8221L130.538 428.756L170.492 322.757H263.057V353.314H239.626V473.137H263.057V503.722H171.937V473.137H193.799V353.314H189.518L133.425 503.722H113.88L57.146 353.314H52.8411V473.137H76.5405V503.722H0Z" fill="url(#paint0_linear_1328_54223)"/>
<path d="M272.004 503.722V473.137H294.654V353.314H272.004V322.757H359.476V353.314H340.465V393.009H389.798V353.314H371.448V322.757H458.259V353.314H435.609V473.137H458.259V503.722H371.448V473.137H389.798V423.705H340.465V473.137H359.476V503.722H272.004Z" fill="url(#paint1_linear_1328_54223)"/>
<path d="M466.947 503.722V473.137H490.377V353.314H466.947V322.757H557.762L597.49 428.756L637.455 322.757H730V353.314H706.57V473.137H730V503.722H638.885V473.137H660.762V353.314H656.457L600.365 503.722H580.844L524.093 353.314H519.796V473.137H543.496V503.722H466.947Z" fill="url(#paint2_linear_1328_54223)"/>
<path d="M0 573V550.111H1.5249L11.446 561.401L21.3789 550.111H22.9074V573H18.3291L18.3133 559.722L11.446 567.347L4.5783 559.722V573H0Z" fill="#1E4164"/>
<path d="M35.8416 569.706C34.212 568.106 33.0989 566.055 32.6456 563.817C32.1922 561.579 32.4194 559.257 33.2978 557.149C34.1763 555.041 35.6658 553.245 37.5746 551.99C39.4834 550.736 41.7241 550.081 44.0083 550.111C45.5229 550.093 47.0259 550.377 48.4303 550.944C49.8346 551.511 51.1124 552.352 52.1896 553.416C53.2667 554.48 54.1219 555.748 54.7056 557.145C55.2892 558.542 55.5898 560.041 55.5898 561.555C55.5898 563.069 55.2892 564.568 54.7056 565.965C54.1219 567.363 53.2667 568.63 52.1896 569.695C51.1124 570.759 49.8346 571.599 48.4303 572.167C47.0259 572.734 45.5229 573.017 44.0083 573C42.4943 573.037 40.9887 572.764 39.5843 572.197C38.1798 571.631 36.9062 570.783 35.8416 569.706ZM44.0201 568.725C44.9446 568.756 45.865 568.588 46.7191 568.233C47.5732 567.878 48.341 567.343 48.9707 566.666C50.1994 565.245 50.8755 563.43 50.8755 561.551C50.8755 559.673 50.1994 557.858 48.9707 556.436C48.3378 555.756 47.5655 555.219 46.7064 554.864C45.8472 554.509 44.9216 554.343 43.9925 554.378C43.0682 554.345 42.1477 554.511 41.2938 554.867C40.44 555.222 39.6731 555.757 39.0455 556.436C37.8168 557.858 37.1407 559.673 37.1407 561.551C37.1407 563.43 37.8168 565.245 39.0455 566.666C39.6785 567.346 40.4503 567.881 41.3087 568.236C42.167 568.592 43.0917 568.758 44.0201 568.725Z" fill="#1E4164"/>
<path d="M78.8896 563.016L84.6047 573H79.3532L73.8798 563.539H69.6896V573H65.1113V550.111H75.0957C80.4344 550.111 83.1051 552.309 83.1078 556.706C83.2572 558.085 82.9165 559.473 82.1453 560.627C81.3742 561.78 80.2217 562.626 78.8896 563.016ZM69.6896 559.263H76.1015C77.9394 559.24 78.8896 558.4 78.9375 556.745C78.8896 555.241 77.9593 554.465 76.1453 554.394H69.6896V559.263Z" fill="#1E4164"/>
<path d="M95.2854 569.706C93.6609 568.106 92.5517 566.057 92.0999 563.822C91.6481 561.587 91.8744 559.269 92.7497 557.163C93.625 555.058 95.1094 553.262 97.0127 552.005C98.916 550.749 101.151 550.089 103.432 550.111C106.517 550.043 109.516 551.131 111.84 553.159L108.787 556.508C107.268 555.295 105.376 554.646 103.432 554.671C102.524 554.624 101.616 554.768 100.766 555.092C99.9161 555.417 99.1436 555.915 98.4978 556.555C97.852 557.196 97.3471 557.964 97.0156 558.81C96.6841 559.657 96.5332 560.564 96.5726 561.472C96.532 562.403 96.6805 563.333 97.0093 564.205C97.3381 565.078 97.8403 565.874 98.4856 566.547C99.1456 567.179 99.9263 567.671 100.781 567.993C101.636 568.315 102.547 568.462 103.46 568.424C104.8 568.505 106.132 568.161 107.266 567.442V563.515L104.204 563.539V559.263H111.84V569.944C109.518 571.977 106.518 573.067 103.432 573C101.922 573.03 100.421 572.754 99.0212 572.188C97.6209 571.622 96.3501 570.777 95.2854 569.706Z" fill="#1E4164"/>
<path d="M121.496 573L130.653 550.111H135.231L144.376 572.984L139.504 573L138.134 569.485H127.754L126.375 573H121.496ZM133.069 556.215L129.583 564.908H136.455L133.069 556.215Z" fill="#1E4164"/>
<path d="M154.043 573V550.111H155.568L169.917 564.449V550.111H174.491V573H172.816L158.621 558.804V573H154.043Z" fill="#1E4164"/>
<path d="M202.43 573V550.11H207.008V559.263H217.677V550.095H222.256V572.984L217.677 573V563.538H207.008V573H202.43Z" fill="#1E4164"/>
<path d="M233.451 550.095H238.014V573H233.451V550.095Z" fill="#1E4164"/>
<path d="M253.484 550.111V568.725H265.699V573H248.91V550.111H253.484Z" fill="#1E4164"/>
<path d="M280.344 550.111V568.725H292.554V573H275.766V550.111H280.344Z" fill="#1E4164"/>
<path d="M319.51 573V550.111H321.039L330.956 561.401L340.889 550.111H342.421V573H337.839L337.823 559.722L330.956 567.347L324.088 559.722V573H319.51Z" fill="#1E4164"/>
<path d="M352.025 573L361.186 550.111H365.764L374.909 572.984L370.038 573L368.663 569.485H358.287L356.913 573H352.025ZM363.598 556.215L360.117 564.908H366.988L363.598 556.215Z" fill="#1E4164"/>
<path d="M398.355 563.016L404.078 573H398.826L393.341 563.539H389.159V573H384.576V550.111H394.565C399.9 550.111 402.569 552.309 402.573 556.706C402.723 558.085 402.383 559.474 401.611 560.627C400.84 561.781 399.687 562.627 398.355 563.016ZM389.159 559.263H395.571C397.404 559.24 398.355 558.4 398.406 556.745C398.355 555.241 397.424 554.465 395.611 554.394H389.159V559.263Z" fill="#1E4164"/>
<path d="M411.492 573L420.657 550.111H425.239L434.372 572.984L429.5 573L428.138 569.485H417.758L416.379 573H411.492ZM423.069 556.215L419.583 564.908H426.451L423.069 556.215Z" fill="#1E4164"/>
<path d="M462.725 550.111V554.378H455.089V573H450.507V554.378H442.879V550.111H462.725Z" fill="#1E4164"/>
<path d="M472.373 573V550.11H476.951V559.263H487.625V550.095H492.199V572.984L487.625 573V563.538H476.951V573H472.373Z" fill="#1E4164"/>
<path d="M505.527 569.706C503.557 567.81 502.309 565.288 501.997 562.573C501.685 559.858 502.327 557.119 503.814 554.825C505.302 552.532 507.541 550.827 510.148 550.003C512.755 549.18 515.568 549.289 518.104 550.311C520.64 551.334 522.74 553.207 524.045 555.608C525.351 558.01 525.78 560.791 525.258 563.474C524.736 566.156 523.297 568.574 521.187 570.313C519.077 572.051 516.428 573.001 513.693 573C512.179 573.037 510.673 572.764 509.269 572.198C507.864 571.631 506.591 570.784 505.527 569.706ZM513.709 568.724C514.632 568.756 515.552 568.588 516.404 568.233C517.257 567.878 518.024 567.343 518.652 566.666C519.883 565.246 520.561 563.43 520.561 561.551C520.561 559.672 519.883 557.856 518.652 556.436C518.001 555.784 517.228 555.266 516.377 554.913C515.525 554.56 514.613 554.378 513.691 554.378C512.769 554.378 511.857 554.56 511.005 554.913C510.154 555.266 509.381 555.784 508.73 556.436C507.497 557.855 506.818 559.672 506.818 561.551C506.818 563.431 507.497 565.247 508.73 566.666C509.364 567.346 510.137 567.882 510.996 568.237C511.855 568.592 512.78 568.758 513.709 568.724Z" fill="#1E4164"/>
<path d="M534.791 573V550.111H536.316L550.669 564.449V550.111H555.247V573H553.572L539.365 558.804V573H534.791Z" fill="#1E4164"/>
<path d="M587.894 563.879H582.512V560.229H587.894V555.194H591.621V560.229H596.987V563.879H591.621V568.93H587.894L587.894 563.879Z" fill="#C07537"/>
<path d="M624.686 573V550.11H629.264V559.263H639.926V550.095H644.508V572.984L639.926 573V563.538H629.264V573H624.686Z" fill="#1E4164"/>
<path d="M654.5 573L663.657 550.111H668.235L677.372 572.984L672.512 573L671.134 569.485H660.754L659.379 573H654.5ZM666.073 556.215L662.584 564.908H669.459L666.073 556.215Z" fill="#1E4164"/>
<path d="M691.67 550.111V568.725H703.884V573H687.088V550.111H691.67Z" fill="#1E4164"/>
<path d="M713.889 573V550.111H730V554.378H718.467V559.263H726.967V563.515H718.467V573H713.889Z" fill="#1E4164"/>
<path d="M281.465 1.02359e-07C206.816 0.000764499 135.225 29.642 82.4398 82.4032C29.6551 135.164 0.000648575 206.724 0 281.339H562.93C562.931 244.393 555.652 207.808 541.507 173.674C527.362 139.54 506.63 108.525 480.493 82.4001C454.356 56.2751 423.328 35.5519 389.178 21.4136C355.029 7.27537 318.428 -0.000996494 281.465 1.02359e-07Z" fill="#1E4164"/>
<path d="M730 281.497H542.828L659.796 203.462L730 281.497Z" fill="#FFD200"/>
<path d="M639.26 281.497H389.855L537.918 165.898L639.26 281.497Z" fill="#D29665"/>
<path d="M480.69 281.497H304.701L416.085 209.07L480.69 281.497Z" fill="#E5BE9E"/>
<path d="M407.168 281.497H303.643L368.339 238.336L407.168 281.497Z" fill="#D29665"/>
<path d="M356.987 281.497H219.043L300.938 217.563L356.987 281.497Z" fill="#C07537"/>
<path d="M269.282 281.497H171.951L233.545 241.434L269.282 281.497Z" fill="#FFD200"/>
<path d="M148.593 202.693C149.611 202.654 150.626 202.812 151.584 203.158C152.724 203.684 152.922 204.684 153.659 205.153C154.771 205.849 155.943 206.445 157.16 206.935C158.016 207.202 160.087 207.865 160.142 208.257C159.978 209.328 159.578 210.348 158.97 211.245C158.97 211.245 162.994 213.49 165.05 215.016C167.125 216.55 168.709 217.811 168.709 218.272C171.14 219.995 173.424 221.916 175.537 224.016C177.775 226.56 179.256 226.495 178.975 229.272C178.742 231.105 178.301 232.906 177.66 234.64C177.311 236.017 175.394 248.436 174.594 251.935C173.814 255.445 172.614 258.897 172.432 261.209C172.248 263.726 172.248 266.253 172.432 268.77C172.432 268.77 173.161 268.047 174.464 269.502C175.814 270.973 174.733 270.033 175.537 270.294C176.006 270.506 176.497 270.664 177.002 270.765C177.576 270.824 177.133 270.765 177.996 271.092C178.852 271.426 178.638 271.022 179.517 271.426C180.373 271.824 180.171 272.022 180.975 272.279C181.515 272.446 182.065 272.58 182.622 272.679C183.992 273.201 185.389 273.646 186.808 274.011C187.977 274.138 189.45 274.752 189.45 275.999C189.45 277.265 189.985 278.385 186.072 279.775C183.917 280.739 181.61 281.322 179.256 281.497C177.775 281.497 173.814 280.508 171.422 280.375C169.165 280.251 166.903 280.274 164.649 280.442C162.725 280.573 161.548 280.042 161.548 278.775C161.548 277.513 161.22 273.071 161.806 272.814C161.952 272.73 162.123 272.699 162.289 272.724C162.456 272.749 162.609 272.829 162.725 272.952C162.842 271.484 163.041 270.024 163.319 268.578C164.1 265.012 164.656 261.4 164.986 257.764C164.617 254.973 164.419 252.162 164.392 249.346C164.649 246.031 165.45 237.233 165.656 235.833C165.736 235.31 165.674 234.775 165.475 234.285C165.276 233.794 164.949 233.366 164.527 233.046C163.925 232.587 161.073 230.731 159.818 230.069C159.818 230.069 159.75 230.459 159.223 230.117C157.37 229.043 155.46 228.072 153.501 227.207C152.21 226.752 149.667 226.016 149.667 226.016C148.678 226.242 147.644 226.175 146.693 225.821C145.694 225.235 144.618 224.791 143.496 224.502C142.451 224.309 140.007 223.953 139.793 223.904C139.591 223.848 138.597 227.421 137.524 228.484C136.523 229.518 135.594 230.62 134.744 231.782C134.039 232.781 133.873 232.92 133.096 232.455C132.296 231.989 130.324 231.182 130.324 231.182C130.324 231.182 129.326 232.455 128.941 232.92C128.526 233.385 128.118 233.919 127.583 233.919C127.583 233.919 123.072 240.263 121.433 242.464C120.361 243.934 119.092 245.249 117.662 246.373C115.174 247.453 112.559 248.211 109.88 248.63C107.369 249.273 97.6933 252.737 95.9032 253.251C94.1168 253.79 86.6829 255.841 84.7622 256.573C81.8352 257.7 78.9809 259.007 76.2155 260.486C76.4997 260.663 76.722 260.924 76.8518 261.232C76.9816 261.54 77.0125 261.881 76.9403 262.208C76.7409 262.648 76.4075 263.013 75.9878 263.252C75.568 263.491 75.0835 263.591 74.6035 263.538C73.8191 263.538 72.8806 263.281 72.8806 263.881C72.8806 264.455 72.952 264.538 72.5716 264.871C72.1636 265.203 72.4333 265.795 71.8984 266.068C70.9823 266.655 70.2117 267.442 69.6451 268.37C69.3997 268.971 69.0644 269.532 68.6507 270.033C68.1815 270.595 67.8433 271.254 67.6608 271.963C67.447 272.679 68.3222 276.183 65.5223 277.265C62.7499 278.31 62.2149 271.159 62.2782 269.894C62.6244 267.212 63.4354 264.612 64.6746 262.208C65.5134 260.335 65.8961 258.29 65.7916 256.24C66.1359 254.637 66.2587 249.89 67.3241 249.54C68.6547 249.44 69.9928 249.533 71.2966 249.818C72.151 249.985 72.9936 250.208 73.8191 250.484C74.8886 250.674 76.2865 250.546 76.3344 251.203C76.3344 251.203 84.5047 247.496 86.6156 246.251C87.9821 245.453 89.4309 244.806 90.9368 244.321C91.2742 243.603 91.755 242.963 92.3496 242.439C92.9443 241.914 93.6401 241.518 94.3942 241.273C97.9902 239.678 101.804 238.627 105.709 238.155C107.034 237.812 108.276 237.201 109.357 236.362C111.564 233.666 113.495 230.756 115.119 227.674C115.999 225.554 117.595 222.645 117.595 222.645C117.037 221.902 116.435 221.194 115.793 220.523C115.013 219.727 114.264 219.137 114.537 218.88C114.795 218.593 115.329 217.48 116.197 217.411C117.052 217.33 117.785 217.673 117.907 216.954C117.899 216.523 118.006 216.097 118.218 215.722C118.429 215.346 118.738 215.034 119.112 214.818C120.3 213.971 120.569 213.621 120.569 212.976C120.569 212.295 120.771 212.166 120.3 211.438C120.111 211.031 120.042 210.579 120.101 210.135C120.16 209.691 120.344 209.273 120.632 208.93L121.163 208.191C121.012 207.103 121.104 205.994 121.433 204.945C121.82 203.194 122.488 201.516 123.409 199.977C124.019 199.179 127.516 195.534 128.454 194.673C129.389 193.807 129.524 193.55 130.102 193.342C130.712 193.144 130.244 192.554 130.455 192.03C130.657 191.49 131.231 191.822 131.437 191.234C131.635 190.631 130.771 190.225 131.104 189.645C131.437 189.037 132.249 189.387 132.363 188.323C132.51 187.259 132.51 185.642 132.574 184.334C132.645 183 132.704 180.89 132.645 179.9C132.574 178.893 132.364 172.474 132.443 170.815C132.375 169.044 132.442 167.271 132.645 165.51C129.639 166.425 126.542 167.004 123.409 167.238C123.409 167.238 121.567 170.752 121.096 172.013C120.638 173.312 120.389 174.675 120.359 176.052C120.359 177.181 120.961 182.212 120.894 184.073C120.834 185.92 121.702 189.971 120.692 191.693C119.902 193.561 119.265 195.489 118.787 197.459C118.434 198.612 117.712 199.616 116.731 200.317C115.95 200.426 115.155 200.352 114.407 200.102C113.936 200.044 113.469 199.958 113.008 199.844C113.008 199.844 112.276 201.244 111.349 201.095C110.422 200.971 110.498 199.977 111.012 199.122C111.012 199.122 109.694 199.122 109.424 198.388C109.163 197.651 109.622 197.394 109.622 197.394C109.622 197.394 108.949 196.992 108.949 196.464C108.949 195.933 109.622 195.468 109.622 195.468C109.622 195.468 108.838 195.332 108.838 194.617C108.838 193.871 110.03 192.554 110.422 192.03C110.822 191.49 111.218 191.822 111.417 192.491C111.481 192.666 111.502 192.853 111.478 193.038C111.454 193.222 111.385 193.398 111.278 193.55C111.75 193.571 112.215 193.428 112.593 193.144C113.214 192.677 113.008 191.559 113.931 190.708C114.87 189.837 115.405 189.5 115.603 188.78C115.569 187.158 115.297 185.55 114.795 184.008C113.814 178.586 113.112 173.118 112.692 167.624C112.529 163.909 112.141 163.333 113.999 162.27C115.844 161.207 121.096 157.882 124.336 156.431C127.486 155.121 130.878 154.493 134.288 154.59C135.448 154.111 136.488 153.385 137.338 152.463C138.055 151.328 138.795 151.199 139.928 150.202C141.029 149.206 142.039 148.741 142.451 148.088C142.714 147.653 143.052 147.268 143.449 146.95C143.841 146.558 143.841 145.63 145.833 146.746L146.491 145.97C146.182 145.798 145.909 145.568 145.687 145.293C145.497 144.97 145.766 144.109 145.619 143.45C145.463 142.758 145.222 142.088 144.902 141.455C144.645 140.913 144.035 139.594 143.639 138.943C143.239 138.275 143.168 136.691 142.902 136.483C142.637 136.281 142.637 135.43 142.637 135.43C142.891 135.183 143.162 134.955 143.449 134.747C143.188 134.657 142.913 134.616 142.637 134.627C142.651 134.132 142.741 133.642 142.902 133.174C142.96 132.932 142.948 132.678 142.868 132.443C142.788 132.207 142.644 131.999 142.451 131.841C142.761 131.377 143.2 131.012 143.714 130.793C144.419 130.519 143.714 129.866 143.714 129.866C143.714 129.866 144.249 128.797 144.902 128.595C145.556 128.407 144.645 127.938 145.049 127.081C145.437 126.22 146.213 126.487 146.419 126.078C146.654 125.703 146.949 125.369 147.291 125.088C147.994 124.598 148.813 124.301 149.667 124.225C149.612 124.094 149.521 123.982 149.404 123.902C149.288 123.821 149.151 123.775 149.01 123.769C149.716 123.32 150.565 123.151 151.39 123.296C152.417 123.337 153.437 123.472 154.439 123.7C155.778 123.964 155.921 123.425 157.113 124.478C158.301 125.543 157.437 125.543 158.816 126.284C160.221 127.002 160.344 127.145 160.744 127.938C161.145 128.724 160.812 128.867 160.812 128.867C161.16 128.952 161.488 129.109 161.774 129.326C162.06 129.543 162.299 129.816 162.475 130.129C163.028 131.759 163.383 133.449 163.532 135.163C163.532 135.964 162.804 136.022 163.398 136.691C164.241 137.669 164.851 138.824 165.184 140.072C165.319 140.847 165.05 141.194 163.734 141.115C162.4 141.065 162.804 142.12 162.804 142.653C162.804 143.183 162.935 143.781 162.4 143.971C161.893 144.167 161.616 144.302 161.746 144.634C161.893 144.97 162.673 144.971 162.214 145.703C161.746 146.433 161.616 146.237 161.746 146.95C161.893 147.676 162.804 148.741 161.548 149.351C160.277 149.948 158.883 149.533 158.091 150.067C157.008 150.806 156.024 151.679 155.16 152.664C155.387 152.691 155.6 152.788 155.769 152.942C155.938 153.096 156.055 153.298 156.103 153.521C156.88 155.826 157.196 158.26 157.033 160.687C156.68 161.996 156.846 163.392 157.497 164.582C157.999 166.672 158.022 168.849 157.564 170.95C158.288 171.009 159.015 170.897 159.687 170.623C161.247 169.956 162.599 168.882 163.6 167.512C164.541 166.29 165.61 165.172 166.788 164.176C166.946 163.127 167.35 162.13 167.968 161.266C168.832 160.275 169.768 159.349 170.768 158.495C170.907 158.318 171.094 158.183 171.306 158.106C171.518 158.029 171.747 158.013 171.968 158.061C172.188 158.108 172.391 158.216 172.553 158.373C172.715 158.531 172.83 158.73 172.883 158.949C172.883 158.949 173.945 158.678 174.068 159.667C174.068 159.667 175.192 160.018 175.264 161.007L175.537 162.27C175.537 162.27 176.341 162.122 176.4 163.244C176.464 164.394 175.869 165.253 175.192 165.253C174.543 165.253 173.873 165.253 173.608 165.51C172.833 166.169 171.961 166.704 171.022 167.096C169.965 167.512 169.362 168.159 168.095 170.223C166.178 173.367 163.987 176.335 161.548 179.095C159.279 181.411 158.091 182.939 156.705 183C155.017 182.787 153.464 181.967 152.336 180.694C152.361 181.444 152.318 182.196 152.21 182.939C152.021 183.445 151.929 183.983 151.94 184.524C151.958 185.174 151.746 185.81 151.342 186.319C150.871 187.024 150.655 187.87 150.732 188.714C150.783 189.122 150.751 189.536 150.638 189.931C150.526 190.327 150.336 190.696 150.079 191.016C149.485 191.693 149.726 192.828 149.726 193.871C149.594 195.034 149.14 196.138 148.415 197.057C147.94 197.588 148.514 199.516 148.514 199.844C148.876 200.755 148.904 201.764 148.593 202.693Z" fill="#FFDD00"/>
</g>
<defs>
<linearGradient id="paint0_linear_1328_54223" x1="131.528" y1="321.644" x2="131.528" y2="505.91" gradientUnits="userSpaceOnUse">
<stop offset="0.45" stop-color="#B15C12" stop-opacity="0.75"/>
<stop offset="0.46" stop-color="#B15C12"/>
</linearGradient>
<linearGradient id="paint1_linear_1328_54223" x1="365.131" y1="321.644" x2="365.131" y2="505.91" gradientUnits="userSpaceOnUse">
<stop offset="0.45" stop-color="#B15C12" stop-opacity="0.75"/>
<stop offset="0.46" stop-color="#B15C12"/>
</linearGradient>
<linearGradient id="paint2_linear_1328_54223" x1="598.474" y1="321.644" x2="598.474" y2="505.91" gradientUnits="userSpaceOnUse">
<stop offset="0.45" stop-color="#B15C12" stop-opacity="0.75"/>
<stop offset="0.46" stop-color="#B15C12"/>
</linearGradient>
<clipPath id="clip0_1328_54223">
<rect width="730" height="573" fill="white"/>
</clipPath>
</defs>
</svg>
