<svg width="1059" height="1062" viewBox="0 0 1059 1062" fill="none" xmlns="http://www.w3.org/2000/svg">
<path d="M738.935 773.548C818.262 718.036 872.274 633.305 889.092 537.994C905.909 442.684 884.153 344.6 828.61 265.32L230.393 683.941C257.896 723.196 292.867 756.652 333.309 782.4C373.751 808.148 418.871 825.683 466.094 834.003C513.316 842.324 561.717 841.268 608.531 830.895C655.345 820.522 699.656 801.035 738.935 773.548Z" fill="#1E4164"/>
<path d="M320.062 175.698C240.733 231.213 186.72 315.947 169.904 411.26C153.088 506.574 174.847 604.66 230.393 683.94L828.611 265.32C801.108 226.063 766.137 192.605 725.696 166.855C685.254 141.105 640.133 123.568 592.91 115.246C545.686 106.924 497.285 107.979 450.469 118.351C403.654 128.724 359.341 148.21 320.062 175.698Z" fill="#3F5372"/>
<path d="M233.762 575.599V542.92H235.941L250.111 559.043L264.302 542.92H266.481V575.599H259.941L259.92 556.644L250.111 567.537L240.301 556.644V575.599H233.762Z" fill="white"/>
<path d="M284.67 575.599L297.749 542.92H304.289L317.346 575.576L310.392 575.599L308.431 570.59H293.607L291.645 575.599H284.67ZM301.193 551.635L296.224 564.053H306.032L301.193 551.635Z" fill="white"/>
<path d="M355.308 561.35L363.461 575.599H355.962L348.136 562.093H342.163V575.599H335.623V542.92H349.88C357.509 542.92 361.324 546.057 361.324 552.331C361.539 554.301 361.054 556.284 359.954 557.932C358.855 559.581 357.21 560.791 355.308 561.35ZM342.163 555.991H351.318C353.95 555.948 355.301 554.75 355.373 552.397C355.3 550.249 353.97 549.13 351.384 549.041H342.163L342.163 555.991Z" fill="white"/>
<path d="M378.529 575.599L391.609 542.92H398.148L411.206 575.576L404.252 575.599L402.29 570.59H387.466L385.505 575.599H378.529ZM395.052 551.635L390.083 564.053H399.892L395.052 551.635Z" fill="white"/>
<path d="M456.166 542.92V549.021H445.266V575.599H438.726V549.021H427.828V542.92H456.166Z" fill="white"/>
<path d="M474.418 575.599V542.92H480.958V555.991H496.194V542.9H502.734V575.576L496.194 575.599V562.093H480.958V575.599L474.418 575.599Z" fill="white"/>
<path d="M526.222 570.903C523.402 568.195 521.614 564.59 521.163 560.708C520.712 556.826 521.628 552.908 523.752 549.626C525.877 546.345 529.078 543.905 532.806 542.724C536.534 541.544 540.557 541.697 544.184 543.158C547.812 544.619 550.818 547.295 552.686 550.729C554.554 554.162 555.168 558.139 554.423 561.975C553.678 565.812 551.62 569.27 548.602 571.756C545.585 574.242 541.795 575.601 537.884 575.599C535.723 575.654 533.573 575.265 531.567 574.458C529.561 573.65 527.742 572.44 526.222 570.903ZM537.907 569.501C539.227 569.545 540.541 569.306 541.76 568.798C542.978 568.29 544.074 567.526 544.97 566.557C546.727 564.531 547.695 561.94 547.695 559.259C547.695 556.578 546.727 553.987 544.97 551.961C544.041 551.029 542.937 550.29 541.721 549.785C540.505 549.281 539.202 549.021 537.885 549.021C536.569 549.021 535.265 549.281 534.049 549.785C532.834 550.29 531.729 551.029 530.8 551.961C529.043 553.987 528.076 556.578 528.076 559.259C528.076 561.94 529.043 564.531 530.8 566.557C531.704 567.529 532.806 568.295 534.033 568.803C535.259 569.311 536.581 569.549 537.907 569.501Z" fill="white"/>
<path d="M572.486 575.599V542.92H574.666L595.158 563.399V542.92H601.696V575.599H599.298L579.028 555.337V575.599H572.486Z" fill="white"/>
<path d="M628.605 562.594H620.932V557.364H628.605V550.176H633.925V557.364H641.599V562.594H633.925V569.782H628.605V562.594Z" fill="#FFD200"/>
<path d="M661.422 575.599V542.92H667.963V555.991H683.199V542.9H689.74V575.576L683.199 575.599V562.093H667.963V575.599L661.422 575.599Z" fill="white"/>
<path d="M708.471 575.599L721.55 542.92H728.091L741.147 575.576L734.193 575.599L732.232 570.59H717.409L715.448 575.599H708.471ZM724.997 551.635L720.024 564.053H729.834L724.997 551.635Z" fill="white"/>
<path d="M766.028 542.92V569.501H783.469V575.599H759.49V542.919L766.028 542.92Z" fill="white"/>
<path d="M802.221 575.599V542.92H825.219V549.021H808.762V555.991H820.903V562.069H808.762V575.599H802.221Z" fill="white"/>
<path d="M239.164 498.869V492.315H244.187V466.626H239.164V460.073H258.634L267.15 482.798L275.718 460.073H295.562V466.626H290.54V492.315H295.562V498.869H276.027V492.315H280.716V466.626H279.795L267.768 498.869H263.582L251.414 466.626H250.493V492.315H255.571V498.869H239.164Z" fill="#FFD200"/>
<path d="M335.831 459.459C338.723 459.3 341.616 459.732 344.335 460.73C347.053 461.727 349.54 463.269 351.641 465.26C355.338 469.044 357.406 474.123 357.403 479.411C357.4 484.699 355.327 489.776 351.626 493.556C349.524 495.541 347.04 497.078 344.324 498.073C341.609 499.068 338.719 499.5 335.831 499.344C332.896 499.534 329.954 499.102 327.198 498.076C324.443 497.049 321.935 495.451 319.841 493.387C316.21 489.643 314.203 484.617 314.259 479.402C314.21 476.782 314.692 474.179 315.678 471.75C316.664 469.322 318.133 467.118 319.995 465.273C322.097 463.274 324.586 461.726 327.31 460.726C330.034 459.726 332.934 459.295 335.831 459.459ZM335.831 466.542C334.402 466.524 332.985 466.813 331.678 467.391C330.37 467.968 329.203 468.821 328.255 469.89C326 472.645 324.887 476.159 325.143 479.709C324.975 483.036 326.072 486.303 328.213 488.856C329.152 489.954 330.322 490.83 331.639 491.422C332.955 492.015 334.387 492.31 335.831 492.285C337.264 492.303 338.683 492.012 339.993 491.432C341.303 490.852 342.473 489.998 343.422 488.926C345.429 486.195 346.523 482.902 346.548 479.514C346.573 476.126 345.528 472.816 343.561 470.057C342.625 468.921 341.443 468.015 340.103 467.406C338.763 466.797 337.302 466.501 335.831 466.542Z" fill="#FFD200"/>
<path d="M416.317 492.315V498.869H404.491L395.726 481.884H391.285V492.315H396.141V498.869H375.852V492.315H381.183V466.626H375.852V460.072H399.266C401.001 459.907 402.751 460.119 404.397 460.694C406.042 461.27 407.543 462.195 408.796 463.406C410.679 465.467 411.72 468.158 411.713 470.949C411.743 473.059 411.11 475.125 409.903 476.856C408.696 478.587 406.977 479.897 404.987 480.6L411.293 492.315L416.317 492.315ZM391.285 475.691H394.745C399.023 475.691 401.162 474.166 401.163 471.116C401.209 470.477 401.1 469.837 400.845 469.249C400.59 468.662 400.196 468.145 399.698 467.742C398.514 466.938 397.097 466.546 395.667 466.626H391.285L391.285 475.691Z" fill="#FFD200"/>
<path d="M457.897 485.844V479.29H476.091C476.287 483.182 475.404 487.052 473.538 490.473C471.742 493.309 469.164 495.565 466.115 496.971C462.703 498.589 458.965 499.401 455.189 499.344C452.257 499.54 449.316 499.142 446.541 498.173C443.767 497.205 441.218 495.686 439.046 493.708C437.183 491.831 435.723 489.595 434.757 487.135C433.79 484.675 433.336 482.044 433.423 479.402C433.348 475.665 434.314 471.98 436.213 468.76C437.987 465.762 440.595 463.344 443.72 461.802C446.903 460.231 450.411 459.428 453.961 459.459C458.345 459.19 462.675 460.54 466.128 463.252V460.073H472.714V473.85H466.128C465.48 471.578 464.02 469.623 462.026 468.356C460.079 467.047 457.786 466.348 455.44 466.348C453.969 466.324 452.509 466.603 451.151 467.166C449.793 467.73 448.565 468.567 447.543 469.624C446.414 470.84 445.543 472.271 444.982 473.832C444.421 475.392 444.181 477.05 444.278 478.706C444.018 482.38 445.21 486.008 447.598 488.814C448.625 489.93 449.878 490.816 451.273 491.415C452.668 492.013 454.173 492.31 455.691 492.285C457.768 492.367 459.816 491.77 461.524 490.586C463.096 489.41 464.226 487.74 464.733 485.844L457.897 485.844Z" fill="#FFD200"/>
<path d="M532.989 492.315V498.869H513.902V492.315H518.87L517.029 485.649H506.955L504.89 492.315H510.08V498.869H492.889V492.315H497.69L505.251 466.626H500.089V460.073H525.428V466.626H520.209L528.359 492.315H532.989ZM515.438 479.96L512.2 468.271L508.712 479.96H515.438Z" fill="#FFD200"/>
<path d="M548.762 498.869V492.315H553.952V466.626H548.762V460.073H565.067L579.348 484.266V466.626H574.296V460.073H591.71V466.626H586.269V499.149H577.618L560.873 470.392V492.315H565.757V498.869H548.762Z" fill="#FFD200"/>
<path d="M637.111 498.869V492.315H641.968V466.626H637.111V460.073H655.866V466.626H651.792V475.132H662.368V466.626H658.432V460.073H677.045V466.626H672.192V492.315H677.045V498.869H658.432V492.315H662.368V481.715H651.792V492.315H655.866V498.869H637.111Z" fill="#FFD200"/>
<path d="M694.318 498.869V492.315H700.209V466.626H694.318V460.073H716.253V466.626H710.31V492.315H716.253V498.869H694.318Z" fill="#FFD200"/>
<path d="M733.336 498.869V492.315H738.89V466.626H733.336V460.073H754.657V466.626H748.991V492.315H760.462V480.323H768.024V498.869L733.336 498.869Z" fill="#FFD200"/>
<path d="M784.543 498.869V492.315H790.097V466.626H784.543V460.073H805.864V466.626H800.198V492.315H811.669V480.323H819.23V498.869L784.543 498.869Z" fill="#FFD200"/>
<path d="M825.911 423.26H570.611L730.152 316.841L825.911 423.26Z" fill="#C47C41"/>
<path d="M702.138 423.26H361.973L563.935 265.598L702.138 423.26Z" fill="#D49A6C"/>
<path d="M485.858 423.26H245.838L397.739 324.468L485.858 423.26Z" fill="#E6C2A3"/>
</svg>
