<svg width="360" height="253" viewBox="0 0 360 253" fill="none" xmlns="http://www.w3.org/2000/svg">
<g clip-path="url(#clip0_1328_54504)">
<path d="M303.03 26.0142L274.83 226.989L358.433 129.445C359.215 128.324 359.719 127.034 359.904 125.68C360.089 124.326 359.949 122.947 359.497 121.658L303.03 26.0142Z" fill="#F05A2A"/>
<path d="M256.813 -6.46327e-05H44.0912C40.9776 0.774347 38.1586 2.44497 35.982 4.80561C33.8055 7.16625 32.3666 10.1136 31.8432 13.2838L26.8579 48.8158L26.4535 51.6994L26.0485 54.5828L25.6436 57.4661L25.2392 60.3495L24.8348 63.2329L24.4298 66.1163L24.0249 68.9997L23.6205 71.8831L23.2161 74.7664L22.8112 77.6498L22.4062 80.5332L22.0018 83.4166L21.5974 86.3L21.1925 89.1833L21.0059 90.5162H68.9756C71.1633 90.5149 73.3185 91.047 75.255 92.0667C77.7181 93.2732 79.6725 95.3179 80.7685 97.8353C81.1938 98.7562 81.5096 99.7239 81.7095 100.719C81.9021 101.667 81.9948 102.634 81.9861 103.602C82.0082 104.178 81.9955 104.755 81.9482 105.329L81.8061 106.485L81.453 109.369L81.0998 112.252L80.7462 115.136L80.3926 118.019L80.039 120.902L79.6854 123.786L79.3322 126.669L78.979 129.552L78.6254 132.436L78.6138 132.527H133.239C134.516 132.512 135.784 132.751 136.969 133.23C138.153 133.709 139.231 134.42 140.14 135.319C140.969 136.147 141.632 137.125 142.093 138.203C142.5 139.118 142.764 140.09 142.874 141.086C142.964 141.895 142.962 142.711 142.867 143.52L142.812 143.969L142.458 146.853L142.105 149.736L141.751 152.619L141.398 155.503L141.045 158.386L140.691 161.269L140.337 164.153L139.984 167.036L139.63 169.92L139.277 172.803L138.924 175.686L138.57 178.57L138.217 181.453L137.863 184.337L137.51 187.22L137.156 190.103L136.803 192.987L136.45 195.87L130.738 242.463C130.378 244.935 129.306 247.249 127.654 249.12C126.001 250.992 123.839 252.34 121.433 252.999H224.649C227.762 252.225 230.582 250.554 232.758 248.194C234.935 245.833 236.373 242.885 236.897 239.715L243.048 195.87L243.453 192.987L243.858 190.103L244.262 187.22L244.667 184.337L245.072 181.453L245.476 178.57L245.881 175.686L246.286 172.803L246.691 169.92L247.095 167.036L247.499 164.153L247.904 161.269L248.309 158.386L248.714 155.503L249.118 152.619L249.523 149.736L249.928 146.853L250.332 143.969L250.737 141.086L251.141 138.202L251.546 135.319L251.951 132.436L252.355 129.552L252.76 126.669L253.165 123.786L253.57 120.902L253.974 118.019L254.378 115.135L254.783 112.252L255.188 109.369L255.593 106.485L255.997 103.602L256.402 100.718L256.807 97.8351L257.211 94.9517L257.616 92.0665L258.02 89.1832L258.425 86.2998L258.83 83.4164L259.234 80.533L259.639 77.6496L260.044 74.7662L260.449 71.8829L260.853 68.9995L261.258 66.1161L261.662 63.2327L262.067 60.3494L262.472 57.4659L262.876 54.5826L263.281 51.6992L263.686 48.8158L268.607 13.7424C268.917 12.0337 268.841 10.2774 268.387 8.60168C267.932 6.92591 267.11 5.37295 265.979 4.05611C264.849 2.73926 263.44 1.69176 261.854 0.990023C260.268 0.28829 258.546 -0.0499667 256.813 -6.46327e-05Z" fill="url(#paint0_linear_1328_54504)"/>
<path d="M130.738 242.463L136.45 195.871L136.803 192.988L137.157 190.104L137.51 187.221L137.863 184.337L138.217 181.454L138.571 178.57L138.924 175.687L139.278 172.804L139.631 169.92L139.984 167.037L140.338 164.153L140.691 161.27L141.045 158.386L141.398 155.503L141.752 152.619L142.105 149.736L142.459 146.853L142.812 143.969L142.867 143.52C142.962 142.712 142.965 141.895 142.875 141.086C142.764 140.09 142.501 139.117 142.093 138.202C141.631 137.125 140.968 136.147 140.14 135.319C139.232 134.419 138.154 133.709 136.969 133.23C135.784 132.751 134.517 132.512 133.239 132.527H78.6144L65.6059 238.644C65.1096 242.071 63.5995 245.27 61.2704 247.829C58.9413 250.388 55.9001 252.189 52.5391 253H121.434C123.84 252.34 126.001 250.992 127.654 249.121C129.307 247.249 130.378 244.935 130.738 242.463Z" fill="#F05A2A"/>
<path d="M65.6056 238.644L78.6141 132.527L78.625 132.436L78.9786 129.552L79.332 126.669L79.6854 123.785L80.039 120.902L80.3924 118.018L80.7458 115.135L81.0994 112.251L81.4528 109.368L81.8062 106.485L81.948 105.328C81.9953 104.754 82.008 104.177 81.9861 103.601C81.9948 102.633 81.902 101.666 81.7093 100.718C81.5093 99.7229 81.1933 98.7552 80.768 97.8343C79.6727 95.3169 77.7183 93.2724 75.2548 92.0672C73.3186 91.0466 71.1633 90.5139 68.9753 90.5154H21.0067L0.136039 239.258C-0.173185 240.967 -0.0978009 242.722 0.356693 244.398C0.811187 246.073 1.63333 247.626 2.76315 248.943C3.89297 250.259 5.30198 251.307 6.8874 252.009C8.47283 252.711 10.1947 253.049 11.9274 253H52.5388C55.8998 252.189 58.941 250.388 61.2701 247.829C63.5992 245.27 65.1093 242.071 65.6056 238.644Z" fill="#F59120"/>
</g>
<defs>
<linearGradient id="paint0_linear_1328_54504" x1="144.874" y1="163.41" x2="144.874" y2="41.207" gradientUnits="userSpaceOnUse">
<stop stop-color="#333333"/>
<stop offset="1"/>
</linearGradient>
<clipPath id="clip0_1328_54504">
<rect width="360" height="253" fill="white"/>
</clipPath>
</defs>
</svg>
