<svg width="1336" height="512" viewBox="0 0 1336 512" fill="none" xmlns="http://www.w3.org/2000/svg">
<path d="M555.599 308.5C545.899 297.8 540.799 283.7 541.299 269.3C540.699 255 545.799 241 555.499 230.5C559.999 225.7 565.499 221.8 571.499 219.2C577.599 216.6 584.099 215.4 590.799 215.5C598.399 215.3 605.999 217.3 612.599 221.1C618.699 224.6 623.7 229.7 627.2 235.9V217.2H649.099V322.1H627.2V302.5C623.8 308.9 618.699 314.2 612.499 318C605.999 322 598.399 324 590.799 323.8C584.199 323.9 577.599 322.6 571.499 320C565.499 317.3 560.099 313.4 555.599 308.5ZM617.799 295.3C620.999 291.8 623.499 287.8 625.099 283.4C626.699 279 627.4 274.3 627.2 269.5C627.4 264.8 626.699 260.1 625.099 255.7C623.499 251.3 620.999 247.2 617.799 243.8C614.899 240.8 611.399 238.4 607.599 236.8C603.799 235.2 599.599 234.3 595.499 234.3C591.299 234.3 587.2 235.1 583.4 236.7C579.6 238.3 576.099 240.7 573.099 243.6C569.899 247 567.399 251 565.799 255.4C564.199 259.8 563.5 264.5 563.7 269.1C563.5 273.8 564.199 278.6 565.799 283C567.399 287.5 569.899 291.6 573.099 295C575.999 298.1 579.4 300.5 583.2 302.2C587 303.9 591.2 304.8 595.4 304.8C599.6 304.8 603.699 304 607.599 302.3C611.399 300.8 614.899 298.4 617.799 295.3Z" fill="white"/>
<path d="M694.2 309C684.7 299.1 679.9 286 679.9 269.7C679.9 253.4 684.7 240.3 694.3 230.4C699.1 225.5 704.9 221.6 711.2 219.1C717.6 216.5 724.4 215.3 731.3 215.6C742.5 215.2 753.5 218.3 762.8 224.6C771.3 230.9 777.3 240.1 779.6 250.4H756.2C752.3 239.4 744 233.8 731.3 233.8C727.3 233.6 723.3 234.4 719.6 236C715.9 237.6 712.7 240.1 710.1 243.2C704.8 249.5 702.2 258.3 702.2 269.6C701.6 279.1 704.4 288.4 710.1 296.1C712.7 299.2 715.9 301.7 719.6 303.3C723.3 305 727.3 305.7 731.3 305.6C743.9 305.6 752.2 300.1 756.2 289H779.6C776.9 299.2 770.9 308.1 762.5 314.4C753.4 320.9 742.4 324.2 731.3 323.8C724.4 324.1 717.6 322.9 711.2 320.3C704.8 317.8 699 313.9 694.2 309Z" fill="white"/>
<path d="M861.601 234.9H836.101V293C836.001 294.5 836.101 296.1 836.601 297.5C837.101 299 837.801 300.3 838.901 301.4C841.601 303.4 845.001 304.3 848.301 304H861.601V322.1H844.501C824.301 322.1 814.201 312.4 814.201 293V234.9H801.801V217.2H814.201V191.1H836.101V217.2H861.601V234.9Z" fill="white"/>
<path d="M915.9 189.4C915.8 192.5 914.7 195.6 912.7 198C910.7 200.4 907.9 202 904.8 202.6C901.7 203.2 898.5 202.7 895.7 201.1C892.9 199.6 890.8 197.2 889.6 194.2C888.4 191.3 888.3 188 889.2 185C890.1 182 892.1 179.4 894.7 177.7C897.3 176 900.5 175.2 903.6 175.5C906.7 175.8 909.7 177.2 911.9 179.4C913.2 180.7 914.2 182.2 914.9 183.9C915.6 185.7 915.9 187.6 915.9 189.4ZM891.1 322.1V217.2H912.8V322.1H891.1Z" fill="white"/>
<path d="M938.5 217.2H961.7L991.4 302.7L1021.1 217.2H1044.5L1004.5 322.1H978.2L938.5 217.2Z" fill="white"/>
<path d="M1115.6 323.8C1108.6 324 1101.7 322.8 1095.2 320.3C1088.7 317.7 1082.8 313.8 1077.9 308.9C1072.9 303.7 1069 297.6 1066.4 290.8C1063.9 284.1 1062.7 276.9 1063 269.7C1062.8 262.5 1064 255.4 1066.6 248.7C1069.2 242 1073.1 235.9 1078.1 230.8C1083.1 225.7 1089 221.6 1095.7 218.8C1102.3 216 1109.4 214.6 1116.5 214.5C1123.7 214.5 1130.8 215.9 1137.4 218.7C1144 221.5 1150 225.6 1155 230.7C1160 235.8 1163.9 241.9 1166.5 248.6C1169.1 255.3 1170.3 262.4 1170.1 269.6C1170.4 276.9 1169.1 284.1 1166.4 290.9C1163.7 297.7 1159.6 303.8 1154.4 308.8C1149.3 313.7 1143.2 317.6 1136.6 320.2C1130 322.8 1122.7 324 1115.6 323.8ZM1138.1 296C1141.4 292.5 1143.9 288.3 1145.6 283.7C1147.2 279.2 1147.9 274.3 1147.7 269.5C1148 264.7 1147.3 259.9 1145.7 255.4C1144.1 250.9 1141.6 246.7 1138.4 243.1C1135.5 240.1 1132.1 237.7 1128.2 236C1124.3 234.3 1120.2 233.6 1116 233.6C1111.9 233.5 1107.8 234.3 1103.9 235.9C1100.1 237.5 1096.7 239.9 1093.9 243C1087.9 249.3 1085 258.1 1085 269.5C1085 280.9 1087.9 289.7 1093.8 296C1096.6 299 1099.9 301.5 1103.7 303.1C1107.5 304.7 1111.5 305.5 1115.6 305.4C1119.8 305.4 1124 304.6 1127.9 303C1131.7 301.5 1135.2 299.1 1138.1 296Z" fill="white"/>
<path d="M370.4 121.2C355.7 115.8 340.2 112.8 324.6 112.1L358.9 153L370.4 121.2Z" fill="#32A6DE"/>
<path d="M411.301 143.7C398.901 134.1 385.101 126.5 370.401 121.2L358.801 153L411.301 143.7Z" fill="#2D72B8"/>
<path d="M242.199 173.5L358.799 153L324.499 112.1C302.599 111.2 280.699 115.1 260.399 123.4L242.199 173.5Z" fill="#2D72B8"/>
<path d="M260.5 123.4C246 129.4 232.5 137.5 220.5 147.6L242.2 173.5L260.5 123.4Z" fill="#32A6DE"/>
<path d="M220.499 147.6C208.499 157.7 198.099 169.5 189.699 182.8L242.199 173.5L220.499 147.6Z" fill="#1B75BB"/>
<path d="M167.399 243.9C165.299 259.4 165.599 275.2 168.399 290.7L201.699 284.8L167.399 243.9Z" fill="#292C6A"/>
<path d="M242.199 173.5L201.699 284.8L318.299 264.2L242.199 173.5Z" fill="#1B75BB"/>
<path d="M201.7 284.8L242.2 173.5L189.7 182.8C177.9 201.3 170.3 222.2 167.4 244L201.7 284.8Z" fill="#2E3191"/>
<path d="M358.799 153L242.199 173.6L318.299 264.3L358.799 153Z" fill="#32A6DE"/>
<path d="M318.301 264.3L435.001 243.7L358.801 153L318.301 264.3Z" fill="#2D72B8"/>
<path d="M468.3 237.8C465.6 222.4 460.5 207.4 453.2 193.5L435 243.7L468.3 237.8Z" fill="#2D72B8"/>
<path d="M435.001 243.7L453.201 193.5C443.001 174.1 428.701 157.1 411.301 143.7L358.801 153L435.001 243.7Z" fill="#32A6DE"/>
<path d="M469.2 284.6C471.3 269.1 471 253.3 468.2 237.8L434.9 243.7L469.2 284.6Z" fill="#32A6DE"/>
<path d="M394.4 355L435 243.7L318.4 264.3L394.4 355Z" fill="#32A6DE"/>
<path d="M435 243.7L394.4 355L446.9 345.7C458.7 327.2 466.3 306.3 469.2 284.5L435 243.7Z" fill="#2D72B8"/>
<path d="M277.801 375.6L394.401 355L318.301 264.3L277.801 375.6Z" fill="#1B75BB"/>
<path d="M201.699 284.8L277.799 375.5L318.299 264.2L201.699 284.8Z" fill="#2E3191"/>
<path d="M183.5 335L201.7 284.9L168.4 290.8C171.1 306.1 176.2 321.1 183.5 335Z" fill="#2E3191"/>
<path d="M201.7 284.8L183.5 335C193.7 354.4 208 371.5 225.4 384.9L277.9 375.6L201.7 284.8Z" fill="#292C6A"/>
<path d="M266.301 407.3C281.001 412.7 296.501 415.7 312.101 416.4L277.801 375.5L266.301 407.3Z" fill="#292C6A"/>
<path d="M277.801 375.6L225.301 384.9C237.701 394.5 251.501 402.1 266.201 407.4L277.801 375.6Z" fill="#2E3191"/>
<path d="M277.801 375.6L312.101 416.5C334.001 417.4 355.901 413.6 376.201 405.2L394.401 355.1L277.801 375.6Z" fill="#2E3191"/>
<path d="M376.199 405.1C390.699 399.2 404.199 391 416.199 380.9L394.399 355L376.199 405.1Z" fill="#1B75BB"/>
<path d="M416.2 380.9C428.2 370.8 438.6 359 447 345.7L394.5 355L416.2 380.9Z" fill="#32A6DE"/>
<path d="M424.899 279.9C424.899 281 424.499 282.1 423.799 283C423.099 283.9 422.099 284.6 420.999 284.9L395.299 288.8C393.899 293.2 392.099 297.4 389.899 301.4C394.599 308.2 399.599 314.3 404.699 320.6C405.599 321.6 406.099 322.8 406.099 324.1C406.099 325.3 405.699 326.4 404.799 327.3C401.499 331.7 382.699 352.1 377.999 352.1C376.699 352 375.499 351.6 374.399 350.9L355.299 335.9C351.199 338 346.999 339.8 342.699 341.2C341.999 349.9 340.599 358.5 338.699 367C338.399 368.1 337.799 369.1 336.899 369.8C335.999 370.5 334.899 370.9 333.699 370.9H302.899C301.699 370.9 300.499 370.5 299.599 369.8C298.699 369 298.099 368 297.899 366.8L293.999 341.3C289.699 339.9 285.499 338.2 281.499 336.2L261.999 350.9C260.999 351.7 259.799 352.2 258.499 352.1C257.199 352.1 255.899 351.5 254.999 350.6C246.699 343.6 238.999 335.8 232.099 327.3C231.399 326.4 231.099 325.3 231.099 324.1C231.099 322.9 231.499 321.8 232.199 320.9C236.899 314.5 241.999 308.4 246.799 301.9C244.399 297.5 242.499 292.9 241.099 288.2L215.699 284.4C214.599 284.2 213.499 283.5 212.799 282.6C212.099 281.7 211.699 280.5 211.699 279.4V248.6C211.699 247.5 212.099 246.4 212.799 245.5C213.499 244.6 214.399 243.9 215.499 243.6L241.299 239.7C242.699 235.3 244.499 231 246.699 226.9C241.999 220.2 236.999 214 231.899 207.8C230.999 206.9 230.599 205.7 230.499 204.5C230.599 203.3 230.999 202.2 231.799 201.3C235.099 196.7 253.799 176.5 258.599 176.5C259.899 176.6 261.199 177.1 262.199 177.9L281.299 192.7C285.399 190.6 289.599 188.8 293.899 187.4C294.599 178.7 295.999 170.1 297.899 161.6C298.199 160.5 298.799 159.5 299.699 158.8C300.599 158.1 301.699 157.7 302.899 157.7H333.699C334.899 157.7 336.099 158.1 336.999 158.8C337.899 159.6 338.499 160.6 338.699 161.8L342.599 187.3C346.899 188.7 351.099 190.4 355.099 192.4L374.799 177.5C375.699 176.7 376.899 176.2 378.099 176.2C379.399 176.2 380.599 176.7 381.599 177.6C389.999 184.7 397.599 192.6 404.499 201.2C405.199 202.1 405.499 203.1 405.499 204.2C405.499 205.4 405.099 206.5 404.399 207.4C399.699 213.8 394.499 219.9 389.799 226.4C392.099 230.7 393.999 235.3 395.499 240L420.899 243.9C421.999 244.1 423.099 244.8 423.799 245.7C424.499 246.6 424.899 247.7 424.899 248.9V279.9Z" fill="white"/>
<path d="M286.199 297.9C278.999 289.8 275.099 279.3 275.599 268.4C275.199 257.5 278.999 246.9 286.199 238.8C289.399 235.1 293.399 232.2 297.899 230.2C302.399 228.2 307.199 227.2 312.099 227.3C316.699 227.1 321.199 228 325.299 230C329.399 232 332.999 235 335.599 238.7V228.2H360.199V308.5H335.599V296.9C332.999 300.9 329.499 304.1 325.299 306.3C321.099 308.5 316.499 309.6 311.699 309.5C306.899 309.5 302.099 308.5 297.599 306.5C293.299 304.4 289.399 301.5 286.199 297.9ZM330.299 282.9C332.099 281 333.599 278.6 334.499 276.1C335.399 273.6 335.799 270.9 335.599 268.2C335.799 265.5 335.399 262.9 334.499 260.3C333.599 257.8 332.199 255.5 330.299 253.6C328.699 252 326.799 250.7 324.699 249.8C322.599 248.9 320.299 248.5 318.099 248.5C315.799 248.5 313.599 249 311.499 249.9C309.399 250.8 307.499 252.1 305.899 253.7C304.099 255.6 302.599 258 301.699 260.5C300.799 263 300.399 265.7 300.599 268.4C300.399 271.1 300.799 273.7 301.699 276.3C302.599 278.8 303.999 281.1 305.899 283C307.499 284.6 309.399 285.9 311.499 286.8C313.599 287.7 315.899 288.1 318.099 288.1C320.399 288.1 322.599 287.6 324.699 286.7C326.799 285.9 328.699 284.6 330.299 282.9Z" fill="#272361"/>
</svg>
