<svg width="949" height="843" viewBox="0 0 949 843" fill="none" xmlns="http://www.w3.org/2000/svg">
<path d="M472.008 107.532C535.181 107.533 595.864 132.167 641.158 176.198C686.451 220.228 712.784 280.184 714.56 343.322C714.622 341.055 714.66 338.783 714.66 336.502C714.635 272.174 689.059 210.49 643.556 165.012C598.052 119.534 536.347 93.9868 472.008 93.9868C407.669 93.9868 345.963 119.534 300.46 165.012C254.957 210.49 229.38 272.174 229.355 336.502C229.355 338.783 229.393 341.056 229.456 343.322C231.232 280.184 257.565 220.228 302.858 176.198C348.152 132.167 408.834 107.533 472.008 107.532Z" fill="#A52B2B"/>
<path d="M398.573 352.299C398.573 355.673 396.882 357.364 393.767 357.364H381.437C380.188 357.422 378.957 357.056 377.944 356.325C376.931 355.593 376.195 354.54 375.857 353.337L347.943 292.332C345.882 288.308 344.104 284.144 342.623 279.871H340.8C341.273 284.008 341.49 288.169 341.452 292.332V357.364H328.47V272.862C328.379 272.188 328.443 271.501 328.657 270.855C328.871 270.208 329.229 269.619 329.704 269.132C330.179 268.644 330.759 268.271 331.4 268.041C332.041 267.811 332.726 267.73 333.403 267.803H345.347C346.607 267.76 347.847 268.129 348.878 268.855C349.909 269.581 350.674 270.623 351.059 271.824L378.188 331.271C379.879 334.906 382.475 340.098 384.42 344.644H386.37C385.978 339.971 385.724 335.425 385.724 330.752V267.803H398.573L398.573 352.299Z" fill="url(#paint0_linear_1328_54744)"/>
<path d="M498.813 268.968L498.034 278.446C490.504 278.187 480.765 277.794 472.33 277.794C460.126 277.794 455.453 278.313 455.453 290.255C455.453 299.474 458.701 301.937 466.225 303.887L484.013 308.819C497.901 312.58 502.188 320.887 502.188 334.259C502.188 354.894 493.228 358.921 471.683 358.921C462.232 358.937 452.799 358.068 443.509 356.325L444.415 346.72C460.646 347.239 465.186 347.366 471.937 347.366C485.052 347.239 488.947 345.289 488.947 334.126C488.947 324.395 485.571 322.318 478.301 320.368L460.126 315.309C447.011 311.674 442.338 303.494 442.338 289.868C442.338 269.101 451.558 266.245 471.81 266.245C480.887 266.091 489.95 267.005 498.813 268.968Z" fill="url(#paint1_linear_1328_54744)"/>
<path d="M545.439 267.803H558.295V330.752C558.295 335.425 558.029 339.971 557.643 344.644H559.587C561.537 340.098 564.134 334.906 565.818 331.271L592.954 271.824C593.338 270.623 594.104 269.581 595.135 268.855C596.166 268.129 597.406 267.76 598.666 267.803H610.61C611.287 267.73 611.971 267.811 612.612 268.041C613.253 268.271 613.833 268.644 614.309 269.132C614.784 269.619 615.142 270.208 615.356 270.855C615.57 271.501 615.634 272.188 615.543 272.862V357.364H602.561V292.332C602.52 288.169 602.736 284.008 603.207 279.871H601.395C599.913 284.144 598.133 288.308 596.07 292.332L568.161 353.337C567.822 354.54 567.085 355.593 566.071 356.324C565.057 357.055 563.825 357.421 562.576 357.364H550.24C547.124 357.364 545.44 355.673 545.44 352.298L545.439 267.803Z" fill="url(#paint2_linear_1328_54744)"/>
<path d="M175.353 588.918C175.472 589.742 175.399 590.582 175.14 591.374C174.881 592.165 174.443 592.886 173.859 593.48C173.276 594.075 172.563 594.526 171.776 594.8C170.989 595.073 170.15 595.161 169.324 595.057H158.717C155.144 595.057 153.581 593.382 151.906 590.033L131.698 548.954C129.772 545.125 128.202 541.126 127.008 537.01H125.781C126.319 541.081 126.58 545.183 126.562 549.29V595.057H110.373V524.172C110.266 523.34 110.352 522.495 110.623 521.702C110.894 520.909 111.343 520.188 111.936 519.595C112.529 519.002 113.25 518.553 114.043 518.283C114.837 518.012 115.682 517.926 116.514 518.033H126.897C130.47 518.033 132.033 519.707 133.708 523.057L153.246 562.907C154.921 566.256 157.042 570.944 158.828 575.299H159.945C159.61 570.944 159.275 566.704 159.275 562.349V518.033H175.353V588.918Z" fill="#A52B2B"/>
<path d="M265.331 594.275C254.836 595.392 241.55 595.392 229.603 595.392C219.332 595.392 212.745 589.363 212.633 579.875V533.214C212.745 523.726 219.332 517.697 229.603 517.697C241.55 517.697 254.836 517.697 265.331 518.814L264.549 531.428H234.963C231.278 531.428 229.715 533.102 229.715 537.121V548.842H260.419V561.122H229.715V575.968C229.715 580.099 231.278 581.773 234.963 581.773H264.549L265.331 594.275Z" fill="#A52B2B"/>
<path d="M385.68 590.369C385.378 591.751 384.595 592.981 383.47 593.839C382.346 594.698 380.953 595.129 379.54 595.057H363.239C361.822 595.125 360.429 594.676 359.32 593.792C358.21 592.909 357.46 591.652 357.21 590.257L348.836 539.911C348.278 536.675 347.832 533.439 347.497 530.201H345.375C344.928 533.438 344.594 536.786 344.035 540.023L335.773 590.257C335.513 591.669 334.744 592.936 333.613 593.821C332.481 594.705 331.065 595.145 329.632 595.057H313.332C311.923 595.112 310.538 594.674 309.417 593.818C308.296 592.963 307.509 591.743 307.191 590.369L295.021 518.033H312.439L319.919 571.504C320.366 574.851 320.701 578.536 320.924 582.667H323.157C323.604 578.982 324.273 574.963 324.832 571.504L333.094 523.279C333.25 521.804 333.958 520.444 335.077 519.47C336.195 518.497 337.641 517.983 339.123 518.033H353.86C355.325 518.005 356.747 518.529 357.843 519.5C358.94 520.472 359.63 521.821 359.778 523.279L368.04 571.615C368.598 575.187 369.268 579.205 369.603 582.667H371.948C372.171 579.094 372.505 575.075 372.952 571.726L380.544 518.033H397.85L385.68 590.369Z" fill="#A52B2B"/>
<path d="M481.241 519.595L480.125 531.204C473.649 530.982 464.159 530.87 456.008 530.87C447.747 530.87 444.843 531.316 444.843 537.902C444.843 543.26 447.077 544.711 452.882 546.609L467.508 551.633C479.79 555.986 483.809 563.018 483.809 574.293C483.809 591.819 476.217 596.507 455.227 596.507C446.329 596.474 437.46 595.502 428.766 593.606L429.771 581.325C444.062 581.661 450.314 581.885 455.227 581.885C464.159 581.885 466.615 580.656 466.615 574.405C466.615 568.935 464.494 567.596 459.358 565.921L443.839 560.452C432.115 556.209 427.873 549.289 427.873 537.902C427.873 520.264 436.023 516.581 455.897 516.581C464.443 516.427 472.969 517.441 481.241 519.595Z" fill="#A52B2B"/>
<path d="M575.576 542.145C575.576 562.015 568.764 567.373 549.672 567.373C544.821 567.371 539.974 567.072 535.159 566.48V595.057H518.188V518.032C527.913 517.166 537.678 516.83 547.439 517.027C568.764 517.027 575.576 522.497 575.576 542.145ZM547.105 554.311C555.814 554.2 558.492 551.745 558.492 542.145C558.492 532.545 555.814 530.089 547.105 530.089H535.159V554.311H547.105Z" fill="#A52B2B"/>
<path d="M620.562 574.851L614.98 595.057H597.562L619.781 522.497C620.105 521.187 620.87 520.029 621.947 519.216C623.024 518.403 624.348 517.985 625.697 518.032H641.775C643.128 517.968 644.46 518.38 645.541 519.195C646.622 520.011 647.384 521.179 647.693 522.497L669.911 595.057H652.606L647.024 574.851H620.562ZM636.862 538.126C636.304 535.782 635.635 533.214 635.299 530.87H632.285L630.61 538.126L624.134 561.679H643.338L636.862 538.126Z" fill="#A52B2B"/>
<path d="M752.302 519.26L750.849 531.986C743.591 531.54 738.902 531.428 729.19 531.428C718.025 531.428 714.675 537.121 714.675 556.545C714.675 575.968 718.025 581.662 729.19 581.662C736.944 581.854 744.703 581.518 752.412 580.656L753.865 593.27C745.868 595.663 737.531 596.719 729.19 596.396C705.409 596.396 696.811 585.904 696.811 556.545C696.811 527.187 705.409 516.693 729.19 516.693C736.977 516.44 744.76 517.304 752.302 519.26Z" fill="#A52B2B"/>
<path d="M839.156 594.275C828.661 595.392 815.375 595.392 803.428 595.392C793.157 595.392 786.569 589.363 786.457 579.875V533.214C786.569 523.726 793.157 517.697 803.428 517.697C815.375 517.697 828.661 517.697 839.156 518.814L838.374 531.428H808.787C805.103 531.428 803.539 533.102 803.539 537.121V548.842H834.243V561.122H803.539V575.968C803.539 580.099 805.103 581.773 808.787 581.773H838.374L839.156 594.275Z" fill="#A52B2B"/>
<path d="M147.619 712.147C147.619 713.559 146.951 714.227 145.613 714.227H140.412C139.891 714.252 139.377 714.106 138.947 713.811C138.518 713.516 138.197 713.088 138.034 712.593L118.491 673.663C117.42 671.658 116.453 669.6 115.593 667.496H114.182C114.33 669.502 114.33 671.582 114.33 673.663V714.227H109.5V665.045C109.5 663.633 110.169 662.964 111.507 662.964H116.559C117.08 662.938 117.595 663.085 118.024 663.38C118.454 663.676 118.775 664.104 118.937 664.599L138.034 702.637L141.452 709.546H143.013C142.864 707.094 142.789 704.643 142.79 702.192V662.964H147.619L147.619 712.147Z" fill="url(#paint3_linear_1328_54744)"/>
<path d="M242.723 713.855C235.738 714.301 228.085 714.301 220.802 714.301C219.633 714.418 218.452 714.285 217.339 713.909C216.226 713.533 215.206 712.924 214.348 712.122C213.489 711.32 212.812 710.344 212.362 709.259C211.911 708.174 211.698 707.005 211.737 705.831V671.359C211.705 670.187 211.922 669.021 212.374 667.939C212.827 666.857 213.504 665.883 214.361 665.082C215.218 664.282 216.235 663.672 217.346 663.294C218.456 662.916 219.634 662.778 220.802 662.89C228.085 662.89 235.738 662.89 242.723 663.335L242.425 667.05H221.62C218.424 667.05 216.641 668.908 216.641 672.473V685.03H239.528V688.967H216.641V704.791C216.641 708.284 218.424 710.14 221.62 710.14H242.425L242.723 713.855Z" fill="url(#paint4_linear_1328_54744)"/>
<path d="M321.182 667.272V714.226H316.278V667.272H299.262V662.963H338.273V667.272H321.182Z" fill="url(#paint5_linear_1328_54744)"/>
<path d="M446.902 712.741C446.794 713.184 446.534 713.575 446.167 713.846C445.801 714.118 445.35 714.252 444.895 714.226H439.025C438.55 714.253 438.081 714.111 437.701 713.826C437.32 713.54 437.052 713.13 436.944 712.667L427.953 672.473C427.507 670.542 427.061 668.684 426.69 666.753H425.055L423.718 672.473L414.726 712.667C414.625 713.119 414.37 713.523 414.004 713.807C413.638 714.092 413.184 714.24 412.72 714.226H406.776C406.32 714.252 405.87 714.118 405.504 713.846C405.137 713.575 404.877 713.184 404.769 712.741L393.252 662.964H398.379L407.742 704.495C408.188 706.426 408.559 708.358 408.931 710.437H410.788C411.16 708.358 411.531 706.5 411.977 704.569L421.043 664.673C421.113 664.193 421.355 663.756 421.724 663.441C422.093 663.127 422.564 662.957 423.049 662.964H428.622C429.107 662.957 429.578 663.127 429.947 663.441C430.316 663.756 430.558 664.193 430.628 664.673L439.693 704.569C440.139 706.5 440.511 708.506 440.882 710.437H442.814C443.186 708.506 443.483 706.5 443.929 704.643L453.366 662.964H458.493L446.902 712.741Z" fill="url(#paint6_linear_1328_54744)"/>
<path d="M556.046 688.595C556.046 708.432 550.919 715.118 536.28 715.118C521.641 715.118 516.514 708.432 516.514 688.595C516.514 668.758 521.641 662.072 536.28 662.072C550.919 662.072 556.046 668.758 556.046 688.595ZM521.567 688.595C521.567 705.237 525.283 710.809 536.28 710.809C547.277 710.809 550.919 705.237 550.919 688.595C550.919 671.953 547.277 666.381 536.28 666.381C525.283 666.381 521.567 671.953 521.567 688.595Z" fill="url(#paint7_linear_1328_54744)"/>
<path d="M648.476 714.226L643.572 698.105C643.247 696.41 642.327 694.888 640.978 693.812C639.629 692.735 637.939 692.177 636.215 692.236C630.717 692.236 626.481 692.162 623.509 692.086V714.226H618.68V662.964C624.386 662.457 630.116 662.259 635.844 662.37C647.362 662.37 651.819 665.491 651.819 677.006C651.819 685.624 649.07 689.413 642.382 690.378V690.675C643.934 691.27 645.308 692.251 646.374 693.525C647.44 694.799 648.164 696.325 648.476 697.956L653.677 714.226H648.476ZM635.844 688.001C644.018 687.927 646.916 685.624 646.916 677.228C646.916 668.758 644.018 666.53 635.844 666.53C630.791 666.53 626.481 666.604 623.509 666.678V688.001H635.844Z" fill="url(#paint8_linear_1328_54744)"/>
<path d="M719.431 689.487C719.721 691.405 719.87 693.341 719.877 695.281V714.226H715.047V662.963H719.877V679.531C719.884 681.521 719.735 683.509 719.431 685.475H726.638L742.985 662.963H748.41L732.658 684.732C731.983 685.722 731.184 686.621 730.28 687.407V687.629C731.243 688.504 732.114 689.475 732.88 690.526L749.524 714.226H744.025L726.564 689.486L719.431 689.487Z" fill="url(#paint9_linear_1328_54744)"/>
<path d="M837.419 663.336L837.049 666.901C832.664 666.679 827.538 666.457 822.856 666.457C814.683 666.457 811.339 666.753 811.339 675.595C811.339 681.909 813.419 684.064 818.397 685.03L829.098 687.258C836.899 688.819 839.501 693.052 839.501 701.3C839.501 713.261 834.15 715.044 822.856 715.044C817.633 715.092 812.415 714.719 807.251 713.929L807.549 710.289C815.203 710.66 818.323 710.735 823.004 710.735C831.624 710.66 834.521 709.398 834.521 701.226C834.521 694.539 832.441 692.608 827.388 691.64L816.465 689.339C809.109 687.853 806.434 683.468 806.434 675.445C806.434 663.409 811.561 661.998 822.632 662.146C827.587 662.105 832.535 662.503 837.419 663.336Z" fill="url(#paint10_linear_1328_54744)"/>
<defs>
<linearGradient id="paint0_linear_1328_54744" x1="363.521" y1="295.586" x2="363.521" y2="374.077" gradientUnits="userSpaceOnUse">
<stop stop-color="white"/>
<stop offset="1"/>
</linearGradient>
<linearGradient id="paint1_linear_1328_54744" x1="472.263" y1="295.586" x2="472.263" y2="374.077" gradientUnits="userSpaceOnUse">
<stop stop-color="white"/>
<stop offset="1"/>
</linearGradient>
<linearGradient id="paint2_linear_1328_54744" x1="580.491" y1="295.586" x2="580.491" y2="374.077" gradientUnits="userSpaceOnUse">
<stop stop-color="white"/>
<stop offset="1"/>
</linearGradient>
<linearGradient id="paint3_linear_1328_54744" x1="128.56" y1="672.302" x2="128.56" y2="728.32" gradientUnits="userSpaceOnUse">
<stop stop-color="#B3B3B3"/>
<stop offset="1"/>
</linearGradient>
<linearGradient id="paint4_linear_1328_54744" x1="227.23" y1="672.302" x2="227.23" y2="728.32" gradientUnits="userSpaceOnUse">
<stop stop-color="#B3B3B3"/>
<stop offset="1"/>
</linearGradient>
<linearGradient id="paint5_linear_1328_54744" x1="318.767" y1="672.302" x2="318.767" y2="728.319" gradientUnits="userSpaceOnUse">
<stop stop-color="#B3B3B3"/>
<stop offset="1"/>
</linearGradient>
<linearGradient id="paint6_linear_1328_54744" x1="425.872" y1="672.302" x2="425.872" y2="728.319" gradientUnits="userSpaceOnUse">
<stop stop-color="#B3B3B3"/>
<stop offset="1"/>
</linearGradient>
<linearGradient id="paint7_linear_1328_54744" x1="536.28" y1="672.302" x2="536.28" y2="728.32" gradientUnits="userSpaceOnUse">
<stop stop-color="#B3B3B3"/>
<stop offset="1"/>
</linearGradient>
<linearGradient id="paint8_linear_1328_54744" x1="636.179" y1="672.302" x2="636.179" y2="728.32" gradientUnits="userSpaceOnUse">
<stop stop-color="#B3B3B3"/>
<stop offset="1"/>
</linearGradient>
<linearGradient id="paint9_linear_1328_54744" x1="732.286" y1="672.302" x2="732.286" y2="728.319" gradientUnits="userSpaceOnUse">
<stop stop-color="#B3B3B3"/>
<stop offset="1"/>
</linearGradient>
<linearGradient id="paint10_linear_1328_54744" x1="822.967" y1="672.302" x2="822.967" y2="728.32" gradientUnits="userSpaceOnUse">
<stop stop-color="#B3B3B3"/>
<stop offset="1"/>
</linearGradient>
</defs>
</svg>
