<svg width="1336" height="639" viewBox="0 0 1336 639" fill="none" xmlns="http://www.w3.org/2000/svg">
<path d="M555.627 308.479C545.926 297.778 540.802 283.701 541.354 269.266C540.754 254.954 545.853 240.988 555.532 230.432C560.023 225.583 565.493 221.743 571.578 219.167C577.664 216.591 584.227 215.336 590.834 215.487C598.473 215.331 606.01 217.273 612.623 221.104C618.699 224.641 623.724 229.734 627.18 235.858V217.202H649.064V322.091H627.18V302.485C623.731 308.845 618.68 314.192 612.528 317.997C605.995 321.957 598.47 323.972 590.834 323.805C584.21 323.924 577.638 322.617 571.564 319.973C565.489 317.329 560.054 313.409 555.627 308.479ZM617.76 295.346C620.975 291.895 623.466 287.835 625.084 283.404C626.702 278.973 627.415 274.262 627.18 269.551C627.42 264.854 626.71 260.156 625.091 255.74C623.472 251.324 620.979 247.28 617.76 243.851C614.862 240.856 611.394 238.472 607.561 236.837C603.728 235.202 599.607 234.351 595.44 234.334C591.273 234.316 587.145 235.132 583.298 236.734C579.451 238.336 575.963 240.691 573.04 243.662C569.813 247.046 567.312 251.055 565.692 255.442C564.072 259.829 563.367 264.501 563.62 269.171C563.397 273.91 564.114 278.646 565.731 283.106C567.348 287.565 569.832 291.66 573.04 295.154C575.89 298.23 579.342 300.688 583.181 302.375C587.021 304.061 591.165 304.941 595.358 304.959C599.551 304.977 603.703 304.133 607.557 302.479C611.41 300.826 614.883 298.398 617.76 295.346Z" fill="white"/>
<path d="M694.167 308.954C684.652 299.058 679.895 285.955 679.895 269.646C679.895 253.341 684.684 240.237 694.262 230.337C699.055 225.416 704.824 221.553 711.198 218.996C717.572 216.439 724.41 215.244 731.274 215.487C742.47 215.049 753.512 218.219 762.772 224.53C771.273 230.852 777.244 239.997 779.613 250.325H756.205C752.27 239.282 743.959 233.762 731.274 233.763C727.251 233.602 723.246 234.369 719.567 236.002C715.888 237.636 712.633 240.094 710.055 243.186C704.789 249.468 702.157 258.256 702.158 269.551C701.589 279.027 704.386 288.399 710.055 296.011C712.618 299.127 715.867 301.608 719.548 303.259C723.23 304.91 727.243 305.687 731.274 305.529C743.837 305.529 752.147 300.009 756.205 288.967H779.613C776.91 299.119 770.878 308.069 762.483 314.382C753.405 320.884 742.432 324.198 731.274 323.805C724.394 324.067 717.536 322.881 711.143 320.322C704.751 317.764 698.967 313.891 694.167 308.954Z" fill="white"/>
<path d="M861.629 234.906H836.128V292.966C835.98 294.492 836.149 296.032 836.623 297.49C837.098 298.947 837.869 300.291 838.887 301.437C841.605 303.421 844.958 304.337 848.307 304.009H861.629V322.091H844.499C824.329 322.091 814.244 312.383 814.244 292.966V234.906H801.871V217.201H814.244V191.122H836.128V217.201H861.629V234.906Z" fill="white"/>
<path d="M915.863 189.408C915.807 192.556 914.666 195.588 912.632 197.991C910.597 200.393 907.796 202.019 904.701 202.593C901.606 203.166 898.408 202.652 895.648 201.137C892.889 199.623 890.737 197.201 889.558 194.281C888.379 191.362 888.245 188.125 889.178 185.118C890.112 182.111 892.055 179.519 894.68 177.781C897.304 176.042 900.449 175.265 903.581 175.58C906.712 175.895 909.639 177.283 911.865 179.509C913.173 180.798 914.202 182.342 914.89 184.044C915.577 185.747 915.908 187.572 915.863 189.408ZM891.125 322.091V217.202H912.819V322.091L891.125 322.091Z" fill="white"/>
<path d="M938.51 217.202H961.723L991.413 302.675L1021.1 217.202H1044.51L1004.54 322.091H978.28L938.51 217.202Z" fill="white"/>
<path d="M1115.58 323.805C1108.6 324.036 1101.64 322.828 1095.14 320.257C1088.65 317.686 1082.75 313.806 1077.81 308.859C1072.81 303.67 1068.91 297.518 1066.36 290.778C1063.81 284.037 1062.65 276.847 1062.96 269.646C1062.74 262.482 1063.95 255.346 1066.53 248.66C1069.11 241.974 1073.01 235.875 1077.99 230.724C1082.98 225.574 1088.94 221.477 1095.54 218.677C1102.13 215.877 1109.22 214.431 1116.39 214.425C1123.55 214.419 1130.65 215.852 1137.25 218.64C1143.85 221.428 1149.82 225.514 1154.82 230.656C1159.81 235.798 1163.72 241.89 1166.31 248.571C1168.9 255.253 1170.13 262.387 1169.91 269.551C1170.2 276.823 1168.94 284.074 1166.24 290.83C1163.53 297.586 1159.44 303.696 1154.22 308.764C1149.09 313.706 1143.04 317.581 1136.41 320.163C1129.78 322.745 1122.7 323.983 1115.58 323.805ZM1138.13 296.011C1141.43 292.473 1143.97 288.304 1145.6 283.756C1147.24 279.208 1147.93 274.376 1147.65 269.551C1147.94 264.763 1147.27 259.966 1145.69 255.439C1144.1 250.912 1141.63 246.746 1138.42 243.186C1135.55 240.152 1132.08 237.747 1128.23 236.125C1124.38 234.503 1120.24 233.699 1116.06 233.763C1111.92 233.681 1107.82 234.479 1104.01 236.103C1100.2 237.728 1096.79 240.142 1093.98 243.186C1088.02 249.468 1085.04 258.288 1085.04 269.646C1085.04 281.005 1087.96 289.825 1093.79 296.106C1096.54 299.149 1099.9 301.566 1103.66 303.192C1107.42 304.818 1111.49 305.615 1115.58 305.529C1119.79 305.567 1123.96 304.742 1127.84 303.105C1131.72 301.468 1135.22 299.054 1138.13 296.011Z" fill="white"/>
<path d="M370.399 121.171C355.685 115.786 340.222 112.724 324.566 112.095L358.831 152.952L370.399 121.171Z" fill="#32A6DE"/>
<path d="M411.336 143.69C398.922 134.134 385.115 126.539 370.398 121.171L358.83 152.952L411.336 143.69Z" fill="#2D72B8"/>
<path d="M242.229 173.516L358.83 152.952L324.565 112.095C302.631 111.203 280.764 115.06 260.458 123.402L242.221 173.521L242.229 173.516Z" fill="#2D72B8"/>
<path d="M260.459 123.402C245.964 129.357 232.48 137.523 220.486 147.61L242.222 173.521L260.459 123.402Z" fill="#32A6DE"/>
<path d="M220.486 147.61C208.494 157.691 198.119 169.551 189.723 182.779L242.221 173.521L220.486 147.61Z" fill="#1B75BB"/>
<path d="M167.443 243.944C165.354 259.487 165.682 275.261 168.413 290.704L201.724 284.829H201.733L167.443 243.944Z" fill="#292C6A"/>
<path d="M242.229 173.516L201.732 284.83L318.344 264.261L242.229 173.516Z" fill="#1B75BB"/>
<path d="M201.733 284.829L242.23 173.516L242.222 173.521L189.723 182.779C177.971 201.32 170.37 222.186 167.443 243.944L201.733 284.829Z" fill="#2E3191"/>
<path d="M358.829 152.951L242.229 173.516L318.344 264.261L358.829 152.951Z" fill="#32A6DE"/>
<path d="M318.344 264.261L434.952 243.693L358.829 152.951L318.344 264.261Z" fill="#2D72B8"/>
<path d="M468.271 237.813C465.553 222.368 460.468 207.434 453.197 193.54L434.951 243.692L468.271 237.813Z" fill="#2D72B8"/>
<path d="M434.951 243.692L453.196 193.54C443.002 174.096 428.722 157.091 411.336 143.69L358.83 152.952L434.951 243.692Z" fill="#32A6DE"/>
<path d="M469.241 284.573C471.325 269.03 470.998 253.257 468.271 237.813L434.951 243.692L469.241 284.573Z" fill="#32A6DE"/>
<path d="M394.445 354.992L434.952 243.693L318.344 264.261L394.445 354.992Z" fill="#32A6DE"/>
<path d="M434.95 243.692L394.445 354.993L446.952 345.735C458.707 327.196 466.311 306.331 469.24 284.574L434.95 243.692Z" fill="#2D72B8"/>
<path d="M277.836 375.56H277.843L394.444 354.992L318.343 264.261L277.836 375.56Z" fill="#1B75BB"/>
<path d="M201.732 284.83H201.725L277.836 375.56L318.344 264.261L201.732 284.83Z" fill="#2E3191"/>
<path d="M183.48 334.961L201.725 284.829L168.414 290.704C171.125 306.145 176.207 321.074 183.48 334.961Z" fill="#2E3191"/>
<path d="M201.724 284.829L183.479 334.961C193.67 354.409 207.95 371.42 225.338 384.823L277.836 375.561L201.724 284.829Z" fill="#292C6A"/>
<path d="M266.277 407.342C280.993 412.724 296.455 415.784 312.11 416.414L277.845 375.562L266.277 407.342Z" fill="#292C6A"/>
<path d="M277.836 375.562L225.338 384.823C237.748 394.387 251.556 401.983 266.277 407.342L277.844 375.562H277.836Z" fill="#2E3191"/>
<path d="M277.846 375.562L312.111 416.414C334.045 417.325 355.915 413.467 376.214 405.107L394.447 354.993L277.846 375.562Z" fill="#2E3191"/>
<path d="M376.213 405.107C390.708 399.162 404.192 390.999 416.181 380.911L394.446 354.993L376.213 405.107Z" fill="#1B75BB"/>
<path d="M416.18 380.911C428.177 370.83 438.555 358.966 446.952 345.735L394.445 354.993L416.18 380.911Z" fill="#32A6DE"/>
<path d="M424.907 279.947C424.877 281.087 424.484 282.187 423.784 283.087C423.084 283.988 422.114 284.64 421.017 284.949L395.354 288.833C393.918 293.19 392.108 297.416 389.944 301.462C394.66 308.266 399.649 314.367 404.782 320.613C405.64 321.574 406.135 322.805 406.178 324.092C406.18 325.274 405.733 326.413 404.927 327.277C401.603 331.722 382.866 352.126 378.145 352.126C376.85 352.049 375.602 351.617 374.536 350.878L355.39 335.882C351.334 337.984 347.111 339.749 342.765 341.158C342.041 349.85 340.697 358.48 338.743 366.981C338.471 368.098 337.828 369.09 336.92 369.795C336.011 370.499 334.891 370.875 333.742 370.86H302.937C301.744 370.883 300.582 370.476 299.663 369.713C298.745 368.95 298.132 367.882 297.936 366.704L294.058 341.158C289.759 339.796 285.581 338.08 281.565 336.027L261.998 350.878C261.029 351.694 259.8 352.137 258.533 352.125C257.221 352.094 255.974 351.545 255.064 350.597C246.717 343.561 239.051 335.753 232.169 327.277C231.518 326.344 231.18 325.229 231.202 324.092C231.209 322.934 231.599 321.81 232.313 320.898C237.03 314.507 242.163 308.398 246.883 301.883C244.527 297.505 242.621 292.9 241.192 288.138L215.806 284.387C214.659 284.152 213.63 283.525 212.894 282.614C212.158 281.703 211.761 280.564 211.772 279.393V248.583C211.798 247.463 212.173 246.379 212.844 245.482C213.516 244.585 214.45 243.921 215.517 243.58L241.333 239.697C242.725 235.278 244.534 231.001 246.735 226.924C242.027 220.26 237.03 214.014 231.896 207.776C231.045 206.867 230.55 205.682 230.5 204.438C230.564 203.263 231.007 202.141 231.764 201.241C235.085 196.667 253.813 176.4 258.534 176.4C259.855 176.464 261.121 176.952 262.143 177.792L281.289 192.64C285.345 190.539 289.568 188.775 293.914 187.368C294.636 178.677 295.98 170.048 297.936 161.548C298.21 160.431 298.852 159.439 299.76 158.734C300.668 158.028 301.788 157.65 302.937 157.661H333.742C334.936 157.637 336.099 158.044 337.018 158.808C337.936 159.573 338.549 160.642 338.743 161.821L342.621 187.368C346.921 188.728 351.1 190.445 355.113 192.503L374.812 177.652C375.718 176.817 376.914 176.368 378.145 176.4C379.428 176.442 380.655 176.935 381.61 177.792C389.967 184.921 397.635 192.821 404.51 201.389C405.181 202.26 405.525 203.339 405.484 204.438C405.474 205.595 405.082 206.716 404.37 207.627C399.649 214.014 394.516 220.124 389.795 226.647C392.129 230.986 394.035 235.542 395.486 240.251L420.88 244.138C422.026 244.376 423.053 245.003 423.788 245.914C424.522 246.825 424.917 247.962 424.907 249.132L424.907 279.947Z" fill="white"/>
<path d="M286.192 297.878C278.946 289.809 275.129 279.233 275.551 268.395C275.139 257.536 278.953 246.941 286.192 238.838C289.424 235.147 293.418 232.2 297.899 230.201C302.379 228.202 307.24 227.199 312.146 227.261C316.702 227.033 321.242 227.954 325.35 229.939C329.457 231.924 333.001 234.91 335.654 238.622V228.122H360.241V308.38H335.654V296.73C333.08 300.696 329.537 303.939 325.361 306.154C321.184 308.369 316.512 309.482 311.786 309.388C306.943 309.426 302.149 308.418 297.731 306.432C293.314 304.445 289.377 301.528 286.192 297.878ZM330.333 282.922C332.18 280.974 333.606 278.665 334.522 276.141C335.437 273.617 335.823 270.932 335.654 268.252C335.828 265.582 335.444 262.906 334.528 260.393C333.612 257.879 332.184 255.584 330.333 253.653C328.736 252.029 326.831 250.742 324.73 249.865C322.629 248.988 320.374 248.54 318.097 248.547C315.82 248.553 313.568 249.015 311.472 249.904C309.376 250.793 307.478 252.092 305.891 253.725C304.043 255.673 302.617 257.981 301.701 260.505C300.786 263.029 300.401 265.715 300.57 268.395C300.396 271.064 300.779 273.741 301.695 276.254C302.611 278.768 304.04 281.063 305.891 282.994C307.488 284.617 309.393 285.905 311.494 286.782C313.596 287.658 315.851 288.107 318.127 288.1C320.404 288.093 322.657 287.632 324.753 286.742C326.849 285.853 328.746 284.554 330.333 282.922Z" fill="#272361"/>
</svg>
