<svg width="548" height="344" viewBox="0 0 548 344" fill="none" xmlns="http://www.w3.org/2000/svg">
<g clip-path="url(#clip0_1328_54582)">
<path d="M498.24 184.895C487 132.556 458.135 85.6506 416.461 52.003C374.786 18.3553 322.823 0.000488281 269.24 0.000488281C215.657 0.000488281 163.694 18.3553 122.02 52.003C80.3459 85.6506 51.4809 132.556 40.2402 184.895H498.24Z" fill="url(#paint0_linear_1328_54582)"/>
<path d="M492.502 163.258C457.757 158.29 380.833 148.15 338.776 149.261C283.295 150.726 234.301 164.119 173.168 165.738C126.036 166.98 70.4992 161.261 47.5167 158.572C44.5781 167.197 42.1485 175.986 40.2402 184.895H498.24C496.674 177.544 494.744 170.33 492.502 163.258Z" fill="#44B2E8"/>
<path d="M114.467 298.824C114.454 297.54 114.644 296.262 115.029 295.037C115.368 293.955 115.935 292.958 116.69 292.112C117.446 291.284 118.38 290.639 119.422 290.225C120.623 289.765 121.901 289.542 123.187 289.567C124.484 289.54 125.775 289.763 126.988 290.225C128.029 290.638 128.962 291.283 129.716 292.112C130.473 292.957 131.04 293.955 131.381 295.037C131.765 296.262 131.953 297.54 131.938 298.824C131.953 300.082 131.765 301.334 131.381 302.532C131.039 303.599 130.471 304.58 129.716 305.408C128.962 306.228 128.029 306.862 126.988 307.26C125.773 307.712 124.483 307.93 123.187 307.902C121.902 307.928 120.625 307.71 119.422 307.26C118.381 306.861 117.446 306.227 116.69 305.408C115.936 304.579 115.37 303.598 115.029 302.532C114.644 301.334 114.454 300.082 114.467 298.824ZM126.141 298.824C126.209 297.669 125.956 296.517 125.409 295.497C125.176 295.124 124.847 294.819 124.456 294.616C124.065 294.414 123.626 294.32 123.187 294.345C122.749 294.319 122.313 294.413 121.925 294.616C121.536 294.819 121.211 295.124 120.983 295.497C120.448 296.521 120.201 297.671 120.269 298.824C120.204 299.962 120.451 301.097 120.983 302.106C121.209 302.481 121.534 302.788 121.923 302.992C122.311 303.196 122.748 303.291 123.187 303.264C123.627 303.29 124.066 303.195 124.458 302.991C124.849 302.787 125.178 302.481 125.409 302.106C125.953 301.101 126.207 299.965 126.141 298.824Z" fill="#19AC8A"/>
<path d="M145.406 289.637C146.407 289.638 147.407 289.722 148.394 289.889C149.358 290.048 150.278 290.411 151.092 290.953C151.937 291.552 152.614 292.359 153.058 293.295C153.618 294.564 153.88 295.944 153.823 297.329V307.467C153.296 307.569 152.764 307.64 152.229 307.68C151.753 307.72 151.337 307.734 150.972 307.734C150.586 307.734 150.155 307.72 149.683 307.68C149.148 307.64 148.616 307.569 148.089 307.467V297.938C148.171 297.027 147.93 296.116 147.409 295.364C147.143 295.089 146.82 294.876 146.462 294.741C146.104 294.606 145.72 294.551 145.339 294.581C145.072 294.584 144.806 294.607 144.544 294.652C144.362 294.668 144.184 294.713 144.016 294.785V307.467C143.49 307.569 142.959 307.641 142.425 307.68C141.949 307.72 141.53 307.734 141.169 307.734C140.782 307.734 140.351 307.72 139.879 307.68C139.344 307.641 138.812 307.57 138.285 307.467V290.819C139.073 290.553 140.039 290.286 141.169 290.023C142.563 289.74 143.984 289.61 145.406 289.637Z" fill="#19AC8A"/>
<path d="M172.551 283.197C173.027 283.127 173.54 283.068 174.093 283.009C174.647 282.954 175.16 282.925 175.636 282.925C176.129 282.928 176.621 282.956 177.111 283.009C177.643 283.068 178.137 283.127 178.586 283.197L183.403 295.799L188.394 283.197C188.844 283.127 189.305 283.068 189.765 283.009C190.222 282.954 190.681 282.926 191.14 282.925C191.628 282.926 192.116 282.954 192.601 283.009C193.095 283.068 193.586 283.127 194.058 283.197L195.214 307.394C194.849 307.467 194.448 307.528 194.009 307.596C193.431 307.674 192.847 307.709 192.263 307.7C191.316 307.683 190.373 307.58 189.446 307.394L188.97 293.364L185.238 302.616C184.83 302.686 184.421 302.745 184.02 302.784C183.647 302.827 183.273 302.851 182.898 302.854C182.555 302.854 182.206 302.833 181.846 302.804C181.469 302.764 181.096 302.701 180.727 302.615L177.401 293.497L177.025 307.393C176.134 307.59 175.225 307.693 174.313 307.7C173.388 307.684 172.468 307.582 171.562 307.393L172.551 283.197Z" fill="#19AC8A"/>
<path d="M201.419 298.824C201.404 297.541 201.592 296.263 201.976 295.037C202.318 293.956 202.886 292.959 203.641 292.112C204.395 291.284 205.328 290.639 206.369 290.225C208.815 289.348 211.49 289.348 213.935 290.225C214.978 290.639 215.914 291.284 216.671 292.112C217.424 292.959 217.989 293.956 218.328 295.037C218.715 296.262 218.905 297.54 218.889 298.824C218.904 300.082 218.715 301.335 218.328 302.532C217.987 303.598 217.422 304.578 216.671 305.408C215.914 306.227 214.978 306.861 213.935 307.26C211.486 308.117 208.818 308.117 206.369 307.26C205.329 306.861 204.395 306.227 203.641 305.408C202.887 304.579 202.32 303.598 201.976 302.532C201.593 301.334 201.404 300.082 201.419 298.824ZM213.088 298.824C213.155 297.67 212.903 296.519 212.359 295.498C212.127 295.124 211.798 294.819 211.406 294.617C211.015 294.414 210.577 294.32 210.137 294.345C209.699 294.319 209.263 294.412 208.874 294.615C208.486 294.818 208.161 295.123 207.933 295.498C207.397 296.521 207.15 297.671 207.22 298.824C207.152 299.963 207.399 301.098 207.933 302.106C208.159 302.482 208.484 302.789 208.873 302.993C209.261 303.198 209.699 303.292 210.137 303.265C210.578 303.29 211.017 303.196 211.408 302.992C211.799 302.788 212.128 302.482 212.359 302.106C212.901 301.1 213.153 299.964 213.088 298.824Z" fill="#19AC8A"/>
<path d="M232.362 289.637C233.362 289.638 234.36 289.722 235.346 289.889C236.309 290.049 237.228 290.412 238.041 290.953C238.887 291.552 239.565 292.359 240.01 293.295C240.571 294.564 240.833 295.944 240.776 297.329V307.467C240.248 307.569 239.714 307.641 239.178 307.68C238.705 307.72 238.286 307.734 237.922 307.734C237.542 307.734 237.111 307.72 236.636 307.68C236.099 307.64 235.566 307.569 235.038 307.467V297.938C235.121 297.027 234.881 296.116 234.361 295.364C234.095 295.089 233.772 294.877 233.414 294.741C233.056 294.606 232.673 294.552 232.291 294.581C232.025 294.584 231.759 294.607 231.496 294.651C231.314 294.668 231.136 294.713 230.968 294.785V307.467C230.441 307.57 229.909 307.641 229.374 307.68C228.898 307.72 228.482 307.734 228.118 307.734C227.735 307.734 227.308 307.72 226.832 307.68C226.295 307.64 225.762 307.569 225.234 307.467V290.819C226.029 290.553 226.988 290.286 228.118 290.023C229.514 289.74 230.937 289.611 232.362 289.637Z" fill="#19AC8A"/>
<path d="M251.361 294.756H246.336C246.229 294.337 246.157 293.91 246.121 293.479C246.083 293.092 246.068 292.706 246.068 292.35C246.068 291.983 246.083 291.613 246.121 291.225C246.158 290.803 246.23 290.384 246.336 289.974H262.116C262.221 290.384 262.294 290.803 262.331 291.225C262.368 291.613 262.384 291.983 262.384 292.35C262.384 292.706 262.368 293.092 262.331 293.479C262.294 293.91 262.222 294.337 262.116 294.756H257.091V307.467C256.504 307.557 255.973 307.621 255.497 307.666C255.025 307.71 254.594 307.735 254.207 307.735C253.824 307.735 253.393 307.71 252.921 307.666C252.446 307.621 251.926 307.557 251.361 307.467L251.361 294.756Z" fill="#19AC8A"/>
<path d="M272.766 300.547C272.928 301.347 273.397 302.052 274.071 302.512C274.821 302.929 275.674 303.128 276.532 303.087C277.273 303.08 278.011 303.002 278.738 302.854C279.561 302.694 280.368 302.456 281.146 302.142C281.493 302.813 281.771 303.517 281.976 304.244C282.216 305.07 282.347 305.924 282.365 306.784C280.391 307.522 278.3 307.901 276.192 307.902C274.765 307.935 273.344 307.705 272 307.224C270.918 306.828 269.943 306.184 269.154 305.344C268.405 304.522 267.848 303.545 267.522 302.482C267.162 301.307 266.984 300.083 266.995 298.854C266.988 297.625 267.172 296.402 267.541 295.23C267.875 294.146 268.429 293.141 269.169 292.28C269.914 291.426 270.841 290.75 271.882 290.3C273.082 289.788 274.378 289.538 275.683 289.567C276.782 289.547 277.873 289.756 278.886 290.182C279.795 290.562 280.612 291.134 281.28 291.86C281.955 292.605 282.469 293.481 282.79 294.434C283.147 295.486 283.325 296.59 283.316 297.701C283.319 298.25 283.291 298.798 283.232 299.344C283.178 299.833 283.123 300.235 283.078 300.547L272.766 300.547ZM275.483 293.869C274.798 293.857 274.132 294.099 273.614 294.547C273.048 295.104 272.719 295.858 272.696 296.651H278.126C278.107 295.928 277.851 295.231 277.397 294.667C277.16 294.397 276.865 294.185 276.533 294.046C276.201 293.908 275.842 293.847 275.483 293.869Z" fill="#19AC8A"/>
<path d="M289.49 290.043C290.552 289.905 291.653 289.796 292.797 289.706C293.94 289.613 295.019 289.566 296.035 289.568C298.2 289.414 300.358 289.954 302.195 291.107C302.865 291.605 303.402 292.26 303.76 293.013C304.119 293.767 304.287 294.596 304.25 295.429C304.26 296.05 304.178 296.668 304.008 297.265C303.874 297.733 303.681 298.182 303.433 298.602C303.241 298.934 303.001 299.236 302.72 299.498C302.473 299.725 302.269 299.909 302.11 300.042L305.976 307.428C305.477 307.525 304.973 307.592 304.467 307.63C303.914 307.675 303.379 307.7 302.859 307.7C302.222 307.7 301.613 307.675 301.025 307.63C300.533 307.599 300.045 307.532 299.563 307.428L295.8 299.434L296.276 299.156C296.935 298.827 297.495 298.332 297.903 297.72C298.193 297.221 298.346 296.655 298.344 296.078C298.367 295.547 298.178 295.029 297.819 294.636C297.594 294.431 297.328 294.276 297.039 294.179C296.749 294.082 296.443 294.046 296.139 294.073C295.809 294.068 295.48 294.092 295.154 294.146V307.467C294.628 307.57 294.097 307.641 293.563 307.68C293.082 307.72 292.666 307.734 292.305 307.734C291.921 307.734 291.505 307.72 291.05 307.68C290.527 307.639 290.006 307.568 289.49 307.467L289.49 290.043Z" fill="#19AC8A"/>
<path d="M315.748 300.547C315.912 301.347 316.38 302.051 317.055 302.512C317.804 302.929 318.656 303.128 319.513 303.087C320.255 303.08 320.995 303.002 321.722 302.854C322.546 302.693 323.352 302.455 324.13 302.142C324.477 302.812 324.755 303.517 324.959 304.244C325.197 305.071 325.328 305.924 325.349 306.784C323.374 307.522 321.284 307.9 319.175 307.902C317.748 307.935 316.328 307.706 314.984 307.224C313.901 306.829 312.925 306.185 312.137 305.344C311.387 304.522 310.83 303.545 310.504 302.482C310.145 301.306 309.968 300.083 309.979 298.854C309.971 297.625 310.155 296.402 310.524 295.23C310.858 294.146 311.412 293.141 312.151 292.28C312.899 291.426 313.827 290.75 314.869 290.3C316.067 289.788 317.361 289.538 318.664 289.567C319.765 289.547 320.857 289.756 321.871 290.181C322.781 290.563 323.598 291.136 324.267 291.86C324.942 292.604 325.454 293.481 325.771 294.434C326.131 295.485 326.31 296.59 326.301 297.701C326.303 298.25 326.275 298.798 326.215 299.344C326.157 299.833 326.107 300.235 326.062 300.547L315.748 300.547ZM318.467 293.869C317.781 293.857 317.115 294.099 316.597 294.547C316.031 295.104 315.701 295.858 315.677 296.651H321.109C321.089 295.928 320.833 295.231 320.38 294.667C320.143 294.397 319.848 294.184 319.516 294.046C319.184 293.908 318.825 293.847 318.467 293.869Z" fill="#19AC8A"/>
<path d="M342.584 289.973C342.927 289.908 343.274 289.863 343.623 289.839C344.129 289.796 344.678 289.771 345.265 289.771C346.008 289.771 346.677 289.796 347.264 289.839C347.857 289.885 348.276 289.93 348.525 289.973L341.972 301.33V307.467C341.385 307.557 340.854 307.621 340.381 307.666C339.903 307.709 339.475 307.734 339.091 307.734C338.705 307.734 338.273 307.709 337.803 307.666C337.327 307.621 336.807 307.557 336.242 307.467V301.33L329.727 289.973C329.976 289.93 330.41 289.885 331.031 289.839C331.655 289.796 332.34 289.771 333.086 289.771C333.675 289.771 334.251 289.796 334.814 289.839C335.19 289.861 335.565 289.905 335.935 289.973L339.259 296.652L342.584 289.973Z" fill="#19AC8A"/>
<path d="M382.138 300.379C382.186 301.659 381.908 302.93 381.328 304.072C380.803 305.026 380.029 305.822 379.088 306.373C378.042 306.98 376.89 307.383 375.694 307.562C374.282 307.797 372.852 307.911 371.421 307.902C370.202 307.902 369.101 307.858 368.133 307.77C367.153 307.675 366.106 307.562 364.971 307.428V283.197C365.833 283.058 366.77 282.949 367.79 282.859C368.807 282.771 369.993 282.721 371.354 282.721C372.565 282.715 373.774 282.823 374.965 283.043C376 283.226 376.993 283.593 377.898 284.127C378.724 284.624 379.409 285.324 379.886 286.161C380.405 287.147 380.656 288.252 380.615 289.365C380.627 290.375 380.381 291.372 379.901 292.261C379.48 293.074 378.862 293.768 378.102 294.28C378.635 294.487 379.142 294.755 379.614 295.077C380.109 295.411 380.545 295.824 380.905 296.3C381.299 296.827 381.603 297.415 381.804 298.042C382.039 298.798 382.151 299.588 382.138 300.379ZM370.843 292.443H371.794C372.594 292.491 373.388 292.287 374.066 291.86C374.358 291.608 374.584 291.289 374.727 290.93C374.869 290.572 374.922 290.184 374.881 289.801C374.899 289.417 374.814 289.035 374.634 288.696C374.455 288.356 374.187 288.07 373.86 287.869C373.559 287.686 373.226 287.561 372.879 287.499C372.531 287.434 372.178 287.401 371.824 287.399H371.333C371.169 287.396 371.005 287.408 370.843 287.433V292.443ZM370.843 297.264V302.954C371.039 302.982 371.237 303 371.435 303.008C371.673 303.017 371.985 303.022 372.372 303.022C372.811 303.022 373.249 302.976 373.678 302.883C374.101 302.799 374.507 302.647 374.881 302.432C375.24 302.216 375.538 301.911 375.745 301.548C375.975 301.115 376.086 300.63 376.066 300.141C376.114 299.704 376.04 299.263 375.851 298.865C375.663 298.468 375.368 298.13 375 297.89C374.15 297.44 373.196 297.224 372.235 297.264L370.843 297.264Z" fill="#19AC8A"/>
<path d="M387.608 301.77C387.568 300.805 387.813 299.849 388.311 299.022C388.781 298.311 389.41 297.72 390.148 297.295C390.917 296.859 391.753 296.554 392.622 296.393C393.494 296.229 394.38 296.144 395.267 296.141H397.339C397.331 295.777 397.213 295.424 397.001 295.127C396.801 294.853 396.531 294.637 396.22 294.502C395.886 294.349 395.532 294.245 395.169 294.191C394.777 294.136 394.381 294.108 393.984 294.107C393.346 294.119 392.71 294.182 392.082 294.295C391.32 294.431 390.571 294.63 389.842 294.889C389.639 294.502 389.465 294.151 389.317 293.84C389.171 293.53 389.058 293.206 388.977 292.874C388.898 292.54 388.841 292.201 388.806 291.86C388.777 291.504 388.756 291.102 388.756 290.651C389.814 290.297 390.898 290.025 391.998 289.84C392.954 289.671 393.922 289.58 394.893 289.567C395.974 289.553 397.05 289.695 398.09 289.989C398.983 290.242 399.81 290.688 400.512 291.295C401.201 291.912 401.731 292.686 402.056 293.552C402.44 294.598 402.625 295.706 402.601 296.82V306.755C401.734 306.997 400.699 307.249 399.48 307.498C398.205 307.75 396.909 307.874 395.609 307.868C394.52 307.879 393.434 307.771 392.368 307.546C391.467 307.369 390.609 307.019 389.841 306.517C389.14 306.04 388.573 305.391 388.196 304.632C387.778 303.737 387.576 302.757 387.608 301.77ZM395.61 303.666C396.191 303.643 396.769 303.575 397.339 303.462V299.736H395.407C394.706 299.714 394.013 299.889 393.405 300.24C393.153 300.381 392.944 300.589 392.8 300.84C392.657 301.091 392.584 301.377 392.59 301.666C392.568 302.047 392.677 302.425 392.899 302.736C393.098 302.995 393.36 303.2 393.661 303.33C393.973 303.465 394.303 303.555 394.641 303.596C394.962 303.642 395.286 303.665 395.61 303.666Z" fill="#19AC8A"/>
<path d="M419.459 289.973C419.801 289.908 420.146 289.863 420.494 289.839C421 289.796 421.549 289.771 422.139 289.771C422.885 289.771 423.551 289.796 424.141 289.839C424.728 289.885 425.147 289.929 425.398 289.973L418.85 301.33V307.467C418.26 307.557 417.729 307.621 417.254 307.666C416.778 307.709 416.346 307.734 415.965 307.734C415.579 307.734 415.152 307.709 414.677 307.666C414.204 307.621 413.684 307.557 413.116 307.467V301.33L406.605 289.973C406.853 289.93 407.284 289.885 407.908 289.839C408.533 289.796 409.211 289.771 409.965 289.771C410.547 289.771 411.125 289.796 411.689 289.839C412.065 289.86 412.439 289.905 412.81 289.973L416.136 296.652L419.459 289.973Z" fill="#19AC8A"/>
<path d="M64.7834 262.227C63.1049 262.199 61.4317 262.031 59.7814 261.724V245.332H49.8356V261.723C48.2033 262.025 46.5493 262.193 44.8897 262.227C43.2122 262.199 41.54 262.03 39.8906 261.723V221.646C40.9018 221.498 41.8166 221.378 42.6407 221.304C43.4659 221.235 44.1946 221.195 44.8335 221.195C45.5061 221.195 46.2681 221.235 47.1081 221.304C47.952 221.378 48.8627 221.498 49.8356 221.646V236.516H59.7814V221.646C60.7918 221.498 61.6985 221.378 62.5051 221.304C63.3116 221.235 64.0471 221.195 64.7235 221.195C65.3999 221.195 66.1581 221.235 66.9981 221.304C67.8457 221.378 68.7525 221.498 69.7264 221.646V261.724C68.0951 262.025 66.442 262.193 64.7834 262.227Z" fill="#396EB5"/>
<path d="M85.9077 261.778C85.0452 261.925 84.2574 262.039 83.5476 262.114C82.8576 262.188 82.1641 262.226 81.4701 262.227C80.7937 262.227 80.0176 262.177 79.1364 262.089C78.2591 261.995 77.2755 261.855 76.1855 261.667L88.7771 221.586C89.7508 221.473 90.6569 221.378 91.5007 221.303C92.3446 221.235 93.1922 221.194 94.0538 221.194C94.7676 221.194 95.5443 221.235 96.3875 221.303C97.2275 221.378 98.1927 221.472 99.2832 221.586L111.7 261.723C109.842 262.035 107.964 262.203 106.08 262.227C105.329 262.227 104.582 262.188 103.831 262.113C103.085 262.039 102.278 261.925 101.416 261.778L99.2831 253.975C98.2958 254.262 97.2915 254.487 96.2761 254.648C94.4623 254.935 92.6154 254.945 90.7986 254.678C89.8507 254.537 88.9123 254.338 87.9885 254.084L85.9077 261.778ZM93.775 232.145L90.0106 246.566C90.6498 246.753 91.2444 246.907 91.8087 247.015C92.3816 247.129 92.9645 247.185 93.5486 247.183C94.1792 247.183 94.8089 247.136 95.4323 247.04C96.0858 246.942 96.7325 246.803 97.3689 246.625L93.775 232.145Z" fill="#396EB5"/>
<path d="M118.162 221.646C119.173 221.498 120.091 221.378 120.916 221.304C121.737 221.235 122.469 221.195 123.105 221.195C123.778 221.195 124.54 221.235 125.383 221.304C126.223 221.378 127.133 221.498 128.107 221.646V253.075H141.089C141.254 253.883 141.375 254.699 141.453 255.52C141.508 256.218 141.535 256.842 141.535 257.401C141.535 258.034 141.507 258.7 141.453 259.397C141.393 260.084 141.274 260.916 141.089 261.892H118.162V221.646Z" fill="#396EB5"/>
<path d="M148.559 221.532H172.273C172.422 222.358 172.537 223.122 172.611 223.834C172.683 224.505 172.721 225.178 172.723 225.853C172.699 227.341 172.548 228.825 172.273 230.288H158.503V237.135H169.351C170.026 240.033 170.026 243.048 169.351 245.947H158.504V261.723C156.872 262.025 155.219 262.193 153.561 262.227C151.882 262.199 150.209 262.03 148.559 261.723L148.559 221.532Z" fill="#396EB5"/>
<path d="M196.376 221.646C197.16 221.532 198.015 221.428 198.929 221.333C199.851 221.244 200.701 221.194 201.49 221.194C202.236 221.194 203.051 221.244 203.931 221.333C204.812 221.428 205.626 221.532 206.377 221.646L214.355 242.525L222.617 221.646C223.368 221.532 224.126 221.428 224.891 221.333C225.646 221.243 226.405 221.197 227.166 221.194C227.973 221.197 228.78 221.244 229.582 221.333C230.406 221.428 231.211 221.532 231.997 221.646L233.908 261.723C233.309 261.837 232.644 261.95 231.916 262.059C230.956 262.186 229.988 262.242 229.021 262.227C227.454 262.2 225.893 262.032 224.356 261.723L223.569 238.486L217.392 253.807C216.716 253.915 216.039 254.01 215.367 254.083C214.751 254.158 214.132 254.197 213.512 254.199C212.931 254.2 212.35 254.171 211.773 254.113C211.146 254.06 210.525 253.957 209.915 253.807L204.41 238.708L203.79 261.723C202.314 262.048 200.808 262.217 199.297 262.227C197.767 262.203 196.242 262.035 194.744 261.723L196.376 221.646Z" fill="#396EB5"/>
<path d="M249.643 261.778C248.782 261.925 247.993 262.039 247.284 262.114C246.594 262.188 245.901 262.226 245.207 262.227C244.53 262.227 243.753 262.177 242.872 262.089C241.996 261.995 241.01 261.855 239.922 261.667L252.513 221.586C253.486 221.473 254.395 221.379 255.237 221.303C256.08 221.235 256.928 221.194 257.79 221.194C258.503 221.194 259.28 221.235 260.124 221.303C260.964 221.378 261.929 221.472 263.019 221.586L275.435 261.723C273.578 262.035 271.699 262.203 269.816 262.227C269.066 262.227 268.317 262.189 267.571 262.113C266.821 262.039 266.014 261.925 265.152 261.778L263.019 253.975C262.032 254.262 261.028 254.487 260.013 254.648C258.198 254.935 256.351 254.945 254.534 254.678C253.587 254.537 252.648 254.338 251.725 254.084L249.643 261.778ZM257.511 232.145L253.747 246.566C254.386 246.753 254.98 246.907 255.545 247.015C256.118 247.129 256.701 247.185 257.284 247.183C257.915 247.183 258.545 247.136 259.169 247.04C259.822 246.942 260.469 246.803 261.105 246.625L257.511 232.145Z" fill="#396EB5"/>
<path d="M281.899 221.646C283.729 221.457 285.426 221.274 286.982 221.111C288.615 220.936 290.256 220.852 291.898 220.859C293.971 220.859 296.04 221.054 298.077 221.442C300.02 221.795 301.886 222.489 303.587 223.492C305.207 224.477 306.557 225.848 307.516 227.483C308.598 229.437 309.124 231.651 309.037 233.882C309.053 235.143 308.893 236.399 308.562 237.615C308.271 238.644 307.855 239.633 307.323 240.561C306.851 241.373 306.285 242.127 305.638 242.808C305.071 243.394 304.461 243.937 303.812 244.432L312.576 261.723C311.676 261.876 310.695 261.98 309.624 262.059C308.562 262.134 307.591 262.173 306.733 262.173C305.983 262.173 305.112 262.135 304.122 262.059C303.244 261.999 302.37 261.887 301.505 261.723L293.528 243.373L294.031 243.085C294.58 242.787 295.082 242.409 295.519 241.962C296.099 241.397 296.609 240.765 297.04 240.08C297.525 239.314 297.92 238.495 298.22 237.64C298.538 236.738 298.698 235.789 298.695 234.833C298.762 234.075 298.655 233.313 298.382 232.602C298.11 231.892 297.679 231.254 297.123 230.735C296.025 229.856 294.649 229.398 293.243 229.442C292.925 229.439 292.607 229.459 292.292 229.501C292.118 229.517 291.947 229.553 291.783 229.61V261.723C290.17 262.023 288.535 262.191 286.894 262.227C285.218 262.199 283.547 262.03 281.898 261.723L281.899 221.646Z" fill="#396EB5"/>
<path d="M325.949 261.778C325.086 261.925 324.299 262.039 323.586 262.114C322.896 262.188 322.203 262.226 321.509 262.227C320.835 262.227 320.059 262.177 319.18 262.089C318.299 261.995 317.312 261.855 316.227 261.667L328.813 221.586C329.79 221.473 330.696 221.378 331.539 221.303C332.383 221.235 333.233 221.194 334.096 221.194C334.809 221.194 335.582 221.235 336.429 221.303C337.272 221.378 338.238 221.473 339.324 221.586L351.738 261.723C349.881 262.035 348.004 262.203 346.122 262.227C345.373 262.227 344.62 262.188 343.874 262.113C343.124 262.039 342.316 261.925 341.453 261.778L339.323 253.975C338.336 254.262 337.331 254.487 336.316 254.648C335.378 254.796 334.43 254.87 333.481 254.871C332.595 254.87 331.712 254.805 330.836 254.678C329.888 254.536 328.95 254.338 328.027 254.084L325.949 261.778ZM333.812 232.145L330.05 246.566C330.689 246.753 331.284 246.907 331.848 247.015C332.421 247.129 333.005 247.185 333.59 247.183C334.22 247.183 334.85 247.136 335.473 247.04C336.127 246.942 336.774 246.803 337.41 246.625L333.812 232.145Z" fill="#396EB5"/>
<path d="M360.508 230.288H351.122C350.449 227.408 350.449 224.412 351.122 221.532H379.834C379.984 222.358 380.1 223.122 380.174 223.834C380.245 224.505 380.282 225.178 380.282 225.853C380.259 227.341 380.109 228.825 379.834 230.288H370.453V261.723C368.819 262.025 367.164 262.193 365.504 262.227C363.827 262.199 362.156 262.03 360.508 261.723L360.508 230.288Z" fill="#396EB5"/>
<path d="M412.204 262.227C410.526 262.199 408.852 262.031 407.202 261.724V245.332H397.256V261.723C395.623 262.025 393.969 262.193 392.31 262.227C390.632 262.199 388.96 262.03 387.311 261.723V221.646C388.321 221.498 389.238 221.378 390.065 221.304C390.888 221.235 391.617 221.195 392.25 221.195C392.929 221.195 393.69 221.235 394.53 221.304C395.372 221.378 396.279 221.498 397.256 221.646V236.516H407.202V221.646C408.214 221.498 409.12 221.378 409.925 221.304C410.733 221.235 411.471 221.195 412.145 221.195C412.819 221.195 413.58 221.235 414.424 221.304C415.262 221.378 416.169 221.498 417.147 221.646V261.724C415.516 262.024 413.863 262.193 412.204 262.227Z" fill="#396EB5"/>
<path d="M425.632 241.847C425.608 239.037 425.958 236.236 426.672 233.517C427.288 231.11 428.375 228.848 429.872 226.864C431.331 224.978 433.219 223.466 435.38 222.453C437.878 221.335 440.595 220.791 443.332 220.859C446.058 220.789 448.764 221.334 451.25 222.453C453.399 223.472 455.277 224.983 456.731 226.864C458.228 228.849 459.317 231.11 459.937 233.517C460.647 236.236 460.995 239.037 460.972 241.847C460.998 244.642 460.65 247.427 459.937 250.129C459.315 252.509 458.225 254.742 456.731 256.698C455.278 258.558 453.398 260.04 451.25 261.021C448.756 262.11 446.053 262.638 443.332 262.565C440.6 262.636 437.886 262.109 435.38 261.021C433.22 260.047 431.33 258.563 429.872 256.698C428.378 254.743 427.29 252.51 426.672 250.129C425.955 247.428 425.605 244.642 425.632 241.847ZM450.523 241.847C450.523 233.695 448.143 229.616 443.385 229.61C438.515 229.61 436.081 233.689 436.083 241.847C435.884 244.991 436.493 248.134 437.852 250.977C438.394 251.938 439.194 252.729 440.163 253.259C441.131 253.789 442.229 254.037 443.332 253.975C448.124 253.975 450.521 249.933 450.523 241.847Z" fill="#396EB5"/>
<path d="M469.455 221.646C470.279 221.498 471.031 221.378 471.703 221.304C472.357 221.234 473.015 221.198 473.673 221.195C474.376 221.199 475.078 221.245 475.776 221.334C476.512 221.428 477.137 221.533 477.661 221.646L490.698 243.65V221.646C491.669 221.498 492.552 221.378 493.335 221.304C494.123 221.235 494.836 221.195 495.476 221.195C496.109 221.195 496.78 221.235 497.496 221.304C498.208 221.378 498.958 221.498 499.741 221.646L499.682 261.724C499.149 261.872 498.607 261.984 498.059 262.059C497.296 262.176 496.525 262.232 495.753 262.227C494.906 262.236 494.061 262.169 493.226 262.03C492.477 261.901 491.932 261.801 491.595 261.723L478.503 239.828V261.723C477.026 262.04 475.52 262.209 474.009 262.227C472.478 262.208 470.953 262.039 469.455 261.723L469.455 221.646Z" fill="#396EB5"/>
<path d="M500.316 288.8H447.012V290.315H500.316V288.8Z" fill="#1F6A95"/>
<path d="M500.316 297.611H447.012V299.121H500.316V297.611Z" fill="#1F6A95"/>
<path d="M500.316 306.428H447.012V307.938H500.316V306.428Z" fill="#1F6A95"/>
<path d="M91.9503 288.8H38.6465V290.315H91.9503V288.8Z" fill="#1F6A95"/>
<path d="M91.9503 297.611H38.6465V299.121H91.9503V297.611Z" fill="#1F6A95"/>
<path d="M91.9503 306.428H38.6465V307.938H91.9503V306.428Z" fill="#1F6A95"/>
<path d="M339.095 123.043C337.425 117.939 336.322 112.668 335.806 107.323C334.323 102.118 322.431 91.6508 319.436 85.2329C316.436 78.8127 312.36 69.4175 313.21 63.3083C313.763 59.9768 315.134 56.8343 317.201 54.1619C319.268 51.4896 321.965 49.3707 325.053 47.995C328.308 47.0697 326.936 52.1461 326.936 52.1461C326.936 52.1461 352.574 63.8783 363.684 80.6588C364.323 81.8613 364.645 83.2066 364.621 84.5679C364.596 85.9293 364.225 87.262 363.542 88.4405C366.8 85.6534 370.96 84.1418 375.249 84.1861C385.751 83.7277 396.269 83.7981 406.764 84.3969C414.453 85.033 423.383 88.3612 425.741 88.3962C428.095 88.4335 433.596 85.4655 435.419 87.7648C436.768 94.1803 426.557 102.052 389.004 109.507L362.32 113.88L354.397 118.239L348.277 123.958L339.095 123.043Z" fill="white"/>
<path d="M324.482 160.021C324.482 160.021 329.74 114.912 353.227 95.1157C344.397 108.645 338.867 124.531 348.931 120.488C353.802 118.536 355.036 114.154 359.406 111.897C366.021 108.469 409.632 102.794 425.842 98.6874C420.608 102.831 364.183 115.231 362.374 115.743C360.128 116.296 358.129 117.577 356.688 119.385C355.248 121.194 354.448 123.428 354.414 125.738C353.849 135.397 354.934 145.082 357.622 154.378C360.805 163.09 324.482 160.021 324.482 160.021Z" fill="#636467"/>
<path d="M177.033 11.2869C177.033 11.2869 205.107 9.67563 214.743 28.9866C234.934 14.5365 254.073 32.0777 254.073 32.0777C254.073 32.0777 219.274 22.9887 210.023 39.3695C205.664 18.6752 177.033 11.2869 177.033 11.2869Z" fill="#1F6A95"/>
<path d="M177.568 9.57604C177.568 9.57604 205.642 7.96244 215.274 27.278C235.469 12.8235 254.609 30.3677 254.609 30.3677C254.609 30.3677 219.805 21.274 210.563 37.6587C206.2 16.9644 177.568 9.57604 177.568 9.57604Z" fill="white"/>
<path d="M246.514 51.0985C246.514 51.0985 265.345 50.0145 271.807 62.9642C285.349 53.2743 298.191 65.0437 298.191 65.0437C298.191 65.0437 274.848 58.9426 268.641 69.9296C265.716 56.0511 246.514 51.0985 246.514 51.0985Z" fill="#1F6A95"/>
<path d="M246.877 49.9506C246.877 49.9506 265.704 48.8657 272.167 61.8203C285.708 52.1255 298.547 63.8927 298.547 63.8927C298.547 63.8927 275.207 57.796 269.001 68.7855C266.076 54.9023 246.877 49.9506 246.877 49.9506Z" fill="white"/>
<path d="M269.242 10.4205C269.242 10.4205 283.365 9.60855 288.216 19.3235C298.368 12.0511 307.997 20.8781 307.997 20.8781C307.997 20.8781 290.492 16.3064 285.837 24.5453C283.642 14.1354 269.242 10.4205 269.242 10.4205Z" fill="#1F6A95"/>
<path d="M269.512 9.55863C269.512 9.55863 283.635 8.74676 288.485 18.4641C298.641 11.1923 308.273 20.0185 308.273 20.0185C308.273 20.0185 290.762 15.4446 286.111 23.6864C283.916 13.2764 269.512 9.55863 269.512 9.55863Z" fill="white"/>
<path d="M209.789 62.7265C209.789 62.7265 219.198 62.1845 222.432 68.6622C224.429 67.3369 226.814 66.7189 229.204 66.907C231.594 67.095 233.852 68.0782 235.617 69.6995C235.617 69.6995 223.948 66.6496 220.845 72.1444C219.384 65.2071 209.789 62.7265 209.789 62.7265Z" fill="#1F6A95"/>
<path d="M209.967 62.1547C209.967 62.1547 219.376 61.6128 222.61 68.0881C224.608 66.7636 226.993 66.1463 229.384 66.3346C231.775 66.5229 234.033 67.5061 235.799 69.1271C235.799 69.1271 224.13 66.0757 221.026 71.5704C219.562 64.6277 209.967 62.1547 209.967 62.1547Z" fill="white"/>
<path d="M548 311.982C547.991 320.47 544.612 328.609 538.605 334.611C532.597 340.614 524.451 343.99 515.954 344H32.0502C23.5528 343.991 15.406 340.615 9.39746 334.612C3.38887 328.61 0.0092061 320.471 0 311.982L0 214.176C0.00920612 205.687 3.38887 197.548 9.39746 191.546C15.406 185.543 23.5528 182.167 32.0502 182.158H515.954C524.451 182.168 532.597 185.544 538.605 191.547C544.612 197.549 547.991 205.688 548 214.176M32.0502 185.183C24.3555 185.191 16.9782 188.248 11.5372 193.683C6.09616 199.119 3.03597 206.489 3.02814 214.176V311.982C3.03672 319.669 6.09714 327.038 11.538 332.474C16.9788 337.909 24.3557 340.967 32.0502 340.975H515.954C523.648 340.965 531.024 337.907 536.463 332.472C541.903 327.037 544.963 319.668 544.972 311.982V214.176C544.964 206.49 541.904 199.121 536.464 193.685C531.024 188.25 523.648 185.192 515.954 185.183L32.0502 185.183Z" fill="#9DD6C2"/>
<path d="M181.953 184.894L179.721 162.375L178.139 146.349H141.025L137.211 184.894H181.953Z" fill="url(#paint1_linear_1328_54582)"/>
<path d="M176.313 105.838H142.857V146.351H176.313V105.838Z" fill="url(#paint2_linear_1328_54582)"/>
<path d="M158.102 76.4283H161.068L159.417 32.4531L158.102 76.4283Z" fill="url(#paint3_linear_1328_54582)"/>
<path d="M165.522 81.55C165.523 82.7234 165.175 83.8706 164.523 84.8465C163.871 85.8225 162.944 86.5833 161.859 87.0329C160.774 87.4824 159.58 87.6005 158.428 87.3721C157.276 87.1438 156.217 86.5793 155.386 85.75C154.555 84.9207 153.989 83.8639 153.759 82.7131C153.53 81.5624 153.646 80.3695 154.095 79.2851C154.544 78.2008 155.305 77.2738 156.281 76.6214C157.257 75.9689 158.405 75.6203 159.58 75.6196C161.155 75.6201 162.665 76.2449 163.779 77.3568C164.893 78.4687 165.52 79.9767 165.522 81.55Z" fill="url(#paint4_linear_1328_54582)"/>
<path d="M185.559 147.096H133.604V122.256H185.559V147.096ZM135.094 145.608H184.069V123.743H135.094V145.608Z" fill="white"/>
<path d="M151.966 122.998H150.477V146.35H151.966V122.998Z" fill="white"/>
<path d="M143.603 122.998H142.111V146.35H143.603V122.998Z" fill="white"/>
<path d="M160.325 122.998H158.838V146.35H160.325V122.998Z" fill="white"/>
<path d="M177.055 122.998H175.564V146.35H177.055V122.998Z" fill="white"/>
<path d="M168.693 122.998H167.199V146.35H168.693V122.998Z" fill="white"/>
<path d="M176.313 98.8457H142.857V105.838H176.313V98.8457Z" fill="url(#paint5_linear_1328_54582)"/>
<path d="M176.313 99.9126C176.313 95.4806 174.55 91.2301 171.413 88.0962C168.276 84.9623 164.022 83.2017 159.585 83.2017C155.149 83.2017 150.894 84.9623 147.757 88.0962C144.62 91.2301 142.857 95.4806 142.857 99.9126H176.313Z" fill="url(#paint6_linear_1328_54582)"/>
</g>
<defs>
<linearGradient id="paint0_linear_1328_54582" x1="269.24" y1="25.1068" x2="269.24" y2="223.994" gradientUnits="userSpaceOnUse">
<stop stop-color="#44B2E8"/>
<stop offset="1" stop-color="#FFBB4E"/>
</linearGradient>
<linearGradient id="paint1_linear_1328_54582" x1="137.211" y1="165.623" x2="181.952" y2="165.623" gradientUnits="userSpaceOnUse">
<stop stop-color="white"/>
<stop offset="1" stop-color="#BBBDBF"/>
</linearGradient>
<linearGradient id="paint2_linear_1328_54582" x1="142.857" y1="126.095" x2="176.313" y2="126.095" gradientUnits="userSpaceOnUse">
<stop stop-color="#D57D32"/>
<stop offset="1" stop-color="#F9DDC9"/>
</linearGradient>
<linearGradient id="paint3_linear_1328_54582" x1="158.102" y1="54.4413" x2="161.067" y2="54.4413" gradientUnits="userSpaceOnUse">
<stop stop-color="white"/>
<stop offset="1" stop-color="#BBBDBF"/>
</linearGradient>
<linearGradient id="paint4_linear_1328_54582" x1="153.645" y1="81.5511" x2="165.522" y2="81.5511" gradientUnits="userSpaceOnUse">
<stop stop-color="white"/>
<stop offset="1" stop-color="#BBBDBF"/>
</linearGradient>
<linearGradient id="paint5_linear_1328_54582" x1="142.857" y1="102.342" x2="176.313" y2="102.342" gradientUnits="userSpaceOnUse">
<stop stop-color="white"/>
<stop offset="1" stop-color="#BBBDBF"/>
</linearGradient>
<linearGradient id="paint6_linear_1328_54582" x1="142.857" y1="91.5554" x2="176.313" y2="91.5554" gradientUnits="userSpaceOnUse">
<stop stop-color="white"/>
<stop offset="1" stop-color="#BBBDBF"/>
</linearGradient>
<clipPath id="clip0_1328_54582">
<rect width="548" height="344" fill="white"/>
</clipPath>
</defs>
</svg>
