<svg width="1058" height="1015" viewBox="0 0 1058 1015" fill="none" xmlns="http://www.w3.org/2000/svg">
<path d="M841.696 479.542C841.697 541.577 823.316 602.22 788.878 653.802C754.44 705.383 705.492 745.587 648.223 769.328C590.954 793.069 527.936 799.282 467.138 787.18C406.341 775.079 350.495 745.207 306.662 701.341C262.829 657.476 232.977 601.588 220.883 540.745C208.788 479.901 214.994 416.835 238.715 359.521C262.435 302.206 302.606 253.219 354.147 218.753C405.687 184.286 466.283 165.889 528.271 165.888C611.394 165.89 691.112 198.936 749.89 257.756C808.667 316.577 841.691 396.355 841.696 479.542Z" fill="url(#paint0_linear_1328_54162)" stroke="#929497" stroke-width="0.25" stroke-miterlimit="10"/>
<path d="M527.966 756.684C468.669 756.684 418.768 743.865 379.656 718.58C340.149 693.129 315.606 657.626 306.696 613.057L304.756 603.347L448.51 594.203L450.905 599.871C460.802 623.407 479.546 634.839 508.206 634.839C523.693 635.4 538.894 630.561 551.21 621.149C561.77 612.535 566.962 598.788 566.962 579.218C566.962 560.175 561.797 546.795 551.171 538.31C539.755 529.612 525.727 525.049 511.383 525.368C500.083 525.114 488.863 527.326 478.503 531.849C468.142 536.373 458.891 543.099 451.39 551.562L447.524 555.728L329.105 513.88L344.774 243.537H723.302V389.404H625.801L614.159 359.388H452.973L449.784 432.944C479.599 417.628 514.25 409.876 553.021 409.876C607.994 409.876 654.244 424.907 690.491 454.565C727.251 484.642 745.896 526.349 745.896 578.521C745.896 629.395 726.373 672.34 687.909 706.15C649.487 739.698 595.692 756.684 527.966 756.684Z" fill="url(#paint1_linear_1328_54162)" stroke="#929497" stroke-width="0.25" stroke-miterlimit="10"/>
<path d="M731.955 234.877H336.61L335.663 251.188L320.845 506.881L320.089 519.875L332.358 524.22L439.277 562.001L450.005 565.791L457.731 557.449C464.439 549.881 472.713 543.865 481.978 539.821C491.244 535.777 501.278 533.8 511.384 534.028C523.825 533.736 535.998 537.676 545.913 545.204C554.252 551.935 558.31 563.064 558.31 579.218C558.31 595.949 554.2 607.475 545.751 614.444C534.958 622.561 521.698 626.706 508.207 626.18C483.069 626.18 467.394 616.752 458.876 596.517L454.102 585.17L441.827 585.949L314.085 594.081L294.332 595.332L298.215 614.754C307.597 661.716 333.42 699.095 374.979 725.866C415.489 752.066 466.975 765.344 527.967 765.344C597.84 765.344 653.555 747.635 693.573 712.707C734.037 677.127 754.549 632.001 754.549 578.521C754.549 523.622 734.835 479.664 695.968 447.862C658.127 416.911 610.036 401.216 553.022 401.216C520.815 400.762 488.848 406.83 459.044 419.056L461.254 368.047H608.238L615.591 387.017L619.876 398.064H731.956L731.955 234.877Z" fill="url(#paint2_linear_1328_54162)" stroke="#929497" stroke-width="0.25" stroke-miterlimit="10"/>
<path d="M315.18 611.36L442.928 603.235C454.217 630.079 475.976 643.5 508.206 643.499C525.626 644.032 542.699 638.545 556.551 627.96C569.258 617.597 575.613 601.349 575.615 579.218C575.615 557.564 569.26 541.673 556.551 531.546C543.595 521.648 527.679 516.42 511.383 516.709C498.895 516.478 486.503 518.945 475.054 523.943C463.606 528.941 453.369 536.351 445.043 545.669L338.117 507.881L352.939 252.19H714.652V380.744H631.722L620.081 350.721H444.693L440.454 448.2C471.974 428.418 509.497 418.53 553.021 418.535C606.195 418.535 650.193 432.778 685.015 461.262C719.828 489.756 737.237 528.84 737.243 578.514C737.243 627.018 718.892 667.397 682.191 699.649C645.254 731.904 593.848 748.032 527.973 748.034C470.094 748.034 422.219 735.792 384.347 711.306C346.7 687.061 323.645 653.745 315.18 611.36Z" fill="#1E4164"/>
<path d="M798.001 619.066H549.064L704.634 515.142L798.001 619.066Z" fill="#FFD200"/>
<path d="M677.324 619.066H345.611L542.531 465.125L677.324 619.066Z" fill="#B15C12"/>
<path d="M466.431 619.066H232.365L380.5 522.608L466.431 619.066Z" fill="#D7A174"/>
<path d="M198.418 605.622C209.973 635.877 225.638 664.394 244.971 690.369C431.23 645.74 625.379 645.698 811.656 690.247C830.984 664.266 846.639 635.742 858.177 605.48C641.839 549.255 414.731 549.304 198.418 605.622Z" fill="url(#paint3_linear_1328_54162)" stroke="#929497" stroke-width="0.25" stroke-miterlimit="10"/>
<path d="M550.172 510.539C551.17 510.497 552.167 510.652 553.105 510.994C554.227 511.513 554.418 512.493 555.147 512.955C556.228 513.644 557.374 514.226 558.568 514.692C559.406 514.962 561.448 515.613 561.488 515.999C561.327 517.046 560.94 518.046 560.353 518.927C560.353 518.927 564.285 521.126 566.301 522.628C568.329 524.13 569.883 525.368 569.883 525.821C572.262 527.511 574.501 529.391 576.577 531.443C578.767 533.945 580.212 533.879 579.941 536.613C579.723 538.407 579.292 540.169 578.658 541.862C578.305 543.216 576.441 555.404 575.643 558.821C574.786 561.816 574.082 564.853 573.535 567.92C573.364 570.391 573.364 572.87 573.535 575.341C573.535 575.341 574.238 574.632 575.521 576.058C576.847 577.507 575.792 576.579 576.577 576.837C577.034 577.048 577.514 577.204 578.008 577.302C578.576 577.358 578.144 577.302 578.995 577.616C579.819 577.946 579.618 577.547 580.469 577.946C581.307 578.339 581.119 578.527 581.901 578.791C582.435 578.95 582.976 579.081 583.524 579.184C584.861 579.692 586.224 580.127 587.608 580.488C588.756 580.617 590.204 581.214 590.204 582.429C590.204 583.684 590.732 584.78 586.879 586.137C584.77 587.08 582.515 587.653 580.212 587.831C578.767 587.831 575.412 587.959 573.06 587.831C570.721 587.695 567.788 586.639 565.908 586.794C564.027 586.916 562.88 586.401 562.88 585.15C562.88 583.918 562.543 579.57 563.124 579.319C563.266 579.235 563.433 579.202 563.597 579.224C563.761 579.246 563.912 579.323 564.028 579.441C564.141 578 564.336 576.566 564.612 575.146C565.369 571.651 565.916 568.113 566.248 564.552C565.882 561.816 565.682 559.059 565.651 556.299C565.908 553.05 566.693 544.41 566.894 543.044C566.97 542.532 566.907 542.009 566.712 541.53C566.517 541.051 566.197 540.633 565.786 540.32C565.192 539.864 562.408 538.039 561.177 537.388C561.177 537.388 561.108 537.768 560.593 537.431C558.777 536.38 556.905 535.429 554.986 534.582C553.729 534.143 551.225 533.404 551.225 533.404C550.259 533.627 549.25 533.566 548.319 533.228C547.34 532.648 546.284 532.211 545.181 531.931C544.155 531.74 541.777 531.39 541.559 531.34C541.358 531.287 540.398 534.79 539.342 535.833C538.357 536.845 537.444 537.925 536.611 539.065C535.911 540.049 535.756 540.184 534.998 539.722C534.216 539.27 532.279 538.477 532.279 538.477C532.279 538.477 531.3 539.722 530.937 540.184C530.518 540.637 530.125 541.165 529.604 541.165C529.604 541.165 525.177 547.375 523.574 549.554C522.517 550.989 521.275 552.279 519.882 553.39C517.44 554.438 514.877 555.179 512.252 555.595C509.798 556.216 500.32 559.62 498.568 560.118C496.82 560.647 489.539 562.664 487.646 563.373C484.783 564.487 481.991 565.772 479.283 567.223C479.562 567.396 479.781 567.652 479.908 567.955C480.035 568.258 480.065 568.593 479.993 568.913C479.796 569.343 479.47 569.7 479.061 569.934C478.651 570.169 478.179 570.269 477.71 570.221C476.931 570.221 476.017 569.963 476.017 570.544C476.017 571.112 476.08 571.188 475.701 571.518C475.315 571.845 475.578 572.433 475.051 572.69C474.159 573.276 473.405 574.049 472.841 574.955C472.608 575.548 472.276 576.097 471.861 576.579C471.41 577.136 471.083 577.782 470.901 578.474C470.686 579.184 471.557 582.621 468.806 583.684C466.081 584.697 465.56 577.682 465.636 576.457C465.961 573.822 466.755 571.267 467.981 568.913C468.8 567.077 469.171 565.072 469.063 563.063C469.406 561.479 469.528 556.824 470.578 556.487C471.879 556.386 473.189 556.477 474.464 556.758C475.301 556.917 476.125 557.137 476.931 557.415C477.98 557.59 479.342 557.467 479.399 558.111C479.399 558.111 487.401 554.476 489.47 553.262C490.804 552.474 492.221 551.836 493.696 551.36C494.029 550.657 494.502 550.03 495.087 549.517C495.672 549.005 496.357 548.619 497.097 548.382C500.616 546.81 504.35 545.775 508.175 545.312C509.473 544.979 510.689 544.379 511.744 543.552C513.908 540.913 515.799 538.061 517.388 535.041C518.259 532.958 519.823 530.102 519.823 530.102C519.271 529.374 518.677 528.678 518.045 528.019C517.286 527.243 516.551 526.665 516.814 526.418C517.078 526.13 517.593 525.044 518.444 524.975C519.282 524.892 519.991 525.232 520.126 524.523C520.114 524.101 520.217 523.684 520.424 523.316C520.632 522.949 520.936 522.646 521.304 522.439C522.459 521.601 522.729 521.261 522.729 520.617C522.729 519.957 522.924 519.821 522.459 519.108C522.276 518.71 522.21 518.268 522.268 517.834C522.327 517.4 522.507 516.991 522.788 516.656L523.316 515.929C523.163 514.863 523.251 513.777 523.574 512.75C523.953 511.028 524.608 509.38 525.513 507.867C526.107 507.088 529.535 503.516 530.442 502.67C531.369 501.825 531.504 501.568 532.065 501.367C532.659 501.168 532.2 500.594 532.418 500.086C532.606 499.544 533.173 499.878 533.378 499.303C533.566 498.699 532.721 498.306 533.045 497.745C533.378 497.144 534.16 497.481 534.288 496.447C534.424 495.398 534.424 493.81 534.493 492.529C534.559 491.225 534.622 489.161 534.559 488.181C534.493 487.194 534.288 480.894 534.357 479.27C534.295 477.533 534.362 475.794 534.559 474.067C531.615 474.965 528.582 475.533 525.513 475.761C525.513 475.761 523.709 479.211 523.244 480.442C522.796 481.717 522.553 483.054 522.524 484.404C522.524 485.513 523.108 490.452 523.046 492.275C522.986 494.087 523.837 498.072 522.851 499.749C522.075 501.581 521.453 503.475 520.99 505.411C520.639 506.537 519.93 507.517 518.972 508.204C518.209 508.311 517.431 508.242 516.699 508.002C516.232 507.943 515.77 507.857 515.313 507.745C515.313 507.745 514.604 509.112 513.697 508.976C512.793 508.848 512.859 507.867 513.367 507.035C513.367 507.035 512.074 507.035 511.813 506.325C511.562 505.592 512.014 505.341 512.014 505.341C512.014 505.341 511.344 504.952 511.344 504.43C511.344 503.909 512.014 503.45 512.014 503.45C512.014 503.45 511.236 503.315 511.236 502.618C511.236 501.892 512.4 500.594 512.793 500.086C513.185 499.544 513.568 499.878 513.766 500.525C513.826 500.697 513.844 500.881 513.821 501.062C513.798 501.243 513.732 501.416 513.631 501.568C514.093 501.584 514.548 501.443 514.921 501.168C515.524 500.71 515.313 499.613 516.234 498.795C517.138 497.923 517.672 497.596 517.863 496.9C517.823 495.308 517.559 493.73 517.078 492.212C516.111 486.897 515.42 481.536 515.01 476.15C514.855 472.499 514.482 471.938 516.286 470.888C518.098 469.848 523.244 466.586 526.414 465.157C529.507 463.88 532.834 463.266 536.179 463.357C537.308 462.887 538.323 462.179 539.154 461.281C539.857 460.152 540.573 460.03 541.694 459.056C542.776 458.075 543.763 457.623 544.155 456.986C544.419 456.561 544.752 456.184 545.141 455.87C545.521 455.484 545.521 454.577 547.467 455.668L548.117 454.903C547.815 454.738 547.548 454.514 547.332 454.246C547.144 453.929 547.415 453.084 547.266 452.426C547.104 451.755 546.873 451.102 546.576 450.479C546.319 449.944 545.709 448.651 545.33 448.016C544.94 447.359 544.871 445.811 544.601 445.594C544.356 445.405 544.356 444.573 544.356 444.573C544.601 444.33 544.864 444.106 545.141 443.903C544.89 443.811 544.623 443.77 544.356 443.78C544.369 443.298 544.451 442.82 544.601 442.361C544.66 442.122 544.649 441.872 544.57 441.639C544.491 441.406 544.347 441.201 544.155 441.048C544.464 440.594 544.895 440.238 545.399 440.02C546.088 439.756 545.399 439.114 545.399 439.114C545.399 439.114 545.926 438.064 546.576 437.861C547.21 437.679 546.319 437.219 546.708 436.387C547.088 435.542 547.847 435.804 548.048 435.4C548.279 435.032 548.566 434.703 548.899 434.424C549.589 433.949 550.39 433.661 551.225 433.586C551.171 433.456 551.082 433.345 550.968 433.264C550.853 433.184 550.718 433.139 550.578 433.133C551.273 432.694 552.106 432.527 552.917 432.666C553.922 432.708 554.921 432.842 555.902 433.065C557.215 433.329 557.351 432.795 558.525 433.83C559.676 434.871 558.838 434.871 560.187 435.596C561.57 436.306 561.689 436.448 562.081 437.219C562.474 437.996 562.15 438.138 562.15 438.138C562.489 438.222 562.808 438.374 563.087 438.585C563.366 438.795 563.599 439.06 563.773 439.363C564.314 440.965 564.663 442.625 564.813 444.308C564.813 445.086 564.097 445.154 564.677 445.81C565.506 446.768 566.107 447.901 566.436 449.125C566.558 449.883 566.301 450.221 565.017 450.147C563.704 450.092 564.097 451.121 564.097 451.656C564.097 452.169 564.219 452.758 563.704 452.948C563.203 453.13 562.932 453.272 563.055 453.597C563.203 453.929 563.975 453.929 563.53 454.645C563.055 455.355 562.932 455.167 563.055 455.87C563.203 456.58 564.097 457.623 562.88 458.224C561.636 458.805 560.27 458.392 559.485 458.92C558.421 459.64 557.458 460.498 556.622 461.472C556.843 461.501 557.05 461.597 557.215 461.749C557.379 461.9 557.492 462.099 557.538 462.317C558.294 464.575 558.602 466.958 558.446 469.333C558.1 470.617 558.259 471.986 558.891 473.156C559.383 475.21 559.407 477.348 558.96 479.412C559.67 479.464 560.383 479.351 561.042 479.082C562.574 478.432 563.902 477.378 564.882 476.032C565.805 474.836 566.851 473.74 568.003 472.763C568.161 471.733 568.56 470.754 569.167 469.907C570.009 468.932 570.927 468.024 571.912 467.194C572.047 467.019 572.228 466.886 572.436 466.81C572.643 466.734 572.868 466.718 573.084 466.764C573.299 466.81 573.498 466.915 573.657 467.069C573.815 467.223 573.927 467.418 573.98 467.633C573.98 467.633 575.006 467.372 575.141 468.346C575.141 468.346 576.237 468.683 576.306 469.657L576.576 470.888C576.576 470.888 577.358 470.746 577.414 471.849C577.48 472.984 576.9 473.816 576.237 473.816C575.603 473.816 574.94 473.816 574.683 474.067C573.922 474.718 573.064 475.244 572.139 475.625C571.127 476.032 570.519 476.672 569.289 478.696C567.402 481.772 565.258 484.682 562.879 487.395C560.649 489.663 559.485 491.172 558.136 491.225C556.479 491.013 554.955 490.207 553.847 488.957C553.873 489.697 553.833 490.438 553.728 491.172C553.538 491.665 553.446 492.191 553.458 492.72C553.478 493.357 553.271 493.981 552.874 494.48C552.41 495.172 552.201 496.004 552.28 496.834C552.327 497.233 552.294 497.639 552.182 498.025C552.071 498.412 551.883 498.772 551.63 499.085C551.05 499.749 551.294 500.865 551.294 501.891C551.164 503.029 550.719 504.108 550.007 505.005C549.536 505.533 550.103 507.428 550.103 507.745C550.458 508.638 550.483 509.629 550.172 510.539Z" fill="url(#paint4_linear_1328_54162)" stroke="#929497" stroke-width="0.25" stroke-miterlimit="10"/>
<path d="M524.229 314.279V309.327H528.019V289.911H524.229V284.966H538.922L545.358 302.135L551.82 284.966H566.8V289.911H563V309.327H566.8V314.279H552.048V309.327H555.591V289.911H554.901L545.816 314.279H542.653L533.475 289.911H532.779V309.327H536.622V314.279H524.229Z" fill="#FFD200"/>
<path d="M568.246 314.279V309.327H571.911V289.911H568.246V284.966H582.401V289.911H579.32V296.338H587.297V289.911H584.334V284.966H598.381V289.911H594.72V309.327H598.381V314.279H584.335V309.327H587.297V301.309H579.321V309.327H582.402V314.279H568.246Z" fill="#FFD200"/>
<path d="M599.787 314.279V309.327H603.574V289.911H599.787V284.966H614.484L620.919 302.135L627.382 284.966H642.349V289.911H638.562V309.327H642.349V314.279H627.613V309.327H631.153V289.911H630.45L621.378 314.279H618.215L609.037 289.911H608.348V309.327H612.171V314.279H599.787Z" fill="#FFD200"/>
<path d="M432.288 284.979C434.811 284.874 437.295 285.635 439.327 287.137C440.262 287.915 440.999 288.904 441.477 290.022C441.955 291.141 442.162 292.357 442.079 293.571C442.035 297.061 440.635 300.397 438.176 302.873C436.339 305.05 434.166 306.921 431.74 308.414H442.287V314.279H422.549V308.414C423.859 308.414 426.333 306.788 429.972 303.536C432.462 301.598 434.607 299.254 436.319 296.602C436.607 295.953 436.747 295.249 436.729 294.54C436.711 293.831 436.536 293.134 436.217 292.501C435.56 291.128 434.006 290.453 431.532 290.453C430.502 290.397 429.473 290.578 428.524 290.984C427.576 291.39 426.733 292.009 426.062 292.793L422.17 288.889C423.279 287.726 424.557 286.736 425.96 285.953C427.974 285.172 430.133 284.839 432.288 284.979Z" fill="#F4F5F5"/>
<path d="M448.098 310.071C446.184 306.924 445.172 303.31 445.172 299.626C445.172 295.941 446.184 292.327 448.098 289.18C448.952 287.888 450.112 286.829 451.476 286.096C452.839 285.362 454.362 284.979 455.91 284.979C457.457 284.979 458.981 285.362 460.344 286.096C461.707 286.829 462.867 287.888 463.721 289.18C465.631 292.33 466.641 295.944 466.641 299.629C466.641 303.313 465.631 306.927 463.721 310.078C462.868 311.37 461.707 312.43 460.343 313.163C458.98 313.896 457.456 314.279 455.908 314.279C454.36 314.278 452.837 313.893 451.474 313.159C450.111 312.425 448.951 311.364 448.098 310.071ZM455.919 308.812C457.213 308.812 458.341 307.933 459.321 306.174C460.287 304.129 460.789 301.895 460.789 299.632C460.789 297.37 460.287 295.136 459.321 293.09C458.341 291.331 457.196 290.452 455.886 290.453C454.597 290.453 453.465 291.332 452.492 293.09C451.528 295.136 451.027 297.37 451.027 299.632C451.027 301.894 451.528 304.128 452.492 306.174C453.465 307.933 454.617 308.812 455.919 308.812Z" fill="#F4F5F5"/>
<path d="M476.479 284.979V284.959H482.305V314.279H476.479V292.793L472.57 296.702L468.664 292.793L476.479 284.979Z" fill="#F4F5F5"/>
<path d="M498.489 284.999V284.959H504.321V301.993H508.263V307.838H504.321V314.279H498.489V307.838H485.191V301.993H485.392L485.211 301.796L498.489 284.999ZM498.489 301.993V292.658L491.363 301.993H498.489Z" fill="#F4F5F5"/>
<path d="M273.545 626.167L274.278 629.646L266.585 631.247L267.126 633.859L268.61 633.548C270.599 632.981 272.725 633.156 274.595 634.04C275.379 634.568 276.047 635.251 276.558 636.047C277.07 636.843 277.413 637.736 277.567 638.669C277.731 639.447 277.726 640.251 277.551 641.026C277.376 641.802 277.036 642.53 276.554 643.162C275.548 644.579 274.03 645.546 272.322 645.859C270.854 646.213 269.33 646.266 267.842 646.015C266.633 645.787 265.48 645.326 264.447 644.658L266.406 641.654C267.028 642.082 267.734 642.373 268.477 642.508C269.219 642.643 269.982 642.618 270.715 642.436C272.951 641.97 274.002 640.895 273.866 639.21C273.782 638.76 273.59 638.336 273.308 637.976C273.025 637.616 272.66 637.329 272.242 637.14C270.875 636.805 269.441 636.854 268.099 637.282L264.13 638.114L262.135 628.55L273.545 626.167Z" fill="#B15C12"/>
<path d="M312.043 618.874L316.444 618.145L321.811 623.562L325.252 616.688L329.55 615.979L324.219 626.507L325.766 635.889L322.016 636.51L320.465 627.121L312.043 618.874Z" fill="#B15C12"/>
<path d="M347.932 632.446L345.316 613.612L359.149 611.677L359.634 615.196L349.569 616.596L350.129 620.614L357.674 619.564L358.159 623.07L350.618 624.117L351.212 628.399L361.25 627.005L361.742 630.525L347.932 632.446Z" fill="#B15C12"/>
<path d="M377.352 628.507L382.772 608.755L386.552 608.323L396.231 626.365L392.216 626.83L390.748 624.064L382.185 625.031L381.38 628.055L377.352 628.507ZM385.335 613.572L383.273 621.079L388.937 620.439L385.335 613.572Z" fill="#B15C12"/>
<path d="M422.628 615.573L428.064 623.427L423.723 623.807L418.511 616.365L415.05 616.669L415.727 624.503L411.94 624.826L410.297 605.873L418.554 605.157C422.974 604.777 425.342 606.405 425.656 610.04C425.881 611.171 425.701 612.345 425.147 613.357C424.593 614.369 423.701 615.153 422.628 615.573ZM414.74 613.133L420.045 612.664C421.566 612.509 422.291 611.743 422.216 610.38C422.061 609.132 421.234 608.55 419.735 608.633L414.394 609.099L414.74 613.133Z" fill="#B15C12"/>
<path d="M463.619 621.086L470.392 601.746L474.192 601.584L482.601 620.247L478.566 620.439L477.303 617.576L468.69 617.949L467.677 620.91L463.619 621.086ZM472.619 606.731L470.042 614.077L475.739 613.836L472.619 606.731Z" fill="#B15C12"/>
<path d="M498.225 619.795L497.898 600.772L499.172 600.752L511.285 612.476L511.081 600.548L514.881 600.488L515.204 619.511L513.812 619.537L501.828 607.936L502.022 619.736L498.225 619.795Z" fill="#B15C12"/>
<path d="M532.051 619.382L532.354 600.36L533.624 600.38L545.345 612.496L545.533 600.574L549.333 600.637L549.033 619.66L547.641 619.64L536.043 607.653L535.851 619.448L532.051 619.382Z" fill="#B15C12"/>
<path d="M566.514 600.987L570.301 601.103L569.707 620.132L565.92 620.02L566.514 600.987Z" fill="#B15C12"/>
<path d="M590.325 601.908L594.973 616.114L601.208 602.489L605.249 602.7L596.666 621.297L592.866 621.099L586.268 601.697L590.325 601.908Z" fill="#B15C12"/>
<path d="M620.242 622.78L621.743 603.823L635.668 604.906L635.384 608.442L625.26 607.646L624.933 611.697L632.53 612.291L632.247 615.817L624.663 615.223L624.313 619.531L634.424 620.33L634.154 623.869L620.242 622.78Z" fill="#B15C12"/>
<path d="M662.87 618.28L666.736 627.019L662.398 626.573L658.681 618.28L655.217 617.92L654.422 625.747L650.635 625.355L652.581 606.428L660.828 607.279C665.249 607.738 667.268 609.784 666.885 613.417C666.89 614.569 666.492 615.687 665.758 616.576C665.024 617.464 664.002 618.067 662.87 618.28ZM655.583 614.391L660.884 614.939C662.411 615.074 663.263 614.457 663.438 613.096C663.533 611.852 662.831 611.122 661.343 610.918L656.002 610.363L655.583 614.391Z" fill="#B15C12"/>
<path d="M693.992 611.812C694.949 612.39 695.784 613.148 696.453 614.044L693.629 616.236C693.258 615.677 692.764 615.21 692.185 614.871C691.605 614.532 690.956 614.331 690.287 614.282C688.789 614.084 687.774 614.321 687.259 614.978C687.024 615.214 686.874 615.522 686.833 615.852C686.792 616.183 686.862 616.517 687.031 616.804C687.762 617.585 688.724 618.112 689.776 618.306C691.311 618.657 692.733 619.388 693.912 620.432C694.513 620.991 694.959 621.696 695.207 622.478C695.456 623.259 695.498 624.092 695.331 624.896C695.218 625.662 694.925 626.391 694.476 627.023C694.027 627.654 693.435 628.17 692.748 628.527C691.231 629.438 689.446 629.797 687.694 629.544C686.187 629.398 684.724 628.951 683.393 628.23C682.329 627.613 681.393 626.799 680.635 625.83L683.475 623.638C683.965 624.272 684.575 624.802 685.271 625.198C685.967 625.594 686.735 625.848 687.529 625.945C689.209 626.16 690.287 625.939 690.802 625.275C691.044 624.981 691.199 624.623 691.246 624.245C691.294 623.866 691.234 623.481 691.072 623.136C690.749 622.373 689.762 621.796 688.097 621.419C686.653 621.076 685.302 620.42 684.138 619.498C683.55 619.001 683.109 618.353 682.864 617.623C682.618 616.893 682.577 616.109 682.746 615.358C682.834 614.559 683.124 613.795 683.59 613.141C684.056 612.486 684.682 611.961 685.408 611.617C686.798 610.815 688.409 610.481 690.003 610.663C691.396 610.778 692.751 611.169 693.992 611.812Z" fill="#B15C12"/>
<path d="M709.854 632.532L720.248 614.889L724.009 615.464L728.631 635.414L724.629 634.813L723.939 631.756L715.422 630.442L713.855 633.156L709.854 632.532ZM721.465 620.208L717.503 626.913L723.141 627.784L721.465 620.208Z" fill="#B15C12"/>
<path d="M756.805 631.911L759.995 640.914L755.71 640.145L752.629 631.594L749.208 630.977L747.816 638.715L744.068 638.038L747.45 619.313L755.615 620.789C759.969 621.581 761.836 623.773 761.186 627.365C761.106 628.517 760.623 629.604 759.822 630.435C759.02 631.266 757.953 631.789 756.805 631.911ZM749.841 627.481L755.073 628.428C756.587 628.676 757.481 628.128 757.778 626.791C757.953 625.546 757.304 624.766 755.832 624.45L750.561 623.496L749.841 627.481Z" fill="#B15C12"/>
<path d="M777.488 624.922L781.856 625.83L784.924 632.809L790.605 627.642L794.864 628.527L786.115 636.431L784.182 645.744L780.464 644.968L782.384 635.652L777.488 624.922Z" fill="#B15C12"/>
<path d="M189.055 426.226L164.172 421.376L164.495 419.712L178.868 411.317L168.701 398.118L169.024 396.461L193.901 401.31L192.934 406.291L178.502 403.489L185.337 412.581L175.589 418.433L190.022 421.247L189.055 426.226Z" fill="#1E4164"/>
<path d="M195.788 380.305C193.112 381.731 190.023 382.18 187.051 381.575C184.08 380.971 181.412 379.35 179.504 376.991C177.597 374.632 176.569 371.682 176.598 368.648C176.627 365.613 177.71 362.683 179.662 360.361C181.614 358.039 184.312 356.469 187.295 355.921C190.277 355.372 193.357 355.88 196.006 357.356C198.655 358.833 200.708 361.186 201.813 364.012C202.917 366.838 203.004 369.961 202.059 372.844C201.579 374.451 200.775 375.942 199.697 377.225C198.618 378.509 197.288 379.557 195.788 380.305ZM197.566 371.349C197.918 370.387 198.058 369.361 197.977 368.341C197.897 367.321 197.597 366.33 197.098 365.436C196.03 363.649 194.353 362.309 192.376 361.661C190.398 361.014 188.254 361.102 186.337 361.911C185.426 362.371 184.615 363.007 183.95 363.781C183.285 364.556 182.779 365.454 182.462 366.425C182.145 367.395 182.022 368.419 182.101 369.437C182.18 370.455 182.459 371.447 182.923 372.357C183.993 374.143 185.67 375.482 187.648 376.13C189.625 376.777 191.769 376.689 193.687 375.882C194.621 375.45 195.452 374.821 196.121 374.039C196.791 373.257 197.284 372.339 197.566 371.349Z" fill="#1E4164"/>
<path d="M208.645 326.502L221.329 325.38L218.901 330.664L206.847 331.799L204.914 336.007L214.431 340.391L212.31 344.998L189.287 334.398L193.902 324.351C196.37 318.974 199.815 317.303 204.238 319.338C205.696 319.825 206.936 320.809 207.742 322.119C208.548 323.429 208.867 324.98 208.645 326.502ZM200.615 334.033L203.578 327.579C203.803 327.245 203.951 326.865 204.011 326.467C204.071 326.069 204.042 325.662 203.926 325.277C203.809 324.891 203.608 324.537 203.337 324.239C203.067 323.941 202.733 323.707 202.361 323.554C200.817 322.91 199.603 323.485 198.702 325.279L195.713 331.78L200.615 334.033Z" fill="#1E4164"/>
<path d="M226.815 307.595C224.368 308.221 221.791 308.102 219.413 307.253C217.035 306.404 214.964 304.863 213.466 302.829C211.968 300.795 211.112 298.36 211.005 295.835C210.899 293.31 211.549 290.811 212.871 288.658C214.572 285.693 217.317 283.469 220.57 282.422L221.995 287.232C219.981 287.984 218.288 289.411 217.205 291.27C216.64 292.104 216.256 293.047 216.078 294.039C215.899 295.031 215.93 296.049 216.169 297.028C216.408 298.007 216.849 298.925 217.463 299.723C218.078 300.521 218.853 301.181 219.739 301.661C220.597 302.234 221.563 302.626 222.578 302.813C223.592 303.001 224.634 302.979 225.64 302.75C226.617 302.487 227.531 302.028 228.326 301.401C229.121 300.774 229.78 299.993 230.265 299.104C231.104 297.879 231.539 296.422 231.509 294.938L227.781 292.691L226.059 295.6L222.002 293.158L226.363 285.913L236.497 292.021C237.098 295.389 236.415 298.861 234.584 301.75C233.753 303.201 232.635 304.467 231.3 305.472C229.964 306.477 228.438 307.199 226.815 307.595Z" fill="#1E4164"/>
<path d="M248.913 279.499L235.078 255.95L238.179 251.939L264.409 259.441L261.123 263.716L257.115 262.539L250.085 271.638L252.226 275.223L248.913 279.499ZM242.052 257.98L247.31 266.924L251.968 260.909L242.052 257.98Z" fill="#1E4164"/>
<path d="M275.608 246.668L257.533 228.877L258.721 227.672L281.186 227.49L269.861 216.341L273.417 212.721L291.489 230.514L290.182 231.84L267.957 232.023L279.164 243.05L275.608 246.668Z" fill="#1E4164"/>
<path d="M324.879 202.365L310.516 181.46L314.692 178.585L320.439 186.948L330.173 180.249L324.42 171.875L328.597 169L342.963 189.904L338.793 192.793L332.855 184.153L323.124 190.85L329.058 199.489L324.879 202.365Z" fill="#1E4164"/>
<path d="M346.783 158.101L351.197 155.632L363.554 177.801L359.147 180.264L346.783 158.101Z" fill="#1E4164"/>
<path d="M374.045 144.056L382.5 162.877L394.831 157.329L396.77 161.646L379.811 169.277L369.42 146.134L374.045 144.056Z" fill="#1E4164"/>
<path d="M410.156 129.586L416.565 149.198L429.414 144.99L430.889 149.488L413.22 155.272L405.336 131.162L410.156 129.586Z" fill="#1E4164"/>
<path d="M472.394 139.787L469.211 114.622L470.887 114.406L483.353 125.439L492.695 111.644L494.371 111.428L497.562 136.594L492.531 137.237L490.667 122.638L484.184 131.987L475.578 124.553L477.425 139.152L472.394 139.787Z" fill="#1E4164"/>
<path d="M514.412 135.607L524.141 110.076L529.211 109.994L539.747 135.18L534.357 135.282L532.767 131.42L521.28 131.601L519.822 135.519L514.412 135.607ZM526.918 116.8L523.224 126.5L530.828 126.372L526.918 116.8Z" fill="#1E4164"/>
<path d="M573.085 126.996L578.169 138.671L572.396 138.042L567.49 126.961L562.892 126.461L561.757 136.885L556.713 136.337L559.458 111.118L570.436 112.314C576.318 112.95 579 115.69 578.482 120.535C578.478 122.073 577.937 123.562 576.951 124.742C575.965 125.922 574.597 126.72 573.085 126.996ZM563.406 121.751L570.449 122.524C572.491 122.705 573.626 121.893 573.883 120.087C574.005 118.424 573.073 117.45 571.086 117.166L563.987 116.387L563.406 121.751Z" fill="#1E4164"/>
<path d="M592.621 140.992L608.116 118.498L613.064 119.614L617.336 146.58L612.064 145.403L611.441 141.276L600.235 138.732L597.896 142.189L592.621 140.992ZM609.224 125.682L603.329 134.234L610.752 135.918L609.224 125.682Z" fill="#1E4164"/>
<path d="M661.452 134.315L659.881 138.787L651.918 135.985L645.079 155.449L640.293 153.772L647.135 134.302L639.158 131.5L640.725 127.029L661.452 134.315Z" fill="#1E4164"/>
<path d="M668.766 164.744L679.853 141.925L684.409 144.145L679.972 153.27L690.601 158.438L695.034 149.3L699.603 151.518L688.519 174.336L683.947 172.13L688.532 162.7L677.903 157.532L673.321 166.962L668.766 164.744Z" fill="#1E4164"/>
<path d="M708.85 181.677C708.147 178.723 708.492 175.616 709.828 172.889C711.163 170.162 713.406 167.986 716.17 166.733C718.934 165.48 722.048 165.229 724.977 166.023C727.905 166.817 730.467 168.606 732.221 171.084C733.976 173.562 734.814 176.574 734.591 179.602C734.369 182.631 733.1 185.488 731.003 187.682C728.905 189.877 726.11 191.272 723.097 191.63C720.084 191.987 717.04 191.283 714.488 189.64C713.056 188.767 711.817 187.61 710.848 186.241C709.878 184.872 709.198 183.318 708.85 181.677ZM717.071 185.668C717.91 186.252 718.866 186.647 719.872 186.827C720.878 187.007 721.911 186.967 722.9 186.71C724.897 186.126 726.616 184.84 727.741 183.089C728.866 181.338 729.321 179.239 729.023 177.179C728.808 176.181 728.398 175.235 727.818 174.396C727.237 173.557 726.497 172.84 725.639 172.288C724.781 171.735 723.823 171.358 722.819 171.176C721.816 170.995 720.786 171.013 719.789 171.231C717.794 171.818 716.077 173.105 714.952 174.855C713.827 176.606 713.369 178.703 713.663 180.764C713.848 181.778 714.247 182.74 714.835 183.586C715.423 184.432 716.186 185.142 717.071 185.668Z" fill="#1E4164"/>
<path d="M738.783 206.492L754.925 186.933L756.224 188.009L758.359 210.387L768.473 198.13L772.379 201.363L756.238 220.921L754.803 219.737L752.695 197.595L742.689 209.725L738.783 206.492Z" fill="#1E4164"/>
<path d="M798.191 249.369L794.364 244.814L797.475 242.205L801.301 246.757L805.557 243.164L808.222 246.316L803.95 249.916L807.79 254.469L804.679 257.081L800.853 252.528L796.581 256.12L793.932 252.967L798.191 249.369Z" fill="#1E4164"/>
<path d="M822.16 299.023L844.183 286.44L846.7 290.844L837.886 295.877L843.751 306.148L852.566 301.106L855.083 305.51L833.069 318.094L830.542 313.696L839.641 308.495L833.776 298.226L824.674 303.427L822.16 299.023Z" fill="#1E4164"/>
<path d="M840.939 333.695L868.234 333.179L870.21 337.854L850.806 357.047L848.698 352.082L851.687 349.166L847.211 338.572L843.048 338.68L840.939 333.695ZM863.042 338.274L852.673 338.47L855.636 345.479L863.042 338.274Z" fill="#1E4164"/>
<path d="M882.106 370.787L862.326 376.626L866.152 389.6L861.61 390.941L856.352 373.093L880.674 365.916L882.106 370.787Z" fill="#1E4164"/>
<path d="M865.652 407.948L890.585 403.327L893.828 420.876L889.176 421.734L886.854 409.179L881.527 410.166L883.242 419.428L878.607 420.287L876.902 411.025L866.573 412.94L865.652 407.948Z" fill="#1E4164"/>
<defs>
<linearGradient id="paint0_linear_1328_54162" x1="214.86" y1="479.549" x2="841.696" y2="479.549" gradientUnits="userSpaceOnUse">
<stop stop-color="white"/>
<stop offset="1" stop-color="#E5E5E5"/>
</linearGradient>
<linearGradient id="paint1_linear_1328_54162" x1="304.756" y1="500.11" x2="745.896" y2="500.11" gradientUnits="userSpaceOnUse">
<stop stop-color="white"/>
<stop offset="1" stop-color="#BFBFBF"/>
</linearGradient>
<linearGradient id="paint2_linear_1328_54162" x1="294.332" y1="500.111" x2="754.549" y2="500.111" gradientUnits="userSpaceOnUse">
<stop stop-color="white"/>
<stop offset="1" stop-color="#BFBFBF"/>
</linearGradient>
<linearGradient id="paint3_linear_1328_54162" x1="198.418" y1="626.858" x2="858.177" y2="626.858" gradientUnits="userSpaceOnUse">
<stop stop-color="white"/>
<stop offset="1" stop-color="#E5E5E5"/>
</linearGradient>
<linearGradient id="paint4_linear_1328_54162" x1="465.629" y1="510.268" x2="590.229" y2="510.268" gradientUnits="userSpaceOnUse">
<stop stop-color="white"/>
<stop offset="1" stop-color="#E5E5E5"/>
</linearGradient>
</defs>
</svg>
