<svg width="373" height="547" viewBox="0 0 373 547" fill="none" xmlns="http://www.w3.org/2000/svg">
<g clip-path="url(#clip0_1328_54641)">
<path d="M-0.000796441 536.452C-0.0195403 534.963 0.198457 533.481 0.645056 532.06C1.04096 530.803 1.69905 529.643 2.57601 528.658C3.45378 527.697 4.53963 526.95 5.75065 526.473C7.14481 525.935 8.63014 525.673 10.1242 525.701C11.6316 525.672 13.1304 525.934 14.5382 526.473C15.7484 526.951 16.8338 527.698 17.712 528.658C18.5895 529.642 19.2464 530.802 19.6387 532.06C20.0873 533.481 20.3067 534.963 20.2888 536.452C20.3071 537.915 20.0875 539.371 19.6387 540.764C19.2401 542.003 18.5835 543.143 17.712 544.11C16.8297 545.055 15.7447 545.788 14.5382 546.254C13.1265 546.776 11.6293 547.029 10.1242 547C8.63242 547.028 7.14875 546.774 5.75065 546.254C4.5434 545.789 3.45783 545.056 2.57601 544.11C1.70508 543.142 1.04724 542.002 0.645056 540.764C0.198186 539.371 -0.0199195 537.915 -0.000796441 536.452ZM13.5544 536.452C13.6342 535.113 13.3403 533.778 12.7053 532.596C12.4364 532.161 12.0544 531.806 11.6 531.57C11.1455 531.334 10.6356 531.225 10.1242 531.255C9.61556 531.224 9.10806 531.333 8.65668 531.569C8.2053 531.805 7.82726 532.16 7.5635 532.596C6.94309 533.783 6.65769 535.116 6.73789 536.452C6.66074 537.776 6.94617 539.095 7.5635 540.269C7.82763 540.704 8.2058 541.059 8.65712 541.295C9.10845 541.531 9.61576 541.639 10.1242 541.608C10.6354 541.638 11.1451 541.53 11.5995 541.294C12.0539 541.058 12.436 540.704 12.7053 540.269C13.3371 539.1 13.6311 537.778 13.5544 536.452Z" fill="#D57D32"/>
<path d="M35.9375 525.782C37.0998 525.781 38.26 525.882 39.4047 526.083C40.5266 526.262 41.5959 526.683 42.5381 527.317C43.5232 528.01 44.3105 528.947 44.8222 530.037C45.4736 531.507 45.7769 533.108 45.7084 534.715V546.488C45.0961 546.61 44.4773 546.697 43.8551 546.749C43.3062 546.781 42.823 546.804 42.3998 546.804C41.9529 546.804 41.4529 546.781 40.9005 546.749C40.2795 546.696 39.6619 546.609 39.0507 546.488V535.429C39.1445 534.369 38.8657 533.309 38.2621 532.432C37.9518 532.115 37.5754 531.87 37.1596 531.714C36.7439 531.558 36.2989 531.496 35.8563 531.531C35.546 531.533 35.2363 531.558 34.9297 531.605C34.7189 531.625 34.5128 531.68 34.32 531.767V546.488C33.7087 546.609 33.0911 546.696 32.47 546.749C31.9177 546.781 31.4337 546.804 31.0113 546.804C30.5636 546.804 30.0643 546.781 29.5155 546.749C28.8933 546.697 28.2745 546.61 27.6621 546.488V527.163C28.7615 526.796 29.8794 526.487 31.0113 526.237C32.6317 525.905 34.2837 525.753 35.9375 525.782Z" fill="#D57D32"/>
<path d="M67.4626 518.304C68.0156 518.224 68.6085 518.149 69.2551 518.085C69.8505 518.023 70.4488 517.99 71.0476 517.988C71.6206 517.99 72.193 518.023 72.7625 518.085C73.3805 518.149 73.949 518.224 74.4776 518.304L80.0706 532.944L85.8666 518.304C86.391 518.224 86.9231 518.149 87.4594 518.085C87.991 518.021 88.5259 517.988 89.0614 517.988C89.6263 517.988 90.1908 518.021 90.752 518.085C91.3288 518.149 91.8936 518.224 92.4469 518.304L93.7884 546.407C93.3651 546.488 92.898 546.57 92.3862 546.643C91.7139 546.734 91.0358 546.774 90.3574 546.764C89.2584 546.744 88.1634 546.625 87.0859 546.407L86.5328 530.111L82.2005 540.861C81.7291 540.934 81.2535 541.008 80.7814 541.057C80.3499 541.109 79.9158 541.136 79.4812 541.138C79.0864 541.138 78.6801 541.112 78.2577 541.072C77.8197 541.031 77.385 540.961 76.9566 540.862L73.0956 530.273L72.6649 546.407C71.6288 546.636 70.5715 546.756 69.5104 546.764C68.4368 546.746 67.3674 546.627 66.3164 546.407L67.4626 518.304Z" fill="#D57D32"/>
<path d="M100.993 536.452C100.977 534.963 101.197 533.481 101.644 532.061C102.041 530.802 102.7 529.643 103.578 528.658C104.455 527.699 105.539 526.951 106.749 526.473C108.143 525.935 109.628 525.673 111.122 525.702C112.63 525.671 114.129 525.933 115.536 526.473C116.745 526.952 117.829 527.699 118.707 528.658C119.585 529.643 120.244 530.803 120.641 532.061C121.087 533.481 121.307 534.963 121.291 536.452C121.307 537.915 121.088 539.371 120.641 540.764C120.238 542.002 119.579 543.142 118.707 544.11C117.825 545.054 116.741 545.787 115.536 546.254C114.125 546.777 112.627 547.03 111.122 547C109.63 547.028 108.147 546.775 106.749 546.254C105.543 545.788 104.459 545.055 103.578 544.11C102.706 543.142 102.047 542.003 101.644 540.764C101.197 539.371 100.977 537.915 100.993 536.452ZM114.552 536.452C114.632 535.113 114.338 533.778 113.703 532.596C113.434 532.161 113.052 531.807 112.597 531.571C112.143 531.335 111.633 531.226 111.122 531.255C110.613 531.225 110.106 531.333 109.655 531.57C109.203 531.806 108.825 532.161 108.561 532.596C107.94 533.782 107.653 535.115 107.733 536.452C107.656 537.776 107.943 539.096 108.561 540.269C108.826 540.704 109.204 541.058 109.655 541.294C110.106 541.53 110.614 541.639 111.122 541.608C111.633 541.637 112.143 541.529 112.597 541.293C113.051 541.057 113.433 540.704 113.703 540.269C114.335 539.1 114.629 537.778 114.552 536.452Z" fill="#D57D32"/>
<path d="M136.937 525.782C138.1 525.781 139.26 525.882 140.404 526.083C141.525 526.261 142.594 526.682 143.534 527.316C144.521 528.009 145.31 528.946 145.823 530.037C146.472 531.508 146.774 533.108 146.708 534.715V546.488C146.097 546.61 145.48 546.697 144.859 546.749C144.307 546.781 143.819 546.804 143.4 546.804C142.953 546.804 142.453 546.781 141.9 546.749C141.279 546.697 140.662 546.61 140.05 546.488V535.429C140.145 534.368 139.865 533.308 139.259 532.432C138.95 532.115 138.575 531.87 138.16 531.714C137.745 531.558 137.301 531.496 136.86 531.531C136.549 531.533 136.24 531.557 135.933 531.605C135.722 531.623 135.516 531.678 135.323 531.767V546.488C134.711 546.609 134.092 546.696 133.47 546.749C132.918 546.781 132.43 546.804 132.007 546.804C131.56 546.804 131.064 546.781 130.511 546.749C129.89 546.697 129.273 546.61 128.662 546.488V527.163C129.76 526.797 130.877 526.488 132.007 526.237C133.629 525.905 135.282 525.753 136.937 525.782Z" fill="#D57D32"/>
<path d="M159.002 531.727H153.17C153.047 531.242 152.961 530.748 152.914 530.249C152.873 529.795 152.857 529.355 152.857 528.934C152.857 528.511 152.873 528.081 152.914 527.633C152.962 527.141 153.048 526.652 153.17 526.173H171.497C171.619 526.652 171.703 527.141 171.749 527.633C171.789 528.081 171.814 528.511 171.814 528.934C171.814 529.355 171.789 529.794 171.749 530.249C171.705 530.748 171.62 531.242 171.497 531.727H165.66V546.488C164.977 546.594 164.359 546.667 163.811 546.724C163.258 546.773 162.758 546.805 162.311 546.805C161.864 546.805 161.369 546.773 160.815 546.724C160.262 546.667 159.661 546.594 159.002 546.488V531.727Z" fill="#D57D32"/>
<path d="M183.869 538.458C184.06 539.387 184.605 540.206 185.389 540.741C186.259 541.226 187.247 541.459 188.242 541.414C189.104 541.401 189.963 541.309 190.807 541.138C191.763 540.948 192.699 540.67 193.604 540.309C194.01 541.088 194.332 541.907 194.566 542.754C194.847 543.712 195 544.703 195.022 545.702C192.729 546.56 190.301 547 187.852 547C186.194 547.041 184.543 546.774 182.983 546.214C181.724 545.754 180.591 545.006 179.675 544.029C178.807 543.074 178.16 541.94 177.78 540.707C177.363 539.342 177.157 537.921 177.171 536.494C177.161 535.065 177.373 533.643 177.8 532.279C178.193 531.022 178.836 529.856 179.691 528.853C180.56 527.862 181.637 527.074 182.844 526.545C184.24 525.958 185.744 525.67 187.258 525.702C188.534 525.683 189.801 525.924 190.981 526.409C192.032 526.861 192.979 527.524 193.762 528.356C194.543 529.227 195.14 530.247 195.518 531.353C195.932 532.577 196.138 533.861 196.128 535.153C196.131 535.791 196.098 536.428 196.03 537.062C195.961 537.623 195.9 538.093 195.851 538.458L183.869 538.458ZM187.023 530.705C186.227 530.691 185.455 530.971 184.853 531.491C184.195 532.134 183.813 533.008 183.788 533.927H190.096C190.071 533.09 189.775 532.283 189.251 531.629C188.975 531.315 188.631 531.068 188.245 530.908C187.859 530.748 187.441 530.678 187.023 530.705Z" fill="#D57D32"/>
<path d="M203.297 526.254C204.533 526.099 205.81 525.961 207.138 525.865C208.467 525.759 209.72 525.701 210.902 525.701C213.417 525.524 215.923 526.152 218.056 527.495C218.834 528.073 219.459 528.833 219.875 529.708C220.291 530.583 220.486 531.547 220.442 532.515C220.453 533.233 220.359 533.949 220.166 534.641C220.005 535.184 219.779 535.705 219.491 536.192C219.267 536.579 218.989 536.932 218.665 537.24C218.377 537.499 218.14 537.712 217.955 537.865L222.446 546.448C221.866 546.558 221.281 546.637 220.694 546.683C220.051 546.741 219.425 546.764 218.823 546.764C218.085 546.764 217.376 546.741 216.694 546.683C216.124 546.645 215.557 546.567 214.999 546.448L210.626 537.159L211.179 536.842C211.942 536.456 212.593 535.88 213.069 535.17C213.407 534.59 213.583 533.932 213.58 533.261C213.606 532.645 213.387 532.044 212.972 531.589C212.709 531.352 212.4 531.172 212.064 531.06C211.728 530.949 211.373 530.907 211.021 530.938C210.637 530.933 210.253 530.96 209.874 531.021V546.488C209.264 546.61 208.648 546.697 208.029 546.749C207.476 546.781 206.989 546.805 206.565 546.805C206.118 546.805 205.634 546.781 205.11 546.749C204.501 546.695 203.896 546.608 203.297 546.488L203.297 526.254Z" fill="#D57D32"/>
<path d="M233.798 538.458C233.981 539.39 234.528 540.211 235.317 540.74C236.187 541.226 237.175 541.459 238.171 541.414C239.031 541.401 239.888 541.309 240.731 541.138C241.687 540.949 242.623 540.671 243.528 540.309C243.933 541.089 244.257 541.908 244.495 542.754C244.775 543.712 244.928 544.703 244.95 545.701C242.657 546.56 240.229 547 237.781 547C236.123 547.041 234.472 546.775 232.911 546.214C231.649 545.755 230.513 545.006 229.594 544.029C228.732 543.071 228.089 541.937 227.708 540.707C226.891 537.956 226.897 535.027 227.725 532.279C228.12 531.022 228.764 529.857 229.619 528.853C230.487 527.86 231.564 527.072 232.773 526.545C234.169 525.958 235.673 525.67 237.188 525.702C238.463 525.684 239.729 525.924 240.909 526.409C241.96 526.861 242.907 527.524 243.69 528.356C244.472 529.225 245.067 530.245 245.437 531.353C245.856 532.576 246.065 533.861 246.056 535.153C246.056 535.791 246.023 536.428 245.958 537.062C245.884 537.623 245.829 538.093 245.779 538.459L233.798 538.458ZM236.951 530.704C236.155 530.689 235.382 530.969 234.781 531.491C234.123 532.134 233.741 533.008 233.715 533.927H240.024C239.998 533.088 239.699 532.282 239.171 531.629C238.897 531.315 238.554 531.068 238.169 530.908C237.784 530.747 237.368 530.678 236.951 530.704Z" fill="#D57D32"/>
<path d="M264.973 526.173C265.368 526.1 265.766 526.048 266.167 526.018C266.76 525.961 267.394 525.945 268.086 525.945C268.947 525.945 269.728 525.961 270.403 526.018C271.086 526.075 271.573 526.124 271.865 526.173L264.258 539.367V546.488C263.575 546.594 262.956 546.666 262.403 546.724C261.851 546.772 261.355 546.804 260.908 546.804C260.46 546.804 259.964 546.772 259.413 546.724C258.859 546.666 258.257 546.594 257.6 546.488V539.367L250.031 526.173C250.323 526.124 250.827 526.075 251.551 526.018C252.274 525.96 253.063 525.945 253.934 525.945C254.617 525.945 255.283 525.961 255.94 526.018C256.377 526.045 256.811 526.097 257.242 526.173L261.102 533.926L264.973 526.173Z" fill="#D57D32"/>
<path d="M310.918 538.263C310.972 539.749 310.647 541.225 309.973 542.551C309.359 543.659 308.462 544.583 307.373 545.23C306.154 545.925 304.818 546.393 303.43 546.611C301.789 546.88 300.127 547.01 298.464 547C297.049 547 295.773 546.943 294.643 546.847C293.513 546.741 292.293 546.611 290.977 546.448V518.305C291.977 518.141 293.066 518.012 294.253 517.907C295.432 517.81 296.805 517.752 298.39 517.752C299.797 517.743 301.202 517.868 302.585 518.126C303.787 518.337 304.941 518.764 305.99 519.385C306.95 519.962 307.744 520.776 308.299 521.748C308.9 522.892 309.192 524.174 309.145 525.466C309.16 526.641 308.874 527.801 308.316 528.836C307.825 529.777 307.107 530.581 306.226 531.174C306.845 531.414 307.435 531.725 307.982 532.101C308.553 532.488 309.058 532.965 309.478 533.513C309.938 534.127 310.292 534.813 310.527 535.544C310.801 536.424 310.933 537.342 310.918 538.263ZM297.796 529.055H298.894C299.827 529.111 300.753 528.866 301.537 528.356C301.878 528.067 302.142 527.7 302.308 527.285C302.474 526.871 302.536 526.422 302.488 525.978C302.506 525.497 302.387 525.021 302.145 524.605C301.94 524.25 301.65 523.952 301.301 523.737C300.951 523.523 300.565 523.374 300.162 523.298C299.757 523.225 299.346 523.187 298.935 523.185H298.366C298.175 523.183 297.985 523.197 297.796 523.225L297.796 529.055ZM297.796 534.641V541.251C298.025 541.286 298.256 541.306 298.488 541.308C298.756 541.325 299.122 541.332 299.568 541.332C300.08 541.334 300.59 541.28 301.09 541.17C301.583 541.077 302.056 540.899 302.488 540.643C302.906 540.396 303.251 540.042 303.488 539.619C303.756 539.118 303.885 538.554 303.862 537.986C303.916 537.479 303.83 536.967 303.612 536.506C303.394 536.045 303.053 535.653 302.626 535.372C301.64 534.848 300.532 534.595 299.415 534.641H297.796Z" fill="#D57D32"/>
<path d="M317.258 539.871C317.214 538.752 317.502 537.644 318.086 536.687C318.626 535.857 319.357 535.167 320.216 534.675C321.11 534.167 322.083 533.816 323.095 533.635C324.108 533.443 325.137 533.345 326.168 533.342H328.574C328.558 532.916 328.419 532.505 328.174 532.156C327.934 531.843 327.622 531.593 327.264 531.427C326.875 531.254 326.465 531.136 326.044 531.076C325.59 531.011 325.131 530.979 324.672 530.979C323.93 530.989 323.19 531.063 322.461 531.199C321.575 531.349 320.704 531.578 319.859 531.882C319.623 531.433 319.42 531.027 319.25 530.662C319.081 530.302 318.947 529.927 318.85 529.542C318.759 529.152 318.696 528.755 318.663 528.356C318.623 527.95 318.599 527.488 318.599 526.968C319.827 526.553 321.085 526.235 322.363 526.018C323.476 525.819 324.605 525.713 325.736 525.701C326.987 525.686 328.233 525.852 329.436 526.196C330.476 526.489 331.439 527.008 332.255 527.716C333.052 528.433 333.665 529.329 334.045 530.33C334.493 531.546 334.708 532.835 334.679 534.13V545.661C333.679 545.952 332.468 546.237 331.053 546.53C329.572 546.82 328.066 546.964 326.557 546.959C325.295 546.972 324.036 546.846 322.801 546.586C321.753 546.377 320.754 545.969 319.859 545.384C319.041 544.836 318.382 544.083 317.948 543.2C317.458 542.16 317.221 541.02 317.258 539.871ZM326.557 542.08C326.899 542.073 327.241 542.046 327.581 541.999C327.915 541.97 328.247 541.918 328.574 541.844V537.516H326.321C325.507 537.49 324.702 537.693 323.997 538.101C323.706 538.267 323.464 538.508 323.299 538.8C323.133 539.091 323.048 539.422 323.054 539.757C323.029 540.198 323.151 540.636 323.403 541C323.641 541.295 323.944 541.531 324.289 541.69C324.654 541.848 325.04 541.951 325.435 541.999C325.807 542.051 326.182 542.078 326.557 542.08Z" fill="#D57D32"/>
<path d="M354.261 526.173C354.659 526.1 355.06 526.048 355.463 526.018C356.057 525.961 356.691 525.945 357.374 525.945C358.244 525.945 359.016 525.961 359.699 526.018C360.382 526.075 360.87 526.124 361.155 526.173L353.546 539.367V546.488C352.863 546.594 352.245 546.666 351.701 546.724C351.148 546.772 350.643 546.804 350.197 546.804C349.75 546.804 349.254 546.772 348.701 546.724C348.148 546.666 347.546 546.594 346.897 546.488V539.367L339.328 526.173C339.613 526.124 340.117 526.075 340.841 526.018C341.564 525.96 342.36 525.945 343.222 525.945C343.913 525.945 344.58 525.961 345.237 526.018C345.673 526.046 346.108 526.098 346.539 526.173L350.399 533.926L354.261 526.173Z" fill="#D57D32"/>
<path d="M19.5461 497.973C18.2285 497.951 16.9151 497.818 15.6202 497.574V484.704H7.80795V497.574C6.52738 497.813 5.22922 497.947 3.92666 497.973C2.6088 497.951 1.29516 497.818 0 497.574L0 466.101C0.788304 465.988 1.51184 465.898 2.162 465.841C2.80454 465.784 3.38201 465.752 3.88198 465.752C4.40984 465.752 5.00768 465.784 5.66631 465.841C6.32819 465.898 7.03983 465.988 7.80795 466.101V477.786H15.6201V466.101C16.4127 465.988 17.1278 465.898 17.7576 465.841C18.3917 465.784 18.9734 465.752 19.5013 465.752C20.0299 465.752 20.6236 465.784 21.2897 465.841C21.9524 465.898 22.664 465.988 23.428 466.101V497.574C22.1472 497.813 20.8488 497.947 19.5461 497.973Z" fill="#396EB5"/>
<path d="M36.1407 497.622C35.4578 497.737 34.8397 497.826 34.2875 497.882C33.745 497.944 33.1994 497.975 32.6533 497.973C32.0408 497.969 31.4289 497.934 30.8201 497.867C30.1295 497.786 29.353 497.68 28.5039 497.533L38.3888 466.06C39.1568 465.971 39.8676 465.898 40.5304 465.841C41.1888 465.784 41.8593 465.752 42.538 465.752C43.0953 465.752 43.705 465.784 44.3678 465.841C45.0297 465.898 45.7902 465.971 46.6434 466.06L56.3941 497.574C54.9354 497.821 53.4596 497.955 51.9801 497.973C51.3909 497.975 50.802 497.945 50.2161 497.882C49.6268 497.826 48.9927 497.737 48.3182 497.622L46.6434 491.493C45.8669 491.719 45.0766 491.895 44.2775 492.02C43.5412 492.139 42.7964 492.199 42.0505 492.199C41.3568 492.198 40.6641 492.147 39.978 492.045C39.2342 491.931 38.4972 491.777 37.7704 491.582L36.1407 497.622ZM42.3187 474.343L39.3601 485.671C39.86 485.824 40.3271 485.939 40.7699 486.028C41.2211 486.117 41.6801 486.16 42.14 486.158C42.6353 486.16 43.13 486.124 43.6199 486.052C44.1324 485.971 44.6397 485.86 45.1392 485.72L42.3187 474.343Z" fill="#396EB5"/>
<path d="M61.4707 466.101C62.259 465.988 62.9824 465.898 63.6326 465.841C64.2751 465.784 64.8519 465.752 65.3518 465.752C65.8806 465.752 66.4775 465.784 67.136 465.841C67.8029 465.898 68.5147 465.988 69.2785 466.101V490.785H79.472C79.6012 491.419 79.6977 492.059 79.7612 492.702C79.8016 493.246 79.8261 493.741 79.8261 494.179C79.8261 494.683 79.8016 495.204 79.7612 495.748C79.7121 496.292 79.6186 496.949 79.472 497.712H61.4707V466.101Z" fill="#396EB5"/>
<path d="M85.3457 466.011H103.969C104.083 466.661 104.173 467.263 104.229 467.822C104.288 468.348 104.317 468.876 104.318 469.405C104.301 470.574 104.184 471.74 103.969 472.889H93.158V478.273H101.669C101.915 479.402 102.048 480.552 102.067 481.707C102.049 482.879 101.916 484.046 101.669 485.191H93.158V497.574C91.8758 497.813 90.5759 497.947 89.2717 497.973C87.9541 497.951 86.6406 497.818 85.3457 497.574V466.011Z" fill="#396EB5"/>
<path d="M122.894 466.1C123.511 466.011 124.186 465.93 124.906 465.858C125.573 465.788 126.243 465.752 126.913 465.751C127.556 465.753 128.197 465.788 128.836 465.858C129.526 465.93 130.165 466.011 130.754 466.1L137.021 482.496L143.509 466.1C144.094 466.011 144.689 465.93 145.293 465.858C145.885 465.786 146.481 465.75 147.077 465.751C147.713 465.751 148.348 465.786 148.979 465.858C149.622 465.93 150.256 466.011 150.873 466.1L152.377 497.573C151.906 497.663 151.386 497.752 150.808 497.841C150.055 497.941 149.296 497.985 148.537 497.972C147.306 497.952 146.08 497.818 144.874 497.573L144.257 479.328L139.403 491.362C138.875 491.443 138.343 491.524 137.81 491.581C137.327 491.637 136.841 491.667 136.355 491.671C135.916 491.671 135.461 491.645 134.989 491.605C134.5 491.553 134.014 491.472 133.534 491.362L129.209 479.507L128.722 497.573C127.564 497.831 126.381 497.965 125.194 497.972C123.992 497.955 122.794 497.821 121.617 497.573L122.894 466.1Z" fill="#396EB5"/>
<path d="M164.733 497.622C164.054 497.737 163.436 497.826 162.88 497.882C162.337 497.944 161.792 497.975 161.246 497.973C160.635 497.969 160.024 497.934 159.417 497.867C158.725 497.786 157.953 497.68 157.1 497.533L166.984 466.06C167.749 465.971 168.464 465.898 169.123 465.841C169.785 465.784 170.456 465.752 171.13 465.752C171.691 465.752 172.301 465.784 172.963 465.841C173.626 465.898 174.382 465.971 175.236 466.06L184.99 497.574C183.532 497.821 182.056 497.955 180.576 497.973C179.987 497.976 179.398 497.945 178.812 497.882C178.219 497.826 177.589 497.737 176.91 497.622L175.236 491.493C174.459 491.719 173.669 491.896 172.87 492.02C172.135 492.139 171.391 492.199 170.646 492.199C169.951 492.198 169.257 492.147 168.569 492.045C167.827 491.931 167.092 491.776 166.367 491.582L164.733 497.622ZM170.911 474.343L167.952 485.671C168.456 485.824 168.924 485.939 169.366 486.028C169.816 486.117 170.274 486.161 170.732 486.158C171.227 486.16 171.722 486.125 172.211 486.052C172.724 485.972 173.232 485.861 173.732 485.72L170.911 474.343Z" fill="#396EB5"/>
<path d="M190.065 466.1C191.503 465.955 192.837 465.817 194.056 465.688C195.338 465.551 196.627 465.483 197.916 465.484C199.545 465.485 201.17 465.64 202.77 465.947C204.296 466.219 205.761 466.763 207.094 467.554C208.368 468.328 209.431 469.405 210.188 470.689C211.034 472.223 211.445 473.957 211.379 475.707C211.392 476.697 211.266 477.683 211.004 478.638C210.78 479.451 210.452 480.231 210.03 480.961C209.663 481.6 209.219 482.192 208.707 482.723C208.264 483.185 207.785 483.611 207.274 483.998L214.158 497.573C213.451 497.696 212.679 497.777 211.842 497.841C211.004 497.898 210.244 497.931 209.566 497.931C208.981 497.931 208.297 497.898 207.517 497.841C206.828 497.793 206.142 497.704 205.464 497.573L199.201 483.161L199.596 482.942C200.027 482.706 200.421 482.408 200.766 482.057C201.221 481.614 201.621 481.118 201.957 480.578C202.338 479.977 202.649 479.335 202.884 478.663C203.132 477.956 203.258 477.211 203.257 476.462C203.309 475.867 203.224 475.269 203.01 474.712C202.797 474.155 202.459 473.653 202.022 473.246C201.16 472.557 200.08 472.198 198.977 472.232C198.725 472.23 198.474 472.244 198.225 472.272C198.091 472.289 197.96 472.319 197.832 472.361V497.573C196.564 497.811 195.28 497.945 193.99 497.973C192.673 497.951 191.359 497.818 190.064 497.573L190.065 466.1Z" fill="#396EB5"/>
<path d="M224.656 497.622C223.976 497.737 223.359 497.826 222.806 497.882C222.264 497.944 221.718 497.975 221.172 497.973C220.561 497.969 219.951 497.934 219.344 497.867C218.649 497.786 217.877 497.68 217.023 497.533L226.904 466.06C227.676 465.971 228.383 465.898 229.049 465.841C229.708 465.784 230.383 465.752 231.057 465.752C231.619 465.752 232.228 465.784 232.887 465.841C233.553 465.898 234.309 465.971 235.162 466.06L244.918 497.574C243.459 497.821 241.983 497.955 240.503 497.973C239.911 497.975 239.32 497.945 238.732 497.882C238.145 497.826 237.511 497.737 236.837 497.622L235.162 491.493C234.386 491.719 233.596 491.895 232.798 492.02C232.061 492.139 231.316 492.199 230.57 492.199C229.876 492.198 229.184 492.147 228.498 492.045C227.755 491.932 227.019 491.777 226.293 491.582L224.656 497.622ZM230.838 474.343L227.879 485.671C228.344 485.814 228.816 485.934 229.293 486.028C229.743 486.117 230.201 486.161 230.659 486.158C231.154 486.16 231.649 486.125 232.138 486.052C232.651 485.971 233.159 485.86 233.659 485.72L230.838 474.343Z" fill="#396EB5"/>
<path d="M251.795 472.889H244.431C244.176 471.744 244.042 470.577 244.031 469.405C244.051 468.263 244.185 467.126 244.431 466.011H266.98C267.094 466.661 267.184 467.262 267.241 467.822C267.301 468.347 267.331 468.876 267.33 469.405C267.313 470.574 267.195 471.739 266.98 472.889H259.607V497.573C258.325 497.813 257.025 497.946 255.721 497.972C254.404 497.951 253.09 497.817 251.795 497.573L251.795 472.889Z" fill="#396EB5"/>
<path d="M292.4 497.973C291.079 497.951 289.763 497.818 288.466 497.574V484.704H280.661V497.574C279.379 497.813 278.079 497.947 276.775 497.973C275.458 497.952 274.144 497.818 272.85 497.574V466.101C273.637 465.988 274.361 465.898 275.011 465.841C275.654 465.784 276.231 465.752 276.735 465.752C277.263 465.752 277.856 465.784 278.516 465.841C279.182 465.898 279.897 465.988 280.661 466.101V477.786H288.465V466.101C289.261 465.988 289.976 465.898 290.61 465.841C291.244 465.784 291.823 465.752 292.351 465.752C292.879 465.752 293.481 465.784 294.138 465.841C294.798 465.898 295.513 465.988 296.277 466.101V497.574C294.998 497.813 293.701 497.947 292.4 497.973Z" fill="#396EB5"/>
<path d="M302.944 481.975C302.928 479.768 303.201 477.568 303.757 475.431C304.244 473.539 305.1 471.763 306.276 470.202C307.42 468.72 308.904 467.533 310.602 466.742C312.575 465.912 314.695 465.484 316.837 465.484C318.978 465.484 321.098 465.912 323.071 466.742C324.756 467.543 326.229 468.728 327.371 470.202C328.545 471.763 329.399 473.54 329.884 475.431C330.444 477.567 330.717 479.767 330.697 481.975C330.718 484.167 330.445 486.353 329.884 488.472C329.397 490.34 328.543 492.093 327.371 493.628C326.23 495.087 324.755 496.251 323.071 497.023C319.071 498.635 314.602 498.635 310.602 497.023C308.905 496.26 307.42 495.095 306.276 493.628C305.103 492.094 304.246 490.341 303.757 488.472C303.2 486.352 302.927 484.167 302.944 481.975ZM322.494 481.975C322.494 475.569 320.625 472.364 316.885 472.362C313.064 472.362 311.153 475.566 311.153 481.975C310.998 484.442 311.477 486.908 312.545 489.138C312.968 489.893 313.596 490.515 314.357 490.931C315.117 491.348 315.979 491.542 316.845 491.492C320.609 491.492 322.492 488.32 322.494 481.975Z" fill="#396EB5"/>
<path d="M337.369 466.101C338.012 465.988 338.605 465.898 339.133 465.841C339.646 465.784 340.162 465.754 340.678 465.752C341.23 465.752 341.781 465.787 342.329 465.858C342.905 465.93 343.401 466.011 343.808 466.101L354.051 483.38V466.101C354.815 465.988 355.506 465.898 356.123 465.841C356.74 465.784 357.302 465.752 357.806 465.752C358.336 465.755 358.865 465.785 359.392 465.841C359.951 465.898 360.537 465.988 361.155 466.101L361.107 497.574C360.687 497.69 360.261 497.78 359.83 497.842C359.233 497.933 358.63 497.977 358.026 497.973C357.358 497.98 356.692 497.928 356.034 497.818C355.449 497.72 355.017 497.639 354.757 497.573L344.474 480.383V497.573C343.314 497.826 342.132 497.96 340.946 497.973C339.743 497.958 338.545 497.825 337.369 497.573V466.101Z" fill="#396EB5"/>
<path d="M37.9299 432.326C124.756 432.326 194.795 406.099 273.598 406.099C297.31 406.099 328.77 410.264 361.148 416.086V31.4849C361.148 23.135 357.828 15.1271 351.918 9.22254C346.007 3.31801 337.99 0.000570842 329.631 2.37305e-07H31.5244C27.3847 -0.000507419 23.2856 0.813495 19.4609 2.39553C15.6362 3.97756 12.161 6.29663 9.23366 9.22031C6.30631 12.144 3.98417 15.615 2.39985 19.4352C0.81553 23.2554 5.75035e-05 27.3499 0 31.4849L0 425.806C0.0121193 427.512 0.161563 429.215 0.446887 430.898C13.0956 431.791 25.7122 432.326 37.9299 432.326Z" fill="url(#paint0_linear_1328_54641)"/>
<path d="M203.346 85.1615C203.346 85.1615 233.228 64.598 256.802 79.4451C269.377 49.9983 302.252 56.5267 302.252 56.5267C302.252 56.5267 257.77 69.7947 258.558 94.0488C239.878 74.1473 203.346 85.1615 203.346 85.1615Z" fill="#1F6A95"/>
<path d="M202.793 82.9128C202.793 82.9128 232.667 62.3492 256.25 77.1923C268.818 47.7497 301.699 54.2821 301.699 54.2821C301.699 54.2821 257.217 67.5459 258.007 91.8001C239.318 71.8978 202.793 82.9128 202.793 82.9128Z" fill="white"/>
<path d="M306.668 82.5673C306.668 82.5673 326.714 68.7636 342.532 78.7266C350.971 58.9793 373 63.3556 373 63.3556C373 63.3556 343.175 72.2548 343.703 88.5195C331.168 75.1739 306.668 82.5673 306.668 82.5673Z" fill="#1F6A95"/>
<path d="M306.293 81.0574C306.293 81.0574 326.33 67.2612 342.151 77.2166C350.587 57.4694 372.634 61.8541 372.634 61.8541C372.634 61.8541 342.8 70.7449 343.336 87.0171C330.793 73.6683 306.293 81.0574 306.293 81.0574Z" fill="white"/>
<path d="M176.293 126.488C176.293 126.488 191.324 116.144 203.192 123.606C209.508 108.795 226.051 112.084 226.051 112.084C226.051 112.084 203.671 118.766 204.069 130.955C194.664 120.95 176.293 126.488 176.293 126.488Z" fill="#1F6A95"/>
<path d="M176.016 125.359C176.016 125.359 191.038 115.015 202.907 122.485C209.231 107.675 225.774 110.963 225.774 110.963C225.774 110.963 203.394 117.625 203.785 129.833C194.395 119.821 176.016 125.359 176.016 125.359Z" fill="white"/>
<path d="M273.963 119.968C273.963 119.968 283.978 113.074 291.887 118.043C296.098 108.177 307.129 110.37 307.129 110.37C307.129 110.37 292.213 114.812 292.481 122.939C286.213 116.277 273.963 119.968 273.963 119.968Z" fill="#1F6A95"/>
<path d="M273.775 119.209C273.775 119.209 283.791 112.315 291.708 117.292C295.911 107.423 306.941 109.615 306.941 109.615C306.941 109.615 292.025 114.056 292.293 122.193C286.019 115.519 273.775 119.209 273.775 119.209Z" fill="white"/>
<path d="M146.737 274.637C145.522 274.341 144.243 274.478 143.119 275.026C141.786 275.973 142.046 275.432 140.981 276.768C140.05 277.913 139.2 279.123 138.437 280.386C138.161 280.913 136.291 281.319 134.95 283.464C133.608 285.598 134.015 286.403 132.137 288.145C127.919 291.881 124.104 296.049 120.756 300.58C119.017 303.922 118.887 304.596 119.553 306.061C122.11 309.734 124.977 313.181 128.122 316.365C128.27 316.551 128.372 316.769 128.42 317.002C128.468 317.235 128.46 317.476 128.397 317.705C128.122 318.372 128.658 318.907 127.991 319.573C127.316 320.247 126.918 321.042 126.244 321.18C125.585 321.309 124.106 321.847 123.967 323.186C124.229 324.113 124.588 325.01 125.041 325.861C125.41 326.378 125.863 326.83 126.382 327.197C126.382 327.197 125.041 327.064 124.902 327.864C124.443 329.562 124.31 331.333 124.512 333.081C125.032 334.875 125.391 336.711 125.585 338.569C125.196 341.987 124.612 345.38 123.837 348.731C123.309 351.541 123.17 352.345 123.577 352.345C123.161 355.223 122.979 358.129 123.033 361.037C123.033 361.037 122.902 362.239 121.96 361.577C119.516 359.207 116.595 357.381 113.392 356.222C109.644 355.422 105.36 356.084 102.816 355.422C100.271 354.748 93.7109 353.409 92.9143 353.283C92.1014 353.145 92.5077 353.145 91.297 352.068C90.0939 351.005 91.1671 350.741 89.8333 349.129C88.4926 347.53 87.281 345.792 85.2734 346.189C83.2657 346.587 80.4528 349.794 79.1197 351.144C75.8379 353.887 73.0715 357.192 70.95 360.904C69.0723 365.182 70.5521 366.385 71.4864 366.653C72.4214 366.921 75.1036 364.508 75.6324 362.913C76.1686 361.301 79.2496 360.904 80.4528 360.765C81.6561 360.627 82.4605 360.1 84.0701 359.974C85.6797 359.836 87.281 360.363 87.4192 359.425C89.8077 359.497 92.1828 359.812 94.5079 360.363C97.19 361.175 107.1 365.718 111.652 367.854C116.204 369.998 122.764 374.277 126.106 374.277C127.619 374.267 129.092 373.785 130.318 372.898C131.543 372.012 132.461 370.764 132.942 369.331C133.34 367.059 135.892 360.1 136.023 358.759C136.161 357.423 136.421 356.222 136.421 356.222C136.421 356.222 137.624 356.623 137.763 355.687C137.901 354.748 138.161 352.207 138.835 351.671C139.502 351.144 140.843 353.145 141.242 354.346C141.648 355.549 143.258 358.089 143.924 358.089C145.521 360.092 147.316 361.93 149.281 363.575C150.89 364.508 153.029 366.385 153.029 367.992C153.547 373.646 154.76 379.214 156.638 384.573C158.792 389.656 163.076 394.199 163.873 397.139C164.702 399.933 165.241 402.805 165.482 405.71C165.482 405.71 164.539 405.304 164.409 405.969C164.268 407.487 164.311 409.017 164.539 410.524C164.808 412.522 165.482 413.602 167.36 413.736C169.588 413.593 171.823 413.593 174.05 413.736C176.924 414.763 179.982 415.172 183.025 414.937C186.098 414.129 190.252 411.86 189.446 408.782C188.641 405.71 183.959 407.982 182.35 407.308C180.741 406.643 179.676 405.71 178.603 405.442C177.529 405.166 177.261 404.369 176.725 403.963C176.188 403.565 174.985 402.765 174.449 402.356C174.321 402.243 174.156 402.18 173.985 402.18C173.815 402.18 173.65 402.243 173.522 402.356C172.276 400.591 171.199 398.713 170.303 396.748C169.1 393.935 167.222 383.501 166.149 379.222C165.266 376.304 164.683 373.303 164.409 370.266C164.703 368.134 164.659 365.97 164.279 363.852C163.649 362.232 162.741 360.734 161.596 359.425C160.769 358.5 160.008 357.518 159.321 356.485C158.73 355.048 158.239 353.572 157.849 352.068C157.849 352.068 155.573 346.725 153.971 343.786C152.354 340.84 150.89 335.09 147.135 331.878L147.005 330.948C147.005 330.948 147.534 330.815 147.534 329.739C147.534 329.739 149.013 329.341 149.143 328.538C149.228 328.028 149.188 327.505 149.025 327.014C148.862 326.524 148.582 326.081 148.208 325.723L147.404 325.187C147.328 324.388 147.328 323.583 147.404 322.783C147.534 321.582 147.135 319.573 147.534 318.907C147.94 318.234 148.346 318.102 148.208 317.031C148.113 316.624 148.099 316.202 148.167 315.789C148.235 315.377 148.384 314.982 148.606 314.627C148.983 313.273 149.21 311.882 149.281 310.478C149.549 309.139 150.354 308.603 150.622 307.936C150.754 307.569 150.985 307.245 151.289 307C153.42 307.254 155.564 307.39 157.711 307.409C159.32 307.271 162.67 307.409 162.67 307.409C162.594 307.812 162.642 308.228 162.808 308.603C163.076 309.272 164.141 308.736 165.482 308.603C166.816 308.472 167.888 308.336 168.157 307.133C168.425 305.932 167.758 305.797 167.758 305.797C167.907 305.574 167.974 305.306 167.949 305.04C167.924 304.773 167.808 304.523 167.62 304.331C167.62 304.331 167.49 303.122 166.816 302.992C166.816 302.992 166.816 301.116 166.019 300.845C165.112 300.521 164.13 300.477 163.198 300.718C161.865 300.978 161.596 301.651 159.995 301.919C157.634 302.151 155.257 301.685 153.158 300.58C153.079 299.31 153.406 298.047 154.094 296.975C154.918 295.113 155.592 293.188 156.11 291.218C156.756 289.459 157.118 287.609 157.182 285.736C156.913 284.462 156.555 283.209 156.11 281.985C155.862 281.047 155.404 280.178 154.768 279.445L157.182 276.903C158.166 276.905 159.149 276.819 160.117 276.644C161.198 276.367 162.133 276.644 162.133 275.303V273.964C162.133 273.964 163.198 273.565 163.198 273.029C163.198 272.49 162.133 272.49 162.263 271.957C162.401 271.426 163.491 271.353 163.735 271.154C163.987 270.958 164.011 270.22 164.011 270.22C164.011 270.22 166.019 270.086 165.88 269.286C165.62 268.229 165.165 267.229 164.539 266.339C163.734 265.003 163.198 264.735 163.605 264.471C164.011 264.203 164.539 263.395 164.279 262.864C164.011 262.327 163.198 258.454 162.938 257.382C162.669 256.31 164.011 256.31 162.401 254.84C160.792 253.367 160.394 254.568 159.459 253.639C159.159 253.345 158.931 252.987 158.791 252.592C158.652 252.196 158.605 251.774 158.654 251.358C158.654 250.959 158.117 251.898 156.508 249.222C156.508 249.222 155.703 248.945 155.573 248.288C155.612 248.785 155.702 249.278 155.842 249.757C155.842 249.757 155.573 249.351 154.094 249.757C153.75 249.762 153.412 249.85 153.11 250.012C152.807 250.175 152.548 250.408 152.354 250.691C151.825 251.625 151.956 251.227 150.89 251.764C150.022 252.11 149.125 252.376 148.208 252.559C147.005 252.965 145.932 252.299 145.932 253.505C145.932 254.706 145.533 254.706 145.533 254.706C145.533 254.706 146.469 255.636 145.802 256.31C145.127 256.976 144.989 257.65 144.054 257.65C143.119 257.65 142.315 257.65 142.046 258.714C141.786 259.786 140.177 260.719 140.567 261.662C140.775 262.633 140.775 263.637 140.567 264.609C140.717 265.445 140.991 266.253 141.38 267.008C141.786 268.076 141.518 269.286 141.916 269.952C142.315 270.618 143.517 269.822 143.648 270.618C143.785 271.426 143.119 272.363 144.192 272.363C145.257 272.363 145.257 272.628 145.932 272.49C146.375 272.411 146.823 272.369 147.273 272.363L146.737 274.637Z" fill="#1F6A95"/>
<path d="M148.922 274.637C147.711 274.341 146.434 274.479 145.314 275.026C143.972 275.973 144.233 275.432 143.159 276.768C142.234 277.918 141.384 279.126 140.615 280.386C140.355 280.914 138.477 281.32 137.136 283.464C135.803 285.598 136.209 286.404 134.331 288.145C130.111 291.879 126.296 296.047 122.951 300.58C121.211 303.922 121.073 304.596 121.74 306.062C124.297 309.736 127.166 313.183 130.316 316.366C130.462 316.553 130.563 316.771 130.609 317.004C130.656 317.236 130.647 317.476 130.584 317.705C130.316 318.372 130.844 318.908 130.178 319.573C129.503 320.247 129.104 321.042 128.438 321.18C127.763 321.31 126.292 321.847 126.162 323.186C126.419 324.114 126.776 325.01 127.226 325.861C127.593 326.381 128.047 326.833 128.568 327.197C128.568 327.197 127.226 327.064 127.097 327.864C126.629 329.561 126.494 331.333 126.699 333.081C127.22 334.874 127.576 336.711 127.763 338.569C127.377 341.987 126.796 345.38 126.023 348.732C125.495 351.542 125.357 352.345 125.764 352.345C125.351 355.223 125.169 358.13 125.219 361.037C125.219 361.037 125.089 362.24 124.154 361.578C121.708 359.205 118.785 357.38 115.578 356.223C111.838 355.423 107.547 356.085 105.002 355.423C102.458 354.749 95.8978 353.41 95.0925 353.283C94.2882 353.145 94.6946 353.145 93.4912 352.069C92.2881 351.006 93.3531 350.741 92.0199 349.129C90.6783 347.531 89.4754 345.792 87.4675 346.19C85.4514 346.587 82.6385 349.795 81.3054 351.144C78.0238 353.887 75.2574 357.192 73.1356 360.904C71.2664 365.183 72.7377 366.385 73.6729 366.653C74.6155 366.921 77.2901 364.509 77.8263 362.913C78.355 361.302 81.4361 360.904 82.6385 360.766C83.8416 360.628 84.647 360.1 86.2642 359.974C87.8653 359.836 89.4751 360.363 89.6056 359.425C91.9967 359.498 94.3743 359.812 96.702 360.363C99.3841 361.175 109.286 365.718 113.838 367.854C118.391 369.998 124.958 374.277 128.3 374.277C129.812 374.266 131.283 373.784 132.507 372.897C133.731 372.01 134.648 370.764 135.128 369.331C135.534 367.059 138.071 360.1 138.209 358.759C138.296 357.907 138.431 357.06 138.615 356.223C138.615 356.223 139.819 356.624 139.948 355.687C140.087 354.749 140.355 352.207 141.022 351.671C141.688 351.144 143.029 353.145 143.436 354.346C143.834 355.549 145.443 358.089 146.11 358.089C147.707 360.093 149.502 361.931 151.467 363.575C153.077 364.509 155.214 366.385 155.214 367.992C155.733 373.647 156.948 379.216 158.832 384.573C160.978 389.656 165.262 394.2 166.058 397.139C166.888 399.933 167.428 402.805 167.668 405.71C167.668 405.71 166.725 405.304 166.603 405.969C166.453 407.487 166.494 409.017 166.725 410.524C167.002 412.522 167.668 413.602 169.546 413.736C171.774 413.593 174.009 413.593 176.237 413.736C179.11 414.763 182.168 415.172 185.211 414.938C188.283 414.129 192.437 411.86 191.632 408.782C190.836 405.71 186.153 407.982 184.544 407.308C182.935 406.643 181.861 405.71 180.788 405.442C179.723 405.166 179.455 404.369 178.91 403.963C178.382 403.566 177.171 402.765 176.643 402.356C176.513 402.243 176.347 402.181 176.175 402.181C176.003 402.181 175.837 402.243 175.708 402.356C174.462 400.591 173.384 398.714 172.488 396.748C171.285 393.935 169.407 383.501 168.335 379.223C167.453 376.304 166.873 373.303 166.603 370.266C166.894 368.134 166.847 365.969 166.465 363.852C165.834 362.232 164.926 360.734 163.783 359.425C162.955 358.5 162.194 357.518 161.506 356.486C160.916 355.048 160.425 353.572 160.035 352.069C160.035 352.069 157.759 346.726 156.157 343.786C154.548 340.84 153.076 335.091 149.329 331.878L149.191 330.949C149.191 330.949 149.727 330.815 149.727 329.739C149.727 329.739 151.199 329.341 151.337 328.538C151.419 328.028 151.375 327.505 151.211 327.015C151.047 326.525 150.766 326.082 150.393 325.723L149.589 325.187C149.513 324.388 149.513 323.583 149.589 322.784C149.727 321.583 149.329 319.573 149.727 318.908C150.125 318.234 150.532 318.102 150.393 317.031C150.298 316.624 150.284 316.202 150.352 315.789C150.421 315.377 150.57 314.982 150.792 314.627C151.173 313.274 151.399 311.882 151.467 310.478C151.735 309.139 152.54 308.604 152.808 307.937C152.94 307.57 153.171 307.246 153.474 307C155.609 307.254 157.755 307.391 159.905 307.409C161.506 307.271 164.855 307.409 164.855 307.409C164.785 307.813 164.833 308.227 164.993 308.604C165.261 309.273 166.326 308.737 167.668 308.604C169.009 308.472 170.074 308.336 170.342 307.133C170.611 305.932 169.944 305.797 169.944 305.797C170.093 305.574 170.16 305.307 170.135 305.04C170.109 304.773 169.994 304.523 169.806 304.332C169.806 304.332 169.684 303.122 169.009 302.993C169.009 302.993 169.009 301.116 168.204 300.845C167.298 300.521 166.315 300.477 165.384 300.719C164.059 300.978 163.782 301.652 162.181 301.92C159.823 302.152 157.448 301.686 155.352 300.58C155.267 299.311 155.591 298.047 156.279 296.976C157.118 295.119 157.793 293.192 158.295 291.218C158.946 289.46 159.308 287.609 159.369 285.736C159.1 284.462 158.741 283.209 158.295 281.985C158.048 281.047 157.59 280.178 156.955 279.445L159.369 276.903C160.355 276.905 161.34 276.818 162.312 276.644C163.384 276.367 164.319 276.644 164.319 275.303V273.964C164.319 273.964 165.384 273.565 165.384 273.029C165.384 272.49 164.319 272.49 164.449 271.957C164.587 271.426 165.677 271.353 165.929 271.154C166.172 270.958 166.197 270.22 166.197 270.22C166.197 270.22 168.205 270.086 168.075 269.286C167.811 268.229 167.353 267.23 166.726 266.339C165.929 265.003 165.384 264.735 165.79 264.471C166.197 264.203 166.726 263.395 166.465 262.864C166.197 262.327 165.384 258.454 165.124 257.382C164.855 256.31 166.197 256.31 164.587 254.84C162.986 253.367 162.58 254.568 161.644 253.639C161.343 253.347 161.114 252.988 160.974 252.593C160.835 252.197 160.789 251.774 160.84 251.358C160.84 250.959 160.304 251.898 158.702 249.222C158.702 249.222 157.889 248.945 157.759 248.288C157.798 248.785 157.887 249.278 158.027 249.757C158.027 249.757 157.759 249.351 156.279 249.757C155.937 249.762 155.6 249.849 155.299 250.012C154.997 250.174 154.74 250.408 154.548 250.691C154.012 251.625 154.149 251.227 153.077 251.764C152.21 252.112 151.311 252.379 150.394 252.559C149.191 252.965 148.118 252.299 148.118 253.505C148.118 254.706 147.72 254.706 147.72 254.706C147.72 254.706 148.654 255.636 147.988 256.31C147.314 256.976 147.175 257.65 146.24 257.65C145.314 257.65 144.508 257.65 144.232 258.714C143.972 259.786 142.362 260.719 142.769 261.662C142.965 262.634 142.965 263.636 142.769 264.609C142.908 265.445 143.177 266.255 143.566 267.008C143.972 268.076 143.704 269.286 144.11 269.952C144.508 270.618 145.712 269.822 145.842 270.618C145.972 271.426 145.314 272.363 146.378 272.363C147.451 272.363 147.451 272.628 148.118 272.49C148.561 272.411 149.01 272.369 149.459 272.363L148.922 274.637Z" fill="white"/>
<path d="M0 200.189V200.693C0.422391 200.608 0.877747 200.579 1.28426 200.461C0.866726 200.326 0.436343 200.235 0 200.189Z" fill="#396EB5"/>
<path d="M0 146.029V146.797C0.252332 146.754 0.508303 146.738 0.763954 146.748C0.707539 146.573 0.607925 146.416 0.474364 146.29C0.340804 146.165 0.17763 146.075 0 146.029Z" fill="#396EB5"/>
<path d="M0 187.388V191.785C1.31822 191.985 2.62183 192.271 3.90231 192.642C3.59288 190.864 1.00848 191.359 0.24365 190.031C0.146796 189.588 0.446887 189.54 0.763954 189.515C1.21172 189.609 1.25972 189.308 1.28426 188.988C2.21932 189.369 1.35745 189.938 1.28426 190.554C1.89393 190.474 2.21932 190.668 2.33315 191.074C2.86174 190.737 2.86934 189.881 3.90231 190.031C3.60963 189.544 2.44694 189.247 3.37358 188.988C2.50597 188.029 1.29247 187.453 0 187.388Z" fill="#396EB5"/>
<path d="M231.538 204.635C231.949 204.665 232.36 204.584 232.729 204.402C233.098 204.219 233.411 203.94 233.636 203.595C229.133 198.667 222.442 197.774 218.484 191.603C219.386 190.583 219.394 188.679 220.061 187.429C216.143 184.149 211.607 185.976 206.485 183.255C208.396 183.426 211.103 182.809 212.224 183.775C210.233 179.686 205.875 180.097 201.779 179.086C200.77 175.623 194.714 178.456 192.382 176.995C190.325 175.708 191.999 174.36 189.772 175.955C189.114 174.347 186.358 174.843 186.114 172.821C188.993 173.01 191.737 174.107 193.951 175.955C195.527 174.258 195.731 176.426 197.081 175.427C195.682 174.566 194.772 173.219 193.423 172.301C195.219 171.842 192.812 171.834 194.47 170.215C188.812 168.688 182.643 165.391 178.806 168.136C178.546 166.654 175.481 167.982 176.196 165.522C166.686 165.684 162.442 162.562 153.752 160.304C152.509 160.471 152.777 162.115 151.135 161.871C150.436 160.138 147.501 160.642 147.477 158.222C147.842 158.628 150.395 159.375 150.615 158.222C148.599 157.633 148.2 156.979 145.916 157.702C145.591 155.379 144.761 156.808 142.778 156.135C141.567 149.407 135.641 150.564 130.252 149.355C126.293 153.455 121.585 146.975 117.204 149.355C118.513 148.088 116.148 148.193 115.107 147.791C114.229 149.375 112.88 146.959 114.067 149.874C113.286 149.89 111.928 147.938 111.449 149.355C112.734 149.687 111.538 151.791 110.928 151.965C109.254 152.415 109.847 150.609 108.847 150.402C108.612 152.692 109.872 152.684 110.408 153.004C108.751 153.642 110.758 154.969 108.32 155.095C106.523 154.587 105.32 151.425 103.1 153.004C101.499 152.667 100.662 148.859 98.9223 150.402C100.637 153.204 104.523 153.84 107.279 155.607C106.173 156.126 104.954 155.453 103.621 156.654C104.206 155.903 104.19 155.388 103.1 155.095C101.816 155.789 104.044 156.663 102.58 157.174C99.9055 156.597 99.2149 155.606 97.3616 156.654C97.2967 155.363 96.3775 155.042 97.3616 154.047C94.7679 154.896 95.6954 152.233 93.6954 152.484C93.4997 153.374 94.4754 153.82 93.6954 154.047C94.0039 152.379 86.6396 152.732 89.0047 149.874C88.3815 150.079 87.7027 150.028 87.1163 149.735C86.53 149.441 86.0837 148.928 85.8748 148.307C89.4112 146.248 91.5739 149.854 94.224 146.22C95.4913 146.382 96.5326 149.435 97.3615 148.307C96.0688 146.553 94.1176 145.408 94.224 143.614C91.6218 144.093 91.0367 143.792 89.5249 145.701C91.7847 145.916 90.46 146.772 92.1421 146.748C89.7034 148.746 87.6799 144.368 85.3468 146.748C84.7861 145.408 86.9396 144.259 85.3468 143.614C85.1841 144.458 84.6065 143.581 84.8267 142.574C83.3391 143.175 83.0542 144.974 81.168 145.18C81.9083 141.04 76.7303 145.875 76.9901 142.05C77.3475 142.915 81.7052 141.941 80.6477 141.535C77.0634 140.861 75.8686 141.04 74.3887 138.4C77.1199 135.445 83.9404 139.679 81.6967 141.535C85.9809 141.259 87.1672 144.227 89.0046 145.18C88.3217 143.89 90.1749 142.648 89.0046 142.574C87.5088 144.207 85.5821 141.859 84.8267 141.015C85.2936 140.479 85.8788 140.059 86.5361 139.788C87.1934 139.517 87.9048 139.402 88.6142 139.452C89.3236 139.503 90.0115 139.717 90.6238 140.079C91.236 140.44 91.7558 140.939 92.1421 141.535C91.508 139.115 94.3378 142.445 94.7441 140.487C93.5486 140.634 92.7847 140.366 92.6632 139.448C98.8131 139.482 104.945 138.782 110.928 137.361C108.896 135.168 111.652 136.07 111.977 133.711C109.994 132.501 108.392 136.025 106.759 133.711C106.85 134.158 106.851 134.619 106.76 135.066C106.669 135.514 106.489 135.938 106.23 136.314C107.425 136.171 108.189 136.435 108.32 137.361C105.466 136.996 104.019 138.83 102.052 137.881C102.06 136.841 103.475 137.215 103.1 135.798C102.076 135.643 102.06 136.5 101.532 136.833V134.235C104.637 134.532 101.45 131.718 103.1 130.581C103.157 131.218 103.255 131.815 104.141 131.62C103.539 130.094 106.645 129.688 105.19 129.014C103.361 130.459 100.905 128.096 100.491 126.399C101.165 126.42 101.829 126.231 102.39 125.858C102.951 125.484 103.381 124.945 103.62 124.316C104.84 126.773 102.556 126.757 103.62 128.494C105.768 128.786 107.953 128.42 109.888 127.446C109.88 127.975 110.311 128.071 110.408 128.494C110.368 129.314 109.083 128.905 109.368 130.057C112.164 129.598 110.213 131.787 109.888 132.663C111.368 132.757 113.465 132.221 113.538 133.711C112.956 134.142 112.469 134.688 112.11 135.317C111.75 135.945 111.525 136.641 111.449 137.361C113.953 137.126 113.993 136.784 115.627 137.88C115.237 135.518 114.993 134.511 117.716 135.274C117.579 132.822 114.603 134.738 114.067 133.711C114.067 133.183 113.636 133.09 113.538 132.663C115.229 133.122 114.261 130.946 115.627 131.1C116.993 133.423 119.229 131.653 120.854 133.711C120.627 134.706 120.667 135.952 119.285 135.798C119.082 134.893 120.066 134.458 119.285 134.235C119.22 135.895 116.961 135.38 116.155 136.314C116.912 137.126 118.83 136.768 120.334 136.833C120.041 133.074 126.333 135.875 128.162 134.235C127.341 134.178 126.358 134.304 126.602 133.187C129.243 134.714 134.243 133.93 134.95 130.58C134.235 129.558 131.796 130.244 131.82 128.494C128.455 129.809 127.626 127.321 124.512 128.494C124.829 126.082 122.537 126.293 121.895 124.84C122.163 124.061 122.764 122.672 122.415 122.234C119.546 124.268 120.326 122.68 117.204 122.234C119.886 122.461 118.578 121.129 119.285 120.147C117.765 118.693 117.936 121.86 115.627 121.186C115.545 120.41 115.814 119.261 115.107 119.099C115.302 121.032 113.814 121.284 112.497 121.714C112.335 120.512 114.009 121.129 114.067 120.147C110.733 119.148 108.197 121.194 106.759 120.147C108.628 119.05 109.994 119.347 109.367 117.54C114.717 117.727 117.724 115.835 120.334 119.627C121.114 115.949 124.284 118.673 125.553 120.147C125.764 119.245 124.78 118.807 125.553 118.588C128.178 119.261 129.194 121.552 131.82 122.234C131.137 122.68 132.722 124.588 134.43 125.364C136.868 123.76 135.689 121.86 136.519 119.099C134.519 119.188 134.82 116.971 133.909 115.977C129.91 116.229 129.504 114.414 127.113 115.977C126.609 114.747 126.943 112.668 125.025 112.847C123.757 113.537 125.976 114.422 124.512 114.93C123.284 114.767 124.195 112.457 122.415 112.847C121.667 114.82 123.853 113.846 123.463 115.454C121.245 114.121 119.497 116.363 118.245 115.454C119.367 115.6 121.984 113.22 119.814 113.371C119.594 115.575 118.074 113.2 116.675 112.323C116.927 116.404 111.05 113.099 111.977 112.323C110.509 112.614 109.097 113.142 107.799 113.886C107.734 112.733 111.189 112.473 109.367 111.28C106.986 113.017 106.734 114.803 103.1 114.414C104.45 111.206 102.198 113.44 101.011 112.323C103.783 112.238 105.027 109.294 107.799 110.76V108.153C106.279 108.3 106.002 108.032 106.759 107.11C102.604 108.263 97.8081 110.606 93.6951 106.067C96.0198 105.482 95.8006 107.447 97.3613 107.63C96.8977 105.953 98.1581 106.002 98.9221 105.547C106.011 106.895 109.465 106.923 116.155 108.673C115.473 109.372 115.465 110.614 116.675 110.76C117.155 109.843 118.505 109.806 119.285 109.192C123.255 111.934 128.049 113.225 132.86 112.847C132.137 114.958 133.999 114.499 133.909 115.977C135.812 114.593 136.226 116.079 138.6 115.977C139.055 117.508 139.055 119.139 138.6 120.671C140.559 120.63 140.185 122.915 142.778 122.234C143.888 120.726 144.445 118.882 144.355 117.013C141.624 116.899 141.355 114.803 141.217 113.371C137.29 111.371 133.609 108.92 130.252 106.067C131.869 105.011 131.333 104.825 133.381 103.98C132.608 103.014 130.683 103.197 130.772 101.373C134.015 100.326 136.006 100.801 138.087 98.2435C138.567 100.042 141.209 102.53 141.217 100.326C142.258 101.025 142.428 102.591 143.827 102.937C146.81 101.268 143.356 98.9577 145.395 97.1957C140.697 96.1522 138.063 93.0469 133.381 91.9872C133.605 91.6434 133.916 91.3652 134.284 91.1811C134.651 90.997 135.06 90.9136 135.47 90.9395C135.316 92.32 136.567 92.287 137.56 92.507C138.741 91.4509 140.183 90.7302 141.738 90.4198C141.12 94.2848 148.46 94.5367 149.566 91.9872C148.085 91.7456 146.668 91.2128 145.395 90.4198C147.387 90.8501 146.013 87.9066 148.005 88.3328C148.834 91.3252 152.549 91.4507 156.353 91.4592V88.8567C152.671 88.0734 149.834 84.898 150.615 82.5919C140.168 81.524 137.844 77.1839 128.691 78.946C128.733 78.6035 128.65 78.2573 128.458 77.9709C128.265 77.6845 127.975 77.4772 127.642 77.387C125.934 79.5876 121.562 77.8787 120.334 79.474C120.212 78.4794 120.919 78.321 120.854 77.387C117.863 78.4186 116.481 77.8501 114.067 79.474C113.766 77.5091 110.432 78.5728 109.888 76.8597C110.766 73.1571 108.961 70.4038 103.1 71.1231C103.848 69.5674 102.678 69.3484 103.62 67.9966C100.824 67.3229 98.0113 65.4834 95.7922 66.9531C96.2964 63.8106 92.5897 68.3782 92.6631 64.3388C93.3619 62.3813 100.775 64.9073 98.4018 62.7831C100.979 62.9414 102.539 64.8457 103.62 62.7831C103.011 61.1275 99.8572 62.0158 99.971 59.6533C101.32 60.6119 103.499 58.9223 104.669 58.0816C101.32 56.2025 95.3046 57.2983 93.6951 54.9559C90.9808 55.8285 88.0609 55.8285 85.3466 54.9559C85.45 55.4458 85.4056 55.9554 85.2189 56.42C85.0321 56.8847 84.7115 57.2835 84.2977 57.566C83.0944 55.6096 79.7781 57.5988 78.559 54.9559C75.9737 56.7544 72.7986 57.4994 69.682 57.0389C68.8271 58.3277 67.5281 59.258 66.0318 59.6532C59.4151 55.3982 53.3916 57.8137 50.367 54.9559C50.3801 54.3904 50.1962 53.8378 49.8467 53.3927H57.6757C57.6757 53.9125 57.2524 54.0101 57.1547 54.4363C60.1387 53.263 65.8446 56.5268 66.0318 51.8253C65.7551 50.0314 61.1791 51.752 59.7643 50.7784C62.5199 50.2663 63.6582 48.6466 66.5444 49.2195C66.7551 47.5055 68.0807 46.9167 68.6414 45.5691C62.7314 45.3054 58.7887 42.7551 53.5054 42.4384V40.876C52.0586 41.6282 50.3827 41.8136 48.8063 41.3957C48.9689 40.1695 51.2776 41.0824 50.8872 39.3044C48.3271 36.8847 45.774 38.2246 43.059 38.7847C42.6525 40.1163 45.0995 41.1844 43.5792 41.9187C43.7175 40.8432 42.3844 41.4724 42.0108 39.8326C40.5884 39.451 40.9619 40.8677 39.9299 40.876C39.6938 39.045 38.8237 38.671 37.3118 39.3042C36.8649 40.9728 37.7672 41.2895 38.3608 41.9185C36.6618 43.3563 35.1743 41.2287 34.1828 40.352C33.9712 41.2532 34.9467 41.6912 34.1828 41.9185C32.9391 40.0673 30.6465 40.4531 28.4356 41.3955C29.2168 42.9851 30.5032 44.2715 32.0937 45.0537C30.5245 46.0358 34.0768 47.4651 32.6138 48.1801C30.2064 45.6318 27.38 43.5141 24.257 41.9188C24.7122 43.5916 22.5419 42.6339 22.6887 44.0059C25.2325 45.297 28.4434 45.9102 28.9637 49.2195C26.0293 48.3746 22.4685 47.9115 22.176 44.0059C20.7206 45.2322 18.266 42.7551 17.4777 45.0537C21.3716 45.6699 21.9974 49.5682 24.2572 51.8255C21.9645 51.1518 22.1197 51.8583 20.6069 52.8732C20.8515 50.4047 19.9568 51.8988 19.0386 52.3537C18.6929 50.8055 18.6929 49.2003 19.0386 47.6522C16.5998 46.8738 14.4284 45.4279 12.7709 43.4787C12.8923 45.7882 11.7954 46.8806 10.1613 46.0888C9.28354 51.1358 14.1284 53.7828 11.7305 58.6055C10.2591 56.9125 9.05577 57.3758 7.0314 58.0817C5.68219 57.4937 4.96727 53.5671 4.42247 53.9125C4.50344 57.3143 8.05576 60.0103 8.07182 61.7404C5.70673 60.1973 3.68214 61.545 2.33315 59.1251C3.49584 58.7234 5.1536 58.8253 5.46304 57.5661C3.10539 58.5331 4.55233 55.6863 3.37358 55.48C3.22696 56.547 1.98312 56.5193 1.28426 57.039C0.56915 55.2559 0.560681 54.582 0 53.5553V142.964C2.18636 142.688 4.60877 142.164 6.51109 144.66C10.4219 142.858 17.9734 142.833 19.5661 146.219C21.1269 145.875 19.0628 145.108 19.5661 144.137C20.5908 144.218 21.6181 144.019 22.5377 143.56C23.4573 143.102 24.2344 142.401 24.7854 141.535C26.8663 141.356 27.6793 142.46 30.0039 142.05C29.7931 143.581 29.8741 146.983 28.4356 145.701C28.9635 146.91 29.4921 148.132 31.0528 148.306C31.0124 149.841 29.858 150.247 28.9635 150.921C26.094 150.474 25.2407 148.023 22.1758 147.791C21.916 146.147 23.7769 146.609 23.2162 144.66C22.3458 145.49 21.7936 146.597 21.6555 147.791C23.5578 149.533 27.3134 149.435 27.9153 152.484C25.9153 152.927 26.175 155.606 25.3057 157.174C24.2162 157.401 23.9237 156.817 23.2162 156.654C21.5821 157.986 24.5898 158.619 24.2567 157.702C24.68 158.862 22.6469 162.655 22.1758 160.824C20.8916 167.332 12.7785 174.566 6.51109 173.341C7.71434 174.608 1.76396 176.694 1.81285 173.868C1.43079 174.624 0.786498 175.216 0 175.533L0 177.685C1.1549 177.341 2.38497 177.339 3.5408 177.68C4.69664 178.021 5.72851 178.69 6.51109 179.605C7.8197 179.707 9.30789 177.059 9.12072 180.121C9.56662 179.776 10.1175 179.594 10.6814 179.605C11.0558 177.677 8.85268 178.302 8.07182 177.514C8.43774 177.096 8.89324 176.089 8.07182 175.955C15.2255 174.753 17.7052 168.883 23.7366 166.568C23.647 166.235 23.4396 165.945 23.1526 165.753C22.8657 165.56 22.5187 165.478 22.1759 165.521C25.5579 162.135 25.541 155.517 28.9636 151.965C30.9063 149.935 34.3043 150.381 33.6627 147.267C34.5405 147.077 34.6458 147.678 34.7032 148.307C36.2394 147.397 34.4022 145.534 34.7032 144.138C36.1744 144.052 35.9223 145.708 37.3119 145.701C38.8568 145.249 36.1013 144.921 36.7918 143.614C39.4175 146.13 38.9621 143.743 40.9706 146.748C40.775 145.367 42.3687 146.199 43.0592 145.701C43.49 146.788 44.0121 147.836 44.62 148.835C45.2541 147.495 43.5718 143.913 45.1401 142.574C45.8315 142.761 45.9699 143.492 46.7178 143.614C46.7988 144.921 45.539 144.881 45.1401 145.701C45.1974 147.032 47.0913 146.93 47.7584 146.22C45.157 145.238 47.6934 145.392 47.7584 143.102C49.1884 142.716 48.8064 144.138 49.8468 144.138C49.685 144.848 48.5382 144.572 47.7584 144.661C47.8722 145.408 49.3106 144.848 49.3191 145.701C50.3267 145.489 49.733 143.679 51.416 144.138C50.6605 145.66 51.0097 144.722 52.4565 144.661C51.4074 145.867 53.1638 147.422 54.0172 148.307C54.9278 148.465 55.8459 146.285 54.0172 146.748C54.432 144.929 57.7237 148.624 55.0661 148.307C55.8875 148.705 55.8459 149.963 57.1547 149.874C57.4395 151.032 56.1554 150.621 56.1142 151.437C57.4559 152.379 58.228 154.194 60.2848 153.004C59.8294 154.673 61.09 154.636 61.8538 155.095C61.501 155.537 61.314 156.089 61.3252 156.654C59.6261 156.792 59.8218 155.035 58.7239 154.567C57.643 157.946 55.7003 151.81 52.9767 153.52C52.3183 151.226 50.1808 150.41 48.8064 148.835C51.0012 155.156 61.1625 156.293 63.9433 160.304C65.3978 161.498 63.2275 163.069 64.4636 164.482C62.7806 164.864 62.6262 162.899 63.122 161.818C62.1708 162.948 60.3176 163.13 61.3252 163.954C60.6996 165.383 58.3015 164.262 59.2366 162.395C58.2198 163.28 59.0815 166.053 57.6758 166.568C58.5942 166.707 60.2848 165.091 60.8134 166.568C60.089 167.147 59.2362 167.543 58.3267 167.724C57.4171 167.905 56.4774 167.865 55.5865 167.608C57.627 169.695 58.7484 169.289 61.3252 171.254C59.4398 172.155 59.374 174.871 58.7239 176.994C56.9929 176.215 54.879 176.385 56.1142 178.558C54.7652 178.505 55.3672 176.519 54.0173 176.475C54.4725 175.712 54.8056 174.818 56.1142 174.907C55.18 172.691 53.3587 169.817 54.5459 167.088C51.2457 169.382 55.8706 173.905 52.9767 176.994C51.1395 175.906 52.018 176.97 51.416 178.038C50.4978 177.563 49.5956 177.076 49.8468 175.427C49.1562 176.053 49.0181 175.638 48.2785 175.427C48.6276 177.688 50.5947 178.334 51.416 180.121C47.7499 183.011 44.7987 181.526 39.93 180.64C41.1654 182.017 43.8475 181.943 45.669 182.731C47.6117 182.889 44.1243 184.026 44.6201 182.731C43.6614 182.808 44.3031 184.497 43.5796 184.814C42.7425 185.772 43.8402 182.983 42.5316 182.211C41.5561 184.213 40.572 182.353 39.4102 181.688C40.1742 182.735 43.0839 185.146 40.4422 186.39C41.1818 187.907 43.1657 188.179 42.5317 191.074C41.5071 191.785 39.5563 191.578 38.3613 192.113C37.0763 190.221 35.1116 188.896 32.8746 188.412C30.6377 187.929 28.3001 188.323 26.3467 189.515C28.314 191.123 31.8013 187.55 34.1834 189.515C32.4919 193.933 28.3468 189.256 24.2574 191.602C24.686 191.974 25.1839 192.257 25.7226 192.435C26.2612 192.614 26.8299 192.684 27.3958 192.641C27.4851 194.818 25.7936 195.207 25.8266 197.334C24.1066 197.001 22.3593 196.828 20.6072 196.819C19.7868 197.367 21.0061 199.884 21.6561 199.417C21.6967 201.687 19.0389 199.357 18.5186 198.902C18.0549 200.042 16.2909 200.412 16.4292 198.374C14.8601 198.723 16.925 199.495 16.4292 200.461H19.5668C19.1442 203.043 21.7379 201.922 21.6561 205.158H17.4776C18.7778 206.112 21.6066 205.548 21.6556 207.769C22.1262 207.343 22.4816 206.806 22.6887 206.206C23.7696 206.352 23.7367 207.59 24.257 208.289C24.9728 208.126 24.6963 206.982 24.7856 206.206C26.4443 206.795 25.2814 210.229 27.3954 210.375C26.7613 211.951 25.3954 210.002 24.7856 209.848C24.8421 211.147 25.7613 211.467 24.7856 212.462C23.0058 211.8 20.8185 211.552 19.0385 210.895C18.8024 213.396 20.4609 213.997 22.176 214.545C22.6068 216.019 21.4366 215.901 21.6557 217.152C19.477 216.709 16.4938 217.09 16.4289 214.545C13.6649 216.063 11.4212 213.087 9.12086 212.462C8.86605 211.219 9.10419 209.926 9.7851 208.855C10.466 207.784 11.5365 207.019 12.7711 206.721C12.1126 206.023 11.1858 205.678 12.7711 205.158C12.7137 204.176 11.0476 204.797 11.2103 203.595C10.5519 204.123 12.5924 205.694 10.6816 206.721C9.38142 205.593 8.86874 203.677 7.55167 202.548C8.06607 201.891 8.3872 201.104 8.47906 200.275C8.57092 199.446 8.4299 198.608 8.07179 197.854H12.7709C11.8847 196.665 8.79525 197.668 7.0314 197.335C6.80363 196.247 7.38972 195.954 7.55152 195.249C4.39105 197.364 1.79817 200.222 0 203.571L0 206.21C0.406473 205.488 1.13834 205.098 1.28426 204.123C1.53338 204.3 1.73651 204.534 1.8767 204.805C2.01688 205.076 2.09002 205.377 2.09002 205.682C2.09002 205.988 2.01688 206.288 1.8767 206.56C1.73651 206.831 1.53338 207.064 1.28426 207.241C1.44693 207.956 2.59287 207.676 3.37358 207.769C3.2428 208.128 3.03546 208.454 2.76595 208.724C2.49644 208.995 2.17121 209.204 1.81285 209.336C1.00848 209.056 1.77999 208.792 2.33315 208.809C1.77243 208.143 0.674511 208.009 0 207.46V234.045C2.98352 234.666 5.76071 236.032 8.07179 238.016C7.43006 241.71 4.77152 243.416 2.86171 245.836C1.89129 245.546 0.936173 245.207 0 244.821L0 246.676C0.260553 246.737 0.487301 246.835 0.763954 246.883C0.553904 247.09 0.288908 247.234 0 247.297L0 250.172C0.260937 250.156 0.518223 250.102 0.763954 250.013C0.756438 250.231 0.677726 250.441 0.53981 250.611C0.401893 250.78 0.212331 250.9 0 250.951L0 282.063C3.69061 278.417 7.11306 274.109 12.7709 276.083C12.4211 277.301 11.0391 277.487 10.6814 278.697C12.7624 278.336 13.2667 276.399 14.8596 275.57C14.5163 275.612 14.1694 275.529 13.8827 275.336C13.5959 275.143 13.3886 274.853 13.2988 274.519C14.3805 274.211 16.7297 275.164 16.9489 274.004C14.5715 273.758 12.2656 273.049 10.1613 271.917C12.6083 271.754 12.2751 268.815 14.3392 268.263C23.4843 268.007 29.2562 264.39 35.7435 261.483C35.9872 256.505 41.0598 256.351 42.5312 252.616C39.9299 252.973 38.2065 254.199 35.7435 254.706C34.4106 262.985 21.9971 262.506 16.4287 263.569C18.9894 261.438 19.3469 257.098 23.2162 256.269C24.8664 256.363 23.8833 259.079 25.826 258.876C25.0451 255.429 28.4028 257.268 30.004 257.313C28.2806 254.394 23.9153 257.252 22.6885 254.183C28.4517 249.505 40.2226 250.829 46.1891 246.355C50.2126 247.33 54.7567 243.578 57.1547 246.355C57.995 245.608 59.0045 245.075 60.0964 244.804C61.1883 244.532 62.33 244.53 63.4231 244.796C66.1703 250.476 63.1542 248.336 66.032 243.749C75.7058 242.896 90.5334 242.912 99.4509 239.58C93.8579 240.647 86.8671 240.533 82.7372 241.661C82.8999 241.069 83.7617 238.223 82.7372 239.58C83.0221 241.71 80.4859 241.345 80.1276 240.103C80.1765 242.43 74.6973 241.955 73.3398 241.146C79.2009 236.124 91.874 238.028 93.6953 232.795C89.5493 233.915 87.5088 234.557 83.7861 235.41C83.8586 234.792 84.7129 234.224 83.7861 233.842C80.8327 234.45 77.771 234.271 74.909 233.322C76.0389 232.543 78.1527 232.742 78.5593 231.232C75.2261 230.566 70.8204 235.207 69.1619 231.232C71.3922 230.482 73.7349 230.121 76.0878 230.164C75.5186 229.823 75.6485 228.784 74.909 228.629C71.6822 229.494 64.3414 232.86 67.5927 228.629C66.8203 228.536 65.6745 228.808 65.5118 228.11C66.9023 227.765 68.7716 227.891 69.6823 227.062C67.5683 225.877 66.6097 227.874 63.9433 227.586C63.7401 222.637 65.2276 223.047 63.9433 220.282C66.0893 219.827 72.064 218.796 73.3398 220.81C72.7387 221.464 70.9502 223.575 72.2993 224.456C72.4216 222.32 73.763 221.399 74.3886 219.762C75.1687 219.851 76.307 219.579 76.4696 220.282C76.7302 221.918 74.6652 221.662 75.9493 222.893C79.7782 223.494 75.6164 219.341 79.0792 219.762C77.4536 218.634 78.209 215.569 77.5185 215.589C77.2335 217.043 77.5675 219.113 75.4291 218.723C76.5918 217.367 77.2014 210.968 78.5591 214.546C78.4941 211.35 78.9899 208.724 81.1678 207.77C81.6778 209.775 82.7662 211.586 84.2977 212.978C84.7201 210.835 83.501 210.307 83.7859 208.289C89.5575 208.289 99.987 212.377 106.23 208.809C105.962 210.141 105.344 210.835 107.279 210.895V208.289C105.173 207.924 104.296 208.792 102.58 208.809C103.718 207.716 102.32 207.323 102.58 205.678C99.412 204.104 96.8458 201.539 95.2719 198.374C99.2392 199.162 98.906 201.606 101.532 203.076C103.028 201.314 100.271 200.47 99.4508 199.418C101.239 198.463 102.1 199.795 103.1 200.989C103.309 200.386 103.667 199.846 104.141 199.418C105.149 202.219 104.319 199.966 105.71 199.418C105.06 201.111 107.4 199.824 106.759 201.509C105.734 201.257 103.426 202.248 104.669 202.548C105.734 201.712 108.092 202.142 108.847 200.989C108.539 200.518 106.027 199.73 107.279 199.418C109.929 199.73 110.059 202.548 112.498 203.076C113.058 201.338 114.083 203.035 115.627 202.032C115.521 201.699 115.416 201.358 115.302 201.014C114.75 200.794 114.067 200.794 115.107 200.461C115.172 200.648 115.237 200.834 115.302 201.014C115.692 201.184 116.018 201.455 115.627 202.032C115.899 203.764 116.556 205.413 117.551 206.857C118.545 208.301 119.852 209.503 121.375 210.375C122.399 207.854 120.618 206.567 121.375 205.158C121.96 206.709 122.847 208.129 123.984 209.336C123.139 206.38 124.537 209.75 126.073 207.769C127.536 207.899 127.975 211.731 128.691 210.895C128.414 209.251 127.146 208.61 127.113 206.721C131.226 208.008 132.893 211.724 135.999 214.021C134.698 214.111 134.381 213.205 133.381 212.978C133.69 215.345 136.291 214.265 137.047 215.069C136.047 215.337 132.787 215.986 133.909 216.628C139.21 213.323 139.73 219.47 142.778 221.33C142.412 219.795 141.03 219.795 142.778 218.723C142.183 218.434 141.676 217.991 141.31 217.439C140.944 216.888 140.732 216.249 140.697 215.589C141.876 214.318 142.99 215.41 143.827 214.545C142.144 215.004 143.111 212.832 141.738 212.978C141.64 214.265 140.03 215.312 139.648 213.506C139.726 213.316 139.821 213.134 139.933 212.962C139.101 212.833 138.252 213.027 137.56 213.506C136.241 213.048 135.089 212.207 134.252 211.091C133.415 209.974 132.93 208.634 132.861 207.241C134.892 208.516 137.608 209.108 137.047 212.978C137.908 212.45 137.608 210.765 138.087 209.848C137.306 208.892 136.429 208.018 135.47 207.241C135.999 206.255 137.584 208.573 138.6 208.809V212.462C139.217 212.377 139.047 211.508 139.128 210.895C139.436 211.081 139.691 211.343 139.867 211.656C140.044 211.969 140.137 212.322 140.136 212.681C141.599 211.001 144.453 212.008 143.307 209.336C145.143 210.453 146.225 212.328 148.525 212.978C148.574 212.158 148.452 211.175 149.566 211.423V213.506C153.777 213.461 154.638 209.884 160.012 209.848C161.485 211.025 163.057 212.072 164.71 212.978C164.824 210.785 162.369 211.139 161.58 209.848C164.282 210.735 167.089 211.264 169.929 211.423C169.287 214.354 177.839 216.027 175.156 220.282C176.066 220.761 176.977 221.256 176.717 222.893C175.245 222.458 175.904 219.876 173.595 220.282C174.709 222.356 176.035 222.71 177.237 225.495C179.717 225.527 183.22 227.541 185.602 224.976C187.117 225.935 188.686 226.807 190.301 227.586C192.023 225.889 192.731 226.315 194.999 225.495C194.365 223.522 191.008 224.269 191.333 221.33C192.121 220.716 192.61 219.815 193.951 219.762C195.268 221.544 198.04 225.162 200.211 222.893C200.583 224.602 202.641 224.65 202.828 226.542C208.062 225.585 213.282 233.875 219.012 230.712C218.231 230.103 216.874 230.066 216.403 229.149C216.89 228.589 218.329 228.982 217.963 227.586C213.071 225.568 203.153 223.132 204.917 216.628C210.039 216.238 210.648 220.672 212.754 220.81C212.282 220.647 210.46 219.397 211.705 219.238C214.062 221.37 215.103 221.516 215.354 224.976C219.291 224.809 223.214 225.522 226.84 227.062C226.84 223.375 224.987 223.303 224.231 221.329C224.511 221.348 224.792 221.306 225.054 221.207C225.317 221.109 225.555 220.955 225.754 220.758C225.952 220.56 226.106 220.322 226.205 220.06C226.305 219.798 226.347 219.518 226.329 219.238C224.125 218.178 221.987 216.173 219.533 218.195C216.069 216.571 212.751 214.653 209.615 212.462C208.754 212.471 209.322 213.907 208.567 214.021C207.909 212.158 206.868 212.649 204.917 212.978C204.039 211.951 204.966 212.316 204.917 210.895C198.121 211.48 196.974 203.579 192.382 201.509C197.099 201.596 201.807 201.943 206.485 202.548C204.128 202.499 206.641 204.192 208.039 203.595C206.364 205.666 211.184 205.65 209.615 207.769C212.379 209.125 214.403 208.118 214.314 212.462H216.923C218.078 211.715 216.265 211.187 217.444 210.895C219.597 213.412 221.312 209.677 224.759 210.375C223.165 208.792 224.874 207.517 224.759 206.206C229.361 205.073 228.693 209.214 231.539 209.848C233.426 209.994 232.953 207.789 234.677 207.769C234.783 205.569 232.336 205.934 231.538 204.635ZM118.756 123.796C118.35 125.181 116.31 122.631 116.155 124.84C115.708 124.938 115.66 124.637 115.627 124.316C115.724 123.874 115.424 123.825 115.107 123.796C115.724 122.396 117.83 123.796 118.756 123.796ZM106.23 119.099C104.303 118.06 106.352 117.946 107.799 117.54C107.132 118.62 106.969 120.183 105.19 120.147C105.003 119.262 105.587 119.164 106.23 119.099ZM134.43 89.8959C133.761 90.3815 133 90.7247 132.193 90.9042C131.386 91.0837 130.551 91.0957 129.739 90.9394C129.504 90.4763 129.268 90.0054 128.691 89.8959C130.602 90.0074 132.518 90.0074 134.43 89.8959ZM127.113 97.7196C126.891 98.0647 126.58 98.3436 126.212 98.5272C125.845 98.7107 125.435 98.7922 125.025 98.763C125.642 97.119 124.708 96.4772 125.553 94.5932C126.236 94.7758 126.374 95.5112 127.113 95.6366C127.032 96.2498 126.162 96.0797 125.553 96.1604C125.685 96.5173 125.893 96.8414 126.162 97.1106C126.432 97.3797 126.756 97.5874 127.113 97.7196ZM125.025 89.376C125.09 87.529 126.756 90.4846 126.602 88.8565C128.097 90.1029 124.959 93.1158 123.984 91.9871C124.423 91.492 126.747 90.2973 125.025 89.376ZM117.716 94.5931C116.835 93.6807 115.768 92.9691 114.587 92.5068C115.717 90.9959 119.367 93.237 117.716 94.5931ZM98.9219 103.98C99.0197 103.558 99.4505 103.46 99.4505 102.936C99.1335 103.663 97.4344 103.014 97.3612 103.98C96.5888 103.752 97.5643 103.313 97.3612 102.412C99.507 102.822 100.036 101.613 102.052 101.893C101.995 103.196 101.059 103.525 102.58 103.98C101.963 105.381 99.857 103.98 98.9219 103.98ZM103.1 99.8063C103.832 99.9923 103.149 100.732 102.58 100.853C103.995 101.892 107.937 101.008 107.799 98.7627C109.449 98.5068 109.644 99.7087 111.448 99.2783C109.644 102.867 108.237 103.955 103.1 104.499C103.905 100.764 100.003 101.917 99.9708 100.326C101.304 100.732 102.377 101.097 103.1 99.8063ZM94.2237 99.2783C93.7683 98.19 96.8815 100.041 95.2718 98.7627C96.524 97.7766 96.808 98.884 98.9219 98.7627C98.2963 101.551 96.6216 100.204 94.2237 101.373C93.7273 100.4 95.7921 99.6278 94.2237 99.2783ZM14.3392 123.796C15.9903 124.743 17.2416 123.346 18.5181 124.316C17.5745 126.878 21.1683 128.169 17.9895 128.495C19.6724 126.139 16.0872 128.405 16.949 124.84C16.4783 125.308 15.8969 125.649 15.2587 125.832C14.6206 126.015 13.9465 126.034 13.299 125.888C12.6486 124.199 14.9903 125.482 14.3392 123.796ZM17.9895 133.711C17.9 134.304 17.4692 133.999 17.4776 133.711C16.217 133.496 16.3393 134.657 14.8596 134.235C15.3881 133.545 15.3798 132.311 15.9084 131.62C16.8266 132.095 16.7701 133.537 17.9895 133.711ZM12.7709 131.62C14.8763 131.113 14.8763 134.738 12.7709 134.235V131.62ZM4.9504 120.147C5.72283 121.604 7.26749 119.043 7.03133 121.186C7.641 121.276 7.95796 121.077 8.07179 120.671C10.023 122.25 4.36512 121.949 4.9504 120.147ZM11.2102 139.448C11.3401 137.288 10.5922 137.349 9.12075 137.881C9.14525 135.059 10.7709 136.524 12.2583 135.798C12.5145 136.175 12.6919 136.6 12.78 137.047C12.8681 137.494 12.865 137.954 12.7709 138.4C13.7382 138.328 13.0956 136.635 13.819 136.314C14.4221 136.75 15.1709 136.937 15.9085 136.833C15.2828 138.644 13.2424 139.038 11.2102 139.448ZM15.9085 139.448C15.7541 138.072 17.933 139.038 17.4777 137.361C18.729 137.142 18.6075 138.311 20.0864 137.881C19.5342 139.245 17.9574 139.586 15.9085 139.448ZM25.8261 54.4364C24.8993 54.0549 25.7527 53.4822 25.8261 52.8731C24.9727 53.7542 23.6389 54.1685 23.7366 55.9995C22.6886 55.3089 22.5748 53.6766 22.1759 52.3535C22.6801 52.3611 22.5748 52.9868 22.6886 53.3929C23.5911 52.9364 24.3254 52.2056 24.7855 51.3057C25.2408 52.4065 27.0124 52.207 26.875 53.9126C26.2646 53.8232 25.9475 54.0262 25.8261 54.4364ZM32.0937 147.791C30.037 147.47 30.3457 144.207 31.0532 142.574C32.2564 144.145 31.0288 144.901 33.1341 143.614C33.6284 144.604 33.9815 145.659 34.183 146.748C33.8658 147.466 32.1743 146.821 32.0937 147.791ZM7.55152 197.854C6.87701 201.728 6.31629 203.129 8.59198 205.678C1.45537 206.588 1.2522 197.562 7.55152 197.854ZM70.2107 242.189C69.6415 242.067 69.8523 241.154 69.1618 241.146C69.2352 239.656 71.3406 240.192 72.8194 240.103C73.4376 242.283 70.6172 241.032 70.2107 242.189ZM67.5926 237.497C67.2925 236.4 65.6254 238.244 64.4635 238.016C66.0968 235.832 70.7141 236.603 72.2993 234.362C75.4535 235.207 80.038 234.631 83.2659 235.41C78.5018 239.498 69.0884 235.718 67.0723 239.58C66.9181 236.859 65.4063 241.386 63.9433 240.103C63.6827 237.756 66.6499 238.641 67.5926 237.497ZM76.99 149.355C77.1847 150.247 76.5834 150.337 75.9495 150.402C75.8518 150.845 76.1528 150.889 76.4698 150.921C75.9825 151.871 73.6409 150.316 74.3889 148.307C75.9899 147.925 75.3887 149.745 76.99 149.355ZM90.5737 129.014C92.6708 127.252 90.712 127.727 88.4842 127.975C87.4353 126.903 88.712 126.952 89.0045 125.888C88.5314 126.354 87.9482 126.694 87.3089 126.875C86.6696 127.057 85.9947 127.075 85.3467 126.927C88.4523 123.2 92.5898 122.193 94.224 127.975C92.3132 127.625 92.2239 129.104 90.5737 129.014ZM82.2168 123.796C81.42 123.935 87.1022 122.177 87.9641 124.316C85.6479 123.78 83.8105 124.523 82.2168 123.796ZM98.402 136.834C97.5647 134.783 100.653 136.655 100.492 135.275C102.028 136.025 99.8649 137.369 98.402 136.834ZM101.532 131.62C103.832 132.391 101.149 134.324 99.451 134.235C99.5402 132.757 101.93 133.582 101.532 131.62ZM102.052 123.281C101.646 123.935 101.115 124.502 100.488 124.949C99.8617 125.396 99.1526 125.715 98.402 125.888C98.2553 125.043 98.8978 124.991 98.9223 124.316H95.7925C95.8741 125.286 97.5564 124.637 97.8818 125.364C98.0116 125.672 94.4348 125.839 95.7925 126.927C93.939 127.848 94.5488 125.092 93.1827 123.796C95.6786 124.815 98.1415 121.893 102.052 123.281ZM94.7443 122.754C94.4593 121.604 95.7519 122.014 95.7925 121.186C97.2722 120.756 97.1423 121.921 98.402 121.714C98.2798 122.461 96.8489 121.893 96.8329 122.754C95.6051 121.15 96.5244 122.546 94.7443 122.754ZM102.052 110.24C101.653 111.905 96.3616 110.468 97.3616 109.713C95.671 109.071 96.9551 111.402 95.2722 110.76V108.673C93.9635 108.584 93.638 109.477 93.1827 110.24C92.9228 105.799 100.133 110.768 102.052 110.24ZM93.1827 98.2435C93.2806 98.6695 93.6954 98.763 93.6954 99.2786C93.4272 100.091 93.1592 99.319 93.1827 98.763C91.606 98.7749 90.175 100.976 90.0451 98.2435C91.6951 98.8237 91.2324 98.288 93.1827 98.2435ZM87.4352 118.588C87.8822 118.237 88.4362 118.051 89.0044 118.06C90.2811 118.754 88.4276 120 89.5247 120.147C88.9067 121.064 87.2893 118.592 86.3872 118.06C86.7287 117.175 87.5906 117.739 87.4352 118.588ZM80.1274 121.714C80.1847 121.43 80.0868 121.308 79.9241 121.251C81.1923 121.284 81.5093 118.628 84.2977 119.099V121.715C86.0128 121.512 85.0541 119.253 84.2977 118.588C83.8584 117.853 88.6713 120.326 89.0044 122.234C85.785 123.314 83.0868 121.373 79.6071 122.234C79.5103 121.787 79.8103 121.739 80.1274 121.714ZM85.3467 132.148C84.8915 133.593 83.2574 133.877 81.6967 134.235C82.4446 133.31 82.1764 133.042 80.6476 133.188C80.8348 132.501 81.5668 132.367 81.6967 131.62C80.1029 131.247 80.1603 132.521 78.5591 132.148C78.9411 126.805 83.4765 130.419 85.3467 132.148ZM78.0388 129.014C77.6889 129.46 77.5049 130.014 77.5185 130.581C77.071 130.67 77.0304 130.378 76.99 130.057C76.4857 130.069 76.5921 130.694 76.4696 131.1C75.86 131.011 76.0303 130.15 75.9493 129.534C75.5026 129.444 75.462 129.737 75.4292 130.057C74.0716 128.36 76.2336 128.819 78.0388 129.014ZM74.3886 137.881C74.2909 139.481 71.5757 138.973 71.7714 137.361C73.2429 136.923 73.1289 138.092 74.3886 137.881ZM72.8194 143.102C72.2098 143.005 71.8928 143.212 71.7714 143.614C70.9831 143.167 71.9175 142.834 71.2511 141.535C71.7141 141.299 72.1855 141.08 72.2993 140.487C73.4292 140.406 72.5269 142.343 72.8194 143.102ZM69.6821 138.4C70.1779 139.298 71.6163 139.258 71.2511 141.015C70.4704 142.452 69.1129 140.106 68.6415 141.535C67.1212 140.641 69.1045 138.92 69.6821 138.4ZM64.9913 196.291C64.8859 196.71 64.4635 196.812 64.4635 197.335C65.9754 197.246 66.8447 195.207 67.0723 197.854C65.0977 197.1 66.0723 199.284 64.4635 198.902C64.3978 198.585 64.52 198.472 64.7233 198.423C64.0891 198.236 62.9997 196.507 64.9913 196.291ZM66.0317 195.249C65.1379 193.978 66.2754 190.295 67.0722 188.988C69.251 189.109 69.5437 188.143 71.251 188.988C71.0538 190.074 70.7035 191.126 70.2105 192.114C67.2925 190.839 66.7147 192.991 66.0317 195.249ZM66.5444 180.121C67.7467 179.967 67.1295 181.635 68.1211 181.688C68.0637 182.67 66.3892 182.053 66.5444 183.255C65.0807 182.728 66.6986 181.042 66.5444 180.121ZM66.0317 171.782C66.772 171.733 67.503 171.7 67.5925 172.301C68.1052 172.285 67.9988 171.66 68.1211 171.254C71.1288 171.981 65.7071 175.172 66.0317 171.782ZM70.2105 186.39C70.3725 187.769 66.5848 187.363 66.5444 185.862C68.2435 185.561 68.9829 186.215 70.2105 186.39ZM69.6819 170.214C68.7552 171.927 67.5679 169.605 67.0722 169.171C67.9181 167.543 68.7223 170.247 69.6819 170.214ZM64.4634 148.307C64.0156 148.217 63.9669 148.514 63.9431 148.835C62.7314 147.138 66.6498 148.639 67.5925 149.354C67.5031 150.994 64.2356 150.061 64.4634 148.307ZM66.5443 137.881C66.6497 138.774 63.5846 139.931 66.0316 139.968C65.9506 140.577 65.0805 140.406 64.4633 140.487C64.5113 139.066 63.5931 139.44 64.4633 138.4C64.2355 137.938 64.0079 137.474 63.4228 137.361C63.8944 136.094 64.9591 138.538 66.5443 137.881ZM61.3251 154.047C60.1058 151.79 57.1548 151.262 56.6345 148.307C57.6673 149.18 57.3014 148.258 58.7238 148.307V150.921C59.757 150.909 59.3824 149.5 60.8133 149.874C61.6591 151.465 62.4229 153.138 64.4635 153.52C63.5369 155.858 62.2518 152.618 61.3251 154.047ZM64.4635 151.965H66.0318V154.047C64.6499 154.21 64.6826 152.959 64.4635 151.965ZM68.1212 187.945C67.0158 188.533 66.601 188.152 64.9912 188.988C64.1219 188.119 63.853 186.645 62.9028 185.862C64.5361 185.505 65.4222 188.59 68.1212 187.945ZM62.9028 173.341C63.3455 173.693 63.8976 173.88 64.4635 173.868C64.4551 174.372 63.821 174.266 63.4231 174.388C65.4552 176.02 61.5935 177.583 63.9434 178.038C64.3169 179.455 61.4797 177.668 61.8539 179.086C60.9272 177.957 62.9028 175.281 62.9028 173.341ZM59.2365 181.168C60.9028 182.362 58.5612 183.929 58.7238 185.342C57.0173 184.107 59.2037 182.387 59.2365 181.168ZM56.1142 213.506C57.0899 214.615 56.8217 216.969 58.1951 217.676C56.6268 218.877 52.8139 217.858 50.367 218.195C51.2044 215.556 55.0981 215.962 56.1142 213.506ZM60.2847 214.545C61.8538 215.073 61.2198 213.384 61.3252 212.462C63.2848 212.942 62.0166 216.644 62.3741 218.723C61.6996 218 60.1059 218.203 58.7239 218.195C58.4963 216.328 57.3344 215.418 57.6758 212.978C58.643 213.059 58.0005 214.748 58.7239 215.069C59.4153 214.895 57.9601 212.203 59.7643 211.935C60.8943 211.849 60.0006 213.786 60.2847 214.545ZM56.6345 199.418C56.3909 197.794 57.7568 197.749 59.2365 197.854C58.7644 198.764 58.2686 199.67 56.6345 199.418ZM49.8468 196.291C48.4244 195.837 48.7093 193.015 48.2784 194.209C47.7499 193.868 47.7414 193.007 46.7177 193.161C48.969 189.58 48.8637 195.086 50.3671 191.602C52.018 192.943 49.0669 194.087 49.8468 196.291ZM51.9277 185.862C50.1318 184.72 48.7817 184.928 47.7582 186.905C46.9528 186.324 46.6687 185.208 45.14 185.342C46.0431 183.698 51.9935 182.581 51.9277 185.862ZM44.6198 188.472C45.3271 188.306 45.0591 187.16 45.14 186.39C47.8796 185.915 47.1156 188.939 49.8467 188.472C49.603 191.456 47.3762 189.223 46.7176 191.602C45.9265 190.977 45.2822 190.187 44.8299 189.286C44.3776 188.385 44.1283 187.397 44.0995 186.39C44.7016 184.693 44.6931 187.786 44.6198 188.472ZM44.0996 200.461C43.8154 201.395 43.8315 202.629 43.0592 203.076C40.9057 203.238 42.0835 199.422 44.0996 200.461ZM42.5313 194.209V196.291C40.8972 196.539 41.1569 194.891 39.93 194.729C40.4014 194.143 40.8972 194.562 42.5313 194.209ZM36.2715 194.729C36.9056 196.527 39.0439 196.828 38.361 199.946C37.4183 199.877 37.2554 200.579 36.2715 200.461C35.8008 199.579 35.5545 198.595 35.5545 197.595C35.5545 196.595 35.8008 195.611 36.2715 194.729ZM36.2715 212.463C35.3288 213.185 32.833 211.05 31.5732 210.375C32.2807 208.816 35.1744 209.458 37.3119 209.336C37.7673 210.879 35.0851 211.902 36.2715 212.463ZM35.2234 206.722C35.5479 209.799 28.0125 209.799 28.9636 206.206H31.0529C30.9307 206.949 29.4922 206.381 29.4837 207.241C31.0041 208.727 34.0117 207.274 35.2234 206.722ZM34.183 201.509C36.0279 200.071 35.7682 204.139 34.7032 205.158C32.5405 203.323 33.8818 205.812 31.053 205.678C31.2525 203.781 31.9726 201.976 33.134 200.461C34.1012 200.542 33.4595 202.232 34.1829 202.548C34.3066 202.529 34.4193 202.465 34.5006 202.37C34.5819 202.275 34.6266 202.154 34.6266 202.029C34.6266 201.903 34.5819 201.782 34.5006 201.687C34.4193 201.592 34.3067 201.529 34.183 201.509ZM30.004 192.114C31.768 192.276 31.5244 194.437 33.134 194.729C32.5159 195.679 30.4188 195.135 29.4837 195.772C29.3539 192.943 31.8414 194.274 30.004 192.114ZM33.6627 195.771C30.8903 198.594 31.9307 204.984 27.3953 204.634C28.7018 202.042 29.4151 199.193 29.4837 196.291C30.8216 195.813 32.2484 195.636 33.6627 195.771ZM25.8261 203.595C25.5091 202.694 23.3546 203.637 23.2163 202.548C25.2571 200.733 24.0133 200.903 23.7366 197.854H25.8261C24.5418 198.549 26.7688 199.43 25.3058 199.946C25.4685 201.046 27.1186 199.397 26.875 198.374C29.4188 199.616 26.4196 202.256 25.8261 203.595ZM26.875 211.423C27.9155 212.978 31.9146 211.594 32.0935 214.021C30.069 213.745 29.9476 215.353 28.4357 215.589C29.4105 216.522 31.2966 213.952 33.134 214.021C34.7596 214.639 32.8573 215.532 34.7031 215.589C35.0606 217.899 31.5572 218.219 33.6627 219.238C32.6381 220.997 30.004 216.628 26.3462 217.676C27.3134 216.722 28.8902 215.881 26.3462 216.628C26.5166 215.41 27.1751 214.671 26.875 212.978C26.4113 213.209 25.9399 213.437 25.8261 214.021C24.6313 213.615 26.7282 212.203 26.875 211.423ZM20.0864 211.935C21.5578 212.025 22.2577 212.893 23.7366 212.978C23.5824 214.663 20.1354 213.498 20.0864 211.935ZM25.3058 217.152C25.1431 217.862 23.9972 217.586 23.2163 217.676C23.8834 216.604 24.0537 215.032 25.8261 215.069C26.0698 216.182 25.0782 216.059 24.2569 216.108C24.0697 216.994 24.6717 217.091 25.3058 217.152ZM25.8261 243.749C25.7206 241.56 28.8581 242.608 28.9636 240.626C29.6709 240.78 29.3944 241.93 29.4837 242.709C27.1508 241.938 27.8741 244.236 25.8261 243.749ZM34.1829 243.229C33.5893 243.131 33.8903 242.701 34.1829 242.709C33.9957 241.978 33.2638 242.664 33.134 243.229C31.9222 241.345 32.7435 243.546 30.5243 243.229V240.102C31.9389 239.967 33.3659 240.146 34.7031 240.626C34.7956 241.073 34.7971 241.533 34.7078 241.98C34.6184 242.428 34.4399 242.852 34.1829 243.229ZM42.5313 243.229C39.1653 239.729 47.3434 239.571 48.8063 237.496C49.5712 237.951 50.4565 238.275 50.3671 239.579C47.4572 241.638 42.775 239.035 42.5313 243.229ZM53.5054 239.056C53.5704 236.757 52.2212 239.104 50.8873 238.536C50.969 237.927 50.7734 237.61 50.3671 237.497C51.1917 236.906 52.1591 236.547 53.1694 236.454C54.1796 236.362 55.1962 236.541 56.1142 236.973C56.1876 238.617 54.7736 238.763 53.5054 239.056ZM56.1142 226.023C54.96 225.511 54.196 226.762 52.4565 227.586C53.6501 227.727 54.7568 228.28 55.5865 229.149C54.8629 230.61 53.1799 229.522 52.4565 231.756C52.3671 233.063 53.2533 233.387 54.0173 233.842C51.8307 236.895 49.1967 232.778 48.2783 231.232C47.9209 229.831 49.3593 230.229 49.8466 229.669C49.7252 228 46.8963 231.325 47.2379 228.629C45.807 229.1 48.156 230.456 46.7176 231.232C45.726 231.179 46.3517 229.51 45.1399 229.669C45.0261 231.752 47.156 233.562 47.2379 236.449C45.5388 236.668 45.7338 238.771 43.5792 238.536C44.01 237.058 42.8398 237.187 43.0591 235.929C42.1407 237.033 43.0185 237.439 43.0591 239.056C40.6204 239.486 37.9704 241.02 39.4097 243.749H36.7918C36.9629 242.701 36.6778 242.12 35.7436 242.189C35.7351 240.959 36.6459 240.655 36.2715 239.056C37.0843 238.308 38.7108 238.361 39.4098 237.496C38.6535 235.945 36.2885 239.879 35.2234 238.016C33.8819 238.142 35.9468 238.909 35.2234 240.102C33.4914 238.487 34.6054 239.035 32.0935 239.58C31.8497 238.576 33.7031 237.334 31.5732 237.496C32.4106 231.317 37.1738 229.994 39.93 227.586C42.4679 224.569 45.261 221.776 48.2784 219.238C52.9624 219.691 57.6692 219.866 62.374 219.762C60.2602 221.443 63.3816 223.42 62.374 227.062C60.7398 226.786 60.4962 225.117 60.2846 223.412C59.163 224.561 60.1952 228 61.8536 228.11C61.6301 228.454 61.3184 228.731 60.951 228.914C60.5835 229.097 60.1738 229.178 59.7643 229.149V227.062C58.6344 226.973 59.5291 228.913 59.2364 229.669C57.9355 229.263 53.7575 228.946 56.1142 226.023ZM58.7238 230.712C60.3175 231.094 60.6261 230.184 61.8537 230.197C62.2847 232.884 59.6261 232.494 58.7238 233.842C57.1312 233.201 59.2847 232.052 58.7238 230.712ZM57.1548 241.146C59.6261 238.714 60.6997 240.956 62.9028 239.056C63.1059 241.873 59.5451 240.927 57.1548 241.146ZM62.9028 236.449C60.9516 236.66 59.8378 236.039 59.7644 234.362C60.8294 235.665 62.1707 236.668 62.374 233.842C63.5039 233.761 62.6092 235.693 62.9028 236.449ZM61.8538 195.771C62.439 196.401 63.3413 196.718 62.9028 198.374C62.1892 197.853 61.6894 197.091 61.4965 196.229C61.3035 195.367 61.4305 194.465 61.8538 193.689C59.8652 195.069 57.7694 196.288 55.5865 197.335C54.8384 195.39 56.1142 192.568 54.546 190.555C55.0503 190.539 54.9525 189.921 55.0663 189.515C55.9845 189.207 58.1304 190.141 58.1954 188.988C57.9685 188.217 57.5293 189.195 56.6347 188.988C59.4154 187.599 59.3665 183.373 62.3742 182.212C59.1878 187.352 65.4064 188.289 64.9914 193.69C64.5447 195.345 64.3008 192.76 64.4637 192.114C62.9922 192.642 64.6097 194.33 64.4637 195.249C63.1219 193.86 63.9187 196.45 61.8538 195.771ZM75.4292 216.628C74.3888 215.848 71.4544 216.336 72.8194 218.195C69.2428 218.268 66.8041 216.356 66.0319 218.195C65.8858 219.434 64.6336 217.594 63.9433 217.676C64.6094 213.071 63.3573 215.714 63.423 211.423C64.9675 211.091 66.5414 210.914 68.1212 210.895C68.7225 212.259 66.5116 213.136 68.6415 212.978C68.8852 214.614 67.3244 214.452 66.5446 215.069C67.7394 215.881 69.8448 213.165 71.2511 212.462C70.7386 211.001 69.8523 213.214 69.1618 211.935C68.6087 210.587 72.6738 210.433 69.6821 209.848C72.462 207.647 75.5919 208.93 78.5591 207.241C79.0304 211.886 76.1687 213.201 75.4292 216.628ZM85.8746 206.206C86.184 205.901 88.3462 204.984 88.4842 206.206C89.2812 207.801 85.0787 207.801 85.8746 206.206ZM102.052 208.808C94.7922 209.819 94.4752 207.168 89.0045 207.769V205.678C91.9942 205.678 94.9736 205.328 97.8816 204.634C97.5486 204.107 96.6785 204.094 96.8327 203.075C96.3604 203.541 95.7788 203.88 95.1412 204.063C94.5035 204.247 93.8301 204.267 93.1825 204.123C93.4346 201.971 91.3865 204.622 92.6632 202.548C91.045 202.154 92.0207 204.35 90.045 203.595C91.0291 202.597 89.7439 202.645 90.045 200.989C91.3248 201.055 92.5729 201.41 93.6952 202.028C93.8166 200.352 91.8419 200.762 91.094 199.945C91.1505 198.959 92.8174 199.576 92.6632 198.374C96.6807 200.939 99.9258 204.545 102.052 208.808ZM154.793 208.289C151.387 207.663 154.923 206.226 152.703 205.158C153.045 203.595 153.817 205.653 154.793 205.158C154.208 206.795 154.744 206.34 154.793 208.289ZM155.313 209.848V206.721C155.647 206.813 155.936 207.022 156.127 207.31C156.318 207.599 156.399 207.946 156.353 208.289C156.487 208.145 156.648 208.03 156.828 207.951C157.008 207.873 157.202 207.832 157.398 207.832C157.594 207.832 157.788 207.873 157.968 207.951C158.148 208.03 158.31 208.145 158.443 208.289C158.231 208.908 157.784 209.419 157.198 209.711C156.613 210.002 155.935 210.052 155.313 209.848ZM185.602 172.302C184.39 172.683 181.472 173.576 180.903 171.782C183.05 171.367 183.57 172.581 185.602 172.302ZM173.067 212.462C174.278 212.016 175.311 214.282 175.676 212.978C177.399 215.053 173.189 214.233 173.067 212.462ZM180.903 222.369C180.433 221.899 180.128 221.291 180.033 220.634C179.937 219.976 180.058 219.306 180.375 218.723C181.147 220.728 183.057 221.598 184.553 222.893C183.651 222.698 181.318 221.314 180.903 222.369ZM200.73 213.506C200.404 214.561 198.3 213.843 198.129 215.069C197.095 213.493 193.836 214.135 193.95 211.423C194.795 212.338 195.868 213.013 197.058 213.379C198.249 213.745 199.516 213.789 200.73 213.506ZM196.04 214.545C195.754 214.956 195.353 215.274 194.888 215.46C194.423 215.645 193.913 215.69 193.423 215.589C192.995 214.984 192.811 214.24 192.91 213.506C191.397 213.566 191.999 215.727 190.301 215.589C191.561 216.295 190.618 216.628 191.333 217.152C190.163 217.618 188.081 214.512 187.683 212.462C186.317 212.178 184.057 215.235 186.114 215.069C184.651 216.449 180.269 209.73 176.196 211.935C176.099 210.473 178.448 210.441 175.676 210.375C175.115 206.786 179.871 207.631 180.375 209.848C184.814 207.16 188.446 212.909 192.382 211.935C192.072 213.177 194.47 213.729 196.04 214.545ZM192.382 199.946C190.886 201.175 192.78 197.883 189.772 198.902C190.471 195.577 193.918 201.103 193.423 197.335C198.015 198.03 196.446 199.357 200.73 199.418C199.364 202.207 191.886 198.862 192.382 199.946ZM201.779 198.902C199.934 199.186 200.502 197.051 198.649 197.335C199.185 196.34 202.436 196.978 201.779 198.902ZM202.828 193.161C204.843 191.228 206.062 195.338 208.039 193.689C206.275 196.284 205.436 192.722 202.828 193.161ZM207.526 197.335C207.534 196.828 208.168 196.929 208.566 196.819C208.339 196.352 208.111 195.882 207.526 195.771C208.713 195.809 212.826 197.42 213.264 199.946C210.867 199.56 209.615 198.03 207.526 197.335ZM213.264 202.548C212.834 201.078 214.005 201.2 213.792 199.946C215.469 199.836 215.061 201.801 215.882 202.548C216.947 202.256 216.899 200.981 217.963 202.028C218.654 203.027 217.582 204.132 218.484 205.678C216.434 205.27 214.589 204.164 213.264 202.548Z" fill="#396EB5"/>
<path d="M59.2365 423.159C54.0173 410.639 49.7575 397.168 39.93 389.266C43.6367 386.815 39.7673 374.496 36.7918 369.441C35.2935 367.608 33.8986 365.693 32.6137 363.705C32.4265 363.132 33.2317 362.312 33.134 362.137C30.9795 358.151 26.7688 354.902 25.3058 350.672C24.6068 348.642 25.2813 346.587 24.2569 344.404C24.2569 344.404 24.1109 343.014 21.6556 342.849C18.8672 332.655 15.1445 322.772 12.2582 310.51C9.85273 300.353 6.95886 290.739 0 286.922V431.137C12.088 431.883 26.8665 432.326 37.9299 432.326C47.4489 432.326 56.7323 431.964 65.8775 431.408C65.1456 427.812 63.5039 423.378 59.2365 423.159Z" fill="#396EB5"/>
<path d="M273.598 406.099C283.132 406.099 293.945 406.781 305.544 407.967L301.252 364.598L298.765 339.536H240.7L233.912 408.169C246.975 406.902 260.152 406.099 273.598 406.099Z" fill="url(#paint1_linear_1328_54641)"/>
<path d="M295.912 276.155H243.57V339.536H295.912V276.155Z" fill="url(#paint2_linear_1328_54641)"/>
<path d="M295.912 265.217H243.57V276.155H295.912V265.217Z" fill="url(#paint3_linear_1328_54641)"/>
<path d="M267.42 230.148H272.06L269.475 161.361L267.42 230.148Z" fill="url(#paint4_linear_1328_54641)"/>
<path d="M310.38 340.701H229.09V301.838H310.38V340.701ZM231.424 338.37H308.048V304.17H231.424V338.37Z" fill="white"/>
<path d="M244.731 302.999H242.398V339.536H244.731V302.999Z" fill="white"/>
<path d="M257.82 302.999H255.486V339.536H257.82V302.999Z" fill="white"/>
<path d="M270.9 302.999H268.574V339.536H270.9V302.999Z" fill="white"/>
<path d="M297.074 302.999H294.74V339.536H297.074V302.999Z" fill="white"/>
<path d="M283.986 302.999H281.652V339.536H283.986V302.999Z" fill="white"/>
<path d="M279.028 238.162C279.028 239.997 278.483 241.791 277.462 243.318C276.441 244.844 274.99 246.033 273.292 246.736C271.595 247.438 269.726 247.622 267.924 247.264C266.122 246.906 264.466 246.022 263.167 244.724C261.867 243.427 260.983 241.773 260.624 239.973C260.265 238.172 260.449 236.306 261.152 234.611C261.855 232.915 263.046 231.465 264.574 230.445C266.102 229.425 267.898 228.881 269.736 228.881C272.2 228.881 274.563 229.859 276.305 231.6C278.048 233.34 279.027 235.7 279.028 238.162Z" fill="url(#paint5_linear_1328_54641)"/>
<path d="M295.912 266.883C295.916 263.447 295.242 260.044 293.929 256.869C292.616 253.694 290.689 250.808 288.258 248.378C285.827 245.947 282.941 244.019 279.764 242.703C276.586 241.387 273.181 240.71 269.741 240.71C266.302 240.71 262.896 241.387 259.719 242.703C256.542 244.019 253.655 245.947 251.225 248.378C248.794 250.808 246.867 253.694 245.554 256.869C244.24 260.044 243.566 263.447 243.57 266.883H295.912Z" fill="url(#paint6_linear_1328_54641)"/>
</g>
<defs>
<linearGradient id="paint0_linear_1328_54641" x1="180.574" y1="121.719" x2="180.574" y2="473.107" gradientUnits="userSpaceOnUse">
<stop stop-color="#44B2E8"/>
<stop offset="1" stop-color="#FFBB4E"/>
</linearGradient>
<linearGradient id="paint1_linear_1328_54641" x1="233.912" y1="373.852" x2="305.544" y2="373.852" gradientUnits="userSpaceOnUse">
<stop stop-color="white"/>
<stop offset="1" stop-color="#BBBDBF"/>
</linearGradient>
<linearGradient id="paint2_linear_1328_54641" x1="243.57" y1="307.845" x2="295.912" y2="307.845" gradientUnits="userSpaceOnUse">
<stop stop-color="#D57D32"/>
<stop offset="1" stop-color="#F9DDC9"/>
</linearGradient>
<linearGradient id="paint3_linear_1328_54641" x1="243.57" y1="270.686" x2="295.912" y2="270.686" gradientUnits="userSpaceOnUse">
<stop stop-color="white"/>
<stop offset="1" stop-color="#BBBDBF"/>
</linearGradient>
<linearGradient id="paint4_linear_1328_54641" x1="267.421" y1="195.754" x2="272.061" y2="195.754" gradientUnits="userSpaceOnUse">
<stop stop-color="white"/>
<stop offset="1" stop-color="#BBBDBF"/>
</linearGradient>
<linearGradient id="paint5_linear_1328_54641" x1="260.445" y1="238.162" x2="279.028" y2="238.162" gradientUnits="userSpaceOnUse">
<stop stop-color="white"/>
<stop offset="1" stop-color="#BBBDBF"/>
</linearGradient>
<linearGradient id="paint6_linear_1328_54641" x1="243.57" y1="253.811" x2="295.912" y2="253.811" gradientUnits="userSpaceOnUse">
<stop stop-color="white"/>
<stop offset="1" stop-color="#BBBDBF"/>
</linearGradient>
<clipPath id="clip0_1328_54641">
<rect width="373" height="547" fill="white"/>
</clipPath>
</defs>
</svg>
