<svg width="697" height="128" viewBox="0 0 697 128" fill="none" xmlns="http://www.w3.org/2000/svg">
<g clip-path="url(#clip0_1328_54473)">
<path d="M16.3667 127.09C14.1715 127.13 11.9934 126.699 9.97992 125.827C7.96644 124.954 6.16456 123.661 4.69631 122.035C3.23478 120.356 2.15239 118.384 1.52244 116.252C0.892487 114.12 0.729694 111.878 1.04508 109.678L12.2769 18.5425C12.9628 13.739 15.3337 9.3327 18.9692 6.10498C22.6047 2.87725 27.2699 1.03662 32.1376 0.909473H680.633C682.829 0.869961 685.007 1.30093 687.02 2.1732C689.034 3.04547 690.835 4.33868 692.304 5.96524C693.765 7.64406 694.848 9.61622 695.478 11.7482C696.108 13.8801 696.27 16.1221 695.955 18.3222L684.727 109.457C684.038 114.26 681.666 118.666 678.03 121.893C674.395 125.12 669.73 126.962 664.862 127.09H16.3667Z" fill="white"/>
<path d="M680.634 1.81899C682.7 1.77953 684.751 2.18348 686.646 3.00341C688.542 3.82334 690.238 5.04006 691.62 6.57097C692.996 8.15268 694.014 10.0107 694.606 12.0189C695.197 14.0271 695.349 16.1386 695.049 18.2102L683.819 109.347C683.164 113.932 680.9 118.138 677.43 121.22C673.96 124.301 669.507 126.058 664.861 126.181H16.3662C14.3 126.22 12.2495 125.817 10.3538 124.997C8.45813 124.177 6.76169 122.96 5.37965 121.429C4.00404 119.848 2.98594 117.99 2.39447 115.982C1.80301 113.974 1.65201 111.863 1.95174 109.791L13.1816 18.6544C13.8363 14.0689 16.0993 9.86248 19.5694 6.78085C23.0396 3.69921 27.4927 1.94139 32.1393 1.81899H680.634ZM680.634 -9.43249e-05H32.1393C27.0525 0.140592 22.179 2.06717 18.3789 5.43963C14.5789 8.8121 12.0965 13.4137 11.3699 18.4323L0.139376 109.569C-0.216718 111.879 -0.0609262 114.238 0.595806 116.481C1.25254 118.725 2.39428 120.797 3.94081 122.554C5.48733 124.31 7.40113 125.708 9.54773 126.649C11.6943 127.59 14.0217 128.051 16.3662 128H664.861C669.948 127.859 674.821 125.933 678.621 122.561C682.421 119.189 684.903 114.588 685.631 109.569L696.861 18.4323C697.217 16.1226 697.062 13.7632 696.405 11.5198C695.748 9.27646 694.606 7.2036 693.06 5.44686C691.513 3.69013 689.6 2.29214 687.453 1.35113C685.306 0.41012 682.979 -0.0510903 680.634 -9.43249e-05Z" fill="#666666"/>
<path d="M197.707 50.0771L186.404 31.0322L180.76 71.0508L197.494 51.6276C197.65 51.4045 197.751 51.1475 197.788 50.8779C197.825 50.6083 197.797 50.3338 197.707 50.0771Z" fill="#F05A28"/>
<path d="M177.153 25.8523H87.2594C86.4994 25.8739 85.7707 26.1591 85.199 26.6586C84.6273 27.158 84.2483 27.8406 84.1274 28.5886L82.9746 36.7614H125.996C126.489 36.7491 126.978 36.8449 127.43 37.042C127.881 37.239 128.284 37.5326 128.609 37.9018C128.934 38.271 129.173 38.7068 129.311 39.1785C129.448 39.6503 129.479 40.1463 129.403 40.6314L129.003 43.876H139.555C139.931 43.8666 140.304 43.9396 140.648 44.0898C140.992 44.24 141.299 44.4637 141.546 44.7451C141.794 45.0265 141.977 45.3587 142.081 45.7182C142.186 46.0777 142.21 46.4558 142.152 46.8256L141.484 52.2414H152.418C152.697 52.2344 152.974 52.2886 153.229 52.4001C153.484 52.5115 153.712 52.6776 153.896 52.8864C154.08 53.0952 154.215 53.3418 154.293 53.6086C154.371 53.8754 154.389 54.156 154.345 54.4304L151.918 74.1322C151.833 74.7289 151.538 75.2763 151.087 75.6771C150.635 76.0779 150.055 76.3061 149.451 76.3213H170.034C170.794 76.2996 171.523 76.0145 172.095 75.515C172.666 75.0155 173.045 74.333 173.166 73.585L179.513 28.5885C179.575 28.2484 179.56 27.8987 179.469 27.5651C179.378 27.2315 179.213 26.9223 178.987 26.6601C178.761 26.3979 178.479 26.1894 178.161 26.0496C177.844 25.9098 177.499 25.8424 177.153 25.8523Z" fill="url(#paint0_linear_1328_54473)"/>
<path d="M151.917 74.1324L154.345 54.4306C154.388 54.1562 154.37 53.8756 154.293 53.6088C154.215 53.342 154.079 53.0954 153.896 52.8866C153.712 52.6777 153.484 52.5117 153.229 52.4002C152.973 52.2888 152.696 52.2346 152.418 52.2416H141.484L138.88 73.372C138.766 74.176 138.369 74.9135 137.761 75.4536C137.152 75.9936 136.371 76.3012 135.557 76.3216H149.45C150.055 76.3064 150.635 76.0782 151.086 75.6773C151.538 75.2765 151.832 74.7291 151.917 74.1324Z" fill="#F05A28"/>
<path d="M139.556 43.876H129.004L127.973 52.2415L125.112 75.4613C125.073 75.7547 125.003 76.043 124.902 76.3213H135.558C136.373 76.301 137.154 75.9934 137.762 75.4534C138.371 74.9133 138.768 74.1757 138.882 73.3718L141.486 52.2413L142.153 46.8255C142.211 46.4557 142.187 46.0777 142.082 45.7182C141.978 45.3587 141.795 45.0265 141.548 44.7451C141.3 44.4637 140.993 44.2401 140.649 44.0899C140.305 43.9397 139.932 43.8667 139.556 43.876Z" fill="#F6921E"/>
<path d="M49.4607 95.2223L49.436 95.3682C50.3893 95.6362 51.0004 96.3668 51.2694 97.8285L52.3452 103.089H49.8514L48.8496 97.8039C48.63 96.5861 48.0921 96.1722 47.0409 96.1722L43.4474 96.1476L42.4694 103.089H40.0742L42.4455 86.2832C44.3708 86.1008 46.3049 86.0276 48.2384 86.064C51.7094 86.064 53.7385 87.1846 53.2253 91.0326C52.8831 93.493 51.8558 94.9298 49.4607 95.2223ZM47.1141 94.0774C49.4607 94.0532 50.4139 93.3468 50.7561 90.9844C51.0738 88.8166 50.4625 88.1589 48.1652 88.1589C46.7472 88.1589 45.525 88.1831 44.5717 88.1831L43.741 94.0774H47.1141Z" fill="#58595B"/>
<path d="M59.5303 98.0233L57.2569 103.089H54.666L62.2437 86.8924C62.3169 86.703 62.4488 86.5418 62.6202 86.4322C62.7917 86.3227 62.9938 86.2706 63.197 86.2834H65.6901C65.8886 86.2803 66.0811 86.3509 66.2303 86.4815C66.3794 86.6121 66.4745 86.7933 66.497 86.9899L69.5526 103.089H67.1081L66.2774 98.0232L59.5303 98.0233ZM64.8593 89.5715C64.7614 89.0843 64.7129 88.5975 64.6636 88.1102H63.9307L63.2949 89.5715L60.4835 95.8797H65.9104L64.8593 89.5715Z" fill="#58595B"/>
<path d="M85.7115 86.5027L85.3208 88.3537C83.8837 88.2051 82.4391 88.1401 80.9944 88.159C77.8895 88.159 76.5702 89.401 75.8365 94.7841C75.1275 99.6798 75.8851 101.19 78.8921 101.214C80.5182 101.258 82.1451 101.168 83.7564 100.946L83.8782 102.822C82.2363 103.253 80.5397 103.442 78.8428 103.382C73.9785 103.382 72.3902 100.727 73.2941 94.5891C74.1741 88.2322 76.154 85.9915 81.043 85.9915C82.6155 85.9427 84.1872 86.1147 85.7115 86.5027Z" fill="#58595B"/>
<path d="M93.6084 88.3293C92.5573 88.3293 92.1172 88.7432 91.9708 89.9123L91.5061 93.3225H98.6191L98.3749 95.1977H91.2372L90.6507 99.5332C90.5043 100.654 90.8465 101.043 91.9213 101.043H98.4479L98.3994 102.943C96.2971 103.138 93.828 103.138 91.6285 103.138C88.9636 103.138 87.8639 101.774 88.1575 99.6061L89.5994 89.2063C89.6437 88.7665 89.7755 88.34 89.987 87.9516C90.1986 87.5632 90.4857 87.2206 90.8315 86.944C91.1774 86.6673 91.5751 86.4621 92.0015 86.3403C92.4278 86.2185 92.8742 86.1825 93.3147 86.2345C95.7838 86.2345 98.3747 86.2345 100.575 86.4296L100.257 88.3293H93.6084Z" fill="#58595B"/>
<path d="M114.874 86.5267L114.605 88.2806C113.089 88.2078 111.451 88.1589 109.814 88.1589C107.613 88.1343 106.538 88.1343 106.22 90.5213C106.001 92.1776 106.391 92.4944 107.834 93.0058L111.061 94.1503C111.573 94.2554 112.057 94.467 112.482 94.7714C112.907 95.0757 113.262 95.4659 113.525 95.9165C113.788 96.367 113.953 96.8678 114.008 97.3861C114.064 97.9044 114.009 98.4285 113.847 98.9242C113.334 102.651 111.599 103.381 107.492 103.381C105.745 103.383 104.001 103.219 102.285 102.894L102.603 101.092C105.658 101.19 106.562 101.214 107.467 101.214C110.204 101.19 111.109 100.897 111.403 98.6808C111.599 97.0245 111.207 96.6835 109.814 96.1964L106.514 95.0272C106.016 94.9034 105.548 94.6807 105.138 94.3725C104.729 94.0642 104.386 93.6767 104.13 93.2333C103.875 92.7898 103.711 92.2994 103.65 91.7916C103.59 91.2838 103.632 90.7689 103.776 90.2779C104.314 86.4783 106.343 85.9911 109.814 85.9911C111.516 85.9644 113.215 86.1442 114.874 86.5267Z" fill="#58595B"/>
<path d="M125.281 98.8268C125.183 99.6309 125.379 100.069 126.381 100.069H132.15L132.076 102.919C129.925 103.138 127.358 103.162 124.988 103.162C124.479 103.23 123.962 103.172 123.481 102.994C123 102.816 122.571 102.523 122.23 102.14C121.89 101.758 121.649 101.298 121.529 100.801C121.408 100.304 121.413 99.7849 121.541 99.2899L123.326 86.2834H127.066L125.281 98.8268Z" fill="#F05A28"/>
<path d="M134.545 103.089L136.916 86.2834H140.656L138.285 103.089H134.545Z" fill="#F05A28"/>
<path d="M151.41 102.139C151.321 102.422 151.141 102.668 150.899 102.84C150.656 103.011 150.364 103.099 150.066 103.089H146.693C146.397 103.087 146.111 102.977 145.891 102.779C145.67 102.582 145.529 102.311 145.495 102.018L143.1 86.2833H146.864L148.184 98.3641C148.258 99.0218 148.306 99.7036 148.331 100.337H148.942C149.125 99.6598 149.345 98.9931 149.602 98.3398L154.343 86.2832H158.279L151.41 102.139Z" fill="#F05A28"/>
<path d="M165.175 89.2064C164.246 89.2064 163.88 89.5229 163.757 90.5214L163.415 93.0547H170.039L169.697 95.6851H163.048L162.584 98.9244C162.462 99.8255 162.755 100.167 163.684 100.167H169.917L169.819 102.919C167.389 103.125 164.95 103.207 162.511 103.162C161.972 103.25 161.42 103.202 160.904 103.024C160.389 102.846 159.926 102.542 159.557 102.141C159.188 101.74 158.926 101.254 158.792 100.726C158.659 100.199 158.66 99.6466 158.795 99.1195L160.14 89.5228C160.185 89.0411 160.326 88.5731 160.554 88.1457C160.781 87.7183 161.091 87.3398 161.466 87.0321C161.84 86.7243 162.272 86.4934 162.737 86.3524C163.201 86.2114 163.689 86.1632 164.173 86.2105C166.767 86.1698 169.361 86.2592 171.946 86.4785L171.481 89.2064H165.175Z" fill="#F05A28"/>
<path d="M64.868 61.1791L64.8171 61.4574C65.9245 61.7035 66.9202 62.3047 67.6517 63.1689C68.3831 64.0331 68.8099 65.1125 68.8666 66.2416L70.9681 76.1807H64.4065L62.5103 66.1484C62.0997 64.012 61.1776 63.3618 59.0751 63.3618H52.4626L50.4628 76.1807H44.1582L49.1301 44.1332C53.1803 43.7617 56.3585 43.7153 61.6899 43.7153C69.2764 43.7153 73.89 45.9445 72.8134 53.3295C72.7447 55.4011 71.8835 57.3682 70.4063 58.8276C68.9291 60.287 66.9477 61.1283 64.868 61.1791ZM59.4338 58.5778C63.9449 58.5314 65.6884 57.3238 66.3543 53.2365C66.9185 49.6138 65.791 48.4991 61.5362 48.4991L54.7693 48.5454L53.1804 58.5778H59.4338Z" fill="#231F20"/>
<path d="M115.879 44.1333C117.519 44.1333 118.34 45.0622 118.186 46.5021L115.007 76.1809H108.753L111.932 48.8245H111.009L101.628 70.2359C101.431 70.8238 101.04 71.3278 100.518 71.6653C99.9968 72.0029 99.3756 72.1539 98.7566 72.0936H93.8358C93.2325 72.1457 92.6326 71.9614 92.1636 71.5798C91.6945 71.1982 91.3932 70.6494 91.3238 70.05L88.2483 48.8245H87.2743L82.0456 76.1809H75.791L81.7375 46.3166C81.7541 45.9934 81.8382 45.6772 81.9844 45.3883C82.1306 45.0993 82.3357 44.844 82.5866 44.6385C82.8375 44.433 83.1286 44.282 83.4414 44.195C83.7542 44.108 84.0818 44.087 84.4032 44.1333H90.8622C91.1506 44.1059 91.4415 44.138 91.7169 44.2277C91.9922 44.3173 92.246 44.4626 92.4625 44.6544C92.679 44.8462 92.8534 45.0803 92.975 45.3423C93.0966 45.6043 93.1626 45.8885 93.169 46.177L95.7838 63.5475C96.0241 65.0069 96.1611 66.4814 96.1936 67.9599H97.0138C97.578 66.3345 98.1414 65.0342 98.7565 63.6871L106.395 45.9911C106.603 45.4136 106.998 44.9219 107.518 44.5937C108.038 44.2656 108.653 44.1199 109.266 44.1797L115.879 44.1333Z" fill="#231F20"/>
<path d="M259.804 65.4869L259.746 65.8351C262.021 66.4746 263.483 68.2226 264.125 71.7151L266.7 84.2958H260.738L258.342 71.6547C257.814 68.7449 256.53 67.7536 254.02 67.7536L245.427 67.6967L243.088 84.2958H237.361L243.031 44.1127C247.633 43.6759 252.257 43.5003 256.88 43.5869C265.181 43.5869 270.03 46.2658 268.803 55.4677C267.983 61.3513 265.53 64.7834 259.804 65.4869ZM254.191 62.7476C259.804 62.6872 262.086 61.0031 262.899 55.354C263.662 50.1668 262.2 48.5964 256.709 48.5964C253.314 48.5964 250.397 48.6533 248.115 48.6533L246.126 62.7475L254.191 62.7476Z" fill="#58595B"/>
<path d="M283.866 72.1805L278.431 84.2959H272.234L290.355 45.5694C290.529 45.1166 290.843 44.731 291.252 44.4689C291.662 44.2069 292.144 44.082 292.63 44.1127H298.592C299.066 44.1067 299.527 44.2762 299.884 44.5886C300.241 44.9009 300.469 45.3338 300.524 45.8039L307.827 84.2959H301.979L299.996 72.1805H283.866ZM296.602 51.9717C296.374 50.8099 296.253 49.6446 296.139 48.4827H294.384L292.865 51.9717L286.14 67.0573H299.119L296.602 51.9717Z" fill="#58595B"/>
<path d="M346.443 44.6385L345.509 49.0618C342.072 48.707 338.617 48.5516 335.162 48.5964C327.738 48.5964 324.586 51.5666 322.832 64.4352C321.134 76.142 322.946 79.7519 330.134 79.8121C334.022 79.9146 337.912 79.6995 341.765 79.169L342.057 83.6528C338.133 84.6852 334.077 85.1365 330.02 84.9922C318.389 84.9922 314.588 78.6468 316.756 63.9698C318.859 48.7705 323.587 43.4163 335.283 43.4163C339.042 43.2989 342.799 43.7103 346.443 44.6385Z" fill="#58595B"/>
<path d="M365.305 49.0049C362.794 49.0049 361.739 49.9961 361.389 52.7885L360.277 60.9426H377.285L376.7 65.4264H359.635L358.237 75.79C357.881 78.4689 358.701 79.3997 361.275 79.3997H376.879L376.764 83.9438C371.737 84.4092 365.832 84.4092 360.569 84.4092C354.201 84.4092 351.57 81.1477 352.276 75.9675L355.72 51.1007C355.826 50.0491 356.141 49.0291 356.647 48.1002C357.153 47.1713 357.84 46.3521 358.667 45.6906C359.494 45.0291 360.445 44.5384 361.465 44.2473C362.485 43.9561 363.552 43.8703 364.606 43.9949C370.51 43.9949 376.7 43.9949 381.963 44.4604L381.2 49.0044L365.305 49.0049Z" fill="#58595B"/>
<path d="M419.231 44.809L418.061 51.3925C414.268 51.158 411.75 51.1012 406.844 51.1012C400.996 51.1012 398.6 53.137 397.081 64.5524C395.683 74.5112 396.732 77.3038 402.579 77.3038C406.658 77.4088 410.74 77.2343 414.795 76.7815L415.145 83.4218C410.968 84.6154 406.629 85.1454 402.287 84.9922C389.836 84.9922 385.685 78.9381 387.789 63.8525C390.014 48.305 394.749 43.4163 407.193 43.4163C411.252 43.2937 415.308 43.7629 419.231 44.809Z" fill="#F05A28"/>
<path d="M458.432 64.5523C456.271 80.5083 451.073 85.0489 439.035 85.0489C426.762 85.0489 421.97 80.0428 424.131 63.8523C426.291 48.3049 431.319 43.3557 443.649 43.3557C455.629 43.3557 460.657 48.4825 458.432 64.5523ZM433.48 64.5523C431.961 75.0368 433.187 77.8861 439.206 77.8861C445.346 77.8861 447.507 74.9159 449.14 63.8522C450.723 53.0798 449.318 50.5183 443.356 50.5183C437.159 50.5183 435.12 53.3713 433.48 64.5523Z" fill="#F05A28"/>
<path d="M499.502 81.2652C499.21 83.365 498.276 84.2958 496.172 84.2958H491.201C489.276 84.2958 488.634 83.2442 487.871 81.4961L479.87 60.0687C479.134 58.0958 478.548 56.071 478.116 54.0111H477.531C477.489 56.1143 477.332 58.2136 477.06 60.2997L473.73 84.296H465.258L470.514 47.1396C470.506 46.7091 470.592 46.2822 470.765 45.8877C470.938 45.4932 471.195 45.1404 471.517 44.8533C471.839 44.5662 472.219 44.3514 472.631 44.2236C473.044 44.0959 473.479 44.058 473.908 44.1127H478.814C480.683 44.1127 481.389 45.1608 482.088 46.9052L489.861 67.6399C490.699 69.7682 491.401 71.9469 491.965 74.1631H492.663C492.65 72.0007 492.788 69.84 493.077 67.6969L496.286 44.1128H504.765L499.502 81.2652Z" fill="#F05A28"/>
<path d="M532.505 51.332L527.827 84.2957H518.884L523.563 51.332H511.582L512.573 44.1125H545.477L544.486 51.332H532.505Z" fill="#F05A28"/>
<path d="M554.057 73.8112L549.735 84.2957H540.443L557.387 46.2656C557.625 45.6136 558.065 45.0537 558.643 44.6667C559.221 44.2798 559.908 44.0857 560.603 44.1126H569.018C569.722 44.1066 570.402 44.3586 570.931 44.8205C571.46 45.2824 571.799 45.922 571.885 46.6174L578.196 84.2957H569.311L567.97 73.8112H554.057ZM565.453 54.5936C565.282 53.3146 565.217 51.9716 565.16 50.6925H563.47C563.057 51.8579 562.593 53.2577 562.065 54.5367L556.981 66.7658H567.036L565.453 54.5936Z" fill="#F05A28"/>
<path d="M617.51 44.8089L616.341 51.3924C612.54 51.1579 610.029 51.1011 605.116 51.1011C599.275 51.1011 596.879 53.1369 595.36 64.5523C593.956 74.511 595.011 77.3036 600.851 77.3036C604.931 77.4089 609.012 77.2344 613.067 76.7813L613.417 83.4217C609.24 84.6158 604.901 85.1458 600.559 84.9921C588.115 84.9921 583.965 78.938 586.068 63.8524C588.286 48.3049 593.021 43.4161 605.473 43.4161C609.532 43.2941 613.587 43.7633 617.51 44.8089Z" fill="#F05A28"/>
<path d="M643.968 51.332L639.297 84.2957H630.355L635.026 51.332H623.045L624.043 44.1125H656.947L655.949 51.332H643.968Z" fill="#F05A28"/>
</g>
<defs>
<linearGradient id="paint0_linear_1328_54473" x1="131.257" y1="64.8547" x2="131.257" y2="35.5726" gradientUnits="userSpaceOnUse">
<stop stop-color="#333333"/>
<stop offset="1"/>
</linearGradient>
<clipPath id="clip0_1328_54473">
<rect width="697" height="128" fill="white"/>
</clipPath>
</defs>
</svg>
