<svg width="913" height="425" viewBox="0 0 913 425" fill="none" xmlns="http://www.w3.org/2000/svg">
<g clip-path="url(#clip0_1328_54723)">
<path d="M504.283 290.619C504.283 311.66 498.439 318.208 482.312 318.208C474.522 318.208 468.132 317.894 462.211 317.506V263.733C468.133 263.345 474.444 263.031 482.312 263.031C498.439 263.031 504.283 269.579 504.283 290.619ZM494 290.619C494 275.812 491.194 271.139 482.312 271.139C478.338 271.139 475.067 271.217 471.951 271.217V309.867C474.989 309.945 478.418 310.027 482.312 310.027C491.194 310.027 494 305.427 494 290.619Z" fill="#808080"/>
<path d="M587.828 317.04C580.739 317.661 572.012 317.661 564.142 317.661C557.052 317.661 552.691 313.764 552.613 307.453V273.786C552.691 267.475 557.13 263.578 564.142 263.578C572.012 263.578 580.739 263.578 587.828 264.203L587.359 271.682H566.323C563.517 271.682 562.427 272.851 562.427 276.204V285.632H584.475V293.115H562.427V305.117C562.427 308.466 563.517 309.634 566.323 309.634H587.359L587.828 317.04Z" fill="#808080"/>
<path d="M669.028 264.591L668.408 271.527C663.964 271.372 657.733 271.217 652.436 271.217C645.889 271.217 643.476 271.605 643.476 277.373C643.476 282.127 645.264 283.218 649.475 284.541L659.836 287.736C668.33 290.464 670.899 295.529 670.899 303.401C670.899 315.635 665.602 318.441 651.811 318.441C645.95 318.446 640.104 317.871 634.356 316.725L634.981 309.557C645.187 309.789 648.303 309.867 652.044 309.867C659.055 309.867 661.004 308.854 661.004 303.323C661.004 298.413 659.211 297.478 655.315 296.232L644.489 292.801C636.541 290.232 633.658 285.244 633.658 277.217C633.658 264.902 639.265 262.798 652.121 262.798C657.809 262.692 663.489 263.295 669.028 264.591Z" fill="#808080"/>
<path d="M718.91 317.506V263.733H728.65V317.506H718.91Z" fill="#808080"/>
<path d="M818.103 317.506H810.858L810.001 312.208C805.751 316.242 800.12 318.5 794.261 318.518C782.34 318.518 777.432 309.789 777.432 290.387C777.432 268.876 783.586 262.72 800.963 262.72C806.162 262.626 811.349 263.229 816.388 264.513L815.608 271.76C810.544 271.449 805.092 271.294 801.428 271.294C791.223 271.294 787.637 273.398 787.637 290.93C787.637 305.349 790.055 310.104 797.3 310.104C801.349 309.984 805.275 308.683 808.596 306.362V286.49H818.103V317.506Z" fill="#808080"/>
<path d="M910.996 313.919C911.057 314.405 911.006 314.898 910.847 315.361C910.689 315.824 910.426 316.244 910.08 316.59C909.734 316.936 909.314 317.199 908.851 317.357C908.388 317.516 907.895 317.567 907.41 317.506H899.7C898.787 317.552 897.885 317.284 897.147 316.744C896.409 316.205 895.878 315.428 895.644 314.544L880.53 281.58C879.213 279.012 878.144 276.324 877.336 273.553H876.401C876.751 276.24 876.908 278.948 876.871 281.658V317.506H867.286V267.32C867.234 266.829 867.293 266.333 867.46 265.869C867.627 265.405 867.897 264.985 868.249 264.64C868.602 264.295 869.028 264.034 869.495 263.877C869.963 263.72 870.46 263.671 870.949 263.733H878.504C880.607 263.733 881.62 264.669 882.555 266.695L897.204 298.724C898.217 301.065 899.777 304.336 900.945 307.22H901.88C901.643 304.259 901.488 301.375 901.488 298.491V263.733H910.996L910.996 313.919Z" fill="#808080"/>
<path d="M191.505 425C188.013 424.959 184.532 424.593 181.107 423.906C184.531 424.597 188.013 424.964 191.505 425Z" fill="#2B388F"/>
<path d="M191.505 0C184.465 0.0164465 177.491 1.35911 170.947 3.95777C177.492 1.36546 184.466 0.0262222 191.505 0.00975306V0Z" fill="#2B388F"/>
<path d="M164.116 353.457L84.1514 307.28C75.6213 302.355 68.5379 295.27 63.6134 286.738C58.6889 278.206 56.0968 268.528 56.0977 258.677V166.323C56.098 156.472 58.6906 146.794 63.615 138.263C68.5394 129.731 75.6221 122.646 84.1514 117.72L164.116 71.5441C172.452 66.7393 181.884 64.1635 191.505 64.0651V0.00976562C181.665 0.0801865 172.008 2.66795 163.451 7.52678L28.0539 85.7121C19.5246 90.6379 12.4418 97.7226 7.51735 106.254C2.59289 114.785 0.000252033 124.463 1.19047e-06 134.314V290.686C-0.00202782 300.538 2.58963 310.216 7.51431 318.748C12.439 327.28 19.523 334.365 28.0539 339.289L163.451 417.483C172.047 422.245 181.68 424.826 191.505 425V360.935C181.884 360.836 172.452 358.261 164.116 353.457Z" fill="#143980"/>
<path d="M354.946 85.712L219.558 7.52675C211.029 2.60005 201.354 0.00740083 191.505 0.00976724V64.065C201.576 63.931 211.497 66.5147 220.224 71.544L295.157 114.818V142.612C290.888 137.342 285.699 132.889 279.841 129.472L220.224 95.0559C211.689 90.1468 202.016 87.5633 192.17 87.5633C182.325 87.5633 172.651 90.1468 164.116 95.0559L104.499 129.472C95.9699 134.398 88.8872 141.483 83.9628 150.014C79.0383 158.546 76.4457 168.224 76.4453 178.075V246.926C76.4434 256.778 79.0351 266.456 83.9598 274.988C88.8845 283.52 95.9684 290.604 104.499 295.528L164.116 329.963C172.655 334.86 182.327 337.436 192.17 337.436C202.013 337.436 211.685 334.86 220.224 329.963L279.841 295.528C285.7 292.117 290.89 287.668 295.157 282.398V310.182L220.224 353.457C211.497 358.486 201.576 361.069 191.505 360.935V425C201.354 425.002 211.029 422.41 219.558 417.483L354.946 339.289C363.478 334.365 370.563 327.281 375.489 318.749C380.415 310.217 383.008 300.538 383.008 290.686V134.314C383.006 124.462 380.412 114.785 375.486 106.253C370.56 97.722 363.476 90.6376 354.946 85.712ZM214.33 219.301C214.329 221.243 213.817 223.151 212.847 224.833C211.877 226.515 210.483 227.914 208.803 228.887L197.033 235.666C195.354 236.64 193.447 237.154 191.505 237.154C189.564 237.154 187.657 236.64 185.978 235.666L174.208 228.887C172.161 227.697 170.549 225.882 169.608 223.709H113.603C112.128 223.715 110.667 223.429 109.303 222.868C107.938 222.307 106.698 221.482 105.653 220.441C104.608 219.399 103.779 218.162 103.214 216.799C102.648 215.437 102.357 213.976 102.357 212.5C102.357 211.025 102.648 209.564 103.214 208.202C103.779 206.839 104.608 205.602 105.653 204.56C106.698 203.519 107.938 202.694 109.303 202.133C110.667 201.572 112.128 201.286 113.603 201.292H169.613C170.555 199.124 172.165 197.313 174.208 196.125L185.978 189.336C187.658 188.366 189.565 187.856 191.505 187.856C193.446 187.856 195.352 188.366 197.033 189.336L208.803 196.125C210.483 197.099 211.877 198.497 212.847 200.179C213.817 201.861 214.329 203.769 214.33 205.711V219.301Z" fill="#586BB2"/>
<path d="M532.406 201.488H490.212C484.777 201.488 482.665 199.223 482.665 192.733V169.487H528.331C528.308 167.706 528.306 166.073 528.306 164.657C528.306 162.048 528.308 158.751 528.451 154.997H482.665V136.732C482.665 130.242 484.777 127.979 490.212 127.979H532.363C533.824 122.603 535.885 117.409 538.507 112.494C517.55 112.279 494.545 112.279 485.984 112.279C472.404 112.279 463.801 119.827 463.65 132.053V197.262C463.801 209.487 472.253 217.035 485.984 217.035C494.545 217.035 517.55 217.035 538.507 216.821C535.91 211.953 533.863 206.81 532.406 201.488Z" fill="#143980"/>
<path d="M624.598 113.64L623.391 121.035C614.579 119.975 605.704 119.521 596.83 119.677C574.799 119.677 567.252 130.846 567.252 164.657C567.252 198.469 574.798 209.64 596.83 209.64C606.416 209.824 616.002 209.268 625.503 207.978L626.71 215.375C616.947 217.826 606.889 218.892 596.83 218.544C567.403 218.544 556.99 204.355 556.99 164.657C556.99 124.959 567.403 110.771 596.83 110.771C606.174 110.428 615.521 111.393 624.598 113.64Z" fill="#58595B"/>
<path d="M624.598 113.64L623.391 121.035C614.579 119.975 605.704 119.521 596.83 119.677C574.799 119.677 567.252 130.846 567.252 164.657C567.252 198.469 574.798 209.64 596.83 209.64C606.416 209.824 616.002 209.268 625.503 207.978L626.71 215.375C616.947 217.826 606.889 218.892 596.83 218.544C567.403 218.544 556.99 204.355 556.99 164.657C556.99 124.959 567.403 110.771 596.83 110.771C606.174 110.428 615.521 111.393 624.598 113.64Z" fill="#3D5BA9"/>
<path d="M815.057 216.733L805.097 183.978C802.076 175.373 797.4 172.054 790.155 172.054C778.988 172.054 770.386 171.903 764.348 171.752V216.733H754.539V112.581C766.13 111.552 777.767 111.149 789.401 111.374C812.79 111.374 821.845 117.715 821.845 141.109C821.845 158.62 816.264 166.319 802.679 168.28V168.884C807.963 170.392 812.79 175.524 815.057 183.676L825.62 216.733H815.057ZM789.401 163.45C806.002 163.299 811.885 158.62 811.885 141.562C811.885 124.356 806.002 119.827 789.401 119.827C779.139 119.827 770.386 119.978 764.348 120.129V163.45H789.401Z" fill="#3D5BA9"/>
<path d="M913 215.979C898.812 216.884 883.271 216.884 868.48 216.884C857.313 216.884 850.068 210.092 850.068 199.676V129.639C850.068 119.224 857.464 112.43 868.48 112.43C883.271 112.43 898.812 112.43 913 113.338L912.396 120.884H870.139C863.653 120.884 860.028 124.658 860.028 131.902V157.413H906.509V165.412H860.028V197.563C860.028 204.659 863.653 208.431 870.139 208.431H912.396L913 215.979Z" fill="#3D5BA9"/>
<path d="M726.614 164.657C726.614 204.961 716.202 218.544 686.473 218.544C656.744 218.544 646.332 204.961 646.332 164.657C646.332 124.356 656.744 110.771 686.473 110.771C716.202 110.771 726.614 124.356 726.614 164.657ZM656.594 164.657C656.594 198.469 664.14 209.791 686.473 209.791C708.811 209.791 716.202 198.469 716.202 164.657C716.202 130.846 708.811 119.526 686.473 119.526C664.14 119.526 656.594 130.846 656.594 164.657Z" fill="#3D5BA9"/>
</g>
<defs>
<clipPath id="clip0_1328_54723">
<rect width="913" height="425" fill="white"/>
</clipPath>
</defs>
</svg>
