<svg width="927" height="452" viewBox="0 0 927 452" fill="none" xmlns="http://www.w3.org/2000/svg">
<path d="M122.906 99.6481H86.476L80.5881 114.536H57.9883L94.1701 30.3652H116.776L152.117 114.536H128.676L122.906 99.6481ZM116.411 82.8363L104.87 52.817L93.0942 82.8363H116.411Z" fill="white"/>
<path d="M205.701 30.3648V95.8055H241.407V114.535H183.701V30.3647L205.701 30.3648Z" fill="white"/>
<path d="M331.906 99.6481H295.483L289.588 114.536H266.988L303.177 30.3652H325.776L361.117 114.536H337.676L331.906 99.6481ZM325.411 82.8363L313.87 52.817L302.094 82.8363H325.411Z" fill="white"/>
<path d="M416.743 30.3647L439.108 79.4721L461.466 30.3647H485.514V114.535H466.037L465.913 61.2241L446.319 106.131H431.889L412.295 61.2241V114.535H392.701V30.3647H416.743Z" fill="white"/>
<path d="M547.861 30.3647V114.535H525.861V30.3647H547.861Z" fill="white"/>
<path d="M653.153 30.3647V48.4955H627.906V114.535H605.906V48.4955H580.9V30.3647H653.153Z" fill="white"/>
<path d="M767.581 72.3901C767.581 97.0041 748.104 115.496 722.016 115.496C695.928 115.496 676.451 97.0043 676.451 72.3901C676.451 47.8934 695.928 29.7627 722.016 29.7627C748.104 29.7627 767.581 48.0141 767.581 72.3901ZM699.051 72.5106C698.915 78.7985 701.282 84.8835 705.632 89.4303C709.983 93.9771 715.962 96.6143 722.257 96.7631C725.317 96.6887 728.332 96.0132 731.13 94.7751C733.928 93.5369 736.455 91.7605 738.565 89.5471C740.676 87.3337 742.33 84.7267 743.432 81.8751C744.534 79.0234 745.063 75.9828 744.988 72.927C744.985 72.7882 744.98 72.6494 744.974 72.5106C745.099 69.4841 744.626 66.4625 743.582 63.6185C742.538 60.7745 740.943 58.1638 738.889 55.9354C736.835 53.707 734.361 51.9045 731.609 50.6309C728.858 49.3573 725.882 48.6376 722.851 48.5127C722.653 48.5045 722.455 48.4989 722.257 48.4958C716.028 48.5691 710.083 51.111 705.73 55.5622C701.377 60.0135 698.973 66.0095 699.046 72.2313L699.051 72.5106Z" fill="white"/>
<path d="M833.424 47.2941C828.136 47.2941 824.648 49.2153 824.648 53.0577C824.648 66.9879 869.013 59.0622 869.013 89.3192C869.013 106.489 853.866 115.255 835.107 115.255C821.026 115.21 807.363 110.478 796.277 101.807L804.813 84.6367C813.4 91.9771 824.084 96.4306 835.348 97.3653C841.842 97.3653 845.93 94.9622 845.93 90.5207C845.93 76.2326 801.565 84.8777 801.565 55.0993C801.565 39.3684 814.913 29.4043 835.23 29.4043C847.109 29.4167 858.755 32.6987 868.889 38.8898L860.595 56.3009C852.314 51.3341 843.035 48.2583 833.424 47.2941Z" fill="white"/>
<path d="M150.986 225.948C153.873 226.323 156.78 226.518 159.691 226.534C161.911 226.555 164.131 226.457 166.341 226.241C157.171 235.75 149.18 246.328 142.542 257.745C137.077 267.742 125.53 289.933 128.171 289.933C130.812 289.933 153.09 277.281 168.539 262.489C174.409 256.87 184.827 237.41 184.827 231.223C184.786 230.138 184.963 229.056 185.35 228.041C185.736 227.026 186.324 226.1 187.076 225.316C187.78 224.575 188.63 223.988 189.573 223.592C190.516 223.196 191.531 223 192.554 223.017C193.29 222.906 194.042 222.967 194.751 223.195C195.46 223.424 196.105 223.815 196.637 224.336C197.168 224.858 197.571 225.495 197.813 226.199C198.055 226.903 198.129 227.653 198.031 228.39C198.031 235.814 191.543 245.811 178.567 258.38L175.927 260.822C171.884 266.293 170.841 270.135 172.797 272.35C173.965 273.204 175.413 273.588 176.852 273.424C179.42 273.239 181.896 272.398 184.045 270.982C186.956 269.279 189.719 267.336 192.306 265.173C194.921 263.009 197.42 260.709 199.791 258.282L205.171 252.617L207.225 254.277C193.858 268.67 183.36 275.866 175.731 275.866C172.536 275.866 170.53 274.922 169.713 273.033C169.338 271.783 169.227 270.469 169.388 269.174C169.548 267.88 169.977 266.632 170.645 265.511C162.622 272.755 153.864 279.143 144.513 284.571C138.801 288.519 132.316 291.212 125.485 292.473C121.768 292.473 127.121 269.601 134.871 254.295C142.621 238.99 150.986 225.948 150.986 225.948Z" fill="white"/>
<path d="M194.119 286.664C194.119 288.715 196.043 289.74 199.89 289.738C203.683 289.75 207.424 288.845 210.792 287.1C214.431 285.206 217.9 283.001 221.159 280.51C224.701 277.827 228.082 274.939 231.285 271.861L240.088 263.069C242.696 260.334 244.848 257.974 246.543 255.99C248.239 254.004 249.249 252.847 249.575 252.519L251.531 254.277C250.879 254.928 249.656 256.313 247.86 258.432C246.067 260.549 243.835 263.023 241.164 265.856C238.491 268.689 235.491 271.668 232.166 274.791C228.875 277.889 225.379 280.761 221.7 283.388C215.438 288.607 207.722 291.778 199.596 292.473C196.229 292.635 192.881 291.876 189.913 290.278C188.917 289.835 188.057 289.135 187.421 288.251C186.785 287.366 186.396 286.328 186.294 285.244C186.273 283.533 186.471 281.826 186.881 280.164C187.415 278.305 188.136 276.505 189.033 274.791C190.336 272.265 191.788 269.819 193.382 267.465C195.24 264.664 197.653 261.311 200.619 257.403C203.586 253.496 207.19 248.969 211.43 243.825L226.493 226.046C228.077 226.3 229.682 226.398 231.285 226.339H235.882C237.254 226.355 238.626 226.29 239.99 226.144C218.408 251.868 206.262 266.506 203.554 270.057C200.848 273.607 198.844 276.39 197.542 278.406C195.672 280.797 194.488 283.652 194.119 286.664Z" fill="white"/>
<path d="M252.314 290.421C250.377 290.081 248.412 289.917 246.445 289.933C243.385 289.889 240.331 290.217 237.35 290.91L271.289 242.457C273.933 239.246 276.136 235.699 277.842 231.907C278.103 229.758 277.418 228.683 275.788 228.683C273.375 228.683 267.377 234.642 257.792 246.56L251.532 254.277C251.253 254.4 250.941 254.423 250.647 254.344C250.353 254.264 250.094 254.087 249.915 253.841C249.361 253.287 249.217 252.877 249.478 252.617C251.369 250.598 253.503 248.043 255.881 244.951C258.261 241.858 260.756 238.877 263.367 236.01C269.757 228.911 275.071 225.362 279.309 225.362C286.482 225.362 288.764 229.041 286.156 236.401C285.301 238.568 284.149 240.606 282.732 242.457L262.192 270.982L262.681 272.056C273.688 259.537 285.377 247.634 297.696 236.401C302.001 232.359 306.982 229.104 312.413 226.781C314.977 225.949 317.642 225.472 320.335 225.362C322.136 225.318 323.928 225.616 325.617 226.241C326.948 226.74 328.164 227.504 329.19 228.488C330.008 229.277 330.652 230.228 331.081 231.28C331.51 232.332 331.714 233.461 331.681 234.597C331.628 237.08 331.166 239.538 330.312 241.871C329.133 244.945 327.643 247.891 325.865 250.663C319.303 260.372 311.907 269.491 303.76 277.918C301.212 280.268 298.947 282.909 297.012 285.785C296.847 286.34 296.749 286.913 296.718 287.491C296.718 288.989 298.722 289.738 302.73 289.738C306.619 289.766 310.464 288.915 313.978 287.25C317.607 285.503 321.048 283.39 324.248 280.946C327.63 278.386 330.833 275.596 333.833 272.597C336.865 269.569 339.588 266.671 342.003 263.903C344.415 261.135 346.437 258.726 348.067 256.674C349.697 254.622 350.805 253.27 351.392 252.617L353.446 254.277C352.794 254.994 351.62 256.427 349.925 258.576C348.23 260.725 346.126 263.2 343.613 266C341.103 268.8 338.267 271.763 335.104 274.889C331.973 277.99 328.624 280.863 325.082 283.486C318.776 288.743 310.975 291.887 302.782 292.473C300.543 292.728 298.276 292.464 296.155 291.702C294.035 290.939 292.119 289.699 290.557 288.077C289.837 287.158 289.457 286.02 289.481 284.853C289.503 283.423 289.683 281.999 290.015 280.607C290.602 278.464 291.474 276.409 292.611 274.499C296.373 268.284 300.746 262.459 305.665 257.11C311.305 250.793 315.006 246.527 316.769 244.313C318.529 242.099 319.931 240.178 320.974 238.55C322.551 236.428 323.561 233.94 323.909 231.321C323.909 228.976 322.344 227.804 319.214 227.804C312.759 227.804 302.098 235.098 287.231 249.686C278.091 258.802 269.471 268.423 261.41 278.504L252.314 290.421Z" fill="white"/>
<path d="M388.506 283.831C384.302 286.498 379.806 288.677 375.106 290.324C370.737 291.94 366.124 292.799 361.465 292.864C358.136 293.008 354.807 292.562 351.632 291.548C349.533 290.768 347.643 289.513 346.11 287.882C339.98 281.239 340.013 271.438 346.208 258.478C349.102 252.459 353.235 247.118 358.335 242.802C362.743 238.818 367.525 235.267 372.615 232.2C379.353 228.002 387.077 225.644 395.013 225.362C401.925 225.362 405.544 227.511 405.87 231.809C406.326 238.778 397.849 246.365 380.44 254.57C372.577 258.136 364.511 261.235 356.282 263.851C353.055 268.357 351.065 273.629 350.511 279.142C350.353 280.684 350.548 282.241 351.081 283.697C351.614 285.152 352.472 286.467 353.589 287.543C356.216 289.374 359.391 290.252 362.587 290.031C366.974 289.946 371.312 289.086 375.4 287.491C379.931 285.831 384.261 283.668 388.31 281.044C392.192 278.54 395.842 275.696 399.219 272.545C402.479 269.484 405.363 266.553 407.871 263.753C410.382 260.953 412.436 258.528 414.033 256.479C415.034 255.116 416.13 253.826 417.313 252.617L419.367 254.277C417.951 255.626 416.657 257.097 415.5 258.673C413.772 260.888 411.588 263.412 408.947 266.247C406.306 269.08 403.274 272.059 399.851 275.183C396.326 278.387 392.53 281.281 388.506 283.831ZM358.531 260.432C378.223 253.528 390.905 246.658 396.578 239.82C398.276 238.008 399.281 235.655 399.414 233.177C399.414 229.53 397.719 227.706 394.328 227.706C388.33 227.706 380.831 232.949 371.833 243.434C367.051 248.819 362.609 254.496 358.531 260.432Z" fill="white"/>
<path d="M407.728 285.44C407.728 288.435 409.651 289.933 413.498 289.933C417.909 289.807 422.249 288.795 426.259 286.957C431.106 284.866 435.714 282.261 440.004 279.188C449.024 272.803 457.092 265.173 463.966 256.524C475.442 243.434 482.321 235.521 484.604 232.786L489.885 226.241C491.722 226.616 493.587 226.845 495.46 226.925C497.976 226.972 500.493 226.841 502.991 226.534L468.955 268.442L451.643 291.594L436.776 310.936C450.721 304.683 463.751 296.565 475.508 286.807C481.456 281.514 486.983 275.765 492.037 269.614L506.121 252.617L508.175 254.278L495.851 268.833C490.227 275.68 484.115 282.111 477.561 288.077C473.303 291.819 468.829 295.31 464.162 298.53C454.29 304.801 443.996 310.382 433.353 315.234C424.824 326.303 415.663 336.87 405.915 346.885C401.351 351.446 396.466 355.675 391.297 359.539C388.025 361.868 384.517 363.848 380.831 365.445C374.342 368.062 367.386 369.325 360.39 369.157C358.798 369.35 357.185 369.051 355.768 368.3C354.352 367.549 353.2 366.382 352.468 364.957C352.006 363.776 351.805 362.51 351.881 361.245C352.276 358.622 353.412 356.167 355.154 354.166C358.328 350.223 362.11 346.81 366.356 344.052C383.691 333.145 402.032 323.92 421.128 316.504L460.934 266.098L459.859 265.707C454.293 271.829 447.908 277.154 440.884 281.532C432.325 287.584 422.36 291.35 411.933 292.473C409.025 292.687 406.13 291.914 403.718 290.279C402.871 289.661 402.181 288.853 401.705 287.919C401.229 286.986 400.981 285.953 400.979 284.906C400.96 282.969 401.157 281.036 401.566 279.142C402.114 276.992 402.902 274.911 403.913 272.936C408.071 265.594 412.677 258.515 417.704 251.738C420.703 248.026 424.322 244.02 428.561 239.722L442.156 225.948L446.753 226.437C447.796 226.502 449.408 226.534 451.591 226.534C453.568 226.545 455.544 226.447 457.511 226.241C452.946 230.233 448.603 234.473 444.503 238.94L437.559 246.756C423.149 262.711 415.031 272.024 413.205 274.694C410.546 277.788 408.668 281.472 407.728 285.44ZM417.704 320.705C384.906 334.707 365.182 345.843 358.531 354.114C356.417 356.46 355.174 359.46 355.01 362.612C355.129 363.577 355.598 364.464 356.327 365.107C357.956 366.273 359.967 366.778 361.954 366.52C365.218 366.445 368.444 365.801 371.487 364.618C375.709 362.923 379.651 360.6 383.178 357.728C395.813 346.485 407.372 334.09 417.704 320.705Z" fill="white"/>
<path d="M544.558 292.473C538.038 292.473 534.777 290.454 534.777 286.416C535.337 281.765 537.318 277.399 540.45 273.913L546.612 266.098L545.634 265.707C534.679 279.188 524.344 287.654 514.629 291.106C512.403 291.932 510.058 292.394 507.684 292.473C499.664 292.473 495.654 288.207 495.654 279.676C495.939 268.939 500.229 258.696 507.684 250.956C519.552 237.15 531.484 228.976 543.482 226.437C546.504 225.784 549.583 225.424 552.675 225.362C554.693 225.312 556.711 225.494 558.687 225.903C560.043 226.215 561.346 226.724 562.554 227.414C563.577 227.941 564.443 228.73 565.061 229.7C565.68 230.67 566.03 231.787 566.075 232.936C566.086 235.059 565.687 237.164 564.901 239.136L574.486 227.316C576.07 227.809 577.717 228.072 579.377 228.097C582.154 228.154 584.931 228.024 587.69 227.706L554.729 267.367C546.905 276.485 542.993 282.9 542.993 286.612C542.993 288.696 544.232 289.738 546.709 289.738C549.689 289.611 552.607 288.845 555.264 287.491C558.66 285.894 561.888 283.963 564.901 281.728C568.173 279.318 571.291 276.708 574.239 273.913C577.271 271.047 580.074 268.247 582.65 265.511C585.226 262.776 587.493 260.236 589.451 257.892L594.145 252.617L596.199 254.277L591.211 259.943C572.433 281.63 556.882 292.473 544.558 292.473ZM517.466 257.306C508.272 268.442 503.675 277.559 503.675 284.658C503.675 287.914 505.142 289.542 508.076 289.542C517.596 289.542 531.322 279.025 549.253 257.99L557.468 248.123C560.464 244.377 562.48 239.946 563.337 235.228C563.47 234.3 563.384 233.352 563.087 232.462C562.79 231.572 562.29 230.763 561.626 230.1C560.961 229.436 560.151 228.936 559.26 228.64C558.369 228.343 557.421 228.257 556.491 228.39C550.296 228.39 541.396 233.665 529.789 244.215C525.397 248.302 521.28 252.675 517.466 257.306Z" fill="white"/>
<path d="M610.382 284.612C610.382 287.641 611.669 289.154 614.242 289.152C617.223 289.044 620.137 288.241 622.751 286.807C626.08 285.099 629.255 283.105 632.238 280.848C635.565 278.357 638.749 275.683 641.778 272.838L650.287 264.339C652.895 261.669 655.145 259.259 657.036 257.11L661.046 252.617L663.002 254.277C661.249 255.914 659.584 257.642 658.014 259.455L650.972 267.27C635.062 284.072 621.369 292.473 609.893 292.473C606.681 292.633 603.514 291.665 600.94 289.738C599.844 288.865 598.967 287.748 598.382 286.475C597.796 285.203 597.518 283.811 597.569 282.411C597.569 272.708 611.719 258.38 640.017 239.429C630.238 238.177 620.628 235.851 611.36 232.493C606.218 242.506 599.516 251.639 591.505 259.552C590.364 260.877 589.066 262.058 587.639 263.069C587.315 263.184 587.005 263.332 586.713 263.512C586.582 263.609 586.485 263.427 586.419 262.971C586.352 262.634 586.352 262.286 586.419 261.949C586.504 261.682 586.637 261.433 586.811 261.213C589.875 257.761 592.712 254.44 595.32 251.249C600.497 245.041 604.99 238.294 608.719 231.125C607.762 230.639 606.913 229.965 606.223 229.142C605.534 228.319 605.019 227.366 604.709 226.338C604.38 224.776 604.396 223.16 604.755 221.604C605.09 220.194 605.67 218.854 606.47 217.644C607.039 216.56 607.878 215.64 608.905 214.973C609.933 214.306 611.115 213.914 612.338 213.834C616.446 213.834 618.5 215.332 618.5 218.328C618.541 219.653 618.238 220.965 617.62 222.138L615.859 225.166C614.694 226.639 614.073 228.467 614.099 230.344C614.099 231.516 616.592 232.623 621.578 233.665C626.566 234.707 630.104 235.423 632.193 235.814C635.777 236.532 639.403 237.022 643.05 237.279C644.875 237.344 645.788 237.833 645.788 238.745C645.788 239.331 644.727 240.47 642.606 242.164C640.487 243.857 638.157 245.908 635.616 248.318C633.073 250.727 630.595 253.252 628.183 255.892C625.77 258.529 623.488 261.215 621.336 263.948C619.185 266.683 617.294 269.32 615.664 271.86C612.82 275.578 610.999 279.974 610.382 284.612Z" fill="white"/>
<path d="M697.723 265.707C681.748 283.551 669.033 292.473 659.578 292.473C657.861 292.691 656.116 292.506 654.482 291.934C652.849 291.361 651.371 290.417 650.165 289.175C648.96 287.934 648.061 286.429 647.539 284.78C647.017 283.132 646.886 281.384 647.157 279.676C647.508 268.916 651.868 258.674 659.383 250.956C674.054 233.893 689.54 225.362 705.841 225.362C707.877 225.201 709.923 225.525 711.81 226.306C713.697 227.087 715.372 228.303 716.697 229.856C717.338 230.63 717.715 231.588 717.773 232.591C717.784 233.13 717.767 233.669 717.721 234.206C717.687 234.48 717.671 234.757 717.675 235.033L766.187 165.479L786.727 136.466C788.846 137.442 791.142 137.974 793.475 138.029C795.37 138.039 797.264 137.942 799.148 137.736L706.232 267.856C702.45 272.936 699.596 276.958 697.671 279.923C696.099 281.969 695.105 284.398 694.789 286.957C694.789 288.683 695.604 289.545 697.234 289.542C705.15 288.93 712.675 285.856 718.751 280.751C727.779 273.781 735.895 265.708 742.91 256.72C744.54 254.636 745.681 253.268 746.333 252.617L748.484 254.277C747.767 254.994 746.511 256.426 744.716 258.576C742.922 260.725 740.705 263.199 738.065 266C735.424 268.8 732.457 271.763 729.164 274.889C725.878 278.011 722.365 280.884 718.653 283.486C712.326 288.678 704.561 291.813 696.399 292.473C689.976 292.473 686.799 290.374 686.866 286.176C686.932 281.975 690.811 275.282 698.505 266.098L697.723 265.707ZM669.359 257.501C660.035 268.833 655.373 277.885 655.373 284.658C655.278 285.322 655.339 285.998 655.551 286.634C655.763 287.27 656.121 287.848 656.595 288.322C657.07 288.795 657.648 289.153 658.285 289.365C658.922 289.576 659.599 289.637 660.263 289.543C666.066 289.543 674.152 284.821 684.519 275.378L692.539 267.661C696.703 263.643 700.5 259.262 703.885 254.571L712.59 242.165C713.915 239.796 714.684 237.157 714.839 234.447C714.911 233.534 714.731 232.618 714.317 231.8C713.903 230.982 713.271 230.294 712.492 229.811C711.025 228.893 709.332 228.402 707.601 228.391C705.372 228.527 703.192 229.109 701.192 230.104C698.092 231.558 695.158 233.342 692.442 235.424C683.907 241.854 676.16 249.263 669.359 257.501Z" fill="white"/>
<path d="M775.773 274.303C776.76 274.448 777.756 274.513 778.753 274.499C780.294 274.399 781.788 273.93 783.109 273.131C784.954 272.118 786.704 270.941 788.338 269.614C790.195 268.127 791.975 266.547 793.672 264.88C795.432 263.154 797.045 261.493 798.51 259.898C799.977 258.302 801.266 256.852 802.376 255.547L804.626 252.616L806.777 254.277C805.995 255.059 804.984 256.133 803.745 257.501L799.638 262.19C790.574 271.959 783.402 276.843 778.12 276.843H776.457C775.93 276.842 775.404 276.777 774.893 276.648C769.415 288.565 757.776 294.524 739.976 294.524C736.924 294.801 733.848 294.45 730.937 293.492C728.027 292.534 725.344 290.991 723.055 288.956C721.523 287.242 720.716 285 720.805 282.704C720.736 280.407 721.366 278.143 722.612 276.211C723.754 274.487 725.196 272.98 726.87 271.763C729.402 269.658 732.53 268.395 735.816 268.149C738.456 268.149 739.778 269.386 739.78 271.861C739.584 273.554 738.15 274.824 735.477 275.671C734.668 275.925 733.827 276.057 732.979 276.061C732.127 276.05 731.303 275.759 730.632 275.234C730.053 274.794 729.45 274.385 728.826 274.01C728.434 274.401 727.926 274.857 727.306 275.378C726.648 275.939 726.044 276.561 725.5 277.234C724.167 278.733 723.405 280.654 723.349 282.659C723.313 283.49 723.461 284.319 723.782 285.087C724.103 285.854 724.59 286.542 725.207 287.1C726.489 288.232 727.986 289.096 729.609 289.64C734.987 291.591 740.903 291.451 746.184 289.249C749.454 287.877 752.427 285.887 754.941 283.388C763.442 274.406 768.047 262.433 767.753 250.077C767.812 242.192 769.032 234.358 771.372 226.827C771.449 226.541 771.482 226.244 771.47 225.948L748.388 254.277C747.268 255.662 745.988 256.908 744.573 257.989C744.284 258.059 743.98 258.041 743.701 257.936C743.422 257.832 743.181 257.646 743.008 257.403C742.878 257.078 743.171 256.459 743.889 255.547C760.711 235.489 770.166 224.092 772.252 221.356C773.296 216.277 774.991 213.737 777.338 213.737C778.34 213.703 779.323 214.013 780.122 214.616C780.477 214.873 780.764 215.211 780.96 215.602C781.157 215.993 781.256 216.426 781.251 216.863C780.785 218.859 779.747 220.676 778.264 222.092C776.341 224.339 775.167 225.772 774.743 226.391C774.393 226.869 774.114 227.395 773.915 227.954C773.789 228.348 773.723 228.758 773.72 229.171V230.344C773.679 232.439 773.843 234.532 774.209 236.596L776.654 252.812C778.182 259.935 777.879 267.329 775.773 274.303Z" fill="white"/>
<path d="M242.812 183.077C242.812 182.506 242.936 181.969 242.98 181.409H57.9883V184.744H242.98C242.936 184.184 242.812 183.648 242.812 183.077Z" fill="white"/>
<path d="M264.445 190.28C268.428 190.28 271.657 187.055 271.657 183.077C271.657 179.1 268.428 175.875 264.445 175.875C260.463 175.875 257.234 179.1 257.234 183.077C257.234 187.055 260.463 190.28 264.445 190.28Z" fill="white"/>
<path d="M738.179 184.744L740.557 181.409H285.91C285.954 181.969 286.078 182.506 286.078 183.077C286.078 183.649 285.954 184.184 285.91 184.744H738.179Z" fill="white"/>
<path d="M783.173 181.409L780.797 184.744H869.011V181.409H783.173Z" fill="white"/>
</svg>
