<svg width="547" height="547" viewBox="0 0 547 547" fill="none" xmlns="http://www.w3.org/2000/svg">
<g clip-path="url(#clip0_1328_54530)">
<path d="M389.848 266.467C431.098 266.467 491.05 273.985 546.822 282.729C546.926 279.663 547 276.596 547 273.51C547 200.973 518.185 131.407 466.894 80.1161C415.603 28.8249 346.037 0.00976563 273.5 0.00976562C200.963 0.00976563 131.397 28.8249 80.1063 80.1161C28.8151 131.407 0 200.973 0 273.51C0 277.763 0.102216 281.991 0.306648 286.192C31.477 289.021 64.2697 290.999 95.079 290.999C203.691 290.999 291.296 266.467 389.848 266.467Z" fill="url(#paint0_linear_1328_54530)"/>
<path d="M292.186 228.045V201.514H310.056V270.265H292.186V242.092H266.382V274.064H248.512V201.514H266.382V228.045H292.186Z" fill="#3D4975"/>
<path d="M336.944 258.315L332.205 270.265H313.242L339.679 201.514H359.191L385.084 270.265H366.027L361.561 258.315H336.944ZM349.438 222.762H349.255L341.87 244.644H356.728L349.438 222.762Z" fill="#3D4975"/>
<path d="M141.156 290.909L138.162 260.609L136.033 239.054H86.1426L81.0117 290.909H141.156Z" fill="url(#paint1_linear_1328_54530)"/>
<path d="M133.575 184.54H88.6055V239.055H133.575V184.54Z" fill="url(#paint2_linear_1328_54530)"/>
<path d="M133.575 175.132H88.6055V184.539H133.575V175.132Z" fill="url(#paint3_linear_1328_54530)"/>
<path d="M146.004 240.055H76.1602V206.629H146.004V240.055ZM78.1683 238.056H144.001V208.637H78.1683V238.056Z" fill="white"/>
<path d="M100.847 207.628H98.8438V239.055H100.847V207.628Z" fill="white"/>
<path d="M89.6067 207.628H87.6035V239.055H89.6067V207.628Z" fill="white"/>
<path d="M112.083 207.628H110.08V239.055H112.083V207.628Z" fill="white"/>
<path d="M134.573 207.628H132.57V239.055H134.573V207.628Z" fill="white"/>
<path d="M123.331 207.628H121.328V239.055H123.331V207.628Z" fill="white"/>
<path d="M109.098 144.969H113.08L110.863 85.7949L109.098 144.969Z" fill="url(#paint4_linear_1328_54530)"/>
<path d="M119.073 151.855C119.075 153.434 118.609 154.979 117.733 156.293C116.858 157.607 115.612 158.631 114.153 159.237C112.695 159.843 111.09 160.003 109.541 159.697C107.992 159.39 106.569 158.631 105.451 157.515C104.333 156.4 103.572 154.978 103.262 153.429C102.953 151.881 103.11 150.275 103.713 148.816C104.316 147.357 105.338 146.109 106.651 145.231C107.963 144.353 109.506 143.883 111.086 143.882C113.201 143.884 115.23 144.724 116.727 146.218C118.224 147.713 119.068 149.74 119.073 151.855Z" fill="url(#paint5_linear_1328_54530)"/>
<path d="M133.575 176.566C133.579 173.611 133 170.684 131.872 167.953C130.744 165.222 129.088 162.74 127 160.649C124.912 158.558 122.432 156.899 119.702 155.767C116.972 154.635 114.046 154.053 111.09 154.053C108.135 154.053 105.209 154.635 102.479 155.767C99.7494 156.899 97.2694 158.558 95.1811 160.649C93.0928 162.74 91.4371 165.222 90.3088 167.953C89.1805 170.684 88.6017 173.611 88.6055 176.566H133.575Z" fill="url(#paint6_linear_1328_54530)"/>
<path d="M406.229 255.13H427.656V270.265H388.359V201.514H406.23L406.229 255.13Z" fill="#3D4975"/>
<path d="M449.072 216.649V228.144H468.679V243.279H449.072V270.265H431.207V201.514H470.682V216.649H449.072Z" fill="#3D4975"/>
<path d="M260.828 56.9396C260.828 56.9396 300.174 54.6741 313.687 81.7691C341.984 61.4999 368.821 86.1117 368.821 86.1117C368.821 86.1117 320.033 73.3607 307.074 96.3403C300.961 67.3064 260.828 56.9396 260.828 56.9396Z" fill="#1F6A95"/>
<path d="M261.564 54.5357C261.564 54.5357 300.921 52.2801 314.428 79.3751C342.74 59.1057 369.563 83.7176 369.563 83.7176C369.563 83.7176 320.784 70.9566 307.816 93.9463C301.702 64.9125 261.564 54.5357 261.564 54.5357Z" fill="white"/>
<path d="M358.223 112.801C358.223 112.801 384.615 111.287 393.681 129.459C412.664 115.857 430.653 132.368 430.653 132.368C430.653 132.368 397.94 123.821 389.245 139.223C385.149 119.755 358.223 112.801 358.223 112.801Z" fill="#1F6A95"/>
<path d="M358.727 111.198C358.727 111.198 385.119 109.675 394.18 127.847C413.163 114.245 431.167 130.755 431.167 130.755C431.167 130.755 398.444 122.198 389.739 137.621C385.643 118.143 358.727 111.198 358.727 111.198Z" fill="white"/>
<path d="M212.367 80.0872C212.367 80.0872 232.161 78.9595 238.962 92.5909C253.192 82.3922 266.7 94.7673 266.7 94.7673C266.7 94.7673 242.153 88.357 235.629 99.921C232.552 85.3103 212.367 80.0872 212.367 80.0872Z" fill="#1F6A95"/>
<path d="M212.742 78.8905C212.742 78.8905 232.546 77.7529 239.332 91.3843C253.567 81.1856 267.075 93.5607 267.075 93.5607C267.075 93.5607 242.533 87.1409 236.004 98.7147C232.932 84.1037 212.742 78.8905 212.742 78.8905Z" fill="white"/>
<path d="M306.732 129.133C306.732 129.133 319.924 128.361 324.454 137.452C333.946 130.646 342.943 138.897 342.943 138.897C342.943 138.897 326.586 134.623 322.243 142.339C320.186 132.605 306.732 129.133 306.732 129.133Z" fill="#1F6A95"/>
<path d="M306.984 128.312C306.984 128.312 320.175 127.56 324.716 136.651C334.208 129.845 343.2 138.095 343.2 138.095C343.2 138.095 326.838 133.822 322.5 141.528C320.448 131.784 306.984 128.312 306.984 128.312Z" fill="white"/>
<path d="M273.495 547C344.432 547 412.593 519.437 463.591 470.129C514.589 420.821 544.432 353.626 546.822 282.729C491.05 273.985 431.093 266.467 389.847 266.467C218.826 266.467 192.864 291 95.079 291C64.2697 291 31.477 289.021 0.306641 286.192C3.56988 356.453 33.7769 422.755 84.6518 471.325C135.527 519.894 203.158 546.996 273.495 547Z" fill="url(#paint7_linear_1328_54530)"/>
<path d="M166.244 307.529H166.111L160.328 340.262H153.953L164.073 288.595L181.097 327.64L198.122 288.595L208.246 340.262H201.871L196.084 307.529H195.955L181.097 341.311L166.244 307.529Z" fill="white"/>
<path d="M219.132 327.838L213.478 340.262H206.836L230.503 288.595L254.165 340.262H247.523L241.874 327.838H219.132ZM230.503 302.138L221.694 322.18H239.307L230.503 302.138Z" fill="white"/>
<path d="M287.473 340.262H279.98L265.384 319.291H262.822V340.262H256.645V290.702H264.138C268.623 290.332 273.129 291.122 277.22 292.997C279.232 294.242 280.888 295.985 282.028 298.058C283.167 300.131 283.752 302.463 283.724 304.828C283.843 308.211 282.686 311.515 280.482 314.084C278.279 316.653 275.19 318.3 271.829 318.697L287.473 340.262ZM262.822 314.167H264.795C271.107 314.167 277.942 312.98 277.942 305.096C277.942 297.34 270.577 296.222 264.464 296.222H262.822L262.822 314.167Z" fill="white"/>
<path d="M297.711 327.838L292.058 340.262H285.42L309.082 288.595L332.744 340.262H326.107L320.453 327.838H297.711ZM309.082 302.138L300.273 322.18H317.891L309.082 302.138Z" fill="white"/>
<path d="M343.31 340.263H337.132V296.351H325.365V290.703H355.076V296.351H343.31V340.263Z" fill="white"/>
<path d="M387.538 310.685V290.703H393.716V340.263H387.538V316.462H363.94V340.263H357.758V290.703H363.94V310.685H387.538Z" fill="white"/>
<path d="M449.429 315.483C449.393 322.344 446.643 328.913 441.778 333.752C436.914 338.592 430.331 341.308 423.469 341.308C416.608 341.308 410.025 338.592 405.16 333.752C400.296 328.913 397.545 322.344 397.51 315.483C397.545 308.621 400.296 302.052 405.16 297.213C410.025 292.373 416.608 289.657 423.469 289.657C430.331 289.657 436.914 292.373 441.778 297.213C446.643 302.052 449.393 308.621 449.429 315.483ZM443.256 315.483C443.291 312.862 442.806 310.261 441.827 307.829C440.849 305.398 439.397 303.186 437.556 301.32C435.716 299.454 433.523 297.973 431.105 296.962C428.687 295.951 426.093 295.43 423.472 295.43C420.851 295.43 418.256 295.951 415.839 296.962C413.421 297.973 411.228 299.454 409.387 301.32C407.546 303.186 406.095 305.398 405.116 307.829C404.138 310.261 403.652 312.862 403.687 315.483C403.654 318.102 404.14 320.702 405.12 323.132C406.099 325.562 407.551 327.773 409.391 329.638C411.232 331.502 413.424 332.983 415.841 333.993C418.258 335.003 420.852 335.523 423.472 335.523C426.092 335.523 428.685 335.003 431.102 333.993C433.52 332.983 435.712 331.502 437.552 329.638C439.393 327.773 440.845 325.562 441.824 323.132C442.803 320.702 443.29 318.102 443.256 315.483Z" fill="white"/>
<path d="M453.158 288.329L490.358 327.314V290.703H496.54V342.301L459.336 303.315V340.263H453.158L453.158 288.329Z" fill="white"/>
<path d="M151.731 372.541C151.715 371.119 151.925 369.703 152.355 368.347C152.731 367.144 153.358 366.035 154.195 365.092C155.034 364.178 156.068 363.464 157.222 363.005C159.933 362.029 162.899 362.029 165.61 363.005C166.763 363.464 167.798 364.178 168.637 365.092C169.476 366.034 170.104 367.144 170.482 368.347C170.907 369.704 171.116 371.119 171.101 372.541C171.116 373.937 170.908 375.327 170.482 376.656C170.099 377.84 169.471 378.928 168.637 379.851C167.799 380.757 166.763 381.458 165.61 381.899C162.897 382.862 159.935 382.862 157.222 381.899C156.069 381.458 155.033 380.757 154.195 379.851C153.363 378.928 152.736 377.839 152.355 376.656C151.925 375.327 151.715 373.938 151.731 372.541ZM164.67 372.541C164.745 371.26 164.466 369.984 163.864 368.851C163.605 368.438 163.24 368.101 162.807 367.877C162.374 367.652 161.888 367.548 161.401 367.575C160.916 367.545 160.432 367.647 160.001 367.872C159.571 368.097 159.21 368.436 158.958 368.851C158.364 369.986 158.09 371.262 158.166 372.541C158.093 373.807 158.367 375.069 158.958 376.191C159.21 376.607 159.571 376.945 160.001 377.17C160.432 377.395 160.916 377.498 161.401 377.468C161.888 377.495 162.374 377.391 162.807 377.166C163.24 376.942 163.605 376.605 163.864 376.191C164.463 375.072 164.742 373.809 164.67 372.541Z" fill="#FFBB4E"/>
<path d="M186.034 362.342C187.143 362.344 188.25 362.44 189.343 362.629C190.413 362.804 191.432 363.209 192.33 363.816C193.269 364.477 194.02 365.37 194.511 366.408C195.132 367.817 195.421 369.35 195.357 370.889V382.126C194.774 382.244 194.184 382.326 193.591 382.374C193.062 382.413 192.597 382.433 192.196 382.433C191.771 382.433 191.296 382.413 190.772 382.374C190.177 382.327 189.586 382.244 189.001 382.126V371.561C189.095 370.55 188.828 369.537 188.249 368.702C187.953 368.4 187.594 368.166 187.198 368.017C186.801 367.868 186.377 367.808 185.955 367.842C185.66 367.841 185.365 367.865 185.074 367.911C184.873 367.929 184.676 367.979 184.491 368.059V382.126C183.906 382.244 183.314 382.326 182.72 382.373C182.195 382.413 181.731 382.433 181.33 382.433C180.9 382.433 180.425 382.413 179.901 382.373C179.308 382.326 178.718 382.244 178.135 382.126V363.667C179.184 363.316 180.25 363.019 181.33 362.777C182.877 362.46 184.454 362.314 186.034 362.342Z" fill="#FFBB4E"/>
<path d="M216.115 355.2C216.639 355.131 217.213 355.062 217.821 355.002C218.391 354.937 218.964 354.904 219.537 354.903C220.083 354.905 220.628 354.938 221.17 355.002C221.758 355.062 222.302 355.131 222.807 355.2L228.144 369.198L233.673 355.2C234.173 355.131 234.682 355.062 235.197 355.002C235.702 354.935 236.211 354.902 236.72 354.903C237.261 354.903 237.801 354.936 238.338 355.002C238.887 355.062 239.426 355.131 239.955 355.2L241.231 382.058C240.835 382.127 240.39 382.206 239.896 382.275C239.255 382.365 238.608 382.404 237.962 382.394C236.914 382.373 235.869 382.26 234.841 382.058L234.316 366.487L230.181 376.755C229.726 376.825 229.271 376.884 228.826 376.943C228.412 376.989 227.996 377.012 227.58 377.013C227.209 377.013 226.818 376.993 226.417 376.963C226 376.921 225.585 376.851 225.176 376.755L221.491 366.636L221.075 382.058C220.087 382.272 219.079 382.384 218.068 382.394C217.045 382.375 216.025 382.263 215.021 382.058L216.115 355.2Z" fill="#FFBB4E"/>
<path d="M248.116 372.541C248.1 371.118 248.31 369.702 248.739 368.346C249.115 367.144 249.742 366.034 250.579 365.092C251.418 364.177 252.453 363.464 253.606 363.005C254.938 362.495 256.355 362.247 257.781 362.273C259.219 362.245 260.65 362.493 261.995 363.005C263.147 363.466 264.181 364.179 265.022 365.092C265.857 366.035 266.484 367.144 266.862 368.346C267.291 369.702 267.502 371.118 267.485 372.541C267.502 373.937 267.291 375.327 266.862 376.656C266.479 377.838 265.852 378.927 265.022 379.851C264.181 380.755 263.146 381.455 261.995 381.899C260.648 382.402 259.218 382.647 257.781 382.621C256.356 382.645 254.94 382.4 253.606 381.899C252.453 381.457 251.418 380.757 250.579 379.851C249.747 378.928 249.12 377.839 248.739 376.656C248.31 375.327 248.099 373.937 248.116 372.541ZM261.055 372.541C261.131 371.259 260.85 369.982 260.244 368.851C259.986 368.436 259.621 368.099 259.188 367.875C258.754 367.65 258.268 367.546 257.781 367.575C257.296 367.545 256.812 367.648 256.382 367.873C255.951 368.098 255.59 368.436 255.337 368.851C254.746 369.987 254.472 371.262 254.546 372.541C254.475 373.807 254.749 375.068 255.337 376.191C255.59 376.606 255.951 376.944 256.382 377.169C256.812 377.394 257.296 377.497 257.781 377.467C258.268 377.495 258.754 377.392 259.188 377.167C259.621 376.943 259.986 376.605 260.244 376.191C260.847 375.073 261.128 373.809 261.055 372.541Z" fill="#FFBB4E"/>
<path d="M282.414 362.342C283.523 362.344 284.63 362.44 285.723 362.629C286.794 362.804 287.815 363.209 288.715 363.816C289.654 364.477 290.405 365.37 290.896 366.407C291.517 367.817 291.806 369.35 291.742 370.889V382.126C291.157 382.244 290.566 382.327 289.971 382.374C289.442 382.413 288.982 382.433 288.581 382.433C288.156 382.433 287.681 382.413 287.152 382.374C286.557 382.327 285.966 382.244 285.381 382.126V371.561C285.473 370.55 285.209 369.539 284.634 368.702C284.338 368.4 283.979 368.166 283.582 368.018C283.186 367.869 282.762 367.809 282.339 367.842C282.043 367.842 281.747 367.865 281.454 367.911C281.253 367.929 281.056 367.979 280.871 368.059V382.126C280.286 382.244 279.694 382.326 279.1 382.373C278.58 382.413 278.11 382.433 277.71 382.433C277.284 382.433 276.81 382.413 276.281 382.373C275.689 382.326 275.101 382.244 274.52 382.126V363.667C275.567 363.316 276.632 363.019 277.71 362.777C279.257 362.46 280.834 362.314 282.414 362.342Z" fill="#FFBB4E"/>
<path d="M303.474 368.03H297.905C297.787 367.566 297.706 367.093 297.663 366.616C297.623 366.18 297.604 365.755 297.604 365.359C297.604 364.954 297.623 364.538 297.663 364.113C297.706 363.646 297.787 363.182 297.905 362.728H315.395C315.513 363.182 315.594 363.646 315.637 364.113C315.676 364.538 315.696 364.954 315.696 365.359C315.696 365.755 315.676 366.18 315.637 366.616C315.594 367.093 315.513 367.566 315.395 368.03H309.83V382.127C309.177 382.226 308.584 382.305 308.06 382.354C307.535 382.404 307.061 382.433 306.63 382.433C306.205 382.433 305.73 382.404 305.201 382.354C304.676 382.305 304.097 382.226 303.474 382.127L303.474 368.03Z" fill="#FFBB4E"/>
<path d="M327.2 374.46C327.38 375.346 327.898 376.126 328.644 376.636C329.478 377.098 330.423 377.321 331.375 377.279C332.196 377.269 333.014 377.18 333.818 377.012C334.732 376.838 335.627 376.573 336.489 376.221C336.874 376.966 337.182 377.748 337.409 378.555C337.672 379.473 337.818 380.42 337.844 381.375C335.655 382.197 333.337 382.619 330.999 382.621C329.418 382.655 327.844 382.4 326.354 381.869C325.153 381.428 324.071 380.713 323.194 379.782C322.366 378.869 321.75 377.785 321.388 376.606C320.605 373.979 320.61 371.179 321.403 368.554C321.78 367.352 322.395 366.238 323.213 365.28C324.039 364.332 325.067 363.582 326.221 363.084C327.55 362.516 328.985 362.24 330.43 362.273C331.65 362.251 332.861 362.483 333.986 362.955C334.99 363.379 335.893 364.009 336.637 364.805C337.387 365.635 337.956 366.612 338.309 367.674C338.707 368.839 338.905 370.063 338.893 371.294C338.897 371.906 338.866 372.517 338.799 373.124C338.734 373.659 338.68 374.104 338.631 374.46L327.2 374.46ZM330.207 367.05C329.448 367.033 328.71 367.301 328.14 367.802C327.51 368.418 327.144 369.256 327.121 370.137H333.14C333.118 369.333 332.833 368.558 332.329 367.931C332.066 367.632 331.739 367.397 331.371 367.244C331.003 367.091 330.605 367.025 330.207 367.05Z" fill="#FFBB4E"/>
<path d="M345.738 362.797C346.915 362.649 348.142 362.52 349.408 362.422C350.67 362.323 351.871 362.273 352.999 362.273C355.398 362.104 357.789 362.703 359.825 363.985C360.567 364.537 361.163 365.264 361.56 366.1C361.956 366.937 362.142 367.857 362.1 368.782C362.111 369.467 362.023 370.15 361.838 370.81C361.685 371.329 361.469 371.827 361.195 372.294C360.984 372.666 360.717 373.003 360.403 373.293C360.132 373.54 359.904 373.738 359.731 373.896L364.019 382.097C363.465 382.201 362.905 382.274 362.342 382.315C361.729 382.364 361.131 382.394 360.557 382.394C359.854 382.394 359.177 382.364 358.524 382.315C357.982 382.282 357.443 382.209 356.912 382.097L352.732 373.214L353.261 372.917C353.991 372.547 354.612 371.995 355.067 371.314C355.39 370.763 355.559 370.134 355.556 369.494C355.579 368.903 355.367 368.328 354.968 367.892C354.718 367.667 354.424 367.496 354.105 367.391C353.785 367.285 353.448 367.247 353.113 367.278C352.747 367.269 352.381 367.292 352.02 367.348V382.127C351.435 382.244 350.844 382.327 350.249 382.374C349.725 382.414 349.26 382.433 348.859 382.433C348.434 382.433 347.969 382.414 347.469 382.374C346.888 382.325 346.31 382.242 345.738 382.127L345.738 362.797Z" fill="#FFBB4E"/>
<path d="M374.851 374.46C375.029 375.347 375.548 376.128 376.295 376.636C377.129 377.098 378.073 377.321 379.025 377.279C379.847 377.269 380.665 377.18 381.469 377.012C382.383 376.838 383.278 376.573 384.14 376.221C384.522 376.967 384.831 377.749 385.06 378.556C385.323 379.473 385.469 380.42 385.495 381.375C383.306 382.197 380.988 382.619 378.65 382.621C377.069 382.656 375.495 382.401 374.005 381.869C372.804 381.428 371.722 380.714 370.845 379.782C370.016 378.869 369.398 377.785 369.034 376.607C368.638 375.302 368.443 373.944 368.456 372.581C368.445 371.216 368.647 369.858 369.054 368.555C369.429 367.352 370.045 366.237 370.865 365.28C371.69 364.333 372.718 363.583 373.872 363.084C375.201 362.517 376.636 362.24 378.081 362.273C379.301 362.251 380.512 362.484 381.637 362.956C382.641 363.379 383.544 364.01 384.288 364.806C385.036 365.637 385.605 366.613 385.96 367.674C386.359 368.839 386.556 370.064 386.544 371.295C386.548 371.906 386.517 372.517 386.45 373.125C386.386 373.659 386.331 374.104 386.277 374.46L374.851 374.46ZM377.858 367.051C377.099 367.032 376.361 367.301 375.791 367.803C375.159 368.417 374.793 369.256 374.772 370.137H380.786C380.768 369.333 380.485 368.558 379.98 367.931C379.717 367.632 379.39 367.397 379.022 367.244C378.654 367.092 378.256 367.025 377.858 367.051Z" fill="#FFBB4E"/>
<path d="M404.591 362.728C404.97 362.649 405.353 362.597 405.739 362.57C406.303 362.52 406.911 362.5 407.564 362.5C408.39 362.5 409.127 362.52 409.78 362.57C410.433 362.629 410.898 362.669 411.175 362.728L403.914 375.321V382.127C403.266 382.226 402.677 382.305 402.148 382.354C401.619 382.404 401.144 382.433 400.719 382.433C400.293 382.433 399.814 382.404 399.289 382.354C398.76 382.305 398.186 382.226 397.558 382.127V375.321L390.342 362.728C390.614 362.669 391.098 362.629 391.786 362.57C392.478 362.52 393.235 362.5 394.061 362.5C394.714 362.5 395.352 362.52 395.98 362.57C396.397 362.594 396.812 362.647 397.222 362.728L400.906 370.137L404.591 362.728Z" fill="#FFBB4E"/>
<path d="M448.438 374.272C448.493 375.692 448.183 377.102 447.538 378.367C446.953 379.425 446.096 380.306 445.055 380.919C443.894 381.588 442.62 382.037 441.296 382.245C439.728 382.503 438.141 382.629 436.553 382.621C435.202 382.621 433.985 382.571 432.907 382.462C431.829 382.364 430.662 382.245 429.41 382.096V355.2C430.365 355.051 431.403 354.923 432.531 354.824C433.659 354.725 434.975 354.676 436.478 354.676C437.822 354.668 439.163 354.787 440.485 355.032C441.633 355.236 442.735 355.645 443.739 356.239C444.653 356.79 445.411 357.567 445.94 358.494C446.514 359.587 446.792 360.812 446.746 362.045C446.762 363.167 446.489 364.274 445.955 365.26C445.49 366.162 444.805 366.932 443.961 367.496C444.551 367.731 445.114 368.029 445.638 368.386C446.185 368.757 446.668 369.215 447.068 369.742C447.508 370.326 447.844 370.982 448.062 371.68C448.327 372.518 448.454 373.393 448.438 374.272ZM435.915 365.468H436.968C437.857 365.522 438.739 365.29 439.486 364.805C439.81 364.53 440.062 364.18 440.22 363.785C440.378 363.39 440.436 362.963 440.391 362.54C440.409 362.077 440.298 361.617 440.069 361.214C439.872 360.878 439.595 360.596 439.263 360.393C438.926 360.191 438.556 360.051 438.17 359.977C437.786 359.908 437.397 359.872 437.008 359.869H436.459C436.276 359.865 436.094 359.878 435.915 359.908V365.468ZM435.915 370.81V377.131C436.093 377.151 436.31 377.17 436.572 377.18C436.834 377.2 437.181 377.2 437.606 377.2C438.094 377.199 438.582 377.149 439.06 377.052C439.529 376.959 439.979 376.789 440.391 376.547C440.791 376.311 441.122 375.973 441.35 375.568C441.603 375.087 441.726 374.548 441.706 374.005C441.758 373.519 441.675 373.029 441.467 372.588C441.258 372.146 440.932 371.771 440.524 371.502C439.582 371.002 438.523 370.763 437.457 370.81L435.915 370.81Z" fill="#FFBB4E"/>
<path d="M454.492 375.815C454.452 374.744 454.727 373.684 455.283 372.768C455.794 371.974 456.49 371.315 457.311 370.849C458.164 370.365 459.092 370.027 460.057 369.85C461.024 369.667 462.005 369.574 462.99 369.573H465.29C465.281 369.167 465.148 368.773 464.909 368.445C464.685 368.143 464.389 367.901 464.048 367.743C463.677 367.576 463.284 367.463 462.881 367.406C462.445 367.346 462.005 367.317 461.565 367.317C460.859 367.324 460.154 367.39 459.458 367.515C458.614 367.668 457.783 367.89 456.975 368.178C456.748 367.753 456.555 367.357 456.392 367.011C456.231 366.668 456.105 366.31 456.016 365.942C455.927 365.568 455.864 365.188 455.828 364.805C455.793 364.419 455.773 363.974 455.773 363.479C456.945 363.085 458.146 362.78 459.364 362.569C460.426 362.383 461.501 362.284 462.579 362.272C463.775 362.258 464.966 362.418 466.116 362.747C467.107 363.023 468.024 363.516 468.801 364.191C469.565 364.876 470.154 365.735 470.518 366.694C470.941 367.857 471.144 369.088 471.116 370.325V381.334C470.162 381.612 469.007 381.889 467.654 382.166C466.244 382.448 464.809 382.587 463.371 382.581C462.163 382.591 460.957 382.471 459.775 382.225C458.777 382.023 457.828 381.633 456.975 381.077C456.199 380.551 455.571 379.831 455.155 378.99C454.685 377.999 454.458 376.911 454.492 375.815ZM463.371 377.912C463.696 377.907 464.022 377.884 464.345 377.843C464.662 377.811 464.978 377.762 465.29 377.695V373.55H463.143C462.364 373.522 461.594 373.721 460.927 374.124C460.647 374.278 460.414 374.507 460.255 374.784C460.095 375.061 460.015 375.377 460.022 375.697C459.997 376.12 460.118 376.538 460.363 376.884C460.585 377.17 460.876 377.394 461.209 377.536C461.553 377.695 461.921 377.798 462.297 377.843C462.653 377.889 463.012 377.912 463.371 377.912Z" fill="#FFBB4E"/>
<path d="M489.807 362.728C490.184 362.649 490.566 362.596 490.95 362.57C491.514 362.52 492.122 362.5 492.775 362.5C493.606 362.5 494.343 362.52 494.996 362.57C495.644 362.629 496.109 362.669 496.386 362.728L489.125 375.321V382.127C488.477 382.226 487.888 382.305 487.359 382.354C486.835 382.404 486.355 382.433 485.93 382.433C485.504 382.433 485.029 382.404 484.5 382.354C483.971 382.305 483.397 382.226 482.774 382.127V375.321L475.553 362.728C475.83 362.669 476.309 362.629 476.997 362.57C477.689 362.52 478.446 362.5 479.272 362.5C479.925 362.5 480.563 362.52 481.191 362.57C481.608 362.593 482.023 362.646 482.433 362.728L486.118 370.137L489.807 362.728Z" fill="#FFBB4E"/>
<path d="M249.412 506.61C246.735 500.045 244.794 493.204 243.625 486.212C241.181 479.485 224.572 466.804 220.022 458.633C215.476 450.452 209.239 438.443 209.803 430.331C210.337 422.21 216.5 412.07 223.959 409.043C228.163 407.539 226.818 414.355 226.818 414.355C226.818 414.355 261.648 427.423 277.822 448.503C278.778 450.026 279.328 451.767 279.422 453.563C279.515 455.358 279.148 457.147 278.356 458.761C282.388 454.786 287.726 452.41 293.378 452.074C307.153 450.488 321 449.606 334.866 449.433C345.04 449.542 357.104 453.103 360.21 452.935C363.306 452.767 370.27 448.345 372.891 451.194C375.265 459.523 362.549 470.84 313.825 484.145L279.108 492.385L269.097 498.854L261.579 506.956L249.412 506.61Z" fill="#44B2E8"/>
<path d="M234.822 544.25C247.633 546.074 260.556 546.993 273.496 547C274.648 547 275.781 546.931 276.928 546.921C276.874 546.664 276.797 546.412 276.696 546.169C271.7 534.981 270.157 518.431 269.816 508.737C269.645 505.691 270.488 502.674 272.215 500.159C273.941 497.644 276.453 495.773 279.357 494.838C281.696 493.987 354.79 472.422 361.309 466.477C340.357 473.392 283.492 484.916 275.103 490.04C269.564 493.414 268.342 499.309 262.12 502.336C249.245 508.598 255.042 487.142 265.409 468.515C244.605 488.735 237.295 525.168 234.822 544.25Z" fill="#3D4975"/>
</g>
<defs>
<linearGradient id="paint0_linear_1328_54530" x1="273.5" y1="91.9772" x2="273.5" y2="314.33" gradientUnits="userSpaceOnUse">
<stop stop-color="#44B2E8"/>
<stop offset="1" stop-color="#FFBB4E"/>
</linearGradient>
<linearGradient id="paint1_linear_1328_54530" x1="81.0132" y1="264.983" x2="141.158" y2="264.983" gradientUnits="userSpaceOnUse">
<stop stop-color="white"/>
<stop offset="1" stop-color="#BBBDBF"/>
</linearGradient>
<linearGradient id="paint2_linear_1328_54530" x1="88.6055" y1="211.798" x2="133.575" y2="211.798" gradientUnits="userSpaceOnUse">
<stop stop-color="#D57D32"/>
<stop offset="1" stop-color="#F9DDC9"/>
</linearGradient>
<linearGradient id="paint3_linear_1328_54530" x1="88.6055" y1="179.836" x2="133.575" y2="179.836" gradientUnits="userSpaceOnUse">
<stop stop-color="white"/>
<stop offset="1" stop-color="#BBBDBF"/>
</linearGradient>
<linearGradient id="paint4_linear_1328_54530" x1="109.097" y1="115.383" x2="113.078" y2="115.383" gradientUnits="userSpaceOnUse">
<stop stop-color="white"/>
<stop offset="1" stop-color="#BBBDBF"/>
</linearGradient>
<linearGradient id="paint5_linear_1328_54530" x1="103.107" y1="151.86" x2="119.073" y2="151.86" gradientUnits="userSpaceOnUse">
<stop stop-color="white"/>
<stop offset="1" stop-color="#BBBDBF"/>
</linearGradient>
<linearGradient id="paint6_linear_1328_54530" x1="88.6055" y1="165.319" x2="133.575" y2="165.319" gradientUnits="userSpaceOnUse">
<stop stop-color="white"/>
<stop offset="1" stop-color="#BBBDBF"/>
</linearGradient>
<linearGradient id="paint7_linear_1328_54530" x1="273.564" y1="329.318" x2="273.564" y2="474.407" gradientUnits="userSpaceOnUse">
<stop stop-color="#3D4975"/>
<stop offset="1" stop-color="#1F6A95"/>
</linearGradient>
<clipPath id="clip0_1328_54530">
<rect width="547" height="547" fill="white"/>
</clipPath>
</defs>
</svg>
