<svg width="548" height="270" viewBox="0 0 548 270" fill="none" xmlns="http://www.w3.org/2000/svg">
<g clip-path="url(#clip0_1328_54512)">
<path d="M547.651 84.365L508.384 18.04L488.773 157.407L546.911 89.7645C547.455 88.9877 547.805 88.0928 547.934 87.1539C548.062 86.2151 547.965 85.2591 547.651 84.365Z" fill="#F05A28"/>
<path d="M476.243 0.000348596H163.933C161.293 0.0758758 158.761 1.06891 156.775 2.80837C154.789 4.54782 153.472 6.92476 153.052 9.52965L149.047 37.9922H298.513C300.225 37.9494 301.926 38.283 303.494 38.9692C305.063 39.6555 306.461 40.6777 307.59 41.9635C308.72 43.2493 309.552 44.7672 310.029 46.4099C310.506 48.0527 310.616 49.78 310.35 51.4697L308.961 62.769H345.621C346.926 62.7364 348.222 62.9906 349.417 63.5136C350.613 64.0366 351.678 64.8157 352.539 65.7957C353.4 66.7756 354.034 67.9326 354.398 69.1846C354.761 70.4366 354.845 71.7531 354.642 73.0409L352.324 91.9019H390.31C391.278 91.8777 392.24 92.0664 393.127 92.4545C394.014 92.8427 394.805 93.4209 395.444 94.1482C396.083 94.8755 396.554 95.7341 396.824 96.6633C397.093 97.5925 397.155 98.5696 397.005 99.5254L388.571 168.138C388.276 170.216 387.253 172.122 385.684 173.518C384.115 174.914 382.101 175.709 380.001 175.762H451.512C454.153 175.686 456.684 174.693 458.67 172.954C460.657 171.214 461.973 168.837 462.393 166.232L484.443 9.52965C484.658 8.34499 484.605 7.12733 484.289 5.96549C483.973 4.80364 483.402 3.72691 482.616 2.81383C481.83 1.90075 480.85 1.17434 479.748 0.687609C478.645 0.200873 477.448 -0.0339225 476.243 0.000348596Z" fill="url(#paint0_linear_1328_54512)"/>
<path d="M388.571 168.138L397.005 99.5254C397.155 98.5696 397.093 97.5926 396.824 96.6634C396.554 95.7342 396.083 94.8755 395.444 94.1482C394.805 93.4209 394.014 92.8427 393.127 92.4546C392.24 92.0664 391.278 91.8778 390.31 91.902H352.324L343.277 165.489C342.881 168.289 341.503 170.858 339.388 172.739C337.274 174.619 334.561 175.69 331.73 175.761H380.001C382.101 175.709 384.115 174.914 385.684 173.518C387.253 172.122 388.276 170.216 388.571 168.138Z" fill="#F05A28"/>
<path d="M345.622 62.7689H308.962L305.381 91.9019L295.44 172.767C295.305 173.788 295.061 174.792 294.711 175.761H331.732C334.562 175.691 337.275 174.619 339.389 172.739C341.504 170.858 342.882 168.289 343.279 165.49L352.325 91.9021L354.643 73.0411C354.846 71.7533 354.762 70.4367 354.399 69.1847C354.035 67.9326 353.401 66.7757 352.54 65.7957C351.679 64.8157 350.614 64.0366 349.418 63.5135C348.223 62.9905 346.927 62.7363 345.622 62.7689Z" fill="#F6921E"/>
<path d="M32.6106 241.585L32.5249 242.093C35.8369 243.027 37.96 245.571 38.8944 250.661L42.6321 268.982H33.968L30.4875 250.576C29.7244 246.335 27.8556 244.893 24.2037 244.893L11.7191 244.808L8.32145 268.983H0L8.23827 210.455C14.927 209.819 21.6465 209.564 28.3642 209.691C40.4232 209.691 47.4728 213.593 45.6896 226.995C44.501 235.563 40.9319 240.566 32.6106 241.585ZM24.458 237.598C32.6106 237.514 35.9226 235.053 37.1113 226.826C38.2144 219.277 36.0912 216.986 28.1099 216.986C23.1835 216.986 18.9372 217.071 15.6252 217.071L12.7391 237.598L24.458 237.598Z" fill="#58595B"/>
<path d="M67.5989 251.339L59.7006 268.983H50.6992L77.0261 212.576C77.2801 211.916 77.7384 211.355 78.3341 210.973C78.9298 210.592 79.6318 210.41 80.338 210.455H88.9993C89.689 210.444 90.3579 210.69 90.8761 211.145C91.3942 211.6 91.7244 212.231 91.8025 212.915L102.418 268.983H93.9257L91.0396 251.34L67.5989 251.339ZM86.1131 221.906C85.7731 220.209 85.6044 218.514 85.433 216.817H82.887L80.6781 221.906L70.9108 243.874H89.7651L86.1131 221.906Z" fill="#58595B"/>
<path d="M158.556 211.218L157.198 217.664C152.205 217.147 147.187 216.921 142.167 216.987C131.38 216.987 126.797 221.312 124.248 240.058C121.784 257.108 124.416 262.367 134.863 262.451C140.513 262.602 146.165 262.291 151.763 261.519L152.186 268.049C146.482 269.552 140.588 270.21 134.692 270C117.792 270 112.274 260.755 115.415 239.379C118.472 217.241 125.351 209.437 142.336 209.437C147.8 209.267 153.26 209.867 158.556 211.218Z" fill="#58595B"/>
<path d="M185.988 217.58C182.336 217.58 180.808 219.022 180.299 223.093L178.684 234.969H203.397L202.548 241.5H177.75L175.712 256.598C175.204 260.5 176.393 261.857 180.127 261.857H202.802L202.634 268.473C195.33 269.153 186.751 269.152 179.11 269.152C169.852 269.152 166.031 264.402 167.051 256.852L172.06 220.634C172.995 214.187 177.324 210.285 184.968 210.285C193.547 210.285 202.548 210.285 210.192 210.964L209.086 217.58L185.988 217.58Z" fill="#58595B"/>
<path d="M259.874 211.303L258.939 217.411C253.673 217.157 247.983 216.987 242.294 216.987C234.65 216.901 230.915 216.901 229.809 225.214C229.046 230.982 230.404 232.086 235.416 233.867L246.626 237.852C255.459 240.992 257.496 245.741 256.308 254.478C254.524 267.456 248.495 270 234.227 270C228.158 270.004 222.101 269.436 216.139 268.304L217.242 262.027C227.858 262.367 230.998 262.451 234.141 262.451C243.651 262.367 246.795 261.349 247.815 253.63C248.495 247.862 247.135 246.675 242.294 244.978L230.829 240.906C222.591 237.938 220.128 232.679 221.317 224.367C223.185 211.135 230.235 209.438 242.294 209.438C248.208 209.344 254.111 209.971 259.874 211.303Z" fill="#58595B"/>
<path d="M296.025 254.138C295.684 256.938 296.365 258.465 299.848 258.465H319.888L319.634 268.389C312.161 269.153 303.243 269.237 295.007 269.237C286.769 269.237 281.756 264.318 283.031 255.751L289.232 210.455H302.225L296.025 254.138Z" fill="#F05A28"/>
<path d="M328.213 268.983L336.451 210.455H349.445L341.206 268.983H328.213Z" fill="#F05A28"/>
<path d="M386.81 265.675C386.5 266.659 385.876 267.516 385.033 268.113C384.19 268.71 383.174 269.016 382.141 268.983H370.422C369.392 268.975 368.4 268.591 367.634 267.904C366.867 267.216 366.378 266.273 366.259 265.251L357.938 210.455H371.016L375.6 252.527C375.857 254.818 376.026 257.192 376.112 259.398H378.235C378.871 257.04 379.636 254.718 380.526 252.443L397 210.455H410.674L386.81 265.675Z" fill="#F05A28"/>
<path d="M434.626 220.634C431.399 220.634 430.125 221.736 429.699 225.214L428.51 234.036H451.525L450.337 243.196H427.236L425.624 254.477C425.199 257.616 426.219 258.804 429.445 258.804H451.1L450.76 268.389C442.317 269.107 433.842 269.39 425.37 269.236C415.603 269.236 411.356 263.638 412.459 255.157L417.132 221.736C417.29 220.058 417.778 218.428 418.569 216.94C419.36 215.451 420.437 214.134 421.738 213.062C423.04 211.99 424.541 211.186 426.155 210.695C427.768 210.204 429.463 210.036 431.142 210.201C440.155 210.059 449.168 210.37 458.149 211.134L456.535 220.634L434.626 220.634Z" fill="#F05A28"/>
<path d="M86.1435 123.028L85.9666 123.997C93.0881 125.615 98.0753 130.143 100.036 140.658L107.337 175.272H84.5401L77.9522 140.334C76.5256 132.894 73.3215 130.629 66.0176 130.629H43.0442L36.0969 175.272H14.1934L31.4663 63.6647C45.5379 62.371 56.5795 62.2095 75.102 62.2095C101.459 62.2095 117.488 69.9728 113.748 95.6912C111.434 111.058 104.132 121.086 86.1435 123.028ZM67.2644 113.969C82.9366 113.808 88.9938 109.602 91.3077 95.3681C93.2678 82.7519 89.3504 78.8696 74.5683 78.8696L51.0586 79.0311L45.5378 113.969H67.2644Z" fill="#231F20"/>
<path d="M263.361 63.665C269.059 63.665 271.909 66.8999 271.376 71.9143L260.331 175.272H238.605L249.646 80.0021H246.442L213.848 154.569C213.165 156.616 211.806 158.371 209.994 159.547C208.182 160.722 206.024 161.248 203.874 161.038H186.778C184.682 161.22 182.597 160.578 180.968 159.249C179.338 157.92 178.291 156.009 178.05 153.921L167.365 80.0021H163.981L145.815 175.272H124.086L144.746 71.2682C144.803 70.1427 145.095 69.0417 145.603 68.0354C146.111 67.0291 146.824 66.1398 147.695 65.4242C148.567 64.7086 149.579 64.1826 150.665 63.8797C151.752 63.5768 152.89 63.5037 154.007 63.665H176.447C177.448 63.5695 178.459 63.6814 179.416 63.9936C180.372 64.3058 181.254 64.8116 182.006 65.4795C182.758 66.1474 183.365 66.963 183.787 67.8754C184.209 68.7877 184.439 69.7773 184.461 70.7822L193.545 131.276C194.38 136.358 194.856 141.493 194.969 146.642H197.819C199.779 140.982 201.737 136.453 203.874 131.762L230.411 70.1345C231.132 68.1237 232.505 66.4112 234.312 65.2684C236.119 64.1257 238.256 63.6183 240.385 63.8266L263.361 63.665Z" fill="#231F20"/>
</g>
<defs>
<linearGradient id="paint0_linear_1328_54512" x1="316.792" y1="135.829" x2="316.792" y2="33.8522" gradientUnits="userSpaceOnUse">
<stop stop-color="#333333"/>
<stop offset="1"/>
</linearGradient>
<clipPath id="clip0_1328_54512">
<rect width="548" height="270" fill="white"/>
</clipPath>
</defs>
</svg>
