<svg width="986" height="544" viewBox="0 0 986 544" fill="none" xmlns="http://www.w3.org/2000/svg">
<path d="M474.404 323.769L472.607 323.02C475.583 316.191 478.169 309.198 480.352 302.076" fill="#A0A0A4"/>
<path d="M459.841 354.318C457.973 357.547 456.002 360.742 453.921 363.947C451.851 367.107 449.666 370.199 447.477 373.295L443.184 369.913C447.998 364.292 452.468 358.386 456.569 352.227L459.841 354.318Z" fill="#A0A0A4"/>
<path d="M379.585 434.36L374.686 437.099L369.41 439.85C365.92 441.574 362.39 443.228 358.818 444.814L352.729 428.056C356.152 427.045 359.563 425.955 362.96 424.787L367.915 422.975L373.131 420.876L379.585 434.36Z" fill="#A0A0A4"/>
<path d="M325.244 456.364L319.783 457.686L313.802 458.934C309.906 459.681 305.977 460.316 302.038 460.888L300.236 435.125C303.749 435.125 307.258 435.055 310.776 434.889L315.896 434.587L321.49 434.05L325.244 456.364Z" fill="#A0A0A4"/>
<path d="M265.896 462.819L260.269 462.593L254.014 462.148C249.976 461.787 245.957 461.333 241.934 460.787L248.861 427.676C252.156 428.614 255.485 429.493 258.842 430.289L263.683 431.358L269.215 432.369L265.896 462.819Z" fill="#A0A0A4"/>
<path d="M205.914 452.498L200.59 450.696L194.562 448.432C190.727 446.917 186.927 445.311 183.162 443.613L202.538 406.959C205.398 408.706 208.302 410.417 211.252 412.041L215.47 414.31L220.524 416.758L205.914 452.498Z" fill="#A0A0A4"/>
<path d="M150.538 425.047L145.937 421.833L140.698 417.888C137.393 415.326 134.174 412.667 131.043 409.911L164.07 375.373C166.348 377.745 168.67 380.097 171.034 382.428L174.401 385.637L178.613 389.351L150.538 425.047Z" fill="#A0A0A4"/>
<path d="M104.73 382.463L101.288 378.041L97.3641 372.657C94.9384 369.211 92.5963 365.705 90.3379 362.139L135.464 335.636C137.024 338.487 138.646 341.309 140.329 344.102L142.721 347.948L145.861 352.59L104.73 382.463Z" fill="#A0A0A4"/>
<path d="M72.91 327.934L70.8861 322.706L68.6449 316.341C67.2926 312.318 66.0542 308.257 64.9004 304.168L118.277 290.424C119.024 293.575 119.837 296.683 120.731 299.777L122.021 304.057L123.828 309.351L72.91 327.934Z" fill="#A0A0A4"/>
<path d="M58.1718 266.273L57.723 260.426C57.5763 258.15 57.4625 255.945 57.3967 253.865L57.25 247.495L57.3163 241.48L113.284 242.17L113.237 247.353L113.284 252.184L113.435 256.819L113.766 262.144L58.1718 266.273Z" fill="#A0A0A4"/>
<path d="M61.7324 202.783L62.9094 197.302L64.5222 190.744C65.6474 186.643 66.8859 182.566 68.2101 178.536L120.546 194.891C119.677 197.981 118.877 201.112 118.149 204.237L117.18 208.581L116.078 214.086L61.7324 202.783Z" fill="#A0A0A4"/>
<path d="M83.416 143.201L86.2009 138.341L89.6385 132.589C91.8841 129.01 94.2103 125.488 96.6172 122.023L139.956 150.516C138.282 153.317 136.674 156.144 135.133 158.996L133.091 163.015L130.646 168.054L83.416 143.201Z" fill="#A0A0A4"/>
<path d="M121.199 92.8928L125.246 89.0165L130.112 84.5491C133.247 81.7837 136.429 79.0803 139.706 76.5012L170.486 112.111C168.141 114.439 165.81 116.769 163.55 119.171L160.467 122.581L156.788 126.812L121.199 92.8928Z" fill="#A0A0A4"/>
<path d="M171.223 55.8935L176.216 53.3435L182.065 50.5258C185.824 48.803 189.617 47.1769 193.445 45.6475L210.5 82.3369C207.559 83.9774 204.675 85.6959 201.824 87.466L193.223 93.1996L171.223 55.8935Z" fill="#A0A0A4"/>
<path d="M228.982 35.0825L234.51 34.0592L240.775 33.0379C244.794 32.4614 248.822 31.9855 252.86 31.6104L257.909 63.8799C254.572 64.6883 251.256 65.5715 247.961 66.5296L243.309 68.0046L237.985 69.8053L228.982 35.0825Z" fill="#A0A0A4"/>
<path d="M289.201 31.3906L294.799 31.927L300.917 32.6337C304.88 33.187 308.812 33.8228 312.715 34.5413L309.774 58.9591C306.256 58.8337 302.744 58.7826 299.239 58.8057L294.17 58.9427L288.549 59.2143L289.201 31.3906Z" fill="#A0A0A4"/>
<path d="M347.07 44.1021L352.308 46.1462L357.841 48.4697C361.424 50.0627 364.985 51.6746 368.483 53.3978L361.992 68.7657C358.592 67.617 355.179 66.5133 351.732 65.5607L346.672 64.2605L341.197 62.9821L347.07 44.1021Z" fill="#A0A0A4"/>
<path d="M398.379 71.4744C401.358 73.6439 404.407 75.9485 407.505 78.4157C410.493 80.8292 413.415 83.311 416.27 85.861L410.067 93.5807C407.074 91.4722 404.063 89.4396 400.989 87.4777C398.001 85.6131 394.866 83.7408 391.557 81.869L398.379 71.4744Z" fill="#A0A0A4"/>
<path d="M439.997 110.678C444.688 116.413 449.231 122.766 453.378 128.986L449.51 131.726C447.255 128.809 444.952 125.926 442.513 123.158C440.12 120.43 437.609 117.715 434.98 115.011L439.997 110.678Z" fill="#A0A0A4"/>
<path d="M542.86 265.092H524.595L539.025 199.456H511.488L514.287 186.612H587.626L584.68 199.456H557.295L542.86 265.092Z" fill="white"/>
<path d="M595.446 186.612H613.702L596.477 265.092H578.217L595.446 186.612Z" fill="white"/>
<path d="M699.703 214.656L671.428 254.834H651.556L642.133 214.537L627.991 265.092H610.023L632.411 186.612H651.844L664.672 239.757L701.774 186.612H721.798L709.434 265.092H691.169L699.703 214.656Z" fill="white"/>
<path d="M740.224 186.612H758.489L741.265 265.092H722.99L740.224 186.612Z" fill="white"/>
<path d="M787.355 206.877L774.551 265.092H756.73L773.96 186.612H796.788L821.091 246.353L834.197 186.612H851.857L834.632 265.092H811.654L787.355 206.877Z" fill="white"/>
<path d="M851.574 247.769C851.574 245.944 851.774 244.124 852.17 242.343L859.683 208.291C863.059 193.096 872.643 185.431 898.842 185.431C908.927 185.494 918.969 186.762 928.753 189.21L924.928 201.701C915.71 199.811 906.336 198.784 896.927 198.636C883.541 198.636 879.418 201.701 877.361 211.002L870.87 240.345C870.491 242.009 870.296 243.709 870.288 245.415C870.288 250.246 873.234 253.307 884.719 253.307C890.19 253.317 895.653 252.883 901.055 252.012L906.369 228.799H923.58L916.237 261.788C905.373 264.914 894.108 266.425 882.804 266.273C860.416 266.273 851.574 258.852 851.574 247.769Z" fill="white"/>
<path d="M506.084 335.32L508.07 329.669C512.429 330.833 516.912 331.465 521.422 331.552C528.345 331.552 529.526 330.382 530.401 326.496C530.606 325.683 530.728 324.851 530.765 324.012C530.765 321.956 529.148 321.486 522.671 320.136C514.122 318.425 511.621 315.717 511.621 311.533C511.66 310.223 511.83 308.921 512.127 307.645C513.966 299.41 517.295 297.342 530.189 297.342C534.8 297.319 539.398 297.833 543.891 298.874L542.34 304.936C538.093 304.087 533.777 303.638 529.446 303.594C523.04 303.594 521.782 304.301 520.969 308.132C520.766 308.938 520.643 309.762 520.6 310.592C520.6 312.53 522.222 313.185 528.416 314.48C537.257 316.309 539.981 318.366 539.981 322.668C539.931 323.957 539.759 325.239 539.466 326.496C537.697 334.436 534.817 337.74 520.756 337.74C515.767 337.724 510.813 336.907 506.084 335.32Z" fill="#A0A0A4"/>
<path d="M562.874 337.144H553.744L556.325 325.433L546.746 297.935H555.801L562.363 317.773L577.106 297.935H587.409L565.375 325.783L562.874 337.144Z" fill="#A0A0A4"/>
<path d="M580.609 335.32L582.614 329.669C586.966 330.833 591.443 331.466 595.948 331.552C602.87 331.552 604.043 330.382 604.927 326.496C605.135 325.683 605.259 324.851 605.295 324.012C605.295 321.956 603.673 321.486 597.201 320.136C588.652 318.425 586.146 315.717 586.146 311.533C586.189 310.223 586.363 308.92 586.666 307.645C588.501 299.41 591.82 297.342 604.718 297.342C609.328 297.319 613.925 297.833 618.416 298.874L616.87 304.936C612.622 304.087 608.303 303.637 603.971 303.594C597.565 303.594 596.317 304.301 595.493 308.132C595.293 308.938 595.171 309.762 595.13 310.592C595.13 312.53 596.746 313.185 602.94 314.48C611.787 316.309 614.501 318.366 614.501 322.668C614.453 323.957 614.282 325.239 613.991 326.496C612.232 334.436 609.352 337.74 595.281 337.74C590.292 337.724 585.339 336.906 580.609 335.32Z" fill="#A0A0A4"/>
<path d="M637.486 337.144H628.346L635.571 304.352H621.783L623.192 297.935H659.879L658.408 304.352H644.692L637.486 337.144Z" fill="#A0A0A4"/>
<path d="M665.235 297.935H695.378L693.902 304.352H672.971L670.914 313.707H690.285L688.886 320.137H669.514L667.155 330.732H688.072L686.748 337.144H656.625L665.235 297.935Z" fill="#A0A0A4"/>
<path d="M738.011 311.942L723.865 332.022H713.921L709.207 311.89L702.129 337.144H693.141L704.342 297.935H714.063L720.484 324.487L739.042 297.935H749.071L742.877 337.144H733.737L738.011 311.942Z" fill="#A0A0A4"/>
<path d="M750.229 335.32L752.215 329.669C756.565 330.832 761.041 331.465 765.543 331.552C772.47 331.552 773.652 330.383 774.536 326.497C774.745 325.683 774.869 324.851 774.905 324.012C774.905 321.956 773.288 321.486 766.801 320.137C758.253 318.425 755.756 315.717 755.756 311.533C755.795 310.223 755.966 308.92 756.266 307.645C758.111 299.41 761.42 297.342 774.314 297.342C778.924 297.318 783.521 297.832 788.012 298.874L786.466 304.936C782.222 304.087 777.909 303.637 773.581 303.594C767.16 303.594 765.907 304.301 765.104 308.132C764.902 308.938 764.781 309.762 764.744 310.592C764.744 312.531 766.362 313.185 772.541 314.48C781.388 316.309 784.116 318.366 784.116 322.668C784.062 323.957 783.888 325.239 783.596 326.497C781.832 334.436 778.962 337.74 764.886 337.74C759.902 337.724 754.953 336.907 750.229 335.32Z" fill="#A0A0A4"/>
<path d="M263.499 244.678H242.492L234.993 279.294H204.406L228.752 168.441H281.821C311.58 168.441 326.138 177.421 326.138 193.739C326.047 196.031 325.768 198.312 325.306 200.559L322.394 213.883C319.481 227.7 313.24 236.512 295.968 241.338L433.166 417.988L263.499 244.678ZM294.303 202.717C294.649 201.19 294.858 199.635 294.927 198.071C294.927 192.401 290.549 190.07 279.939 190.07H254.558L247.272 223.533H273.499C287.026 223.533 290.549 219.53 292.422 211.049L294.303 202.717Z" fill="url(#paint0_linear_1328_54086)"/>
<path d="M450.779 218.542L416.249 264.822H385.033L373.388 218.541L355.269 279.294H325.104L357.974 168.441H388.783L406.05 240.012L456.609 168.441H487.196L470.982 279.294H441.006L450.779 218.542Z" fill="url(#paint1_linear_1328_54086)"/>
<defs>
<linearGradient id="paint0_linear_1328_54086" x1="318.786" y1="338.612" x2="318.786" y2="234.086" gradientUnits="userSpaceOnUse">
<stop stop-color="#213F7D"/>
<stop offset="1" stop-color="#19B5E9"/>
</linearGradient>
<linearGradient id="paint1_linear_1328_54086" x1="406.15" y1="338.62" x2="406.15" y2="234.089" gradientUnits="userSpaceOnUse">
<stop stop-color="#213F7D"/>
<stop offset="1" stop-color="#19B5E9"/>
</linearGradient>
</defs>
</svg>
